<svg width="20" height="20" viewBox="0 0 20 20" fill="none" xmlns="http://www.w3.org/2000/svg">
<path fill-rule="evenodd" clip-rule="evenodd" d="M1.85039 9.99844C1.85039 5.49732 5.49927 1.84844 10.0004 1.84844C14.5015 1.84844 18.1504 5.49732 18.1504 9.99844C18.1504 14.4996 14.5015 18.1484 10.0004 18.1484C5.49927 18.1484 1.85039 14.4996 1.85039 9.99844ZM10.0004 0.148438C4.56039 0.148438 0.150391 4.55843 0.150391 9.99844C0.150391 15.4384 4.56039 19.8484 10.0004 19.8484C15.4404 19.8484 19.8504 15.4384 19.8504 9.99844C19.8504 4.55843 15.4404 0.148438 10.0004 0.148438ZM10.8504 5.49844C10.8504 5.029 10.4698 4.64844 10.0004 4.64844C9.53095 4.64844 9.15039 5.029 9.15039 5.49844V10.5609C9.15039 10.9153 9.37018 11.2324 9.70194 11.3568L14.2019 13.0443C14.6415 13.2091 15.1314 12.9864 15.2963 12.5469C15.4611 12.1073 15.2384 11.6174 14.7988 11.4526L10.8504 9.97189V5.49844Z" fill="#969696"/>
</svg>
