<svg width="16" height="18" viewBox="0 0 16 18" fill="none" xmlns="http://www.w3.org/2000/svg">
<path fill-rule="evenodd" clip-rule="evenodd" d="M4.69561 0C5.0822 0 5.39561 0.313401 5.39561 0.7V1.19971H10.4004V0.7C10.4004 0.313401 10.7138 0 11.1004 0C11.487 0 11.8004 0.313401 11.8004 0.7V1.23256C13.0052 1.34973 13.9732 1.78026 14.6633 2.52342C15.4736 3.39609 15.8003 4.59247 15.8003 5.8998V12.7C15.8003 14.0073 15.4736 15.2037 14.6633 16.0763C13.8442 16.9584 12.6337 17.4001 11.1002 17.4001H4.70009C3.16664 17.4001 1.95612 16.9584 1.13707 16.0763C0.326732 15.2037 0 14.0073 0 12.7V5.8998C0 4.59247 0.326732 3.39609 1.13707 2.52342C1.82631 1.78115 2.79277 1.35076 3.99561 1.23298V0.7C3.99561 0.313401 4.30901 0 4.69561 0ZM3.99561 3.10006V2.64117C3.12982 2.74954 2.54769 3.06174 2.16298 3.47605C1.70806 3.96596 1.4399 4.69433 1.40411 5.67139H14.3962C14.3604 4.69433 14.0923 3.96596 13.6374 3.47605C13.252 3.06105 12.6686 2.7485 11.8004 2.64063V3.10006C11.8004 3.48665 11.487 3.80006 11.1004 3.80006C10.7138 3.80006 10.4004 3.48665 10.4004 3.10006V2.59971H5.39561V3.10006C5.39561 3.48665 5.0822 3.80006 4.69561 3.80006C4.30901 3.80006 3.99561 3.48665 3.99561 3.10006ZM1.4 12.7V7.07139H14.4003V12.7C14.4003 13.7927 14.1271 14.5963 13.6374 15.1237C13.1564 15.6417 12.3669 16 11.1002 16H4.70009C3.43348 16 2.64395 15.6417 2.16298 15.1237C1.67328 14.5963 1.4 13.7927 1.4 12.7ZM4.93467 9.16211C4.43761 9.16211 4.03467 9.56505 4.03467 10.0621C4.03467 10.5592 4.43761 10.9621 4.93467 10.9621H4.94069C5.43774 10.9621 5.84069 10.5592 5.84069 10.0621C5.84069 9.56505 5.43774 9.16211 4.94069 9.16211H4.93467ZM7.89487 9.16211C7.39782 9.16211 6.99487 9.56505 6.99487 10.0621C6.99487 10.5592 7.39782 10.9621 7.89487 10.9621H7.90091C8.39796 10.9621 8.80091 10.5592 8.80091 10.0621C8.80091 9.56505 8.39796 9.16211 7.90091 9.16211H7.89487ZM9.95508 10.0621C9.95508 9.56505 10.358 9.16211 10.8551 9.16211H10.8611C11.3582 9.16211 11.7611 9.56505 11.7611 10.0621C11.7611 10.5592 11.3582 10.9621 10.8611 10.9621H10.8551C10.358 10.9621 9.95508 10.5592 9.95508 10.0621ZM9.95508 12.4615C9.95508 11.9645 10.358 11.5615 10.8551 11.5615H10.8611C11.3582 11.5615 11.7611 11.9645 11.7611 12.4615C11.7611 12.9586 11.3582 13.3615 10.8611 13.3615H10.8551C10.358 13.3615 9.95508 12.9586 9.95508 12.4615ZM6.99487 12.4615C6.99487 11.9645 7.39782 11.5615 7.89487 11.5615H7.90091C8.39796 11.5615 8.80091 11.9645 8.80091 12.4615C8.80091 12.9586 8.39796 13.3615 7.90091 13.3615H7.89487C7.39782 13.3615 6.99487 12.9586 6.99487 12.4615ZM4.03467 12.4615C4.03467 11.9645 4.43761 11.5615 4.93467 11.5615H4.94069C5.43774 11.5615 5.84069 11.9645 5.84069 12.4615C5.84069 12.9586 5.43774 13.3615 4.94069 13.3615H4.93467C4.43761 13.3615 4.03467 12.9586 4.03467 12.4615Z" fill="#969696"/>
</svg>
