<svg width="160" height="160" viewBox="0 0 160 160" fill="none" xmlns="http://www.w3.org/2000/svg">
<path d="M49.9993 103.47C50.3564 103.602 50.7136 103.734 51.0708 103.867C56.172 105.756 61.3011 107.568 66.4428 109.344C71.7733 111.185 76.7739 113.167 82.3299 113.915C88.4734 114.743 94.0145 116.73 100.347 115.953C105.727 115.292 111.229 112.662 114.275 108.036C117.563 103.044 122.994 99.7809 126.455 94.7527C127.824 92.7625 128.731 90.653 128.951 88.2361C129.138 86.1753 128.564 84.3737 126.756 86.7909C124.053 90.4042 120.773 93.8425 117.277 96.8319C113.899 99.7202 110.892 102.929 107.38 105.616C103.84 108.325 100.029 111.141 95.5852 111.487C92.3744 111.738 89.2262 110.654 86.1878 109.587C74.8633 105.607 63.5389 101.627 52.2144 97.647C51.2344 97.3026 50.2108 96.953 49.18 97.0811C47.5701 97.2811 46.2953 98.6394 45.7149 100.154C45.1345 101.669 45.1182 103.333 45.1094 104.955" fill="#F9C7C7"/>
<path d="M70.3301 28.0823C73.0757 26.0178 76.5146 25.0092 79.9429 24.7913C83.03 24.595 86.121 25.0084 89.1349 25.6555C91.8997 26.2491 94.8173 26.4945 97.6232 27.0174C107.244 28.8107 116.751 31.2172 126.065 34.2211C129.173 35.2236 132.463 36.4381 134.364 39.0938C136.004 41.3848 136.013 43.77 135.993 46.4607C135.968 49.6776 135.943 52.8945 135.918 56.1114C135.869 62.4415 135.82 68.7715 135.771 75.1016C135.754 77.3334 135.715 79.6582 134.701 81.6466C133.584 83.8365 131.405 84.9453 129.011 84.5194" fill="#F9C7C7"/>
<path d="M129.41 83.3713C129.885 82.4604 129.963 81.4015 130.027 80.3764C130.609 71.1085 130.847 61.8192 130.74 52.5337C130.701 49.1567 130.532 45.5276 128.481 42.845C126.588 40.3701 123.477 39.2144 120.523 38.2248C109.964 34.6883 99.2107 31.7355 88.3272 29.3834C84.2031 28.4921 80.0869 28.0714 75.9519 27.393C72.395 26.8095 69.1221 27.7585 68.0289 31.5348C67.4887 33.4009 67.511 35.3777 67.5612 37.3197C67.7184 43.4077 68.1071 49.4897 68.7258 55.5486C68.9888 58.1237 68.8093 61.0873 70.0784 63.4335C71.4488 65.9669 74.5678 66.9487 77.1238 67.9169C86.6375 71.5209 96.2218 74.9343 105.821 78.3033C110.551 79.9634 115.285 81.6118 120.016 83.2683C122.503 84.1388 127.658 86.7333 129.41 83.3713Z" fill="white"/>
<path d="M129.803 83.5965C130.58 82.0503 130.497 80.1724 130.595 78.4858C130.704 76.5981 130.798 74.7096 130.879 72.8205C131.04 69.0423 131.143 65.2616 131.19 61.4803C131.213 59.5896 131.222 57.6987 131.217 55.8079C131.212 54.0619 131.223 52.3116 131.145 50.5669C131.008 47.5226 130.477 44.3361 128.364 41.9958C126.356 39.7718 123.411 38.7128 120.644 37.7853C117.151 36.6143 113.636 35.5089 110.102 34.4672C103.034 32.3837 95.89 30.5583 88.6889 28.9959C85.0478 28.2059 81.3502 27.7605 77.6694 27.2043C76.2415 26.9885 74.82 26.6911 73.3685 26.8073C72.2058 26.9004 71.0403 27.2112 70.0633 27.867C67.488 29.5957 67.0898 32.9075 67.086 35.7663C67.0812 39.4894 67.3067 43.2277 67.5518 46.9415C67.6753 48.8145 67.8208 50.6861 67.9882 52.5557C68.1424 54.2772 68.326 55.9932 68.4295 57.7187C68.524 59.2936 68.631 60.9097 69.1485 62.4126C69.6205 63.7836 70.4241 64.9112 71.5779 65.7885C72.6636 66.6141 73.9241 67.1689 75.1868 67.6639C76.6823 68.2501 78.193 68.8008 79.6971 69.3644C83.1914 70.6736 86.6946 71.959 90.2038 73.2279C97.2455 75.7742 104.311 78.2539 111.38 80.7243C113.154 81.3445 114.929 81.9642 116.704 82.5844C118.111 83.0764 119.528 83.5475 120.92 84.0848C122.922 84.8577 125.215 85.8334 127.404 85.3942C128.447 85.1847 129.302 84.5328 129.803 83.5965C130.077 83.083 129.296 82.6253 129.021 83.1398C127.953 85.1384 125.452 84.6496 123.658 84.1054C122.647 83.7987 121.668 83.4019 120.681 83.028C119.173 82.4571 117.638 81.954 116.116 81.4223C109.221 79.0133 102.325 76.6083 95.4472 74.1524C88.8096 71.7824 82.1692 69.4002 75.5956 66.8566C74.3779 66.3855 73.1524 65.8526 72.1049 65.0603C70.9988 64.2236 70.2836 63.1017 69.8957 61.7766C69.4701 60.3229 69.3988 58.7999 69.3095 57.2971C69.208 55.5881 69.0101 53.8869 68.86 52.1818C68.5384 48.5251 68.3004 44.8611 68.1465 41.1936C68.0707 39.3868 67.9887 37.575 67.991 35.7663C67.9931 34.1533 68.0912 32.468 68.7049 30.956C69.1283 29.9129 69.8538 29.016 70.8344 28.4532C71.7972 27.9006 72.9155 27.6939 74.0154 27.6842C75.5304 27.6708 77.0398 28.0232 78.5326 28.2404C80.3295 28.5019 82.1291 28.7453 83.9226 29.0293C87.4608 29.5896 90.9524 30.4014 94.4355 31.2314C97.9399 32.0664 101.429 32.9641 104.902 33.9237C108.334 34.8723 111.75 35.8816 115.148 36.9508C116.866 37.4916 118.579 38.0476 120.287 38.6191C121.671 39.0819 123.056 39.5595 124.365 40.2089C125.64 40.8415 126.842 41.6347 127.789 42.7084C128.764 43.8135 129.369 45.1792 129.726 46.5983C130.09 48.0482 130.208 49.5444 130.258 51.0343C130.315 52.7502 130.31 54.4695 130.313 56.1861C130.326 63.5603 130.122 70.9349 129.701 78.2971C129.651 79.1545 129.608 80.013 129.542 80.8694C129.483 81.6465 129.375 82.4356 129.021 83.1398C128.76 83.6588 129.541 84.1176 129.803 83.5965Z" fill="black"/>
<path d="M70.558 28.474C73.4427 26.3229 77.014 25.3451 80.5767 25.2129C82.6079 25.1375 84.6428 25.3131 86.6465 25.6417C88.5838 25.9594 90.4935 26.4022 92.4377 26.6853C94.3804 26.9681 96.3224 27.2295 98.2518 27.5957C100.25 27.975 102.243 28.3807 104.23 28.8127C108.121 29.6588 111.991 30.6059 115.833 31.6526C119.614 32.6826 123.395 33.7702 127.103 35.0426C130.117 36.077 133.275 37.5381 134.711 40.5746C135.417 42.0653 135.531 43.7335 135.542 45.3577C135.557 47.3771 135.517 49.3981 135.501 51.4175C135.47 55.5145 135.438 59.6115 135.406 63.7085C135.374 67.815 135.383 71.9243 135.307 76.0302C135.274 77.8154 135.16 79.6851 134.361 81.316C133.72 82.6256 132.612 83.6523 131.181 84.0152C130.512 84.1848 129.81 84.1992 129.13 84.084C128.561 83.9874 128.316 84.8594 128.89 84.9568C130.391 85.2112 131.949 84.9598 133.206 84.0675C134.59 83.0853 135.405 81.5673 135.801 79.9436C136.26 78.0655 136.215 76.105 136.23 74.1858L136.28 67.7684C136.313 63.5353 136.345 59.3022 136.378 55.0691C136.395 52.939 136.411 50.8089 136.428 48.6787C136.442 46.8067 136.553 44.8989 136.314 43.0366C136.089 41.2828 135.453 39.6642 134.315 38.2982C133.265 37.0372 131.863 36.1061 130.397 35.3966C128.85 34.6483 127.213 34.1133 125.579 33.5915C123.642 32.9727 121.697 32.3797 119.744 31.8126C115.757 30.6549 111.738 29.6053 107.694 28.6652C103.672 27.7301 99.6155 26.8226 95.529 26.2183C93.5153 25.9205 91.4902 25.6838 89.4955 25.2708C87.5098 24.8598 85.5175 24.5039 83.4919 24.3617C79.7044 24.0959 75.8044 24.5727 72.379 26.2877C71.5794 26.688 70.818 27.158 70.1012 27.6925C69.9038 27.8397 69.8083 28.0823 69.9389 28.3117C70.0494 28.506 70.3625 28.6198 70.558 28.474Z" fill="black"/>
<path d="M63.0891 69.5446C64.2293 68.5398 65.3451 67.4684 66.7115 66.7722C67.3387 66.4526 68.0304 66.2166 68.7315 66.1764C69.4852 66.1332 70.2381 66.2375 70.975 66.3878C71.8204 66.5603 72.6501 66.7974 73.4837 67.0178C74.0473 67.1668 74.2878 66.2941 73.7243 66.1451C72.1692 65.734 70.5739 65.2311 68.9481 65.2632C67.277 65.2962 65.7988 66.1347 64.5115 67.1351C63.7958 67.6914 63.1287 68.3058 62.4492 68.9047C62.2657 69.0663 62.284 69.3795 62.4492 69.5446C62.6313 69.7268 62.9052 69.7067 63.0891 69.5446Z" fill="black"/>
<path d="M82.6798 107.177C79.2675 106.603 75.991 105.44 72.6958 104.419C69.3289 103.375 66.0011 102.206 62.7251 100.905C60.905 100.182 59.061 99.511 57.2969 98.6562C57.077 98.5497 56.8078 98.5962 56.6777 98.8186C56.5617 99.017 56.6192 99.3307 56.8401 99.4377C58.4317 100.209 60.0867 100.836 61.7321 101.481C63.3832 102.127 65.0335 102.773 66.703 103.371C70.017 104.56 73.3829 105.615 76.751 106.639C78.6206 107.207 80.5103 107.725 82.4392 108.049C82.68 108.09 82.9265 107.986 82.9959 107.733C83.0555 107.516 82.9222 107.217 82.6798 107.177Z" fill="black"/>
<path d="M48.7532 63.6399C51.8982 59.3381 55.0433 55.0363 58.1883 50.7345C53.3799 48.6538 48.5716 46.573 43.7632 44.4922L44.8868 50.1803L35.4863 53.9124L38.481 61.5531L47.3316 58.8986L48.7532 63.6399Z" fill="#F1633D"/>
<path d="M128.503 83.9593C126.838 85.9437 125.129 87.8912 123.377 89.7989C122.49 90.7652 121.592 91.7213 120.682 92.6671C119.784 93.6014 118.89 94.549 117.949 95.4406C116.949 96.3885 115.813 97.1763 114.779 98.0854C114.596 98.2468 114.614 98.5603 114.779 98.7253C114.962 98.9076 115.235 98.8872 115.419 98.7253C116.334 97.9208 117.328 97.2117 118.239 96.4022C119.198 95.5494 120.077 94.5956 120.969 93.6735C122.782 91.7985 124.553 89.8824 126.279 87.9271C127.248 86.8301 128.202 85.7205 129.143 84.5993C129.299 84.4122 129.326 84.1428 129.143 83.9593C128.981 83.798 128.66 83.7712 128.503 83.9593Z" fill="black"/>
<path d="M82.9476 113.998C81.8547 113.782 80.7612 113.573 79.6795 113.305C78.6199 113.042 77.5703 112.741 76.5285 112.415C74.4022 111.75 72.3096 110.983 70.2174 110.218C65.9509 108.659 61.6449 107.21 57.3684 105.679C54.9464 104.811 52.5308 103.927 50.1183 103.033C49.8891 102.948 49.6224 103.128 49.5616 103.349C49.4921 103.602 49.6476 103.821 49.8777 103.906C54.1724 105.496 58.4808 107.048 62.8041 108.558C64.9327 109.302 67.0667 110.03 69.1855 110.802C71.2783 111.565 73.3666 112.342 75.4851 113.031C76.67 113.417 77.8643 113.775 79.0715 114.085C80.2738 114.393 81.4898 114.63 82.707 114.871C82.9466 114.918 83.1956 114.802 83.2637 114.554C83.3248 114.332 83.1886 114.045 82.9476 113.998Z" fill="black"/>
<path d="M113.281 116.286C113.117 116.722 116.724 120.824 117.315 121.474C118.95 123.274 121.789 123.884 123.938 124.832C126.458 125.944 129.03 127.977 129.043 130.73C129.055 133.319 126.723 135.373 124.276 136.219C121.83 137.066 119.175 137.077 116.662 137.698C114.441 138.248 112.361 139.267 110.153 139.869C106.077 140.981 101.914 139.183 98.2028 137.498C94.5466 135.838 91.2755 133.32 88.7728 130.177C85.9124 126.584 84.0737 122.198 83.4647 117.649C82.8682 113.193 83.3247 108.587 82.4756 104.176C82.2193 102.844 81.8105 101.42 82.3578 100.178C82.985 98.7563 84.7872 98.0925 86.2935 98.4757C91.0363 99.6824 90.0444 105.094 91.4107 108.613C91.3566 108.473 92.0664 107.053 92.166 106.799C92.4807 105.995 92.718 105.172 92.89 104.325C93.2353 102.623 93.3248 100.871 93.1714 99.1421C92.9592 96.751 92.3169 93.5412 89.4684 93.1035C89.2796 93.0746 89.0886 93.0599 88.8978 93.0563C87.256 93.0254 85.7429 93.8631 84.2725 94.594C82.8021 95.3249 81.1465 95.9846 79.5557 95.5775C77.9649 95.1704 76.7276 93.2011 77.6324 91.8308C78.3436 90.7536 79.8387 90.64 81.0488 90.1905C83.445 89.3003 84.717 86.969 86.8405 85.7144C89.5672 84.1034 93.0402 85.5894 95.6122 86.7775C95.8766 86.8996 96.0725 87.0485 96.3053 87.2212C96.789 87.58 96.7843 87.5545 97.3915 87.4356C98.1575 87.2857 98.9552 87.2834 99.7256 87.4013C101.304 87.6431 102.811 88.4124 103.879 89.6083C104.119 89.2746 104.564 89.1364 104.973 89.1719C105.382 89.2073 105.763 89.3905 106.12 89.5936C107.58 90.4237 108.814 91.6461 109.658 93.0977C109.446 92.7332 110.781 92.9499 110.857 92.98C111.31 93.16 111.733 93.3966 112.122 93.6907C112.906 94.2836 113.536 95.076 113.995 95.942C115.576 98.9252 115.606 102.707 115.432 105.997C115.246 109.51 114.523 112.994 113.281 116.286Z" fill="white"/>
<path d="M128.367 85.5396C129.086 86.7862 128.961 88.2728 128.562 89.6354C128.132 91.1041 127.394 92.4724 126.573 93.7568C124.672 96.7305 122.172 99.2558 119.621 101.671C118.122 103.09 116.595 104.477 115.117 105.917C114.699 106.324 115.339 106.963 115.756 106.556C118.454 103.928 121.324 101.472 123.867 98.6873C125.077 97.362 126.212 95.9612 127.196 94.4587C128.062 93.1357 128.832 91.724 129.328 90.2176C129.877 88.553 130.056 86.6574 129.148 85.0828C128.857 84.5784 128.075 85.0336 128.367 85.5396Z" fill="black"/>
<path d="M49.1441 63.8648C51.5973 60.5094 54.0504 57.154 56.5035 53.7986C57.1954 52.8522 57.8873 51.9058 58.5792 50.9594C58.7118 50.7781 58.6255 50.4305 58.4169 50.3403C54.6703 48.7189 50.9237 47.0976 47.1771 45.4763C46.1153 45.0168 45.0536 44.5574 43.9918 44.0979C43.6257 43.9395 43.246 44.1982 43.3271 44.609C43.6551 46.2697 43.9832 47.9305 44.3113 49.5913C44.3577 49.8265 44.4042 50.0618 44.4507 50.2971C44.556 50.1116 44.6614 49.926 44.7667 49.7405C43.7051 50.1619 42.6435 50.5834 41.5819 51.0048C39.8975 51.6736 38.213 52.3423 36.5285 53.0111C36.1411 53.1649 35.7537 53.3187 35.3663 53.4725C35.1578 53.5552 34.9532 53.7817 35.0502 54.0291C35.3867 54.8877 35.7232 55.7463 36.0597 56.6049C36.5969 57.9756 37.1342 59.3463 37.6714 60.717C37.7959 61.0346 37.9204 61.3522 38.0449 61.6699C38.1325 61.8935 38.347 62.0623 38.6015 61.9859C39.5998 61.6865 40.598 61.3871 41.5962 61.0877C43.1856 60.611 44.775 60.1343 46.3644 59.6576C46.727 59.5488 47.0895 59.4401 47.4521 59.3314C47.2666 59.226 47.081 59.1207 46.8955 59.0153C47.3104 60.3992 47.7253 61.7831 48.1403 63.1671C48.1992 63.3636 48.2581 63.5601 48.317 63.7566C48.4839 64.3132 49.3577 64.0761 49.1898 63.5161C48.7748 62.1321 48.3599 60.7482 47.945 59.3643L47.7682 58.7747C47.6992 58.5445 47.4506 58.3869 47.2115 58.4586C46.2133 58.758 45.215 59.0574 44.2168 59.3568C42.6274 59.8335 41.038 60.3103 39.4486 60.787C39.0861 60.8957 38.7235 61.0045 38.3609 61.1132C38.5465 61.2186 38.732 61.3239 38.9176 61.4293C38.5811 60.5707 38.2446 59.7121 37.9081 58.8535C37.3708 57.4828 36.8336 56.1121 36.2964 54.7414C36.1719 54.4238 36.0474 54.1062 35.9229 53.7885L35.6068 54.3452C36.6684 53.9237 37.73 53.5023 38.7916 53.0808C40.4761 52.4121 42.1606 51.7433 43.8451 51.0746C44.2325 50.9208 44.6199 50.767 45.0073 50.6132C45.248 50.5176 45.3754 50.3195 45.3234 50.0565C44.9954 48.3958 44.6673 46.735 44.3392 45.0742C44.2928 44.8389 44.2463 44.6036 44.1998 44.3684L43.5351 44.8794C47.2817 46.5007 51.0283 48.122 54.7749 49.7434C55.8366 50.2028 56.8984 50.6623 57.9601 51.1218L57.7978 50.5026C55.3446 53.858 52.8915 57.2134 50.4384 60.5688C49.7465 61.5152 49.0546 62.4616 48.3627 63.408C48.2183 63.6054 48.3293 63.9127 48.525 64.0271C48.7543 64.1612 48.9995 64.0626 49.1441 63.8648Z" fill="black"/>
<path d="M56.9106 46.7793C58.0508 47.4088 58.9538 48.386 59.5129 49.5611C60.0927 50.7797 60.212 52.1946 59.8966 53.502C59.7101 54.2753 59.3809 54.9936 58.922 55.643C58.7808 55.8427 58.8862 56.1463 59.0843 56.2621C59.3108 56.3946 59.562 56.2999 59.7034 56.0998C60.6089 54.8186 61.0594 53.2082 60.958 51.6426C60.8599 50.1279 60.2574 48.6999 59.273 47.5484C58.7391 46.9238 58.0865 46.3949 57.3674 45.9978C56.8571 45.7161 56.4001 46.4974 56.9106 46.7793Z" fill="black"/>
<path d="M57.2297 41.7208C59.1642 42.5145 60.8594 43.9218 62.0272 45.6525C63.3224 47.572 63.9426 49.8593 63.8321 52.1705C63.7681 53.5084 63.4554 54.844 62.8999 56.064C62.7987 56.2863 62.8363 56.551 63.0622 56.6832C63.2566 56.7968 63.5796 56.7443 63.6814 56.5208C64.7674 54.1355 65.0357 51.4264 64.4266 48.8746C63.8781 46.5762 62.583 44.4742 60.8108 42.9157C59.8168 42.0416 58.6939 41.3501 57.4703 40.8481C57.2441 40.7553 56.9728 40.9487 56.9136 41.1641C56.8423 41.4237 57.0026 41.6276 57.2297 41.7208Z" fill="black"/>
<path d="M110.812 92.2199L112.757 90.461L110.331 89.6522C109.782 89.4694 109.618 88.7733 110.027 88.3645L112.409 85.9821C112.622 85.7691 112.936 85.698 113.22 85.7994C114.735 86.3405 118.64 87.6082 120.48 88.3384C120.835 88.4789 120.928 88.9341 120.662 89.207L113.882 96.1621" fill="#F1633D"/>
<path d="M111.131 92.5368C111.78 91.9505 112.428 91.3642 113.077 90.7779C113.343 90.5372 113.183 90.1234 112.877 90.0216C112.143 89.7769 111.409 89.5322 110.675 89.2874C110.62 89.2692 110.566 89.2497 110.511 89.2328C110.501 89.2299 110.425 89.2032 110.466 89.221C110.353 89.172 110.315 89.1251 110.271 89.0307C110.304 89.101 110.246 88.8662 110.252 88.9567C110.25 88.9269 110.25 88.8963 110.252 88.8664C110.247 88.9486 110.261 88.8272 110.267 88.8076C110.282 88.758 110.307 88.7234 110.352 88.6759C110.376 88.6504 110.402 88.6259 110.427 88.6009L110.745 88.2824C111.368 87.6602 111.99 87.0379 112.612 86.4157C112.678 86.3502 112.743 86.2693 112.827 86.2303C113.005 86.1467 113.259 86.2897 113.459 86.3593C114.031 86.5584 114.605 86.752 115.178 86.9462C116.53 87.4041 117.883 87.8585 119.225 88.3448C119.51 88.448 119.794 88.5528 120.077 88.6613C120.134 88.6835 120.192 88.7059 120.25 88.7284C120.242 88.7252 120.363 88.7737 120.311 88.7522C120.262 88.7319 120.373 88.8062 120.327 88.7602C120.359 88.7917 120.357 88.8199 120.356 88.7956C120.361 88.9447 120.356 88.7068 120.362 88.8578C120.359 88.7902 120.33 88.9026 120.36 88.855C120.341 88.885 120.34 88.8852 120.299 88.9278C120.25 88.9784 120.201 89.0284 120.152 89.0787C119.006 90.2539 117.861 91.4291 116.715 92.6042C115.682 93.6641 114.636 94.7133 113.615 95.7844C113.597 95.8028 113.579 95.8208 113.561 95.839C113.155 96.2563 113.794 96.8969 114.201 96.479C115.151 95.5049 116.101 94.5308 117.05 93.5567C118.285 92.2898 119.52 91.023 120.755 89.7562C120.843 89.6668 120.935 89.5804 121.016 89.4856C121.304 89.1499 121.354 88.6542 121.1 88.282C120.878 87.9546 120.487 87.852 120.135 87.719C118.765 87.2017 117.375 86.7364 115.988 86.2664C115.346 86.0486 114.703 85.8321 114.062 85.6117C113.821 85.529 113.582 85.4381 113.34 85.3599C112.893 85.2157 112.426 85.3427 112.088 85.6595C111.502 86.21 110.948 86.8 110.379 87.3689C110.157 87.5905 109.929 87.8073 109.713 88.0345C109.177 88.5985 109.246 89.5306 109.925 89.9554C110.22 90.1397 110.617 90.2211 110.943 90.3296L112.365 90.8036L112.637 90.8943L112.437 90.138C111.788 90.7243 111.14 91.3106 110.491 91.8969C110.058 92.2884 110.7 92.9268 111.131 92.5368Z" fill="black"/>
<path d="M91.8725 108.655C92.9759 106.451 93.571 104.024 93.6781 101.565C93.725 100.488 93.6745 99.408 93.5366 98.3393C93.4276 97.4947 93.2731 96.6517 92.9825 95.8486C92.697 95.0594 92.2926 94.2944 91.6816 93.7074C91.0075 93.0597 90.1444 92.7056 89.2189 92.6224C86.6764 92.3938 84.6203 94.1823 82.3281 94.9336C81.3254 95.2622 80.0882 95.4461 79.1549 94.9387C78.7998 94.7457 78.4668 94.4592 78.2427 94.1454C78.1187 93.9717 78.0047 93.7838 77.924 93.5856C77.9398 93.6244 77.8939 93.4988 77.8881 93.4816C77.8722 93.4342 77.8575 93.3864 77.8444 93.3382C77.8313 93.2903 77.8197 93.2422 77.8096 93.1937C77.8052 93.1725 77.7842 93.0409 77.7909 93.096C77.7793 92.9999 77.7761 92.902 77.779 92.8053C77.7831 92.6661 77.7802 92.6795 77.8124 92.543C77.8611 92.3365 77.9113 92.2248 78.038 92.0377C78.2638 91.7042 78.6311 91.4787 79.0215 91.3096C79.8863 90.9349 80.8965 90.7936 81.7735 90.3707C83.6033 89.4882 84.7746 87.7751 86.3661 86.5785C86.7355 86.3008 87.1495 86.0227 87.5675 85.857C88.0055 85.6835 88.4802 85.5758 88.9381 85.5337C89.959 85.4397 90.9858 85.5743 91.9733 85.8352C93.9359 86.3537 95.6776 87.4027 97.15 88.7982C98.6592 90.2287 99.9621 92.0237 100.494 94.0589C100.615 94.5218 100.687 94.9654 100.709 95.4398C100.72 95.684 100.909 95.8923 101.162 95.8923C101.398 95.8923 101.626 95.6851 101.614 95.4398C101.512 93.2342 100.431 91.2019 99.0582 89.5217C97.7121 87.8741 95.9758 86.4423 94.0145 85.5937C92.0973 84.7642 89.7874 84.245 87.7308 84.8467C85.7223 85.4343 84.4168 87.2333 82.8893 88.5381C82.1392 89.1789 81.3149 89.6576 80.3677 89.9394C79.4147 90.2229 78.3679 90.4329 77.6227 91.1416C76.9012 91.8279 76.6992 92.8679 77.0404 93.7934C77.3854 94.7291 78.1203 95.498 79.0415 95.8804C80.1773 96.3518 81.506 96.1646 82.6383 95.7832C83.8441 95.377 84.9407 94.728 86.096 94.2065C87.1265 93.7412 88.3093 93.3516 89.4526 93.5588C89.8931 93.6386 90.2146 93.7561 90.5743 93.9809C90.7655 94.1004 90.8272 94.148 90.9919 94.3003C91.137 94.4346 91.2723 94.5808 91.3942 94.7366C91.3538 94.685 91.4378 94.7963 91.4479 94.8105C91.4748 94.8481 91.5011 94.8861 91.5269 94.9245C91.583 95.0083 91.6365 95.0939 91.6873 95.1811C91.7906 95.3581 91.8833 95.5413 91.9669 95.7284C92.0071 95.8185 92.0139 95.8355 92.0591 95.9532C92.0997 96.0588 92.1378 96.1654 92.1737 96.2728C92.2409 96.4739 92.3001 96.6776 92.353 96.8829C92.5724 97.735 92.6658 98.4688 92.7331 99.3207C92.9268 101.772 92.6285 104.255 91.7916 106.571C91.5905 107.127 91.3559 107.669 91.0911 108.198C90.9817 108.416 91.033 108.688 91.2534 108.817C91.4541 108.934 91.7627 108.874 91.8725 108.655Z" fill="black"/>
<path d="M96.5951 87.6711C97.5655 87.7159 98.5391 87.6677 99.508 87.7509C99.9581 87.7895 100.405 87.8639 100.837 88.0004C101.265 88.1356 101.658 88.3526 102.026 88.6064C103.543 89.6505 104.678 91.3378 105.17 93.1007C105.463 94.1529 105.554 95.2727 105.404 96.3567C105.37 96.5985 105.463 96.8427 105.72 96.9134C105.932 96.9715 106.243 96.841 106.277 96.5973C106.574 94.4489 106.125 92.238 104.941 90.4105C104.384 89.5513 103.698 88.7582 102.89 88.1267C102.067 87.4837 101.162 87.0678 100.126 86.9179C98.9544 86.7485 97.7731 86.8204 96.5951 86.766C96.3507 86.7547 96.1426 86.9821 96.1426 87.2186C96.1426 87.473 96.35 87.6598 96.5951 87.6711Z" fill="black"/>
<path d="M103.662 89.4716C104.168 89.4832 104.545 89.5274 105.032 89.6513C105.502 89.7707 105.839 89.9008 106.238 90.1142C106.429 90.2165 106.614 90.3296 106.792 90.4526C106.984 90.5851 107.055 90.6398 107.244 90.8051C107.406 90.9465 107.56 91.0964 107.706 91.2534C107.777 91.3295 107.846 91.4073 107.914 91.4866C107.947 91.5264 107.981 91.5665 108.014 91.607C108.032 91.6302 108.051 91.6535 108.069 91.677C108.116 91.736 108.035 91.6317 108.081 91.6917C108.351 92.0469 108.587 92.4275 108.791 92.8237C109.008 93.244 109.134 93.5477 109.286 93.998C109.432 94.4315 109.548 94.875 109.637 95.3237C109.731 95.8043 109.774 96.1354 109.809 96.6227C109.845 97.1442 109.848 97.6682 109.814 98.19C109.799 98.4393 109.775 98.6883 109.743 98.936C109.751 98.8722 109.73 99.0188 109.726 99.0455C109.716 99.114 109.705 99.1824 109.693 99.2507C109.671 99.3787 109.647 99.5062 109.62 99.6334C109.571 99.8725 109.69 100.122 109.936 100.19C110.161 100.252 110.443 100.114 110.493 99.874C110.892 97.9516 110.82 95.9062 110.245 94.026C109.687 92.2013 108.611 90.4791 106.949 89.4772C105.957 88.8793 104.814 88.593 103.662 88.5666C103.079 88.5532 103.079 89.4583 103.662 89.4716Z" fill="black"/>
<path d="M109.423 92.6688C110.087 92.7431 110.82 93.0853 111.354 93.5228C111.986 94.0409 112.479 94.6444 112.905 95.3241C113.808 96.7644 114.295 98.3318 114.628 100.012C115.437 104.094 115.114 108.364 114.087 112.376C113.51 114.631 112.704 116.827 111.679 118.917C111.572 119.136 111.62 119.407 111.841 119.536C112.041 119.653 112.353 119.594 112.461 119.374C114.384 115.452 115.603 111.163 115.91 106.8C116.063 104.631 115.972 102.445 115.6 100.302C115.287 98.5018 114.782 96.7275 113.853 95.1422C112.882 93.4851 111.417 91.9869 109.423 91.7637C109.18 91.7365 108.971 91.9912 108.971 92.2162C108.971 92.4835 109.179 92.6415 109.423 92.6688Z" fill="black"/>
<path d="M92.5221 110.866C92.482 110.788 92.4432 110.71 92.4064 110.631C92.3904 110.596 92.3748 110.561 92.3593 110.527C92.3489 110.503 92.3388 110.48 92.3287 110.457C92.3453 110.495 92.3465 110.5 92.3297 110.458C92.2605 110.288 92.1969 110.115 92.1389 109.941C92.0167 109.574 91.9172 109.199 91.8306 108.822C91.644 108.009 91.5156 107.183 91.387 106.359C91.1248 104.679 90.8765 102.972 90.1991 101.399C89.8897 100.68 89.4698 100.001 88.9175 99.4424C88.3173 98.8358 87.5702 98.4001 86.7599 98.1393C85.7179 97.804 84.6117 97.8617 83.618 98.3261C82.5401 98.8299 81.8311 99.8185 81.6756 100.993C81.4934 102.369 81.968 103.755 82.1805 105.102C82.4052 106.527 82.5009 107.969 82.5614 109.409C82.6833 112.313 82.6514 115.231 83.0775 118.114C83.4597 120.701 84.243 123.22 85.3693 125.579C86.4754 127.895 87.9337 130.043 89.6811 131.924C91.3407 133.71 93.2641 135.258 95.3539 136.513C97.4347 137.762 99.6964 138.727 102.042 139.353C102.617 139.506 103.197 139.638 103.782 139.75C104.022 139.796 104.27 139.682 104.339 139.434C104.399 139.212 104.264 138.923 104.022 138.877C101.722 138.436 99.4883 137.674 97.4006 136.612C95.3128 135.55 93.3709 134.206 91.6524 132.613C89.8729 130.964 88.3464 129.063 87.1257 126.966C85.8609 124.793 84.9292 122.438 84.3546 119.991C83.7324 117.341 83.6234 114.626 83.5469 111.916C83.4667 109.074 83.3629 106.248 82.7914 103.455C82.5596 102.322 82.2847 101.009 82.9862 99.9816C83.4911 99.2423 84.4578 98.843 85.3389 98.8229C85.8087 98.8122 86.2202 98.9032 86.674 99.0643C86.8902 99.1411 86.9518 99.1669 87.163 99.2741C87.3341 99.361 87.5001 99.4579 87.6593 99.565C87.6997 99.5921 87.7396 99.6199 87.779 99.6483C87.7947 99.6596 87.8776 99.721 87.8494 99.6994C87.8258 99.6814 87.9109 99.7487 87.9323 99.7664C87.969 99.7968 88.0053 99.8278 88.0411 99.8593C88.1782 99.9799 88.3081 100.109 88.4304 100.244C88.4937 100.314 88.5546 100.386 88.6141 100.46C88.6301 100.479 88.688 100.555 88.643 100.496C88.6756 100.539 88.7076 100.583 88.7389 100.627C88.8453 100.777 88.9442 100.932 89.0363 101.091C89.1298 101.253 89.2162 101.418 89.2963 101.587C89.3354 101.669 89.3727 101.753 89.4092 101.836C89.4383 101.903 89.3852 101.778 89.4132 101.845C89.4214 101.865 89.4294 101.884 89.4375 101.904C89.4562 101.95 89.4745 101.996 89.4925 102.043C89.6371 102.416 89.7574 102.799 89.8617 103.185C90.0776 103.985 90.2259 104.802 90.3593 105.619C90.6154 107.189 90.7832 108.805 91.3113 110.314C91.432 110.659 91.5733 110.998 91.7406 111.323C92.0074 111.841 92.7887 111.384 92.5221 110.866Z" fill="black"/>
<path d="M112.992 116.543C114.287 118.391 115.819 120.067 117.551 121.512C119.284 122.957 121.195 124.184 123.242 125.134C124.407 125.674 125.61 126.131 126.843 126.492C127.403 126.656 127.642 125.783 127.084 125.619C125.002 125.01 123.012 124.124 121.16 122.994C119.3 121.858 117.593 120.482 116.088 118.906C115.247 118.025 114.473 117.084 113.774 116.086C113.634 115.886 113.378 115.793 113.155 115.924C112.957 116.039 112.851 116.342 112.992 116.543Z" fill="black"/>
<path d="M125.602 56.8337C119.789 55.7939 114.068 54.2468 108.523 52.2157V47.9922C114.068 50.0233 119.789 51.5704 125.602 52.6102V56.8337Z" fill="#60DEA1"/>
<path d="M125.722 56.3993C121.192 55.5873 116.719 54.4709 112.34 53.0555C111.1 52.6545 109.867 52.2293 108.643 51.7813L108.975 52.2177V47.9941L108.403 48.4305C112.724 50.0116 117.15 51.3018 121.645 52.2858C122.919 52.5646 124.198 52.8184 125.481 53.0484L125.149 52.6121V56.8356C125.149 57.418 126.054 57.419 126.054 56.8356V52.6121C126.054 52.4287 125.914 52.2103 125.722 52.1757C121.192 51.3637 116.719 50.2474 112.34 48.832C111.1 48.431 109.867 48.0057 108.643 47.5578C108.363 47.4551 108.07 47.7198 108.07 47.9941V52.2177C108.07 52.4302 108.213 52.5848 108.403 52.654C112.724 54.2351 117.15 55.5254 121.645 56.5094C122.919 56.7881 124.198 57.0419 125.481 57.272C125.721 57.3151 125.969 57.2067 126.038 56.9559C126.098 56.7369 125.963 56.4426 125.722 56.3993Z" fill="black"/>
<path d="M108.523 59.4579V55.2344C108.523 55.2344 115.172 57.8788 118.792 58.1805V62.4041C118.792 62.4041 111.529 61.6404 108.523 59.4579Z" fill="#F9C7C7"/>
<path d="M108.975 59.4583V55.2348L108.403 55.6712C109.223 55.9973 110.054 56.2984 110.887 56.5906C112.56 57.1776 114.255 57.7218 115.979 58.1393C116.904 58.3632 117.843 58.5523 118.792 58.6334L118.339 58.1809V62.4045L118.792 61.9519C118.727 61.9452 118.663 61.9376 118.599 61.93C118.521 61.9208 118.443 61.9112 118.365 61.9013C118.32 61.8956 118.274 61.8897 118.228 61.8838C118.177 61.8771 118.015 61.8545 118.158 61.8747C117.526 61.7858 116.895 61.6901 116.267 61.5782C114.539 61.2705 112.81 60.8801 111.159 60.2767C110.331 59.9741 109.509 59.6141 108.751 59.0676C108.553 58.9246 108.247 59.0333 108.132 59.2299C107.999 59.4581 108.096 59.7057 108.294 59.8491C108.978 60.3422 109.754 60.697 110.535 61.0044C111.393 61.3418 112.279 61.6082 113.171 61.8378C114.68 62.2259 116.216 62.5114 117.759 62.7256C118.102 62.7734 118.446 62.8206 118.792 62.857C119.035 62.8827 119.244 62.6288 119.244 62.4044V58.1809C119.244 57.9209 119.036 57.7492 118.792 57.7284C118.702 57.7207 118.613 57.7122 118.524 57.7024C118.482 57.6978 118.439 57.6929 118.397 57.6878C118.373 57.6849 118.245 57.6686 118.323 57.6791C118.128 57.6531 117.934 57.6218 117.74 57.5879C117.314 57.5135 116.89 57.4241 116.469 57.3258C115.584 57.1193 114.708 56.874 113.839 56.6094C112.377 56.1643 110.931 55.6645 109.501 55.1274C109.214 55.0198 108.928 54.9115 108.643 54.7984C108.364 54.6874 108.07 54.9671 108.07 55.2347V59.4583C108.07 60.0406 108.975 60.0417 108.975 59.4583Z" fill="black"/>
<path d="M125.602 71.3142C119.789 70.2744 114.068 68.7273 108.523 66.6962V62.4727C114.068 64.5037 119.789 66.0508 125.602 67.0906V71.3142Z" fill="#60DEA1"/>
<path d="M125.722 70.8798C121.192 70.0678 116.719 68.9514 112.34 67.536C111.1 67.135 109.867 66.7097 108.643 66.2618L108.975 66.6981V62.4746L108.403 62.9109C112.724 64.4921 117.15 65.7823 121.645 66.7663C122.919 67.0451 124.198 67.2989 125.481 67.5289L125.149 67.0926V71.3161C125.149 71.8985 126.054 71.8994 126.054 71.3161V67.0926C126.054 66.9091 125.914 66.6908 125.722 66.6562C121.192 65.8442 116.719 64.7278 112.34 63.3125C111.1 62.9115 109.867 62.4862 108.643 62.0382C108.363 61.9356 108.07 62.2003 108.07 62.4746V66.6981C108.07 66.9107 108.213 67.0653 108.403 67.1345C112.724 68.7156 117.15 70.0059 121.645 70.9898C122.919 71.2686 124.198 71.5224 125.481 71.7525C125.721 71.7955 125.969 71.6872 126.038 71.4364C126.098 71.2173 125.963 70.9231 125.722 70.8798Z" fill="black"/>
<path d="M54.8282 34.7623C54.857 35.552 55.2527 36.2824 56.1945 36.6681C57.9454 37.3849 59.7054 35.4175 59.4742 33.7488C58.9821 30.1974 54.719 31.7627 54.8282 34.7623Z" fill="#60DEA1"/>
<path d="M54.3745 34.7602C54.4068 35.4563 54.673 36.134 55.2134 36.5929C55.8126 37.1017 56.5785 37.3537 57.3594 37.2327C58.7653 37.0149 59.816 35.6224 59.9367 34.2585C60.0289 33.216 59.5265 31.941 58.5379 31.4753C57.6829 31.0725 56.6723 31.2605 55.9091 31.7817C54.9293 32.4508 54.3394 33.5694 54.3745 34.7602C54.3917 35.3413 55.2968 35.3438 55.2796 34.7602C55.2762 34.6475 55.2775 34.5349 55.2858 34.4223C55.288 34.3932 55.3048 34.2453 55.2918 34.3383C55.2993 34.285 55.3086 34.2318 55.3192 34.179C55.3399 34.0754 55.3662 33.9728 55.398 33.872C55.4136 33.8224 55.431 33.7735 55.4487 33.7246C55.4575 33.7004 55.4672 33.6763 55.4768 33.6525C55.4529 33.7119 55.467 33.6735 55.4845 33.637C55.5724 33.4543 55.6726 33.2831 55.7896 33.1175C55.8522 33.0289 55.7618 33.1445 55.8325 33.063C55.8607 33.0306 55.8879 32.9975 55.9166 32.9656C55.9857 32.8891 56.0587 32.816 56.1351 32.7468C56.1707 32.7146 56.2076 32.6841 56.2441 32.6528C56.3276 32.581 56.2038 32.677 56.2936 32.6143C56.3755 32.557 56.4575 32.5009 56.544 32.4506C56.619 32.4069 56.6963 32.3691 56.7738 32.3304C56.8749 32.2799 56.7172 32.3479 56.8224 32.3089C56.8698 32.2914 56.9169 32.2734 56.9651 32.2577C57.0439 32.2321 57.1241 32.2103 57.2051 32.1927C57.2478 32.1834 57.2908 32.1768 57.3336 32.1685C57.3967 32.1562 57.2458 32.177 57.3096 32.1715C57.3363 32.1691 57.363 32.1658 57.3897 32.1637C57.4743 32.1572 57.5594 32.1556 57.6442 32.1596C57.6808 32.1614 57.7174 32.1662 57.754 32.168C57.817 32.171 57.6652 32.1514 57.727 32.1639C57.7525 32.1691 57.7784 32.1724 57.8039 32.1775C57.8858 32.1939 57.965 32.2176 58.0443 32.2435C58.0641 32.25 58.0832 32.2585 58.1028 32.2654C58.0899 32.2608 58.0121 32.2195 58.0811 32.2568C58.1181 32.2768 58.1567 32.2935 58.1935 32.3139C58.2306 32.3346 58.267 32.3567 58.3024 32.3802C58.3347 32.4015 58.4168 32.4696 58.3415 32.4052C58.4142 32.4674 58.4841 32.5307 58.5481 32.602C58.5635 32.6193 58.5779 32.6375 58.5935 32.6546C58.637 32.7025 58.5499 32.5935 58.5885 32.6467C58.6134 32.6811 58.6381 32.7156 58.6614 32.7512C58.7213 32.8429 58.7715 32.9393 58.8195 33.0376C58.8638 33.1283 58.8181 33.0219 58.8535 33.1198C58.8733 33.1743 58.8924 33.2287 58.9096 33.284C58.9487 33.4102 58.9798 33.5389 59.0043 33.6687C59.0403 33.8594 59.0517 34.1605 59.0209 34.3438C58.9752 34.6162 58.8926 34.8581 58.7752 35.0821C58.5255 35.5583 58.1658 35.943 57.6911 36.1848C57.4641 36.3004 57.1957 36.3676 56.931 36.365C56.6387 36.362 56.3428 36.2643 56.062 36.0961C55.8086 35.9443 55.615 35.7487 55.4799 35.5076C55.3528 35.2808 55.2913 35.013 55.2796 34.7602C55.2682 34.5161 55.0797 34.3077 54.8271 34.3077C54.5908 34.3077 54.3632 34.5149 54.3745 34.7602Z" fill="black"/>
<path d="M65.7078 25.8826C67.6536 23.6769 70.3917 22.2325 73.3044 21.8331C74.1319 21.7196 74.9741 21.7013 75.8066 21.762C76.0507 21.7798 76.2591 21.5413 76.2591 21.3095C76.2591 21.0498 76.0514 20.8748 75.8066 20.857C72.7096 20.6312 69.5328 21.5815 67.0451 23.4351C66.3261 23.9707 65.6612 24.5701 65.0678 25.2427C64.9062 25.4258 64.8874 25.7022 65.0678 25.8826C65.2326 26.0474 65.5454 26.0666 65.7078 25.8826Z" fill="black"/>
<path d="M67.4119 20.9941C68.29 20.6948 69.168 20.3955 70.046 20.0962C70.2696 20.02 70.4405 19.7818 70.3621 19.5396C70.2903 19.3177 70.0453 19.1418 69.8054 19.2235C68.9274 19.5228 68.0494 19.8221 67.1713 20.1214C66.9478 20.1976 66.7769 20.4358 66.8553 20.678C66.9271 20.8999 67.172 21.0758 67.4119 20.9941Z" fill="black"/>
<path d="M134.968 34.1273C136.924 32.3672 138.879 30.6071 140.835 28.847C141.269 28.4565 140.627 27.8181 140.195 28.207C138.239 29.9671 136.284 31.7272 134.328 33.4873C133.894 33.8778 134.536 34.5162 134.968 34.1273Z" fill="black"/>
<path d="M138.514 39.4408C140.372 38.5119 142.23 37.583 144.087 36.654C144.306 36.5447 144.367 36.236 144.25 36.0349C144.12 35.8124 143.85 35.7628 143.631 35.8725C141.773 36.8015 139.915 37.7304 138.057 38.6594C137.838 38.7686 137.777 39.0774 137.895 39.2785C138.025 39.501 138.294 39.5505 138.514 39.4408Z" fill="black"/>
<path d="M138.903 47.1269L142.864 48.0061C143.102 48.059 143.353 47.934 143.42 47.69C143.483 47.4631 143.344 47.1866 143.104 47.1334L139.144 46.2542C138.905 46.2013 138.654 46.3263 138.587 46.5703C138.525 46.7972 138.664 47.0737 138.903 47.1269Z" fill="black"/>
<path d="M138.703 51.8467C138.997 52.1401 139.29 52.4334 139.583 52.7268C139.665 52.8088 139.787 52.8593 139.903 52.8593C140.014 52.8593 140.147 52.81 140.223 52.7268C140.302 52.6405 140.361 52.5273 140.356 52.4068C140.35 52.2868 140.31 52.1734 140.223 52.0868C139.93 51.7935 139.637 51.5001 139.343 51.2068C139.261 51.1247 139.139 51.0742 139.023 51.0742C138.912 51.0742 138.78 51.1235 138.703 51.2068C138.624 51.293 138.565 51.4062 138.571 51.5267C138.576 51.6468 138.617 51.7601 138.703 51.8467Z" fill="black"/>
<path d="M130.959 29.4046C130.764 30.4802 130.568 31.5559 130.373 32.6315C130.329 32.8717 130.438 33.1193 130.689 33.1881C130.908 33.2484 131.201 33.1138 131.245 32.8721C131.441 31.7964 131.637 30.7208 131.832 29.6452C131.876 29.405 131.766 29.1574 131.516 29.0886C131.296 29.0282 131.003 29.1629 130.959 29.4046Z" fill="black"/>
<path d="M83.0739 78.8297C83.9483 78.0493 84.953 77.0442 85.6793 76.2484C85.8455 76.0663 86.1076 76.0096 86.3359 76.1028L90.6683 77.8715C91.0529 78.0286 91.1604 78.521 90.8759 78.8237C90.0465 79.7059 88.9725 80.7535 88.1209 81.4707C87.9547 81.6106 87.7234 81.6432 87.5223 81.5611L83.2456 79.8151C82.8411 79.65 82.748 79.1205 83.0739 78.8297Z" fill="#F1633D"/>
<path d="M83.3949 79.1477C84.245 78.3871 85.0585 77.5826 85.8345 76.7466C85.9742 76.596 86.0268 76.4691 86.2166 76.5373C86.2394 76.5454 86.2615 76.5558 86.284 76.5648C86.4349 76.625 86.5849 76.6876 86.7353 76.749C87.8252 77.194 88.9152 77.639 90.0051 78.0839L90.4711 78.2742C90.4964 78.2845 90.5226 78.2937 90.5474 78.3053C90.4331 78.2518 90.5017 78.2835 90.5312 78.3063C90.4782 78.2654 90.5844 78.3687 90.5415 78.308C90.5454 78.3134 90.6026 78.4387 90.5761 78.3666C90.5871 78.3965 90.5842 78.4347 90.5923 78.4012C90.5915 78.4043 90.5428 78.5335 90.5747 78.4719C90.5177 78.5822 90.5915 78.4591 90.5349 78.525C90.4573 78.6155 90.37 78.6993 90.2874 78.7853C90.0817 78.9994 89.8736 79.2112 89.6633 79.4208C89.2556 79.8271 88.8402 80.2258 88.4138 80.6124C88.2347 80.7747 88.0513 80.9811 87.8469 81.1107C87.7554 81.1688 87.7437 81.1591 87.6332 81.1186C87.5229 81.0781 87.4148 81.0294 87.306 80.985L85.7993 80.3699L83.9151 79.6007C83.7488 79.5327 83.5821 79.4655 83.416 79.3969C83.4019 79.3911 83.3874 79.386 83.3736 79.3796C83.4567 79.4182 83.3938 79.3893 83.3621 79.3552C83.4089 79.4054 83.3286 79.2965 83.3266 79.2929C83.3387 79.3146 83.3284 79.2863 83.3306 79.2527C83.3251 79.3355 83.3435 79.2014 83.3476 79.1903C83.335 79.2248 83.3774 79.1647 83.3949 79.1477C83.8136 78.7414 83.1733 78.1017 82.7549 78.5077C82.3338 78.9164 82.3134 79.6236 82.7568 80.0284C82.9156 80.1734 83.1115 80.2435 83.3061 80.3229L84.8431 80.9504L86.7209 81.717C87.1762 81.9029 87.6482 82.1824 88.1477 81.9727C88.4192 81.8586 88.6421 81.62 88.8601 81.4262C89.0851 81.2262 89.3066 81.0221 89.5256 80.8155C89.988 80.379 90.4398 79.9311 90.8811 79.4733C91.0906 79.2559 91.3301 79.0475 91.4322 78.7551C91.5266 78.4847 91.4983 78.1861 91.3698 77.9317C91.2286 77.6523 90.9768 77.5097 90.7006 77.3969C89.5898 76.9434 88.479 76.49 87.3683 76.0365C87.0385 75.9018 86.6912 75.7073 86.3408 75.6303C85.6207 75.4721 85.2045 76.1039 84.7698 76.5559C84.3332 77.0098 83.8862 77.454 83.4288 77.8871C83.2071 78.0971 82.9825 78.3041 82.7549 78.5077C82.32 78.8969 82.9618 79.5352 83.3949 79.1477Z" fill="black"/>
<path d="M76.4372 84.2594C77.3116 83.479 78.3163 82.4739 79.0426 81.6781C79.2088 81.496 79.4709 81.4393 79.6992 81.5325L84.0316 83.3012C84.4162 83.4583 84.5237 83.9507 84.2391 84.2533C83.4098 85.1356 82.3358 86.1832 81.4842 86.9004C81.318 87.0403 81.0867 87.0729 80.8856 86.9908L76.6089 85.2448C76.2044 85.0797 76.1113 84.5502 76.4372 84.2594Z" fill="#F1633D"/>
<path d="M76.7562 84.5774C77.6063 83.8168 78.4198 83.0123 79.1958 82.1763C79.3356 82.0257 79.3881 81.8988 79.5779 81.967C79.6007 81.9751 79.6228 81.9855 79.6453 81.9945C79.7962 82.0547 79.9462 82.1173 80.0966 82.1787C81.1865 82.6237 82.2765 83.0686 83.3664 83.5136L83.8325 83.7039C83.8578 83.7142 83.884 83.7234 83.9087 83.735C83.7945 83.6815 83.863 83.7132 83.8926 83.736C83.8395 83.6951 83.9457 83.7984 83.9029 83.7377C83.9067 83.7431 83.9639 83.8684 83.9374 83.7963C83.9484 83.8262 83.9456 83.8644 83.9536 83.8309C83.9529 83.834 83.9042 83.9632 83.936 83.9016C83.879 84.0119 83.9529 83.8888 83.8963 83.9547C83.8186 84.0452 83.7313 84.129 83.6487 84.215C83.443 84.4291 83.2349 84.6409 83.0246 84.8505C82.6169 85.2568 82.2015 85.6555 81.7751 86.0421C81.596 86.2044 81.4126 86.4108 81.2083 86.5404C81.1167 86.5985 81.105 86.5888 80.9945 86.5483C80.8842 86.5077 80.7762 86.4591 80.6674 86.4147L79.1607 85.7996L77.2764 85.0304C77.1101 84.9624 76.9434 84.8952 76.7773 84.8266C76.7632 84.8208 76.7487 84.8157 76.7349 84.8092C76.818 84.8478 76.7552 84.819 76.7234 84.7849C76.7702 84.8351 76.6899 84.7262 76.6879 84.7226C76.7 84.7443 76.6897 84.716 76.6919 84.6824C76.6865 84.7652 76.7049 84.6311 76.7089 84.62C76.6964 84.6545 76.7387 84.5944 76.7562 84.5774C77.175 84.1711 76.5347 83.5314 76.1163 83.9374C75.6952 84.3461 75.6747 85.0533 76.1181 85.4581C76.277 85.603 76.4729 85.6732 76.6674 85.7526L78.2045 86.3801L80.0822 87.1467C80.5375 87.3326 81.0096 87.6121 81.509 87.4023C81.7805 87.2883 82.0034 87.0497 82.2214 86.8559C82.4464 86.6559 82.6679 86.4518 82.8869 86.2452C83.3494 85.8087 83.8011 85.3608 84.2424 84.903C84.452 84.6856 84.6914 84.4772 84.7935 84.1848C84.8879 83.9144 84.8596 83.6158 84.7311 83.3613C84.59 83.082 84.3381 82.9394 84.0619 82.8266C82.9511 82.3731 81.8404 81.9197 80.7296 81.4662C80.3998 81.3315 80.0525 81.1369 79.7021 81.06C78.9821 80.9018 78.5658 81.5335 78.1311 81.9855C77.6945 82.4395 77.2475 82.8837 76.7901 83.3168C76.5684 83.5268 76.3439 83.7338 76.1163 83.9374C75.6813 84.3266 76.3231 84.9649 76.7562 84.5774Z" fill="black"/>
<path d="M92.2302 82.1695C93.1046 81.3892 94.1093 80.3841 94.8356 79.5883C95.0018 79.4061 95.2638 79.3495 95.4921 79.4427L99.8246 81.2114C100.209 81.3684 100.317 81.8608 100.032 82.1635C99.2027 83.0458 98.1288 84.0934 97.2771 84.8105C97.111 84.9505 96.8797 84.9831 96.6785 84.9009L92.4018 83.155C91.9974 82.9899 91.9043 82.4604 92.2302 82.1695Z" fill="#F1633D"/>
<path d="M92.5512 82.4915C93.4013 81.7309 94.2147 80.9264 94.9907 80.0904C95.1305 79.9398 95.183 79.8128 95.3728 79.881C95.3956 79.8892 95.4178 79.8996 95.4403 79.9085C95.5911 79.9687 95.7411 80.0314 95.8915 80.0928L99.1614 81.4277L99.6274 81.6179C99.6527 81.6282 99.6789 81.6374 99.7036 81.649C99.5894 81.5955 99.6579 81.6272 99.6875 81.65C99.6345 81.6092 99.7406 81.7124 99.6978 81.6517C99.7016 81.6571 99.7589 81.7825 99.7323 81.7104C99.7433 81.7403 99.7405 81.7785 99.7485 81.7449C99.7478 81.748 99.6991 81.8773 99.7309 81.8157C99.674 81.926 99.7478 81.8029 99.6912 81.8688C99.6135 81.9592 99.5262 82.0431 99.4436 82.129C99.2379 82.3431 99.0298 82.5549 98.8195 82.7645C98.4119 83.1708 97.9964 83.5696 97.57 83.9562C97.391 84.1185 97.2075 84.3249 97.0032 84.4545C96.9116 84.5125 96.8999 84.5029 96.7895 84.4623C96.6791 84.4218 96.5711 84.3732 96.4623 84.3288L94.9556 83.7136L93.0714 82.9444C92.905 82.8765 92.7383 82.8093 92.5722 82.7406C92.5582 82.7348 92.5436 82.7297 92.5298 82.7233C92.6129 82.7619 92.5501 82.733 92.5184 82.699C92.5651 82.7492 92.4848 82.6403 92.4828 82.6367C92.4949 82.6584 92.4846 82.6301 92.4869 82.5965C92.4814 82.6792 92.4998 82.5452 92.5038 82.5341C92.4913 82.5685 92.5336 82.5085 92.5512 82.4915C92.9699 82.0851 92.3296 81.4455 91.9112 81.8515C91.4901 82.2602 91.4696 82.9673 91.9131 83.3721C92.0719 83.5171 92.2678 83.5872 92.4624 83.6667C92.9747 83.8759 93.4871 84.085 93.9994 84.2942L95.8771 85.0608C96.3325 85.2467 96.8045 85.5261 97.3039 85.3164C97.5755 85.2024 97.7983 84.9638 98.0163 84.77C98.2414 84.5699 98.4629 84.3659 98.6819 84.1592C99.1443 83.7228 99.596 83.2749 100.037 82.8171C100.247 82.5996 100.486 82.3912 100.588 82.0988C100.683 81.8284 100.655 81.5298 100.526 81.2754C100.385 80.9961 100.133 80.8534 99.8568 80.7407L96.5245 79.3802C96.1947 79.2456 95.8474 79.051 95.4971 78.9741C94.777 78.8159 94.3607 79.4476 93.926 79.8996C93.4894 80.3536 93.0424 80.7977 92.5851 81.2308C92.3633 81.4408 92.1388 81.6479 91.9112 81.8515C91.4762 82.2407 92.118 82.879 92.5512 82.4915Z" fill="black"/>
<path d="M101.281 85.1851C102.155 84.4048 103.16 83.3997 103.886 82.6039C104.053 82.4218 104.315 82.3651 104.543 82.4583L108.875 84.227C109.26 84.384 109.367 84.8764 109.083 85.1791C108.254 86.0614 107.18 87.109 106.328 87.8261C106.162 87.9661 105.93 87.9987 105.729 87.9166L101.453 86.1706C101.048 86.0055 100.955 85.476 101.281 85.1851Z" fill="#F1633D"/>
<path d="M101.602 85.5071C102.452 84.7465 103.266 83.942 104.041 83.106C104.181 82.9554 104.234 82.8285 104.424 82.8966C104.446 82.9048 104.469 82.9152 104.491 82.9242C104.642 82.9844 104.792 83.047 104.942 83.1084C106.032 83.5534 107.122 83.9983 108.212 84.4433L108.678 84.6335C108.703 84.6439 108.73 84.6531 108.754 84.6647C108.64 84.6112 108.709 84.6429 108.738 84.6657C108.685 84.6248 108.791 84.7281 108.749 84.6673C108.752 84.6728 108.81 84.7981 108.783 84.726C108.794 84.7559 108.791 84.7941 108.799 84.7606C108.799 84.7636 108.75 84.8929 108.782 84.8313C108.725 84.9416 108.799 84.8185 108.742 84.8844C108.664 84.9748 108.577 85.0587 108.494 85.1446C108.289 85.3588 108.081 85.5706 107.87 85.7802C107.463 86.1864 107.047 86.5852 106.621 86.9718C106.442 87.1341 106.258 87.3405 106.054 87.4701C105.962 87.5281 105.951 87.5185 105.84 87.4779C105.73 87.4374 105.622 87.3888 105.513 87.3444L104.006 86.7293L102.122 85.96C101.956 85.8921 101.789 85.8249 101.623 85.7563C101.609 85.7505 101.594 85.7453 101.581 85.7389C101.664 85.7775 101.601 85.7486 101.569 85.7146C101.616 85.7648 101.536 85.6559 101.534 85.6523C101.546 85.674 101.535 85.6457 101.538 85.6121C101.532 85.6949 101.551 85.5608 101.555 85.5497C101.542 85.5842 101.584 85.5241 101.602 85.5071C102.021 85.1007 101.38 84.4611 100.962 84.8671C100.541 85.2758 100.52 85.9829 100.964 86.3877C101.123 86.5327 101.319 86.6029 101.513 86.6823L103.05 87.3098L104.928 88.0764C105.383 88.2623 105.855 88.5418 106.355 88.332C106.626 88.218 106.849 87.9794 107.067 87.7856C107.292 87.5856 107.514 87.3815 107.733 87.1748C108.195 86.7384 108.647 86.2905 109.088 85.8327C109.298 85.6153 109.537 85.4069 109.639 85.1145C109.734 84.844 109.705 84.5455 109.577 84.291C109.436 84.0117 109.184 83.869 108.908 83.7563C107.797 83.3028 106.686 82.8493 105.575 82.3959C105.245 82.2612 104.898 82.0666 104.548 81.9897C103.828 81.8315 103.411 82.4632 102.977 82.9152C102.54 83.3692 102.093 83.8134 101.636 84.2465C101.414 84.4565 101.19 84.6635 100.962 84.8671C100.527 85.2563 101.169 85.8946 101.602 85.5071Z" fill="black"/>
<path d="M68.0974 90.6148C68.9718 89.8345 69.9765 88.8294 70.7027 88.0336C70.869 87.8514 71.131 87.7948 71.3593 87.888L75.6918 89.6567C76.0764 89.8137 76.1838 90.3061 75.8993 90.6088C75.0699 91.4911 73.9959 92.5387 73.1443 93.2558C72.9781 93.3958 72.7469 93.4284 72.5457 93.3462L68.269 91.6003C67.8646 91.4352 67.7715 90.9057 68.0974 90.6148Z" fill="#F1633D"/>
<path d="M68.4164 90.9368C69.2665 90.1762 70.08 89.3717 70.856 88.5357C70.9957 88.3851 71.0482 88.2581 71.2381 88.3263C71.2609 88.3345 71.283 88.3449 71.3055 88.3538C71.4564 88.414 71.6064 88.4767 71.7568 88.5381C72.8467 88.983 73.9366 89.428 75.0266 89.873L75.4926 90.0632C75.5179 90.0735 75.5441 90.0828 75.5688 90.0944C75.4546 90.0408 75.5232 90.0726 75.5527 90.0953C75.4997 90.0545 75.6059 90.1578 75.563 90.097C75.5668 90.1025 75.6241 90.2278 75.5976 90.1557C75.6086 90.1856 75.6057 90.2238 75.6138 90.1902C75.613 90.1933 75.5643 90.3226 75.5961 90.261C75.5392 90.3713 75.613 90.2482 75.5564 90.3141C75.4788 90.4045 75.3914 90.4884 75.3089 90.5743C75.1032 90.7885 74.895 91.0002 74.6848 91.2098C74.2771 91.6161 73.8617 92.0149 73.4352 92.4015C73.2562 92.5638 73.0728 92.7702 72.8684 92.8998C72.7769 92.9578 72.7652 92.9482 72.6547 92.9076C72.5444 92.8671 72.4363 92.8185 72.3275 92.7741L70.8208 92.159L68.9366 91.3897C68.7702 91.3218 68.6036 91.2546 68.4375 91.186C68.4234 91.1801 68.4088 91.175 68.395 91.1686C68.4781 91.2072 68.4153 91.1783 68.3836 91.1443C68.4304 91.1945 68.3501 91.0856 68.3481 91.082C68.3602 91.1037 68.3499 91.0754 68.3521 91.0418C68.3466 91.1246 68.365 90.9905 68.369 90.9794C68.3565 91.0139 68.3989 90.9538 68.4164 90.9368C68.8351 90.5304 68.1948 89.8908 67.7764 90.2968C67.3553 90.7055 67.3349 91.4126 67.7783 91.8174C67.9371 91.9624 68.133 92.0326 68.3276 92.112L69.8646 92.7395L71.7424 93.5061C72.1977 93.692 72.6697 93.9715 73.1692 93.7617C73.4407 93.6477 73.6636 93.4091 73.8816 93.2153C74.1066 93.0153 74.3281 92.8112 74.5471 92.6045C75.0095 92.1681 75.4613 91.7202 75.9026 91.2624C76.1121 91.045 76.3516 90.8365 76.4537 90.5441C76.5481 90.2737 76.5198 89.9752 76.3912 89.7207C76.2501 89.4414 75.9982 89.2987 75.722 89.186C74.6113 88.7325 73.5005 88.279 72.3898 87.8256C72.0599 87.6909 71.7126 87.4963 71.3623 87.4194C70.6422 87.2612 70.2259 87.8929 69.7912 88.3449C69.3546 88.7989 68.9076 89.2431 68.4503 89.6762C68.2286 89.8862 68.004 90.0932 67.7764 90.2968C67.3415 90.686 67.9833 91.3243 68.4164 90.9368Z" fill="black"/>
<path d="M77.5687 104.048L58.9219 97.2701C60.0089 96.3994 62.8117 94.2092 63.7324 93.1641C63.7324 93.1641 76.1699 97.4888 80.5113 98.9983C81.2422 99.2524 81.5109 100.143 81.0466 100.762L78.8734 103.66C78.5714 104.062 78.0417 104.22 77.5687 104.048Z" fill="#F1633D"/>
<path d="M77.6903 103.61C77.0716 103.385 76.453 103.16 75.8343 102.935C74.3488 102.395 72.8633 101.855 71.3778 101.315C69.5872 100.664 67.7965 100.013 66.0059 99.3626C64.4475 98.7961 62.8891 98.2296 61.3307 97.6631L59.8021 97.1075C59.5621 97.0203 59.3212 96.9136 59.0755 96.8434C59.0647 96.8403 59.054 96.8356 59.0434 96.8317L59.2431 97.5881C60.5811 96.5168 61.9404 95.4654 63.2102 94.3125C63.5021 94.0475 63.7917 93.7772 64.0536 93.482L63.6133 93.5984C64.3916 93.8696 65.1704 94.1398 65.9489 94.4106C67.738 95.0327 69.5272 95.6548 71.3164 96.2769C73.2966 96.9654 75.2767 97.654 77.2569 98.3425C78.0676 98.6244 78.8783 98.9062 79.689 99.1881C79.851 99.2444 80.013 99.3008 80.175 99.3571C80.386 99.4304 80.5093 99.4663 80.6498 99.612C80.774 99.7408 80.8333 99.9326 80.8232 100.14C80.8195 100.218 80.8356 100.084 80.8221 100.163C80.8165 100.194 80.8081 100.226 80.8002 100.257C80.7815 100.331 80.7905 100.311 80.7539 100.379C80.7223 100.438 80.6857 100.492 80.6467 100.546C80.2595 101.077 79.8573 101.598 79.4628 102.124L78.7544 103.069L78.5439 103.349C78.5268 103.372 78.5101 103.395 78.4925 103.418C78.4896 103.421 78.4871 103.425 78.4842 103.429C78.5695 103.323 78.4187 103.492 78.3934 103.513C78.1804 103.683 77.9347 103.691 77.6903 103.61C77.4585 103.532 77.1959 103.699 77.1336 103.926C77.0658 104.173 77.2171 104.405 77.4497 104.482C78.1422 104.714 78.8442 104.441 79.274 103.875C79.42 103.682 79.5639 103.488 79.7089 103.295L81.2157 101.286C81.3828 101.063 81.5464 100.859 81.6426 100.591C81.8635 99.9769 81.6531 99.2486 81.1452 98.8423C80.7895 98.5577 80.3085 98.4472 79.8831 98.2992C79.4864 98.1613 79.0897 98.0234 78.6929 97.8854C76.7167 97.1983 74.7405 96.5111 72.7643 95.824C70.8189 95.1476 68.8736 94.4711 66.9282 93.7947C66.2481 93.5582 65.5679 93.3217 64.8877 93.0852C64.5587 92.9708 64.231 92.8414 63.8973 92.7408C63.8827 92.7364 63.8684 92.7307 63.854 92.7257C63.7111 92.6759 63.5137 92.7293 63.4137 92.8421C62.898 93.4234 62.2927 93.9302 61.7018 94.4321C60.9896 95.0371 60.2624 95.6244 59.5322 96.2075C59.2228 96.4546 58.9123 96.7006 58.6032 96.9481C58.3135 97.18 58.5183 97.601 58.8028 97.7045C59.4215 97.9294 60.0401 98.1542 60.6588 98.3791C62.1443 98.9191 63.6298 99.459 65.1152 99.999C66.9059 100.65 68.6966 101.301 70.4872 101.952C72.0456 102.518 73.604 103.085 75.1624 103.651L76.691 104.207C76.9319 104.294 77.1722 104.397 77.4176 104.471C77.4284 104.474 77.439 104.479 77.4497 104.482C77.6794 104.566 77.9453 104.389 78.0064 104.166C78.0755 103.915 77.9208 103.694 77.6903 103.61Z" fill="black"/>
<path d="M75.1228 75.4508C75.9972 74.6704 77.0019 73.6653 77.7281 72.8695C77.8944 72.6874 78.1564 72.6307 78.3847 72.7239L82.7171 74.4926C83.1018 74.6497 83.2092 75.1421 82.9247 75.4448C82.0953 76.327 81.0213 77.3746 80.1697 78.0918C80.0035 78.2317 79.7723 78.2643 79.5711 78.1822L75.2944 76.4362C74.89 76.2711 74.7969 75.7416 75.1228 75.4508Z" fill="#F1633D"/>
<path d="M75.4437 75.7688C76.2938 75.0082 77.1073 74.2037 77.8833 73.3677C78.0231 73.2171 78.0756 73.0902 78.2654 73.1584C78.2882 73.1665 78.3103 73.1769 78.3328 73.1859C78.4837 73.2461 78.6337 73.3087 78.7841 73.3701C79.874 73.8151 80.964 74.2601 82.0539 74.705L82.52 74.8953C82.5453 74.9056 82.5714 74.9148 82.5962 74.9264C82.482 74.8729 82.5505 74.9046 82.5801 74.9274C82.527 74.8865 82.6332 74.9898 82.5904 74.9291C82.5942 74.9345 82.6514 75.0598 82.6249 74.9877C82.6359 75.0176 82.6331 75.0558 82.6411 75.0223C82.6404 75.0254 82.5917 75.1546 82.6235 75.093C82.5665 75.2033 82.6403 75.0802 82.5838 75.1461C82.5061 75.2366 82.4188 75.3204 82.3362 75.4064C82.1305 75.6205 81.9224 75.8323 81.7121 76.0419C81.3044 76.4482 80.889 76.8469 80.4626 77.2335C80.2835 77.3958 80.1001 77.6022 79.8958 77.7318C79.8042 77.7899 79.7925 77.7802 79.682 77.7397C79.5717 77.6992 79.4637 77.6505 79.3549 77.6061L77.8482 76.991C77.2201 76.7346 76.592 76.4782 75.964 76.2218C75.7976 76.1538 75.6309 76.0866 75.4648 76.018C75.4508 76.0122 75.4362 76.0071 75.4224 76.0007C75.5055 76.0393 75.4427 76.0104 75.4109 75.9763C75.4577 76.0265 75.3774 75.9176 75.3754 75.914C75.3875 75.9357 75.3772 75.9074 75.3794 75.8738C75.374 75.9566 75.3924 75.8225 75.3964 75.8114C75.3839 75.8459 75.4262 75.7858 75.4437 75.7688C75.8625 75.3625 75.2222 74.7228 74.8038 75.1288C74.3827 75.5375 74.3622 76.2447 74.8056 76.6495C74.9645 76.7945 75.1604 76.8646 75.3549 76.944L76.892 77.5715C77.5179 77.8271 78.1438 78.0826 78.7697 78.3381C79.225 78.524 79.6971 78.8035 80.1965 78.5938C80.468 78.4797 80.6909 78.2411 80.9089 78.0473C81.134 77.8473 81.3554 77.6432 81.5744 77.4366C82.0369 77.0001 82.4886 76.5522 82.9299 76.0944C83.1395 75.877 83.3789 75.6686 83.481 75.3762C83.5754 75.1058 83.5471 74.8072 83.4186 74.5528C83.2775 74.2734 83.0256 74.1308 82.7494 74.018C81.6386 73.5645 80.5279 73.1111 79.4171 72.6576C79.0873 72.5229 78.74 72.3284 78.3896 72.2514C77.6696 72.0932 77.2533 72.7249 76.8186 73.1769C76.382 73.6309 75.935 74.0751 75.4776 74.5082C75.2559 74.7182 75.0314 74.9252 74.8038 75.1288C74.3688 75.518 75.0106 76.1563 75.4437 75.7688Z" fill="black"/>
<path d="M58.2282 77.8648C59.1026 77.0845 60.1073 76.0794 60.8336 75.2836C60.9998 75.1014 61.2619 75.0448 61.4902 75.138L65.8226 76.9067C66.2072 77.0637 66.3147 77.5561 66.0301 77.8588C65.2008 78.7411 64.1268 79.7887 63.2752 80.5058C63.109 80.6458 62.8777 80.6784 62.6766 80.5962L58.3999 78.8503C57.9954 78.6852 57.9023 78.1557 58.2282 77.8648Z" fill="#F1633D"/>
<path d="M58.5492 78.1829C59.3993 77.4223 60.2128 76.6178 60.9888 75.7818C61.1285 75.6312 61.1811 75.5042 61.3709 75.5724C61.3937 75.5806 61.4158 75.591 61.4383 75.5999C61.5892 75.6601 61.7392 75.7228 61.8896 75.7842L65.1594 77.1191L65.6255 77.3093C65.6507 77.3196 65.6769 77.3289 65.7017 77.3405C65.5875 77.2869 65.656 77.3187 65.6855 77.3414C65.6325 77.3006 65.7387 77.4039 65.6958 77.3431C65.6997 77.3485 65.7569 77.4739 65.7304 77.4018C65.7414 77.4317 65.7385 77.4699 65.7466 77.4363C65.7458 77.4394 65.6972 77.5687 65.729 77.5071C65.672 77.6174 65.7458 77.4943 65.6892 77.5602C65.6116 77.6506 65.5243 77.7345 65.4417 77.8204C65.236 78.0346 65.0278 78.2463 64.8176 78.4559C64.4099 78.8622 63.9945 79.261 63.5681 79.6476C63.389 79.8099 63.2056 80.0163 63.0012 80.1459C62.9097 80.2039 62.898 80.1943 62.7875 80.1537C62.6772 80.1132 62.5691 80.0646 62.4603 80.0202L60.9536 79.4051L59.0694 78.6358C58.9031 78.5679 58.7364 78.5007 58.5703 78.432C58.5562 78.4262 58.5417 78.4211 58.5278 78.4147C58.611 78.4533 58.5481 78.4244 58.5164 78.3904C58.5632 78.4406 58.4829 78.3317 58.4809 78.3281C58.493 78.3498 58.4827 78.3215 58.4849 78.2879C58.4794 78.3707 58.4978 78.2366 58.5019 78.2255C58.4893 78.26 58.5317 78.1999 58.5492 78.1829C58.9679 77.7765 58.3276 77.1369 57.9092 77.5429C57.4881 77.9516 57.4677 78.6587 57.9111 79.0635C58.0699 79.2085 58.2658 79.2787 58.4604 79.3581C58.9727 79.5673 59.4851 79.7764 59.9974 79.9856L61.8752 80.7522C62.3305 80.9381 62.8025 81.2176 63.302 81.0078C63.5735 80.8938 63.7964 80.6552 64.0144 80.4614C64.2394 80.2614 64.4609 80.0573 64.6799 79.8506C65.1423 79.4142 65.5941 78.9663 66.0354 78.5085C66.2449 78.2911 66.4844 78.0826 66.5865 77.7902C66.6809 77.5198 66.6526 77.2213 66.5241 76.9668C66.3829 76.6875 66.1311 76.5448 65.8549 76.4321C64.7441 75.9786 63.6333 75.5251 62.5226 75.0716C62.1927 74.937 61.8455 74.7424 61.4951 74.6655C60.775 74.5073 60.3588 75.139 59.9241 75.591C59.4875 76.045 59.0405 76.4892 58.5831 76.9223C58.3614 77.1323 58.1368 77.3393 57.9092 77.5429C57.4743 77.9321 58.1161 78.5704 58.5492 78.1829Z" fill="black"/>
<path d="M67.8825 80.8805C68.7569 80.1001 69.7616 79.095 70.4879 78.2992C70.6541 78.1171 70.9162 78.0604 71.1445 78.1536L75.4769 79.9223C75.8615 80.0794 75.969 80.5718 75.6844 80.8744C74.8551 81.7567 73.7811 82.8043 72.9295 83.5215C72.7633 83.6614 72.532 83.694 72.3309 83.6119L68.0542 81.8659C67.6497 81.7008 67.5566 81.1713 67.8825 80.8805Z" fill="#F1633D"/>
<path d="M68.2035 81.1985C69.0536 80.4379 69.8671 79.6334 70.6431 78.7974C70.7828 78.6468 70.8354 78.5199 71.0252 78.588C71.048 78.5962 71.0701 78.6066 71.0926 78.6156C71.2435 78.6758 71.3935 78.7384 71.5439 78.7998C72.6338 79.2448 73.7237 79.6897 74.8137 80.1347L75.2798 80.325C75.305 80.3353 75.3312 80.3445 75.356 80.3561C75.2418 80.3026 75.3103 80.3343 75.3398 80.3571C75.2868 80.3162 75.393 80.4195 75.3501 80.3587C75.354 80.3642 75.4112 80.4895 75.3847 80.4174C75.3957 80.4473 75.3928 80.4855 75.4009 80.452C75.4001 80.455 75.3514 80.5843 75.3833 80.5227C75.3263 80.633 75.4001 80.5099 75.3435 80.5758C75.2659 80.6662 75.1786 80.7501 75.096 80.8361C74.8903 81.0502 74.6822 81.262 74.4719 81.4716C74.0642 81.8778 73.6488 82.2766 73.2224 82.6632C73.0433 82.8255 72.8599 83.0319 72.6555 83.1615C72.564 83.2196 72.5523 83.2099 72.4418 83.1694C72.3315 83.1288 72.2234 83.0802 72.1146 83.0358L70.6079 82.4207C69.9799 82.1643 69.3518 81.9078 68.7237 81.6514C68.5573 81.5835 68.3907 81.5163 68.2246 81.4477C68.2105 81.4419 68.196 81.4368 68.1821 81.4303C68.2653 81.4689 68.2024 81.4401 68.1707 81.406C68.2175 81.4562 68.1372 81.3473 68.1352 81.3437C68.1473 81.3654 68.137 81.3371 68.1392 81.3035C68.1337 81.3863 68.1521 81.2522 68.1561 81.2411C68.1436 81.2756 68.186 81.2155 68.2035 81.1985C68.6222 80.7922 67.9819 80.1525 67.5635 80.5585C67.1424 80.9672 67.122 81.6744 67.5654 82.0792C67.7242 82.2241 67.9201 82.2943 68.1147 82.3737L69.6517 83.0012C70.2777 83.2567 70.9036 83.5123 71.5295 83.7678C71.9848 83.9537 72.4568 84.2332 72.9563 84.0234C73.2278 83.9094 73.4507 83.6708 73.6687 83.477C73.8937 83.277 74.1152 83.0729 74.3342 82.8663C74.7966 82.4298 75.2484 81.9819 75.6897 81.5241C75.8992 81.3067 76.1387 81.0983 76.2408 80.8059C76.3352 80.5355 76.3069 80.2369 76.1784 79.9824C76.0372 79.7031 75.7854 79.5604 75.5092 79.4477C74.3984 78.9942 73.2876 78.5407 72.1769 78.0873C71.847 77.9526 71.4997 77.758 71.1494 77.6811C70.4293 77.5229 70.0131 78.1546 69.5784 78.6066C69.1417 79.0606 68.6948 79.5048 68.2374 79.9379C68.0157 80.1479 67.7911 80.3549 67.5635 80.5585C67.1286 80.9477 67.7704 81.586 68.2035 81.1985Z" fill="black"/>
<path d="M66.5876 72.693C67.462 71.9126 68.4667 70.9075 69.193 70.1117C69.3592 69.9296 69.6213 69.8729 69.8496 69.9661L74.182 71.7348C74.5666 71.8919 74.6741 72.3843 74.3895 72.6869C73.5601 73.5692 72.4862 74.6168 71.6346 75.3339C71.4684 75.4739 71.2371 75.5065 71.036 75.4244L66.7593 73.6784C66.3548 73.5133 66.2617 72.9838 66.5876 72.693Z" fill="#F1633D"/>
<path d="M66.9086 73.0149C67.7587 72.2543 68.5722 71.4498 69.3481 70.6138C69.4879 70.4632 69.5404 70.3363 69.7302 70.4045C69.753 70.4126 69.7752 70.423 69.7977 70.432C69.9486 70.4922 70.0985 70.5548 70.2489 70.6162C71.3389 71.0612 72.4288 71.5061 73.5188 71.9511L73.9848 72.1414C74.0101 72.1517 74.0363 72.1609 74.061 72.1725C73.9468 72.119 74.0153 72.1507 74.0449 72.1735C73.9919 72.1326 74.0981 72.2359 74.0552 72.1752C74.059 72.1806 74.1163 72.3059 74.0898 72.2338C74.1007 72.2637 74.0979 72.3019 74.1059 72.2684C74.1052 72.2715 74.0565 72.4007 74.0883 72.3391C74.0314 72.4494 74.1052 72.3263 74.0486 72.3922C73.9709 72.4827 73.8836 72.5665 73.801 72.6525C73.5954 72.8666 73.3872 73.0784 73.1769 73.288C72.7693 73.6943 72.3538 74.093 71.9274 74.4796C71.7484 74.6419 71.565 74.8483 71.3606 74.9779C71.2691 75.036 71.2574 75.0263 71.1469 74.9858C71.0365 74.9452 70.9285 74.8966 70.8197 74.8522C70.3175 74.6472 69.8153 74.4421 69.313 74.2371C68.6849 73.9807 68.0569 73.7243 67.4288 73.4679C67.2624 73.3999 67.0958 73.3327 66.9297 73.2641C66.9156 73.2583 66.901 73.2532 66.8872 73.2468C66.9703 73.2853 66.9075 73.2565 66.8758 73.2224C66.9226 73.2726 66.8422 73.1637 66.8403 73.1601C66.8523 73.1818 66.8421 73.1535 66.8443 73.1199C66.8388 73.2027 66.8572 73.0686 66.8612 73.0575C66.8487 73.092 66.8911 73.0319 66.9086 73.0149C67.3273 72.6086 66.687 71.9689 66.2686 72.3749C65.8475 72.7836 65.827 73.4908 66.2705 73.8956C66.4293 74.0405 66.6252 74.1107 66.8198 74.1901L68.3568 74.8176L70.2346 75.5842C70.6899 75.7701 71.1619 76.0496 71.6614 75.8399C71.9329 75.7258 72.1557 75.4872 72.3737 75.2934C72.5988 75.0934 72.8203 74.8893 73.0393 74.6827C73.5017 74.2462 73.9535 73.7983 74.3947 73.3405C74.6043 73.1231 74.8438 72.9147 74.9459 72.6223C75.0403 72.3519 75.012 72.0533 74.8834 71.7988C74.7423 71.5195 74.4904 71.3769 74.2142 71.2641C73.1035 70.8106 71.9927 70.3572 70.8819 69.9037C70.5521 69.769 70.2048 69.5744 69.8545 69.4975C69.1344 69.3393 68.7181 69.971 68.2834 70.423C67.8468 70.877 67.3998 71.3212 66.9425 71.7543C66.7207 71.9643 66.4962 72.1713 66.2686 72.3749C65.8336 72.7641 66.4755 73.4024 66.9086 73.0149Z" fill="black"/>
<path d="M108.903 45.8302C110.432 46.1737 111.961 46.5173 113.489 46.8608C113.727 46.9143 113.979 46.7882 114.046 46.5447C114.108 46.3173 113.969 46.0419 113.73 45.9881C112.201 45.6445 110.673 45.301 109.144 44.9575C108.906 44.904 108.654 45.03 108.587 45.2736C108.525 45.501 108.664 45.7764 108.903 45.8302Z" fill="black"/>
<path d="M109.541 43.4675C110.123 43.4675 110.124 42.5625 109.541 42.5625C108.958 42.5625 108.957 43.4675 109.541 43.4675Z" fill="black"/>
<path d="M74.1031 49.8666C73.9836 51.9131 75.8544 53.2626 77.4102 54.1941C78.1666 54.647 78.946 55.0956 79.5612 55.7374C79.8449 56.0333 80.0807 56.3711 80.245 56.748C80.4622 57.2462 80.5656 57.7874 80.7589 58.2947C80.963 58.8304 81.2459 59.321 81.7018 59.6815C82.1714 60.0529 82.7506 60.2408 83.343 60.0822C83.905 59.9318 83.6666 59.0585 83.1024 59.2095C82.7724 59.2979 82.4419 59.1494 82.1787 58.9031C81.8526 58.598 81.6757 58.205 81.5373 57.7872C81.3761 57.3005 81.25 56.8054 81.0447 56.3342C80.867 55.9265 80.6151 55.5589 80.3205 55.2266C79.1595 53.9172 77.4119 53.3813 76.1489 52.2011C75.484 51.5797 74.9538 50.797 75.0082 49.8666C75.0224 49.6224 74.79 49.4141 74.5556 49.4141C74.2988 49.4141 74.1174 49.6216 74.1031 49.8666Z" fill="#F1633D"/>
<path d="M74.9461 46.438C75.1048 47.396 75.242 48.3564 75.8552 49.1463C76.5509 50.0425 77.6234 50.5598 78.6254 51.0351C79.5555 51.4763 80.5292 51.9186 81.2438 52.6833C81.5823 53.0456 81.8114 53.4715 81.9553 53.9447C82.1256 54.5044 82.2098 55.0868 82.3929 55.6429C82.761 56.7611 83.7021 57.8293 84.9833 57.6181C85.2246 57.5783 85.3592 57.2793 85.2993 57.0614C85.2289 56.8052 84.9847 56.7055 84.7427 56.7454C84.3992 56.802 84.042 56.5831 83.7793 56.3033C83.4696 55.9733 83.3041 55.5634 83.1848 55.1339C83.0378 54.6047 82.9521 54.059 82.7747 53.5382C82.5966 53.0157 82.3315 52.5506 81.9674 52.1357C81.2997 51.3749 80.3846 50.8763 79.4841 50.4446C78.5628 50.0029 77.5566 49.596 76.8153 48.8699C76.0828 48.1524 75.9806 47.1742 75.8188 46.1974C75.7788 45.9561 75.4801 45.8215 75.2621 45.8814C75.0061 45.9517 74.906 46.196 74.9461 46.438Z" fill="#F1633D"/>
<path d="M76.5495 42.8482C76.7056 43.7936 76.8043 44.7879 77.3472 45.6082C77.9467 46.514 78.9303 47.0597 79.8852 47.5194C80.7965 47.9582 81.7778 48.3551 82.5141 49.0711C83.2759 49.812 83.4518 50.8254 83.816 51.7809C84.2218 52.8454 84.99 53.8858 86.2173 53.9695C86.4615 53.9862 86.6699 53.7496 86.6699 53.517C86.6699 53.2582 86.4622 53.0812 86.2173 53.0645C85.4184 53.01 84.8982 52.123 84.6413 51.4121C84.2807 50.4143 84.0473 49.3928 83.3076 48.589C82.6321 47.8549 81.7234 47.3924 80.8345 46.9716C79.9425 46.5494 78.9607 46.135 78.2981 45.3747C77.6438 44.6239 77.578 43.5508 77.4222 42.6076C77.3824 42.3663 77.0835 42.2316 76.8656 42.2915C76.6095 42.3619 76.5096 42.6062 76.5495 42.8482Z" fill="#F1633D"/>
<path d="M79.5828 40.2466C79.268 41.1511 79.4737 42.1506 79.9341 42.9671C80.4136 43.8175 81.1785 44.4526 81.9577 45.0171C82.6851 45.5441 83.4569 46.0161 84.1047 46.6442C84.4325 46.962 84.7119 47.3115 84.9286 47.7142C85.1599 48.1439 85.3197 48.6049 85.5015 49.0564C85.8775 49.9898 86.3895 50.9745 87.3554 51.4085C87.5782 51.5085 87.842 51.4728 87.9746 51.2461C88.0878 51.0526 88.0363 50.7277 87.8122 50.627C87.0882 50.3017 86.6895 49.5883 86.4012 48.8824C86.0313 47.9766 85.7175 47.0863 85.0628 46.3381C83.8921 45.0002 82.1046 44.3573 81.0056 42.951C80.4667 42.2614 80.1586 41.3402 80.4555 40.4872C80.5359 40.2564 80.364 39.9922 80.1395 39.9305C79.8903 39.8621 79.6634 40.0149 79.5828 40.2466Z" fill="#F1633D"/>
<path d="M83.2093 38.9091C82.9555 40.0494 83.5273 41.1236 84.3294 41.9035C85.1008 42.6535 86.0928 43.1009 86.9359 43.7557C87.33 44.0617 87.6786 44.4204 87.9337 44.8508C88.1999 45.2999 88.366 45.7928 88.4936 46.2971C88.746 47.2943 88.8362 48.3269 89.1354 49.313C89.4632 50.3933 90.0274 51.4344 91.0232 52.0286C91.5245 52.3278 91.9802 51.5457 91.48 51.2472C89.8447 50.2713 89.8051 47.9724 89.4273 46.311C89.1905 45.2694 88.7872 44.2608 88.0138 43.4993C87.2811 42.7779 86.3501 42.3157 85.5201 41.7234C84.7353 41.1634 83.8491 40.1962 84.0821 39.1497C84.1351 38.9113 84.0099 38.66 83.766 38.593C83.539 38.5306 83.2627 38.6695 83.2093 38.9091Z" fill="#F1633D"/>
<path d="M88.4557 39.2182C88.3132 40.2853 88.8231 41.2851 89.4649 42.0998C90.0756 42.875 90.8563 43.4869 91.5198 44.2133C91.8254 44.5479 92.0987 44.9074 92.302 45.3141C92.5283 45.7667 92.6155 46.2695 92.6368 46.7712C92.6847 47.9015 92.4736 49.0444 92.763 50.1574C93.0457 51.2442 93.8747 52.1937 95.0375 52.2996C95.2812 52.3218 95.49 52.0758 95.49 51.8471C95.49 51.5839 95.2819 51.4168 95.0375 51.3946C94.258 51.3236 93.7598 50.4972 93.6018 49.7748C93.3761 48.7425 93.6024 47.6688 93.534 46.6243C93.4991 46.091 93.3989 45.5758 93.1875 45.0839C92.9984 44.6441 92.7311 44.253 92.4289 43.8836C91.8452 43.1699 91.119 42.5949 90.4962 41.9187C89.8158 41.1799 89.221 40.2643 89.3608 39.2182C89.3932 38.9755 89.1296 38.7656 88.9083 38.7656C88.6368 38.7656 88.4882 38.9748 88.4557 39.2182Z" fill="#F1633D"/>
<path d="M96.7257 52.2679C97.3887 50.1037 97.3437 47.6959 96.5073 45.5844C95.8747 43.9874 94.851 42.5701 93.565 41.4337C92.258 40.2786 90.7182 39.4049 89.0659 38.8495C87.459 38.3094 85.7232 38.0758 84.0328 38.2383C82.3048 38.4045 80.6219 38.9652 79.1907 39.9589C77.586 41.073 76.2985 42.6078 75.4362 44.3581C74.5677 46.121 74.1012 48.077 74.0863 50.0428C74.0715 51.9938 74.5103 53.9512 75.4201 55.6811C76.5935 57.9125 78.5743 59.7144 80.8923 60.701C82.0731 61.2036 83.2961 61.47 84.5712 61.586C85.5357 61.6737 86.5075 61.7653 87.4704 61.611C87.8869 61.5443 88.3217 61.4135 88.6596 61.1526C88.8527 61.0035 88.9565 60.7636 88.8219 60.5335C88.7107 60.3434 88.3975 60.2209 88.2028 60.3712C87.9086 60.5982 87.5458 60.6967 87.1943 60.7443C86.7321 60.8069 86.2586 60.7994 85.7938 60.7767C84.8031 60.7284 83.7978 60.6414 82.8335 60.4033C80.5164 59.831 78.3858 58.4247 76.9841 56.486C75.8688 54.9434 75.2101 53.1005 75.0411 51.2451C74.8737 49.4067 75.1183 47.6167 75.757 45.8864C76.3752 44.2117 77.3984 42.656 78.7474 41.4521C79.3753 40.8917 80.0749 40.4133 80.8459 40.0342C81.2119 39.8542 81.4795 39.7441 81.8828 39.6079C82.2648 39.479 82.6547 39.3741 83.0495 39.2929C83.7942 39.1395 84.5437 39.0768 85.3619 39.0968C86.201 39.1173 86.8764 39.2077 87.6873 39.398C88.0868 39.4918 88.4817 39.6053 88.8701 39.7375C89.2708 39.8738 89.6086 40.0077 89.9517 40.1643C90.6911 40.5016 91.3986 40.9091 92.0593 41.3824C92.377 41.61 92.6281 41.8101 92.9426 42.0892C93.2463 42.3587 93.536 42.644 93.8091 42.9444C94.0898 43.253 94.3138 43.5295 94.5297 43.8316C94.7599 44.1536 94.9717 44.4888 95.1625 44.8355C95.5543 45.5471 95.8156 46.2054 96.0161 47.0151C96.2751 48.0607 96.3348 49.1498 96.2272 50.2207C96.1657 50.8338 96.0333 51.4386 95.853 52.0273C95.682 52.5855 96.5553 52.8241 96.7257 52.2679Z" fill="black"/>
<path d="M89.8952 65.0913C90.8063 65.9977 95.6093 62.9374 96.5229 62.3344C98.9344 60.7428 101.674 58.0107 102.369 55.1203C97.7642 52.664 91.7305 50.5381 86.5566 49.7305C87.3583 54.8762 88.4553 59.976 89.8404 64.9962C89.8508 65.0339 89.8693 65.0654 89.8952 65.0913Z" fill="#60DEA1"/>
<path d="M89.5742 65.4142C90.1706 65.9841 91.1868 65.6346 91.8487 65.3855C92.8503 65.0086 93.8025 64.5013 94.729 63.9695C96.7316 62.8201 98.6354 61.51 100.191 59.7837C101.362 58.4846 102.383 56.961 102.804 55.2435C102.85 55.0547 102.775 54.8278 102.596 54.7324C98.6951 52.6552 94.4876 51.0695 90.1977 50.0126C89.0342 49.7259 87.8598 49.4829 86.6758 49.297C86.3149 49.2403 86.0629 49.493 86.1192 49.8537C86.7537 53.9188 87.5701 57.9551 88.5685 61.9464C88.7076 62.5022 88.8501 63.057 88.9961 63.611C89.0724 63.9005 89.1497 64.1898 89.2279 64.4789C89.2985 64.7394 89.3365 65.1062 89.5034 65.3226C89.6524 65.5158 89.8925 65.6195 90.1225 65.4849C90.3127 65.3737 90.4351 65.0606 90.2849 64.8658C90.2538 64.8255 90.2169 64.6653 90.1929 64.5775C90.1586 64.4519 90.1244 64.3263 90.0904 64.2006C90.0225 63.9493 89.9552 63.6977 89.8887 63.4459C89.7624 62.9676 89.6386 62.4886 89.5174 62.0089C89.2655 61.0117 89.0249 60.0116 88.7957 59.0089C88.3401 57.0163 87.9293 55.0134 87.5638 53.0022C87.3589 51.875 87.1686 50.7451 86.9919 49.6131L86.4353 50.1698C90.7262 50.8435 94.9428 52.196 98.9108 53.9485C100.005 54.4318 101.083 54.9516 102.139 55.5139L101.931 55.0029C101.592 56.387 100.825 57.6373 99.9172 58.7222C98.9785 59.8444 97.8793 60.8427 96.6817 61.6824C96.0502 62.1251 95.3901 62.53 94.7268 62.9229C93.8529 63.4405 92.9599 63.9363 92.0282 64.3428C92.0025 64.354 91.9768 64.3651 91.951 64.3762C91.8739 64.4094 91.972 64.3678 91.9254 64.387C91.8629 64.4128 91.8003 64.4383 91.7373 64.463C91.6231 64.508 91.5079 64.5509 91.3919 64.5909C91.1806 64.6638 90.9657 64.7285 90.7465 64.7728C90.6973 64.7828 90.6475 64.7896 90.5982 64.7993C90.5377 64.8111 90.6936 64.7898 90.6334 64.7946C90.606 64.7968 90.5787 64.8005 90.5513 64.8026C90.4713 64.8089 90.3931 64.8063 90.3131 64.8045C90.1969 64.8017 90.4078 64.835 90.3013 64.802C90.2704 64.7924 90.2349 64.7798 90.203 64.774C90.1356 64.7619 90.3269 64.8097 90.2161 64.7752C90.1162 64.744 90.2745 64.8319 90.2141 64.7742C89.793 64.3718 89.1521 65.0108 89.5742 65.4142Z" fill="black"/>
<path d="M86.4987 49.875C84.822 53.1621 83.1454 56.4492 81.4688 59.7363C83.5655 60.8635 86.1325 61.0794 88.3882 60.3184C87.7688 57.1456 87.1494 53.9727 86.53 50.7998" fill="black"/>
<path d="M86.1094 49.6465C84.8066 52.2006 83.5039 54.7546 82.2012 57.3086C81.8273 58.0417 81.4533 58.7748 81.0794 59.5079C80.9718 59.7189 81.016 60.0069 81.2417 60.127C83.4558 61.3057 86.1264 61.5481 88.5098 60.7547C88.7552 60.6731 88.875 60.4495 88.8259 60.1981C88.2065 57.0252 87.5872 53.8523 86.9678 50.6795C86.9209 50.4395 86.6339 50.3022 86.4111 50.3634C86.1604 50.4323 86.0481 50.6794 86.095 50.9201C86.7144 54.0929 87.3338 57.2658 87.9532 60.4387L88.2692 59.882C86.1141 60.5994 83.7069 60.4147 81.6985 59.3455L81.8609 59.9647C83.1636 57.4107 84.4663 54.8566 85.769 52.3026C86.143 51.5695 86.5169 50.8364 86.8908 50.1033C87.1549 49.5855 86.3744 49.127 86.1094 49.6465Z" fill="black"/>
<path d="M35.2737 76.144C37.5765 72.9297 41.7535 68.6009 46.1457 69.2359C47.936 67.3883 51.0347 66.9877 53.2359 68.3194C55.4967 66.8399 58.8486 67.3831 60.5265 69.5008C60.4646 69.4227 61.964 69.1873 62.1049 69.1954C62.6354 69.2258 63.1938 69.3344 63.7246 69.3996C65.0273 69.5597 66.3291 70.0488 67.4375 70.745C69.3842 71.9678 70.8545 73.9024 72.9385 74.8729C73.948 75.343 75.1638 75.645 75.7166 76.6117C76.4349 77.8679 75.4559 79.5771 74.0855 80.0416C72.7151 80.506 71.196 80.0366 69.9325 79.3314C68.669 78.6263 67.5366 77.6864 66.2137 77.1C64.2091 76.2114 61.7749 76.2358 59.8841 77.3463C57.5192 78.7351 56.5668 82.1119 57.4486 84.6362C58.9641 88.975 62.0102 86.4282 64.0976 84.2514C65.8128 82.4627 68.8215 82.1002 70.9125 83.4303C71.7894 83.9881 72.5475 84.9651 72.3519 85.9858C72.2429 86.5544 71.8597 87.0258 71.4894 87.4709C69.1509 90.2817 67.1373 93.8545 63.9606 95.6908C59.5929 98.2155 54.9406 99.258 50.0356 100.148C48.8162 108.122 44.391 115.517 38.0861 120.548C31.7812 125.579 23.6789 128.243 15.6131 128.175C14.6522 128.167 13.5998 128.085 12.9039 127.422C11.9137 126.48 12.1197 124.86 12.5365 123.557C13.2252 121.405 14.2866 119.373 15.6594 117.579C16.7608 116.139 18.0703 114.835 18.9001 113.224C19.7298 111.612 19.9908 109.538 18.9549 108.05C18.1667 106.918 16.8082 106.351 15.5097 105.886C14.2112 105.421 12.8375 104.963 11.9022 103.95C10.9668 102.936 10.6923 101.162 11.7163 100.238C12.2655 99.7428 13.0377 99.6035 13.7632 99.4598C19.4906 98.3258 24.8986 95.6454 29.2905 91.8013C30.3619 90.8636 31.0744 90.3813 31.0952 88.9658C31.1168 87.4864 31.2476 86.0277 31.5534 84.5776C32.1919 81.5497 33.4719 78.6591 35.2737 76.144Z" fill="white"/>
<path d="M51.573 76.4324C53.342 73.3951 56.1842 70.8698 59.6566 70.0357C61.4137 69.6136 63.2832 69.6343 65.0181 70.1509C65.8737 70.4057 66.6814 70.7838 67.4247 71.2786C68.1832 71.7836 68.8635 72.3925 69.5474 72.9919C70.253 73.6103 70.9676 74.2285 71.7581 74.7376C72.4778 75.2011 73.2689 75.4802 74.0376 75.8369C74.7156 76.1516 75.3493 76.569 75.4885 77.303C75.5035 77.3819 75.5096 77.5817 75.4972 77.7271C75.4894 77.8187 75.4348 78.0473 75.3807 78.1978C75.2822 78.4716 75.0766 78.7872 74.8608 79.0123C74.6225 79.261 74.3136 79.4813 74.0138 79.5907C73.5842 79.7475 73.1346 79.7966 72.6797 79.7709C71.7296 79.7174 70.8196 79.3255 70.0054 78.8557C69.1311 78.3511 68.3192 77.7469 67.4488 77.2358C66.5992 76.737 65.6877 76.3476 64.7163 76.1647C62.9044 75.8234 60.88 76.0848 59.3432 77.1585C58.0416 78.0678 57.1896 79.5124 56.8502 81.0498C56.4968 82.6505 56.6775 84.3301 57.451 85.7842C57.7638 86.3722 58.2201 86.951 58.8399 87.2338C59.3846 87.4823 59.9729 87.5091 60.5506 87.3619C61.8045 87.0424 62.8714 86.0954 63.7779 85.2179C64.2967 84.7157 64.756 84.1824 65.3757 83.8124C66.0256 83.4244 66.7957 83.176 67.531 83.1089C68.3123 83.0376 69.0478 83.119 69.7854 83.3805C70.5075 83.6365 71.2463 84.11 71.6589 84.7917C71.8469 85.1025 71.9631 85.4516 71.9252 85.8084C71.8797 86.2359 71.6011 86.6218 71.3395 86.9462C70.7651 87.6585 70.1958 88.3719 69.6463 89.1039C68.5848 90.5181 67.5463 91.959 66.3119 93.2308C65.7115 93.8494 65.0659 94.4282 64.3518 94.9132C63.5618 95.4497 62.6984 95.8907 61.8429 96.3118C58.2248 98.0922 54.2536 99.1848 50.2341 99.5072C49.2615 99.5852 48.2858 99.6182 47.3101 99.6085C46.7276 99.6028 46.7271 100.508 47.3101 100.514C51.4656 100.555 55.6325 99.8037 59.5109 98.3109C60.4799 97.938 61.433 97.522 62.3637 97.0616C63.2426 96.6268 64.1295 96.1714 64.9341 95.608C66.4243 94.5647 67.6375 93.1982 68.7525 91.7736C69.3358 91.0285 69.8972 90.2668 70.4656 89.5103C70.997 88.8031 71.5625 88.1252 72.1049 87.4271C72.4227 87.0182 72.7105 86.5688 72.7979 86.0489C72.8788 85.5678 72.8015 85.1012 72.6065 84.6571C72.2357 83.8121 71.4669 83.1647 70.65 82.7691C69.1369 82.0364 67.3089 81.9863 65.7526 82.6234C64.9592 82.9482 64.2776 83.4172 63.6818 84.0329C63.2134 84.5169 62.7282 84.9869 62.2064 85.4134C61.9804 85.5982 61.7442 85.7748 61.4551 85.9588C61.3343 86.0357 61.211 86.1088 61.0849 86.1769C61.0179 86.2132 60.95 86.2479 60.8814 86.281C60.8508 86.2958 60.82 86.3103 60.789 86.3243C60.7645 86.3355 60.7399 86.3464 60.7152 86.3571C60.7557 86.34 60.7611 86.3376 60.7311 86.3498C60.6051 86.3996 60.4774 86.4445 60.3464 86.4797C60.2864 86.4958 60.2259 86.5101 60.1649 86.5222C60.1289 86.5293 60.0928 86.535 60.0567 86.5413C60.1708 86.5214 60.0533 86.5415 60.0336 86.5429C59.9024 86.5522 59.7765 86.5469 59.6455 86.5434C59.6219 86.5428 59.558 86.529 59.6617 86.5467C59.6272 86.5408 59.5928 86.5352 59.5586 86.528C59.4898 86.5134 59.4217 86.4949 59.3551 86.4723C59.327 86.4628 59.2993 86.4523 59.2715 86.4417C59.206 86.4166 59.3639 86.4942 59.2638 86.4371C59.2104 86.4065 59.154 86.3814 59.1011 86.3495C59.0685 86.3299 59.0369 86.3089 59.0051 86.2879C59.0074 86.2894 58.9049 86.2152 58.9562 86.2543C59.0085 86.294 58.9055 86.2117 58.9085 86.2143C58.8664 86.1783 58.8256 86.1407 58.7861 86.1019C58.5442 85.8644 58.4037 85.6483 58.2325 85.3274C57.8624 84.6336 57.6419 83.8377 57.5914 83.0981C57.4909 81.6252 57.9001 80.0857 58.7894 78.923C59.8276 77.5655 61.5338 76.9244 63.2334 76.9254C64.1494 76.926 65.0676 77.1077 65.9129 77.4624C66.8557 77.858 67.7 78.4584 68.5511 79.0156C70.188 80.0869 72.2808 81.1976 74.2789 80.4542C75.7965 79.8896 76.9347 78.0395 76.1556 76.4778C75.762 75.689 74.9537 75.2468 74.1766 74.9147C73.7968 74.7524 73.4197 74.6098 73.0499 74.4296C72.6278 74.2239 72.2272 73.9763 71.8441 73.7054C70.3142 72.623 69.0679 71.1776 67.4427 70.2219C65.8053 69.2591 63.8872 68.8099 61.9944 68.8371C58.1922 68.8917 54.7128 70.8795 52.3273 73.7739C51.7572 74.4656 51.2427 75.201 50.7915 75.9756C50.4978 76.4799 51.2796 76.936 51.573 76.4324Z" fill="black"/>
<path d="M47.2821 74.3506C48.8255 72.6862 50.3944 70.9852 52.3213 69.7557C54.0609 68.6458 56.0835 68.0011 58.1604 68.2345C59.2132 68.3528 60.2756 68.7531 61.103 69.4348C61.2915 69.59 61.5585 69.6193 61.743 69.4348C61.9031 69.2747 61.9326 68.951 61.743 68.7948C60.0093 67.3666 57.7052 67.0417 55.5438 67.4559C53.2301 67.8992 51.2282 69.2444 49.5075 70.8005C48.4971 71.7143 47.5677 72.7124 46.6421 73.7106C46.2465 74.1372 46.885 74.7787 47.2821 74.3506Z" fill="black"/>
<path d="M42.8479 73.3626C44.9089 70.9123 47.3442 68.0644 50.8284 68.0302C51.6963 68.0216 52.5473 68.216 53.2982 68.6582C53.8011 68.9544 54.257 68.1724 53.755 67.8767C52.2318 66.9796 50.3618 66.95 48.7046 67.4684C46.9734 68.0098 45.5131 69.1367 44.2556 70.4151C43.534 71.1486 42.8699 71.9357 42.2079 72.7227C42.0507 72.9096 42.0247 73.1794 42.2079 73.3626C42.3694 73.5241 42.6898 73.5505 42.8479 73.3626Z" fill="black"/>
<path d="M49.7408 100.292C49.0745 103.283 48.0137 106.178 46.5919 108.892C45.1702 111.607 43.4044 114.137 41.3358 116.398C39.2242 118.706 36.8105 120.724 34.1546 122.377C31.3692 124.111 28.3465 125.448 25.1925 126.351C22.0616 127.247 18.8149 127.715 15.5576 127.715C15.1513 127.716 14.745 127.708 14.339 127.694C13.7564 127.674 13.7572 128.579 14.339 128.599C17.6828 128.714 21.0441 128.345 24.2887 127.531C27.5312 126.716 30.6681 125.452 33.5661 123.784C36.3627 122.175 38.9371 120.178 41.1908 117.869C43.3827 115.623 45.2836 113.085 46.827 110.353C48.3703 107.621 49.5661 104.684 50.3474 101.644C50.4423 101.275 50.5306 100.904 50.6135 100.533C50.6666 100.294 50.5413 100.043 50.2974 99.9758C50.0704 99.9135 49.7942 100.052 49.7408 100.292Z" fill="black"/>
<path d="M45.9595 68.7033C42.3213 68.7855 39.1802 70.9232 36.8014 73.5309C34.2279 76.3521 32.3135 79.7616 31.3513 83.463C30.7686 85.7046 30.5323 88.0411 30.6868 90.3529C30.7031 90.5967 30.8831 90.8054 31.1393 90.8054C31.3716 90.8054 31.6082 90.598 31.5919 90.3529C31.3332 86.4832 32.1904 82.5815 33.97 79.1406C34.7965 77.5426 35.8168 76.0472 36.9885 74.6826C38.0809 73.4105 39.3121 72.2378 40.7246 71.3261C42.2953 70.3122 44.0778 69.6508 45.9595 69.6083C46.5409 69.5952 46.5431 68.6901 45.9595 68.7033Z" fill="black"/>
<path d="M31.3913 89.8395C28.2935 92.3249 24.9378 94.4897 21.4077 96.3086C17.8964 98.1178 14.2088 99.5769 10.4106 100.661C8.26308 101.275 6.08171 101.767 3.87908 102.136C3.63787 102.177 3.50304 102.474 3.56302 102.693C3.63329 102.948 3.87776 103.049 4.11968 103.009C8.07585 102.346 11.9622 101.283 15.7072 99.8453C19.4672 98.4024 23.0871 96.5955 26.4908 94.442C28.411 93.2272 30.259 91.9014 32.0312 90.4795C32.222 90.3264 32.1908 89.999 32.0312 89.8395C31.8427 89.651 31.5825 89.686 31.3913 89.8395Z" fill="black"/>
<path d="M137.857 75.5255C139.892 76.7281 142.263 77.2306 144.61 77.2377C147.123 77.2454 149.602 76.6813 151.984 75.9179C153.379 75.4707 154.751 74.9548 156.121 74.4386L155.773 73.6115C151.514 75.6537 147.497 78.1768 143.8 81.1146C142.149 82.4261 140.445 83.9844 140.357 86.2437C140.272 88.431 141.663 90.4442 143.167 91.9029C144.829 93.5151 146.861 94.8445 148.02 96.904L148.639 96.2848C145.16 94.3638 141.087 93.5989 137.149 94.1334C135.513 94.3554 133.812 94.8525 132.573 95.9957C131.933 96.5863 131.461 97.3605 131.256 98.2086C131.029 99.1429 131.095 100.135 131.36 101.054C131.981 103.207 133.644 104.801 135.232 106.284L135.78 105.574C133.637 104.543 131.185 104.264 128.862 104.773C128.202 104.918 127.565 105.136 126.945 105.404C126.72 105.5 126.67 105.83 126.783 106.023C126.918 106.255 127.176 106.282 127.402 106.185C129.897 105.108 132.876 105.179 135.323 106.355C135.526 106.453 135.766 106.428 135.907 106.238C136.037 106.064 136.04 105.801 135.872 105.644C134.567 104.425 133.159 103.143 132.457 101.461C131.837 99.9718 131.809 98.1557 132.937 96.9131C133.945 95.8037 135.479 95.316 136.925 95.0752C138.69 94.7813 140.536 94.7935 142.303 95.0684C144.362 95.3888 146.358 96.0588 148.182 97.0663C148.579 97.285 149.026 96.8458 148.802 96.4472C147.776 94.6244 146.104 93.3366 144.57 91.9684C143.09 90.6487 141.549 88.9986 141.289 86.9396C141.17 85.99 141.404 85.0703 141.914 84.2669C142.445 83.4317 143.204 82.76 143.963 82.1381C145.722 80.6972 147.582 79.3719 149.496 78.1451C151.661 76.7575 153.911 75.5049 156.229 74.393C156.686 74.1739 156.363 73.3845 155.881 73.5659C153.523 74.4539 151.152 75.3462 148.683 75.8773C146.437 76.3602 144.086 76.5221 141.822 76.0639C140.587 75.8139 139.4 75.3859 138.314 74.744C137.812 74.447 137.356 75.229 137.857 75.5255Z" fill="#F1633D"/>
<path d="M140.724 73.0708C142.582 72.6882 144.441 72.3056 146.299 71.9229C146.539 71.8736 146.677 71.5908 146.615 71.3663C146.547 71.1175 146.299 71.0008 146.058 71.0502C144.2 71.4328 142.342 71.8155 140.483 72.1981C140.244 72.2474 140.105 72.5302 140.167 72.7547C140.235 73.0035 140.483 73.1202 140.724 73.0708Z" fill="#F1633D"/>
<path d="M122.667 107.463C122.777 107.681 122.886 107.9 122.995 108.118C123.024 108.171 123.062 108.214 123.112 108.245C123.155 108.285 123.207 108.312 123.266 108.326C123.326 108.345 123.386 108.348 123.446 108.334C123.506 108.332 123.562 108.314 123.614 108.281C123.711 108.219 123.796 108.126 123.822 108.01L123.838 107.89C123.838 107.808 123.818 107.732 123.777 107.662C123.667 107.443 123.558 107.224 123.449 107.006C123.42 106.953 123.381 106.911 123.332 106.879C123.288 106.839 123.237 106.812 123.178 106.798C123.118 106.779 123.058 106.776 122.998 106.79C122.938 106.792 122.882 106.81 122.83 106.843C122.733 106.906 122.648 106.998 122.622 107.114L122.605 107.234C122.606 107.316 122.626 107.392 122.667 107.463Z" fill="#F1633D"/>
<path d="M79.1266 124.381C79.7807 127.226 81.0095 129.939 82.6819 132.33C84.3692 134.742 86.4886 136.839 88.9319 138.482C90.3087 139.408 91.7855 140.173 93.3309 140.776C93.5587 140.865 93.8276 140.678 93.8876 140.46C93.958 140.204 93.8001 139.993 93.5715 139.903C90.96 138.885 88.5611 137.329 86.5245 135.407C84.4678 133.466 82.7746 131.156 81.554 128.605C80.8723 127.18 80.3532 125.68 79.9993 124.14C79.8688 123.573 78.996 123.813 79.1266 124.381Z" fill="black"/>
<path d="M79.2689 134.875L79.7628 135.698C79.8217 135.797 79.9222 135.876 80.0332 135.906C80.1415 135.936 80.2858 135.923 80.3819 135.861C80.4785 135.798 80.5636 135.706 80.5899 135.59C80.6168 135.472 80.6079 135.348 80.5442 135.242L80.0504 134.418C79.9914 134.32 79.8909 134.241 79.7799 134.211C79.6716 134.181 79.5274 134.194 79.4312 134.256C79.3346 134.318 79.2496 134.411 79.2233 134.527C79.1964 134.645 79.2052 134.769 79.2689 134.875Z" fill="black"/>
<path d="M50.9503 109.019C50.1825 112.323 48.7793 115.453 46.8687 118.253C44.9733 121.032 42.5711 123.483 39.8175 125.416C38.2575 126.511 36.5856 127.444 34.8315 128.19C34.6065 128.285 34.5569 128.617 34.6691 128.809C34.8053 129.042 35.0624 129.067 35.2883 128.971C38.4851 127.612 41.4055 125.625 43.8895 123.2C46.3585 120.79 48.4103 117.934 49.882 114.812C50.72 113.035 51.3781 111.174 51.823 109.26C51.9547 108.693 51.0823 108.451 50.9503 109.019Z" fill="black"/>
</svg>
