<svg width="106" height="64" viewBox="0 0 106 64" fill="none" xmlns="http://www.w3.org/2000/svg">
<path fill-rule="evenodd" clip-rule="evenodd" d="M52.4463 43.1689C50.493 43.0447 48.2475 42.7029 46.4634 42.1748C46.1251 42.0816 44.7562 41.5689 44.4025 41.3981C38.2197 38.4932 33.9132 32.1864 33.9132 24.8544C33.9132 14.8039 42.0186 6.61748 51.9695 6.61748C61.9205 6.61748 69.8874 14.6641 70.0104 24.6058H76.5316C76.3932 11.0291 65.4272 0.031068 51.9695 0.031068C38.5119 0.031068 27.392 11.1689 27.392 24.8544C27.392 34.299 32.6367 42.501 40.3421 46.6951C41.7263 47.4408 43.7258 48.2019 44.4025 48.4039C46.6019 49.0718 49.278 49.5068 51.6773 49.6932C52.4925 49.7553 55.3224 49.7864 56.1529 49.7864H105.985V43.2155H56.2145C55.6146 43.2155 53.0154 43.2 52.4309 43.1534L52.4463 43.1689ZM56.2298 32.8699C55.753 32.8699 53.2768 32.8544 52.8154 32.8078C52.0464 32.7456 50.9083 32.6214 50.1854 32.4505C49.3703 32.233 48.6013 31.9379 48.2629 31.7515C45.8328 30.4311 44.1872 27.8369 44.1872 24.8544C44.1872 20.5204 47.6631 17.0097 51.9541 17.0097C56.2452 17.0097 59.5827 20.3961 59.7211 24.6058H65.9809C65.8424 16.8854 59.6288 10.6718 51.9541 10.6718C44.2795 10.6718 37.9121 17.0252 37.9121 24.8544C37.9121 30.3845 41.0496 35.1534 45.6175 37.4835C46.325 37.9029 47.6477 38.3379 48.0168 38.4311C49.3088 38.7728 51.0313 39.0058 52.4463 39.1146C52.9692 39.1612 55.507 39.1767 56.0453 39.1767H106V32.8388H56.2298V32.8699ZM23.3624 49.7709H16.7951V6.63301H7.19791V0H23.3624V49.7709ZM0 9.94175V16.3107H7.21329V49.7553H13.5192V9.94175H0Z" fill="#C4161C"/>
<path fill-rule="evenodd" clip-rule="evenodd" d="M89.4663 0.466019C87.0978 0.466019 85.1445 2.3767 85.1445 4.7534C85.1445 7.1301 87.0978 9.11845 89.4663 9.11845C91.8349 9.11845 93.7882 7.14563 93.7882 4.7534C93.7882 2.36117 91.8964 0.466019 89.4663 0.466019ZM89.4663 8.41942C87.5131 8.41942 85.8366 6.86602 85.8366 4.7534C85.8366 2.64078 87.5131 1.14951 89.4663 1.14951C91.4196 1.14951 93.096 2.73398 93.096 4.7534C93.096 6.86602 91.4196 8.41942 89.4663 8.41942Z" fill="#C4161C"/>
<path fill-rule="evenodd" clip-rule="evenodd" d="M91.112 5.93398C91.112 5.45243 91.0505 5.00194 90.4968 4.83107C91.1889 4.58252 91.2504 4.13204 91.2504 3.86796C91.2504 2.76505 90.2507 2.62524 89.8508 2.62524H87.9591V6.92816H88.7435V5.15728H89.3587C90.2507 5.15728 90.3276 5.5767 90.3276 5.94951C90.3276 6.67961 90.3276 6.81942 90.4968 6.91262H91.2812C91.112 6.74175 91.1735 6.60194 91.112 5.94951V5.93398ZM89.6663 4.52039H88.7435V3.16893H89.5279C90.0815 3.16893 90.4507 3.33981 90.4507 3.86796C90.4507 4.14757 90.3122 4.52039 89.6663 4.52039Z" fill="#C4161C"/>
<path d="M8.39756 57.6155H7.19791V55.767H10.4277V63.7825H8.39756V57.6155Z" fill="#C4161C"/>
<path d="M17.6564 63.4097C16.9489 63.9068 16.2107 64 15.534 64C13.1962 64 11.5197 62.3223 11.5197 59.7592C11.5197 57.1961 13.3654 55.5184 15.5032 55.5184C16.1953 55.5184 16.9951 55.7049 17.6564 56.1553V58.4854C17.2565 58.0039 16.6413 57.5223 15.7954 57.5223C14.5804 57.5223 13.796 58.501 13.796 59.8214C13.796 61.033 14.5496 61.9806 15.7954 61.9806C16.6106 61.9806 17.2565 61.5301 17.6564 61.1107V63.4097Z" fill="#C4161C"/>
<path d="M19.7327 58.0505C20.3633 58.0505 20.8709 58.5786 20.8709 59.2155C20.8709 59.8524 20.3479 60.3806 19.7327 60.3806C19.1175 60.3806 18.5946 59.8524 18.5946 59.2155C18.5946 58.5786 19.1175 58.0505 19.7327 58.0505ZM19.7327 61.6544C20.3633 61.6544 20.8709 62.1825 20.8709 62.8194C20.8709 63.4563 20.3479 63.9845 19.7327 63.9845C19.1175 63.9845 18.5946 63.4563 18.5946 62.8194C18.5946 62.1825 19.1175 61.6544 19.7327 61.6544Z" fill="#C4161C"/>
<path d="M25.3157 62.6641C23.9777 62.6641 21.6245 62.2757 21.6245 59.4641C21.6245 56.6524 23.9777 56.2175 25.3157 56.2641V55.3786H27.5151V56.2641C28.8532 56.2175 31.2063 56.6835 31.2063 59.4641C31.2063 62.2447 28.8532 62.6796 27.5151 62.6641V63.7825H25.3157V62.6641ZM25.4695 57.8641C24.9158 57.8641 23.8085 58.0505 23.8085 59.4641C23.8085 60.8777 24.9158 61.0796 25.4695 61.0641V57.8641ZM27.3459 61.0641C27.8996 61.0641 29.007 60.8777 29.007 59.4641C29.007 58.0505 27.8996 57.8485 27.3459 57.8641V61.0641Z" fill="#C4161C"/>
<path d="M31.9446 55.767H35.2513C37.4814 55.767 38.112 57.3515 38.112 58.4388C38.112 59.5262 37.466 61.1262 35.2513 61.1262H34.1439V63.767H31.9446V55.7515V55.767ZM34.1439 59.3709H34.7745C35.7435 59.3709 35.8511 58.7806 35.8511 58.4388C35.8511 58.0349 35.7127 57.5223 34.7745 57.5223H34.1439V59.3709Z" fill="#C4161C"/>
<path d="M40.2499 55.767H42.9106L45.6944 63.7825H43.3413L42.9106 62.4H40.2499L39.8192 63.7825H37.466L40.2499 55.767ZM40.6805 60.6291H42.48L41.5879 57.6777L40.6959 60.6291H40.6805Z" fill="#C4161C"/>
<path d="M46.2943 55.767H48.4936V58.6563H51.1544V55.767H53.3537V63.7825H51.1544V60.5825H48.4936V63.7825H46.2943V55.767Z" fill="#C4161C"/>
<path d="M58.4292 60.6602C57.6294 60.7689 57.4602 60.7689 56.9681 60.7689C54.3073 60.7689 54.1997 59.4175 54.1997 58.0971V55.767H56.399V57.7709C56.399 58.3922 56.399 58.967 57.614 58.967C57.7986 58.967 58.0139 58.9359 58.4446 58.8893V55.767H60.6439V63.7825H58.4446V60.6602H58.4292Z" fill="#C4161C"/>
<path d="M63.9507 55.767H66.6114L69.3952 63.7825H67.0421L66.6114 62.4H63.9507L63.52 63.7825H61.1669L63.9507 55.767ZM64.3813 60.6291H66.1808L65.2887 57.6777L64.3967 60.6291H64.3813Z" fill="#C4161C"/>
<path d="M71.9945 55.767V60.567L75.0244 55.767H77.1776V63.7825H75.0551V58.9825L72.0099 63.7825H69.8566V55.767H71.9945ZM75.8857 54.0427C75.455 54.9748 74.4553 55.3165 73.5325 55.3165C72.6097 55.3165 71.61 54.9748 71.1793 54.0427L72.4405 53.5612C72.6404 54.1049 73.1326 54.2447 73.5325 54.2447C73.9324 54.2447 74.4246 54.1204 74.6245 53.5612L75.8857 54.0427Z" fill="#C4161C"/>
<path d="M78.1465 56.2796C78.5311 56.0621 79.4846 55.534 80.7919 55.534C82.5453 55.534 83.8064 56.466 83.8064 57.8019C83.8064 58.6097 83.3143 59.3398 82.5145 59.6039V59.6349C83.1605 59.8369 83.9756 60.334 83.9756 61.5456C83.9756 63.068 82.5914 64 80.8227 64C79.7153 64 78.9925 63.7825 77.7467 62.8039L78.6541 61.3126C79.2078 61.8563 79.9614 62.2291 80.5612 62.2291C81.4994 62.2291 81.7147 61.6854 81.7147 61.3437C81.7147 60.8777 81.3918 60.5049 80.4536 60.5049H79.2078V58.9049H80.4536C81.4533 58.9049 81.6225 58.4388 81.6225 58.0816C81.6225 57.5845 81.1764 57.2738 80.4997 57.2738C79.823 57.2738 79.4077 57.5068 78.9156 57.8175L78.1465 56.2485V56.2796Z" fill="#C4161C"/>
<path d="M86.944 55.767V60.567L89.9893 55.767H92.1425V63.7825H90.02V58.9825L86.9901 63.7825H84.8369V55.767H86.9594H86.944Z" fill="#C4161C"/>
<path d="M93.0191 55.767H95.2185V58.6563H97.8793V55.767H100.079V63.7825H97.8793V60.5825H95.2185V63.7825H93.0191V55.767Z" fill="#C4161C"/>
<path d="M101.186 55.767H105.892V57.6932H103.385V63.7825H101.186V55.767Z" fill="#C4161C"/>
</svg>
