<svg width="160" height="160" viewBox="0 0 160 160" fill="none" xmlns="http://www.w3.org/2000/svg">
<path d="M150.624 74.1315C151.239 74.2619 151.884 74.1656 152.979 73.9583C154.842 73.6056 155.541 73.5643 155.516 76.2947C155.376 91.2282 155.235 106.162 155.095 121.095C155.063 124.532 154.652 128.632 151.622 130.254C149.805 131.226 147.6 130.943 145.567 130.605C136.502 129.095 127.537 126.985 118.749 124.295C112.29 122.318 102.744 121.369 103.68 112.593C103.933 110.219 105.206 107.971 107.113 106.533C107.113 105.982 104.264 104.079 103.782 103.663C102.94 102.937 101.97 102.102 102.079 100.864C102.136 100.21 102.434 99.605 102.714 99.011C103.684 96.9501 104.506 94.7765 104.674 92.5047C104.842 90.2329 104.292 87.8348 102.791 86.1209C102.495 85.7821 105.215 83.2723 105.496 83.0633C106.697 82.17 108.068 81.504 109.518 81.1323C106.466 75.476 110.866 68.5844 116.743 67.0694C119.341 66.3997 122.337 67.1547 124.076 69.1977C123.225 67.4016 124.458 65.1756 126.21 64.237C129.149 62.6622 133.218 62.5822 136.123 64.2195C138.436 65.5237 141.229 68.6883 140.966 71.5212C143.488 70.6344 146.185 71.3158 148.313 72.8495C149.372 73.612 149.982 73.9954 150.624 74.1315Z" fill="white"/>
<path d="M87.6924 95.7882C88.5577 96.2766 89.2796 96.984 89.9228 97.7335C90.225 98.0856 90.5237 98.4439 90.7637 98.8425C90.87 99.0191 90.9618 99.2041 91.046 99.3922C91.1069 99.5283 91.1786 99.7097 91.2525 99.8971C91.5947 100.765 91.9595 101.613 92.7278 102.189C93.5967 102.841 94.7439 102.995 95.7786 103.205C96.3329 103.317 96.8684 103.462 97.3744 103.699C97.9104 103.95 98.4438 104.218 99.0364 104.301C99.3126 104.339 99.5917 104.233 99.6724 103.94C99.7389 103.698 99.5896 103.343 99.3113 103.304C98.8152 103.234 98.4 103.043 97.955 102.834C97.4773 102.608 96.9954 102.422 96.4808 102.3C95.4912 102.066 94.3923 101.998 93.5014 101.466C92.8057 101.051 92.5111 100.284 92.2289 99.5694C92.0678 99.1614 91.9063 98.7488 91.6851 98.3688C91.4339 97.937 91.1043 97.5407 90.7855 97.1577C90.0573 96.2832 89.2114 95.4581 88.2144 94.8953C87.634 94.5677 87.1123 95.4607 87.6924 95.7882Z" fill="#F1633D"/>
<path d="M89.366 93.3194C91.0722 93.8776 92.4896 95.1094 93.3341 96.7055C93.5685 97.1486 93.7788 97.6076 94.0656 98.0206C94.3605 98.4453 94.7148 98.8028 95.1491 99.0851C95.9779 99.6237 96.9743 99.8201 97.9397 99.9377C99.0447 100.072 100.22 100.077 101.245 100.565C101.497 100.685 101.803 100.634 101.953 100.379C102.084 100.154 102.02 99.7922 101.767 99.6717C100.755 99.19 99.6582 99.0786 98.5562 98.9694C97.6753 98.8821 96.7206 98.7687 95.933 98.3469C95.5404 98.1366 95.2203 97.8757 94.9585 97.4987C94.6781 97.0949 94.471 96.647 94.2427 96.2132C93.7953 95.3634 93.2035 94.5887 92.4829 93.9519C91.6545 93.2199 90.6918 92.666 89.6409 92.3222C89.3755 92.2354 89.0763 92.4233 89.0049 92.6834C88.9278 92.964 89.0996 93.2323 89.366 93.3194Z" fill="#F1633D"/>
<path d="M90.5157 90.8284C92.33 90.5004 93.9287 91.9548 95.2711 92.9508C96.7511 94.0488 98.4243 94.8647 100.213 95.3196C101.216 95.5746 102.25 95.7168 103.285 95.7468C103.564 95.7549 103.802 95.5034 103.802 95.2298C103.802 94.9428 103.565 94.7208 103.285 94.7127C101.515 94.6614 99.7489 94.2463 98.1466 93.4864C97.3023 93.086 96.513 92.5933 95.7639 92.0362C95.011 91.4763 94.2801 90.8728 93.4465 90.4337C92.455 89.9116 91.3579 89.6293 90.2408 89.8312C89.9658 89.8809 89.8105 90.2154 89.8797 90.4673C89.9592 90.7567 90.24 90.8782 90.5157 90.8284Z" fill="#F1633D"/>
<path d="M90.9031 88.9548C91.2634 88.8653 91.6955 88.8575 92.0395 88.9156C92.4681 88.988 92.8841 89.1199 93.2921 89.2674C94.1402 89.574 94.9697 89.9628 95.8622 90.1266C96.9262 90.322 97.9718 90.1476 99.0104 89.8941C99.9297 89.6698 100.76 89.4243 101.668 89.4354C101.889 89.4381 102.118 89.4554 102.272 89.4818C102.492 89.5193 102.709 89.5742 102.919 89.6516C103.034 89.6944 103.018 89.6875 103.145 89.7539C103.241 89.8043 103.333 89.8604 103.423 89.9218C103.524 89.9914 103.715 90.1753 103.837 90.3269C104.013 90.5443 104.386 90.5097 104.568 90.3269C104.783 90.1121 104.745 89.8136 104.568 89.5957C103.344 88.081 101.143 88.3059 99.4669 88.7153C98.4367 88.967 97.3821 89.2924 96.3093 89.1578C95.4698 89.0525 94.573 88.6451 93.7462 88.3361C92.7451 87.962 91.6921 87.6933 90.6282 87.9576C89.9827 88.1179 90.2561 89.1154 90.9031 88.9548Z" fill="#F1633D"/>
<path d="M54.3594 98.2682C56.5057 111.524 67.215 122.978 80.2965 126.009C81.2195 126.223 82.4098 126.291 82.886 125.472C83.3477 124.678 82.7578 123.71 82.2295 122.958C75.2629 113.046 76.9058 100.102 81.6687 89.6358C86.4396 79.1521 93.5136 68.4002 105.692 66.2753C106.597 66.1174 107.698 65.8498 107.933 64.9619C108.176 64.046 107.286 63.2524 106.482 62.751C95.0886 55.6446 79.4165 56.1713 68.5259 64.0267" fill="#60DEA1"/>
<path d="M90.6515 86.1927C90.4123 83.6235 89.2605 81.2696 86.809 79.9298C79.5458 75.9603 74.2771 69.2006 67.7991 64.0484C59.8741 57.7454 50.0321 53.8865 39.935 53.1231C30.9751 52.4458 22.3716 54.3251 13.9297 57.092C12.8857 57.4342 11.781 57.8172 11.0945 58.675C9.25039 60.9797 13.3317 69.3149 14.4895 71.6655C17.0868 76.9388 20.7623 81.6476 25.2222 85.4747C35.2415 94.0725 48.4711 97.7115 61.4154 98.6495C66.5804 98.2363 72.1903 98.0011 77.1503 99.7935C79.8506 100.769 81.1162 100.534 83.6766 99.1084C86.0094 97.8097 87.9653 95.8212 89.1805 93.4401C90.2774 91.2908 90.8798 88.6438 90.6515 86.1927Z" fill="#60DEA1"/>
<path d="M38.8099 68.732C39.7726 65.8385 40.0733 62.6219 40.3128 59.5535C40.4217 58.1577 40.5274 56.7267 40.1427 55.3803C38.906 51.0526 32.3232 53.0362 28.9712 53.4795C23.8486 54.1568 18.8329 55.4858 13.9296 57.0928C12.8856 57.435 11.781 57.818 11.0945 58.6759C9.25039 60.9806 13.3317 69.3157 14.4897 71.6667C16.1821 75.1027 18.9469 82.0612 23.8242 81.4087C25.3175 81.2089 26.6559 80.4162 27.9475 79.6405C32.4514 76.9353 37.0703 73.9606 38.8099 68.732Z" fill="#F1633D"/>
<path d="M38.6242 53.7446C39.5167 56.1157 39.9433 58.5992 39.9144 61.1242C39.8857 63.6415 39.4033 66.1278 38.4811 68.4831C37.604 70.7233 36.2916 72.7989 34.678 74.5582C33.0844 76.2957 31.2498 77.7199 29.1818 78.8474C27.1288 79.9667 24.9056 80.7419 22.5756 81.1277C22.2816 81.1764 22.0395 81.2107 21.7729 81.2425C21.4957 81.2756 21.2559 81.4564 21.2559 81.7596C21.2559 82.0133 21.4938 82.31 21.7729 82.2766C24.2411 81.9818 26.6304 81.2703 28.8624 80.1758C31.0541 79.1009 33.0754 77.6557 34.7994 75.9271C36.5578 74.1639 38.0097 72.0916 39.0319 69.8196C40.1217 67.397 40.7561 64.7922 40.9127 62.1403C41.0665 59.5351 40.7477 56.8849 39.9468 54.3996C39.8461 54.087 39.7371 53.7771 39.6214 53.4698C39.5231 53.2086 39.2722 53.0298 38.9853 53.1086C38.7347 53.1775 38.5253 53.4819 38.6242 53.7446Z" fill="black"/>
<path d="M41.8855 53.496C42.7682 56.4001 43.2463 59.4142 43.3004 62.4492C43.347 65.0618 43.0687 67.5289 42.3042 70.0297C41.5833 72.3884 40.5013 74.6234 39.0498 76.6392C37.6167 78.6295 35.7623 80.358 33.6213 81.6174C31.3214 82.9703 28.7063 83.8268 26.0556 84.0648C25.7172 84.0952 25.3781 84.1155 25.0386 84.1275C24.7594 84.1374 24.5215 84.3581 24.5215 84.6446C24.5215 84.9171 24.7582 85.1715 25.0386 85.1616C27.8737 85.0615 30.6667 84.3273 33.1909 83.0339C35.5374 81.8315 37.6039 80.1352 39.248 78.0754C40.8714 76.0417 42.1144 73.7324 42.9802 71.2804C43.8451 68.8308 44.2854 66.2653 44.334 63.67C44.3929 60.5243 44.0099 57.3612 43.1975 54.3214C43.099 53.9528 42.9936 53.5861 42.8826 53.221C42.6896 52.586 41.6912 52.8567 41.8855 53.496Z" fill="#F9C7C7"/>
<path d="M62.8275 99.2055C63.91 102.111 63.606 105.364 64.9598 108.187C65.6581 109.644 66.8295 110.908 68.4571 111.263C70.1011 111.621 71.7387 111.167 73.365 110.94C73.4761 110.925 73.241 110.955 73.4343 110.931C73.4838 110.925 73.5334 110.919 73.583 110.914C73.6825 110.902 73.7822 110.892 73.8819 110.884C74.0818 110.867 74.2821 110.855 74.4827 110.85C74.6817 110.845 74.8809 110.847 75.0798 110.858C75.2627 110.868 75.4616 110.887 75.5843 110.907C75.7733 110.938 75.9608 110.978 76.1449 111.031C76.3145 111.08 76.4949 111.145 76.6017 111.195C76.9687 111.367 77.2082 111.537 77.4777 111.819C77.938 112.302 78.6686 111.57 78.209 111.088C77.1799 110.01 75.6419 109.75 74.2123 109.826C72.6803 109.908 71.1923 110.392 69.6516 110.364C68.9111 110.35 68.1821 110.194 67.5459 109.78C66.9405 109.386 66.4778 108.793 66.1178 108.169C65.3859 106.9 65.0919 105.416 64.865 103.964C64.6007 102.272 64.4268 100.547 63.8247 98.9307C63.7272 98.6691 63.4748 98.4909 63.1886 98.5695C62.9373 98.6386 62.7295 98.9425 62.8275 99.2055Z" fill="#F9C7C7"/>
<path d="M70.0634 111.149C71.1416 113.366 72.4192 115.484 73.8776 117.471C75.3425 119.466 76.9763 121.337 78.7701 123.043C79.7755 124 80.8299 124.904 81.9273 125.754C82.1479 125.924 82.4435 125.969 82.6585 125.754C82.8366 125.576 82.8806 125.194 82.6585 125.022C80.727 123.527 78.9305 121.86 77.2956 120.045C75.6749 118.246 74.2192 116.304 72.946 114.244C72.2221 113.073 71.5585 111.865 70.9563 110.627C70.8342 110.376 70.4768 110.309 70.2489 110.442C69.9926 110.592 69.9408 110.897 70.0634 111.149Z" fill="#F9C7C7"/>
<path d="M90.3796 86.6398C92.746 87.288 95.2661 87.3251 97.6531 86.7592C98.3255 86.5997 98.9843 86.3893 99.6259 86.1329H99.351C99.9576 86.2735 100.564 86.4141 101.171 86.5547C101.391 86.6056 101.611 86.655 101.83 86.7076C102.352 86.8325 102.777 87.0714 103.143 87.459C103.325 87.6527 103.456 87.842 103.591 88.1173C103.685 88.3101 103.774 88.5964 103.819 88.8709C103.827 88.9195 103.833 88.9683 103.84 89.0171C103.859 89.1483 103.834 88.959 103.843 89.0326C103.853 89.1172 103.864 89.2018 103.874 89.2865C103.894 89.4663 103.912 89.6465 103.927 89.8268C103.996 90.6617 104.005 91.5016 103.958 92.3379C103.944 92.5798 103.925 92.8213 103.902 93.0625C103.891 93.1794 103.878 93.2962 103.865 93.4128C103.859 93.4681 103.852 93.5234 103.845 93.5786C103.841 93.6104 103.837 93.6421 103.833 93.6739C103.813 93.8272 103.841 93.6155 103.829 93.7044C103.754 94.2317 103.66 94.7557 103.542 95.275C103.282 96.4214 102.899 97.6014 102.447 98.6435C101.889 99.9252 101.201 101.148 100.41 102.3C99.9742 102.933 99.5075 103.544 99.0121 104.132C98.798 104.386 98.5433 104.699 98.3109 104.884C98.0706 105.075 97.7913 105.217 97.536 105.3C96.9185 105.5 96.3995 105.436 95.7659 105.249C95.4142 105.146 95.0655 105.032 94.7205 104.908C94.4354 104.805 94.0756 104.666 93.8436 104.567C93.1008 104.253 92.3665 103.892 91.6861 103.456C91.6546 103.436 91.6231 103.416 91.5922 103.395L91.7777 103.58C90.8019 101.671 89.8874 99.6542 88.0939 98.3673C87.5635 97.9867 86.9788 97.7008 86.3722 97.464C86.112 97.3624 85.8047 97.5757 85.7361 97.8251C85.6557 98.118 85.8361 98.3592 86.0973 98.4612C86.8464 98.7536 87.5729 99.1976 88.1425 99.7378C88.7312 100.296 89.1032 100.823 89.5242 101.528C89.9694 102.274 90.3522 103.055 90.7452 103.829C90.8361 104.007 90.9053 104.173 91.0766 104.292C91.1071 104.313 91.1388 104.333 91.1701 104.353C91.3263 104.453 91.486 104.547 91.6472 104.638C92.3327 105.026 93.0497 105.357 93.78 105.651C94.2606 105.845 94.7493 106.019 95.2444 106.172C95.7498 106.328 96.2591 106.472 96.7933 106.463C97.811 106.445 98.7667 105.984 99.4351 105.222C100.205 104.345 100.919 103.412 101.561 102.437C103.527 99.4515 104.765 96.003 104.986 92.4267C105.061 91.216 105.011 90.0042 104.846 88.8028C104.728 87.9467 104.345 87.1405 103.698 86.5558C103.188 86.095 102.586 85.8218 101.922 85.668L100.304 85.2928C100.103 85.2462 99.9023 85.1975 99.701 85.1531C99.6306 85.1375 99.5619 85.1172 99.4884 85.1172C99.347 85.1172 99.2145 85.1905 99.0847 85.2396C98.9288 85.2987 98.7718 85.3548 98.6138 85.4081C96.585 86.0924 94.3806 86.3065 92.2606 85.9849C91.7188 85.9027 91.183 85.7874 90.6545 85.6426C90.0117 85.4666 89.7375 86.4639 90.3796 86.6398Z" fill="black"/>
<path d="M49.0746 82.9854C51.2277 84.753 54.2737 85.46 57.2191 84.2749C60.5242 82.9451 62.5469 79.1742 62.1112 75.6806C61.6111 71.6693 57.9235 68.3078 53.8496 68.3322C50.311 68.3534 47.2718 71.6134 46.4023 74.8493C45.5315 78.0898 46.8085 81.1251 49.0746 82.9854Z" fill="white"/>
<path d="M74.7141 70.5358C77.2954 68.6929 80.212 67.3544 83.2952 66.609C84.0807 66.4192 84.8756 66.2663 85.676 66.1547C86.507 66.0389 87.3495 65.973 88.1637 65.7603C89.5939 65.3866 91.0704 64.4152 91.3111 62.8447C91.46 61.8733 91.13 60.9297 91.0721 59.9971C91.0488 59.6205 91.0624 59.3409 91.1521 59.0198C91.2053 58.8291 91.2224 58.7786 91.3328 58.6033C91.3922 58.5089 91.3672 58.54 91.4451 58.4579C91.5126 58.3868 91.5505 58.3553 91.586 58.3303C91.8139 58.1696 91.921 57.8784 91.7715 57.6228C91.6396 57.3974 91.2935 57.2756 91.0641 57.4373C90.4284 57.8855 90.1366 58.5626 90.0529 59.3187C89.9682 60.0844 90.1598 60.8339 90.2728 61.5861C90.3298 61.9652 90.3634 62.3746 90.2807 62.7519C90.2136 63.058 90.0806 63.3347 89.9157 63.5527C89.529 64.0637 88.9478 64.4138 88.3848 64.6122C87.5829 64.8948 86.7355 64.9839 85.8972 65.0912C85.0899 65.1946 84.2875 65.3264 83.4927 65.5025C81.9139 65.8522 80.3774 66.3599 78.8918 66.9972C77.2356 67.7076 75.6588 68.5958 74.1922 69.6429C73.9653 69.8049 73.8566 70.0937 74.0067 70.3503C74.1379 70.5746 74.4857 70.6989 74.7141 70.5358Z" fill="#F9C7C7"/>
<path d="M84.8247 66.5403C84.7881 66.4949 84.8753 66.6208 84.8854 66.6381C84.9175 66.6928 84.9451 66.7493 84.9733 66.806C85.0191 66.8982 84.9958 66.8535 84.9861 66.8311C85.0003 66.864 85.0131 66.8979 85.0263 66.9312C85.0526 66.9979 85.078 67.0649 85.1049 67.1313C85.2228 67.4235 85.3498 67.6964 85.5659 67.9305C85.97 68.3682 86.6243 68.5397 87.1857 68.6637C87.8108 68.8018 88.4532 68.9109 89.093 68.9399C89.8408 68.9738 90.5914 68.8989 91.3269 68.7654C94.158 68.2513 96.637 66.6847 99.3846 65.902C100.112 65.6947 100.887 65.5028 101.649 65.5131C102 65.5178 102.31 65.5889 102.57 65.76C102.622 65.7936 102.631 65.8002 102.693 65.859C102.72 65.8853 102.747 65.9129 102.773 65.9413C102.779 65.9473 102.829 66.0091 102.8 65.97C102.838 66.0212 102.899 66.1275 102.91 66.1549C102.894 66.1165 102.925 66.2027 102.924 66.1984C102.923 66.1981 102.958 66.3556 102.949 66.2832C102.982 66.5605 103.163 66.8003 103.466 66.8003C103.72 66.8003 104.017 66.5624 103.983 66.2832C103.901 65.5926 103.475 65.0174 102.838 64.7283C102.094 64.3906 101.28 64.4635 100.496 64.5912C99.0846 64.821 97.7408 65.3336 96.427 65.8822C93.818 66.9716 91.08 68.302 88.1733 67.8021C87.8564 67.7477 87.5395 67.6904 87.2276 67.6116C87.0664 67.5708 86.9064 67.5246 86.75 67.468C86.6273 67.4235 86.5637 67.3993 86.4216 67.3081C86.339 67.2551 86.2898 67.2029 86.2343 67.1138C86.1923 67.0466 86.1571 66.9759 86.1232 66.9043C86.0979 66.8509 86.1174 66.895 86.1222 66.9059C86.1044 66.8651 86.0888 66.8231 86.0725 66.7816C85.9336 66.4284 85.7959 66.1062 85.5559 65.809C85.3803 65.5916 85.0074 65.6263 84.8247 65.809C84.6098 66.0239 84.6487 66.3223 84.8247 66.5403Z" fill="#F9C7C7"/>
<path d="M48.7087 83.351C50.2037 84.5689 52.0365 85.3075 53.9721 85.3729C55.8719 85.437 57.7802 84.833 59.2812 83.6678C61.9408 81.6032 63.2517 77.9352 62.4461 74.6595C61.648 71.4146 58.8794 68.7024 55.6073 68.0017C53.8665 67.629 52.1137 67.8526 50.5477 68.7106C49.0046 69.5562 47.7321 70.9041 46.861 72.4235C45.9601 73.9949 45.4673 75.8258 45.6455 77.6414C45.8235 79.4544 46.592 81.1471 47.8127 82.4971C48.0899 82.8037 48.3902 83.0877 48.7087 83.351C48.9237 83.5288 49.2293 83.5616 49.4399 83.351C49.6231 83.1678 49.6562 82.7986 49.4399 82.6198C48.1989 81.5936 47.2952 80.2646 46.8832 78.726C46.4588 77.1414 46.6181 75.4596 47.2661 73.9175C47.841 72.5492 48.8585 71.1988 50.0406 70.2768C50.6555 69.7973 51.3665 69.3996 52.0566 69.1639C52.8223 68.9024 53.4942 68.8156 54.3023 68.8604C57.2195 69.0219 59.9864 71.1306 61.0852 73.8187C62.2326 76.626 61.5479 79.8855 59.4996 82.0739C58.3759 83.2745 56.9624 84.0065 55.3166 84.2658C53.6371 84.5304 51.8822 84.1513 50.418 83.2936C50.0742 83.0922 49.7342 82.8595 49.4399 82.6198C49.2236 82.4435 48.9202 82.4082 48.7086 82.6198C48.5266 82.8018 48.4911 83.1737 48.7087 83.351Z" fill="black"/>
<path d="M57.5332 76.2782C56.75 75.7517 55.4841 75.9247 55.1365 74.8635C54.9719 74.361 55.0537 73.8145 55.15 73.2946C55.4361 71.7532 55.8445 70.2355 56.3578 68.7542C55.5561 68.4815 54.7134 68.327 53.8504 68.3322C53.3113 68.3354 52.7862 68.4217 52.2762 68.5637C51.2313 71.6719 50.4092 75.2532 52.4724 77.4102C53.0253 77.9883 53.7776 78.4204 54.0896 79.1572C54.641 80.459 53.7614 81.7554 53.4295 82.9723C53.267 83.5681 53.0901 84.1581 52.9045 84.7451C54.2879 84.9822 55.7661 84.8599 57.22 84.2749C57.222 84.2741 57.2236 84.273 57.2257 84.2722C57.5946 82.7549 57.9727 81.2349 58.2694 79.7001C58.4842 78.4807 58.5608 76.969 57.5332 76.2782Z" fill="#F9C7C7"/>
<path d="M57.7928 75.8329C57.4046 75.5799 56.9482 75.4699 56.51 75.338C56.4125 75.3087 56.3153 75.2781 56.2198 75.243C56.1895 75.2319 56.0918 75.1906 56.1727 75.2267C56.1178 75.2022 56.0636 75.176 56.011 75.1469C55.972 75.1253 55.9354 75.1 55.8969 75.0777C55.8794 75.0677 55.8193 75.019 55.8945 75.08C55.8774 75.0661 55.86 75.0519 55.8442 75.0365C55.8119 75.0053 55.7809 74.9735 55.7498 74.9413C55.6959 74.8854 55.7897 75.004 55.7458 74.9379C55.7283 74.9116 55.711 74.8855 55.6951 74.8581C55.6822 74.8361 55.626 74.7089 55.6514 74.7776C55.6287 74.7162 55.6101 74.6528 55.5949 74.5891C55.5609 74.4475 55.5559 74.3042 55.5588 74.1588C55.5651 73.8368 55.6293 73.5212 55.6904 73.2061C55.8223 72.5249 55.9781 71.8484 56.1561 71.1778C56.3605 70.4077 56.5951 69.646 56.8551 68.8929C56.9499 68.6184 56.7452 68.3411 56.494 68.2568C55.6924 67.9881 54.8477 67.8299 54.0012 67.8171C53.5488 67.8102 53.0963 67.8572 52.6524 67.9439C52.4621 67.981 52.2537 68.0139 52.0756 68.0924C51.8116 68.2087 51.7575 68.4805 51.6759 68.7297C51.2325 70.0834 50.8594 71.4687 50.7237 72.8907C50.5989 74.199 50.7191 75.5722 51.3513 76.7462C51.668 77.3341 52.1151 77.8162 52.6166 78.2502C53.1209 78.6865 53.5891 79.0612 53.7222 79.7258C53.8707 80.4673 53.4895 81.285 53.2198 81.9892C52.8927 82.8431 52.6797 83.7372 52.4046 84.6089C52.3268 84.8554 52.4967 85.2001 52.7657 85.245C53.7381 85.4072 54.7073 85.4134 55.6801 85.2493C56.1768 85.1655 56.6655 85.0341 57.1378 84.859C57.4378 84.7478 57.6453 84.6706 57.7414 84.335C57.8164 84.073 57.8711 83.8029 57.9355 83.5381C58.1755 82.5504 58.4118 81.5617 58.62 80.5667C58.7895 79.7562 58.9585 78.9244 58.911 78.0916C58.8598 77.1945 58.5522 76.3603 57.7928 75.8329C57.5634 75.6735 57.2186 75.7907 57.0854 76.0184C56.9349 76.2756 57.0409 76.5661 57.2709 76.7259C57.4326 76.8382 57.5684 77.0013 57.6813 77.2288C57.6963 77.2592 57.7106 77.2898 57.7242 77.3209C57.7043 77.276 57.7058 77.2824 57.7286 77.3401C57.7489 77.4063 57.7722 77.4712 57.7902 77.5382C57.8039 77.5891 57.816 77.6404 57.8268 77.692C57.8306 77.7099 57.8643 77.9031 57.8523 77.819C57.8941 78.1114 57.8911 78.4129 57.8737 78.7071C57.866 78.8385 57.8541 78.9696 57.8393 79.1003C57.8351 79.1375 57.8306 79.1746 57.8259 79.2117C57.8321 79.1665 57.8308 79.1759 57.8217 79.2398C57.8109 79.3123 57.7998 79.3848 57.7878 79.4571C57.5255 81.0316 57.1027 82.5862 56.7258 84.136L56.9634 83.827C57.0874 83.7686 56.8162 83.879 56.7901 83.8884C56.7056 83.9188 56.6205 83.9477 56.535 83.9753C56.3546 84.0336 56.1722 84.0858 55.988 84.1311C55.6744 84.2084 55.3559 84.2695 55.0345 84.3024C54.3722 84.3702 53.6977 84.3574 53.0406 84.2477L53.4018 84.8838C53.6068 84.2341 53.779 83.5749 53.9814 82.9248C54.1627 82.3422 54.4252 81.7883 54.5977 81.2027C54.7832 80.5734 54.8606 79.8906 54.67 79.2525C54.4949 78.6663 54.1167 78.2019 53.6685 77.7988C53.465 77.6159 53.2529 77.4426 53.0522 77.2566C52.8869 77.1034 52.6664 76.8676 52.5702 76.7381C52.2627 76.3242 52.0782 75.9404 51.9412 75.4851C51.6562 74.538 51.6662 73.4536 51.8056 72.4762C51.9892 71.1884 52.3607 69.933 52.7734 68.7023L52.4123 69.0635C53.6853 68.7162 54.9772 68.8376 56.2191 69.254C56.0987 69.042 55.9783 68.8299 55.8579 68.6179C55.3672 70.0392 54.97 71.4922 54.6859 72.969C54.5474 73.6892 54.4052 74.4613 54.6991 75.1628C54.9253 75.7027 55.3695 76.0199 55.9015 76.224C56.1374 76.3144 56.3829 76.3763 56.6245 76.449C56.753 76.4876 56.8805 76.5292 57.0054 76.5783C57.0612 76.6003 56.9971 76.5751 56.9892 76.5715C57.0241 76.5876 57.0589 76.604 57.0932 76.6216C57.1544 76.6532 57.2132 76.6883 57.2709 76.7259C57.5049 76.8784 57.8422 76.773 57.9783 76.5403C58.1254 76.2888 58.0275 75.9858 57.7928 75.8329Z" fill="black"/>
<path d="M53.1842 55.9367C53.1035 50.7206 53.0227 45.5044 52.9419 40.2883C52.8861 36.6865 52.3754 32.7702 53.5625 29.296C54.1362 27.6168 55.2507 26.143 56.9891 25.58C58.8297 24.9838 60.8638 25.2414 62.7259 25.5959C67.6993 26.5425 72.6401 27.7108 77.5904 28.7718C87.6961 30.9378 97.7956 33.1356 107.91 35.259C117.893 37.3545 127.899 39.363 137.783 41.8928C142.266 43.0403 147.126 44.074 150.813 47.0521C153.767 49.4381 155.066 52.9012 155.376 56.6003C155.696 60.424 155.31 64.2955 155.291 68.1262C155.266 73.3141 155.24 78.502 155.215 83.6899C155.164 94.0657 155.113 104.441 155.063 114.817C155.051 117.252 155.091 119.693 155.015 122.126C154.96 123.889 154.79 125.723 154.101 127.365C153.38 129.079 152.005 130.331 150.127 130.605C147.814 130.943 145.371 130.106 143.146 129.577C133.328 127.24 123.573 124.643 113.893 121.79C104.245 118.947 94.6725 115.849 85.1884 112.501C82.8814 111.686 80.5799 110.856 78.2834 110.013C77.6578 109.783 77.388 110.782 78.0085 111.01C87.7047 114.572 97.4959 117.874 107.37 120.908C117.245 123.941 127.201 126.706 137.226 129.2C139.732 129.823 142.242 130.43 144.756 131.019C146.896 131.52 149.262 132.103 151.416 131.354C155.107 130.071 155.9 125.85 156.039 122.416C156.138 119.958 156.084 117.487 156.096 115.028C156.109 112.364 156.122 109.699 156.135 107.035C156.161 101.707 156.187 96.3792 156.213 91.0511C156.262 81.1315 156.219 71.2083 156.49 61.2927C156.59 57.6352 156.5 53.8064 154.86 50.4538C152.964 46.5788 149.124 44.3237 145.194 42.9215C142.866 42.091 140.45 41.5078 138.058 40.8956C135.521 40.2461 132.975 39.6311 130.424 39.0399C125.322 37.8578 120.199 36.7724 115.073 35.7007C104.715 33.5353 94.37 31.3121 84.0235 29.0945C78.8233 27.9799 73.6231 26.8653 68.4228 25.7508C66.1165 25.2564 63.8068 24.6586 61.466 24.3506C59.5921 24.1041 57.5916 24.0877 55.8534 24.929C52.393 26.6038 51.8498 31.0666 51.8031 34.468C51.777 36.3724 51.8767 38.2791 51.9062 40.1832C51.9474 42.8438 51.9886 45.5044 52.0298 48.165C52.0699 50.7555 52.11 53.3461 52.1501 55.9367C52.1604 56.6015 53.1946 56.6035 53.1842 55.9367Z" fill="black"/>
<path d="M108.986 91.5833C111.174 91.7276 113.359 91.8957 115.546 92.0499C116.296 92.1028 117.045 92.1535 117.795 92.2029C118.139 92.2256 118.373 91.8551 118.294 91.5484C117.482 88.3921 117.74 84.7726 119.655 82.0477C120.079 81.4436 120.658 80.8223 121.206 80.4143C121.763 79.9999 122.385 79.6692 122.994 79.4519C124.308 78.9829 125.73 78.8694 127.048 79.1531C128.527 79.4719 129.827 80.2634 130.606 81.5441C130.883 81.9995 131.536 81.7849 131.57 81.2832C131.81 77.7174 134.058 74.3951 137.269 72.8342C140.143 71.4369 143.674 71.4942 146.594 72.7238C148.253 73.4229 149.763 74.5258 150.832 75.9562C151.07 76.2757 151.49 76.2979 151.725 75.9562C152.587 74.7024 154.068 73.9281 155.585 73.9052C156.25 73.8952 156.252 72.861 155.585 72.8711C153.687 72.8998 151.904 73.874 150.832 75.4343H151.725C149.567 72.5462 146.076 70.9325 142.509 70.7775C140.745 70.7008 138.956 70.9946 137.327 71.6808C135.538 72.4341 134.009 73.6579 132.832 75.1968C131.492 76.9494 130.684 79.0819 130.535 81.2832C130.857 81.1962 131.178 81.1092 131.499 81.0222C129.831 78.2801 126.288 77.4704 123.33 78.2642C121.759 78.6857 120.365 79.5654 119.315 80.8081C118.148 82.1901 117.404 83.8844 117.068 85.6561C116.681 87.6973 116.78 89.8138 117.297 91.8233C117.463 91.6052 117.629 91.387 117.795 91.1688C115.608 91.0246 113.422 90.8565 111.235 90.7022C110.485 90.6493 109.736 90.5986 108.986 90.5492C108.707 90.5308 108.469 90.8 108.469 91.0663C108.469 91.3614 108.706 91.5649 108.986 91.5833Z" fill="black"/>
<path d="M101.589 102.456C103.308 103.937 105.027 105.418 106.746 106.898L106.851 106.086C105.305 107.262 104.15 108.874 103.551 110.724C102.912 112.696 103.024 114.808 103.706 116.752C104.096 117.866 104.641 118.921 105.288 119.906C105.441 120.139 105.746 120.238 105.996 120.092C106.227 119.956 106.335 119.619 106.181 119.384C105.135 117.792 104.31 115.972 104.173 114.051C104.047 112.286 104.512 110.566 105.463 109.073C105.965 108.283 106.634 107.541 107.373 106.979C107.616 106.795 107.757 106.407 107.478 106.167C105.759 104.686 104.04 103.205 102.32 101.725C102.109 101.542 101.797 101.517 101.589 101.725C101.403 101.911 101.377 102.273 101.589 102.456Z" fill="black"/>
<path d="M103.015 86.4972C104.18 84.6281 105.899 83.1495 107.918 82.2343C108.449 81.9935 109.06 81.7846 109.656 81.6302C109.989 81.5438 110.119 81.1594 109.965 80.8707C109.582 80.1563 109.32 79.4328 109.162 78.5951C109.146 78.509 109.131 78.4226 109.118 78.3359C109.117 78.3322 109.093 78.1615 109.107 78.2658C109.1 78.2139 109.094 78.162 109.088 78.11C109.067 77.9201 109.053 77.7295 109.045 77.5387C109.029 77.1417 109.042 76.7436 109.081 76.3482C109.113 76.0244 109.175 75.6574 109.27 75.2604C109.358 74.8889 109.47 74.5228 109.601 74.1642C109.738 73.7933 109.858 73.5196 110.055 73.1343C110.239 72.7729 110.444 72.422 110.668 72.0831C111.505 70.8127 112.68 69.6591 113.972 68.8403C114.677 68.3935 115.377 68.0517 116.112 67.7987C116.941 67.513 117.709 67.357 118.562 67.3483C120.499 67.3286 122.424 68.0661 123.71 69.5626C123.876 69.7557 124.202 69.7525 124.389 69.603C124.603 69.433 124.634 69.1768 124.522 68.936C124.5 68.8882 124.467 68.8069 124.434 68.702C124.396 68.5816 124.37 68.4597 124.344 68.3363C124.325 68.2458 124.341 68.3541 124.333 68.2622C124.328 68.2091 124.324 68.1561 124.321 68.1028C124.315 67.9873 124.316 67.8715 124.323 67.7561C124.327 67.7026 124.332 67.6493 124.337 67.5961C124.344 67.5348 124.338 67.5887 124.336 67.6003C124.34 67.5737 124.344 67.5471 124.349 67.5206C124.371 67.3959 124.399 67.2725 124.434 67.1508C124.499 66.9217 124.566 66.7502 124.649 66.5808C125.065 65.7364 125.702 65.0886 126.524 64.6543C128.365 63.6829 130.551 63.3627 132.634 63.6242C133.73 63.7618 134.882 64.118 135.862 64.6653C136.443 64.9903 136.965 64.0974 136.384 63.7723C134.3 62.6078 131.832 62.3039 129.491 62.6408C127.306 62.9552 124.935 63.8675 123.833 65.9098C123.235 67.0181 123.094 68.2989 123.629 69.458L124.442 68.8314C123.161 67.3416 121.268 66.5167 119.333 66.3444C117.49 66.1802 115.658 66.7094 114.051 67.5925C111.071 69.2301 108.694 72.2536 108.139 75.6462C107.816 77.6239 108.124 79.6221 109.072 81.3926C109.175 81.1395 109.278 80.8863 109.381 80.6331C107.074 81.231 104.949 82.5327 103.365 84.3136C102.906 84.8309 102.488 85.388 102.122 85.9753C101.769 86.5417 102.663 87.0614 103.015 86.4972Z" fill="black"/>
<path d="M104.503 98.5336C107.209 99.544 109.895 100.61 112.555 101.737C115.232 102.871 117.885 104.063 120.511 105.311C121.992 106.016 123.464 106.738 124.927 107.478C125.176 107.604 125.488 107.543 125.635 107.292C125.769 107.062 125.699 106.711 125.449 106.585C122.831 105.261 120.185 103.994 117.512 102.786C114.834 101.574 112.129 100.421 109.401 99.3263C107.867 98.7108 106.326 98.1144 104.778 97.5364C104.517 97.4387 104.211 97.6453 104.142 97.8976C104.063 98.1872 104.241 98.4356 104.503 98.5336Z" fill="#F1633D"/>
<path d="M119.712 97.6057C120.817 97.9341 121.921 98.2626 123.026 98.5911C123.285 98.6681 123.601 98.4984 123.662 98.2299C123.726 97.952 123.579 97.6764 123.301 97.5939C122.196 97.2654 121.091 96.937 119.987 96.6085C119.727 96.5314 119.412 96.7012 119.351 96.9696C119.287 97.2475 119.434 97.5232 119.712 97.6057Z" fill="#F1633D"/>
<path d="M134.835 123.731C133.734 122.544 132.984 121.072 132.601 119.486C132.223 117.926 132.216 116.245 132.605 114.686C132.998 113.11 133.781 111.696 134.909 110.545C136.019 109.412 137.416 108.557 138.9 108.062C140.621 107.489 142.444 107.37 144.177 107.788C144.573 107.884 144.896 107.541 144.813 107.152C144.794 107.064 144.776 106.975 144.761 106.885C144.753 106.841 144.746 106.796 144.74 106.752C144.725 106.651 144.751 106.873 144.733 106.701C144.715 106.523 144.701 106.344 144.696 106.164C144.692 105.986 144.695 105.806 144.707 105.628C144.712 105.539 144.72 105.45 144.729 105.361C144.733 105.325 144.737 105.29 144.741 105.254C144.755 105.136 144.733 105.287 144.752 105.179C144.815 104.816 144.895 104.459 145.009 104.109C145.062 103.946 145.121 103.786 145.186 103.627C145.251 103.466 145.166 103.67 145.207 103.577C145.225 103.535 145.244 103.494 145.262 103.453C145.304 103.363 145.347 103.274 145.392 103.185C146.041 101.911 147.012 100.879 148.261 100.206C148.632 100.006 148.872 99.9033 149.272 99.7786C149.46 99.7199 149.651 99.6703 149.845 99.6303C149.95 99.6083 150.057 99.59 150.164 99.5732C150.208 99.5662 150.287 99.5578 150.404 99.5474C150.682 99.5226 150.921 99.3275 150.921 99.0303C150.921 98.7698 150.684 98.4884 150.404 98.5133C147.154 98.8026 144.408 101.495 143.796 104.666C143.619 105.584 143.619 106.513 143.816 107.427C144.028 107.215 144.24 107.003 144.452 106.791C141.001 105.958 137.25 107.02 134.629 109.381C133.306 110.572 132.322 112.101 131.782 113.796C131.234 115.515 131.153 117.363 131.471 119.134C131.827 121.112 132.735 122.988 134.104 124.463C134.557 124.952 135.287 124.219 134.835 123.731Z" fill="black"/>
<path d="M53.1396 34.6894C59.7702 36.0661 66.4 37.447 73.0267 38.8422C79.7535 40.2585 86.4773 41.6893 93.1958 43.1445C99.9496 44.6075 106.698 46.0951 113.439 47.618C120.151 49.1344 126.855 50.6858 133.548 52.2842C140.15 53.8607 146.741 55.4829 153.316 57.1648C154.121 57.3707 154.925 57.5775 155.73 57.7851C156.374 57.9515 156.65 56.9544 156.005 56.7879C149.448 55.0956 142.877 53.4636 136.293 51.8792C129.611 50.2709 122.917 48.7112 116.215 47.1876C109.476 45.6558 102.73 44.1607 95.9772 42.6915C89.2522 41.2282 82.5216 39.7908 75.7877 38.3691C69.1458 36.9669 62.5007 35.5801 55.8544 34.199C55.0411 34.03 54.2278 33.8611 53.4145 33.6922C52.7651 33.5574 52.4874 34.554 53.1396 34.6894Z" fill="black"/>
<path d="M110.412 105.558C110.474 105.588 110.534 105.621 110.593 105.657C110.621 105.674 110.751 105.766 110.694 105.721C110.798 105.804 110.889 105.9 110.977 106C111.043 106.075 111.001 106.031 110.988 106.012C111.007 106.039 111.026 106.066 111.045 106.094C111.082 106.15 111.116 106.207 111.149 106.265C111.181 106.324 111.211 106.385 111.239 106.446C111.24 106.447 111.272 106.524 111.254 106.478C111.234 106.428 111.279 106.549 111.283 106.559C111.378 106.829 111.429 107.091 111.446 107.296C111.47 107.581 111.464 107.871 111.428 108.155C111.437 108.084 111.412 108.247 111.405 108.281C111.393 108.35 111.378 108.419 111.361 108.487C111.321 108.657 111.27 108.824 111.215 108.989C111.099 109.334 110.958 109.668 110.808 109.998C110.492 110.696 110.148 111.386 109.916 112.118C109.555 113.261 109.544 114.656 110.228 115.687C110.584 116.223 111.089 116.596 111.704 116.784C112.264 116.955 112.857 116.975 113.413 117.164C113.495 117.192 113.355 117.136 113.433 117.171C113.471 117.188 113.509 117.207 113.547 117.227C113.576 117.243 113.605 117.261 113.634 117.279C113.633 117.278 113.739 117.355 113.705 117.327C113.789 117.397 113.869 117.499 113.939 117.639C114.088 117.935 114.153 118.344 114.295 118.677C114.593 119.379 115.519 120.034 116.253 119.508C116.48 119.346 116.589 119.058 116.438 118.801C116.307 118.577 115.959 118.452 115.731 118.615C115.704 118.635 115.677 118.656 115.647 118.67C115.713 118.638 115.646 118.68 115.636 118.666L115.658 118.662C115.695 118.656 115.687 118.655 115.632 118.657C115.634 118.66 115.717 118.67 115.65 118.658C115.562 118.642 115.494 118.601 115.409 118.517C115.329 118.44 115.301 118.407 115.24 118.275C115.189 118.165 115.137 117.972 115.096 117.83C114.9 117.163 114.596 116.565 113.931 116.267C113.384 116.022 112.795 115.985 112.218 115.85C112.084 115.819 111.954 115.781 111.825 115.735C111.74 115.705 111.88 115.761 111.798 115.726C111.774 115.715 111.751 115.703 111.727 115.692C111.659 115.657 111.592 115.619 111.528 115.577C111.5 115.558 111.472 115.539 111.445 115.519C111.378 115.469 111.494 115.563 111.433 115.507C111.39 115.468 111.346 115.43 111.305 115.389C111.259 115.342 111.215 115.292 111.173 115.241C111.225 115.305 111.122 115.167 111.108 115.145C110.836 114.726 110.723 114.232 110.709 113.747C110.691 113.136 110.81 112.647 111.039 112.031C111.528 110.711 112.322 109.502 112.471 108.075C112.605 106.787 112.169 105.28 110.934 104.665C110.684 104.54 110.374 104.598 110.227 104.85C110.093 105.079 110.161 105.433 110.412 105.558Z" fill="#F1633D"/>
<path d="M117.219 110.075C116.742 111.477 117.133 113.101 118.164 114.155C118.36 114.355 118.7 114.351 118.896 114.155C119.096 113.955 119.092 113.624 118.896 113.424C118.108 112.618 117.852 111.421 118.216 110.35C118.306 110.086 118.113 109.785 117.855 109.714C117.572 109.636 117.309 109.81 117.219 110.075Z" fill="#F1633D"/>
<path d="M133.422 103.453C134.388 102.661 135.66 102.199 136.892 102.142C137.561 102.111 138.133 102.191 138.774 102.352C139.469 102.528 140.288 102.602 140.751 101.936C140.968 101.625 141.001 101.232 140.999 100.864C140.998 100.712 140.994 100.561 141.001 100.41C141.004 100.34 141.008 100.271 141.014 100.201C141.018 100.161 141.022 100.122 141.026 100.082C141.033 100.013 141.028 100.054 141.034 100.012C141.122 99.3926 141.315 98.828 141.601 98.304C142.184 97.2381 143.118 96.3943 144.28 96.01C145.658 95.554 147.182 95.6997 148.434 96.4497C149.006 96.7926 149.526 95.8989 148.955 95.5568C147.695 94.8015 146.186 94.5639 144.746 94.8247C143.379 95.0723 142.135 95.8351 141.28 96.927C140.428 98.0158 139.947 99.3528 139.963 100.74C139.965 100.864 139.968 101.092 139.958 101.157C139.95 101.208 139.925 101.301 139.918 101.322C139.919 101.318 139.844 101.415 139.884 101.383C139.86 101.402 139.822 101.423 139.793 101.436C139.862 101.406 139.78 101.435 139.769 101.437C139.757 101.44 139.67 101.456 139.747 101.446C139.711 101.45 139.672 101.451 139.636 101.451C139.471 101.452 139.404 101.438 139.221 101.397C138.53 101.241 137.858 101.096 137.144 101.101C135.519 101.113 133.945 101.693 132.691 102.722C132.475 102.899 132.507 103.269 132.691 103.453C132.905 103.667 133.206 103.631 133.422 103.453Z" fill="#F1633D"/>
<path d="M135.672 82.3761C136.56 79.4332 139.127 77.2014 142.22 76.7685C143.105 76.6447 144.04 76.6746 144.916 76.8553C145.189 76.9116 145.475 76.7758 145.552 76.4942C145.623 76.2382 145.466 75.9148 145.191 75.8581C143.385 75.4857 141.496 75.6612 139.796 76.3772C138.206 77.0467 136.856 78.1713 135.877 79.5892C135.347 80.3554 134.944 81.2101 134.675 82.1012C134.482 82.7397 135.48 83.0126 135.672 82.3761Z" fill="#F1633D"/>
<path d="M144.925 82.1002C144.997 82.0259 145.074 81.9573 145.155 81.8938L145.051 81.9747C145.195 81.8651 145.351 81.7746 145.518 81.703L145.394 81.7551C145.57 81.6821 145.752 81.6316 145.94 81.6048L145.803 81.6233C145.931 81.6066 146.06 81.601 146.189 81.6072C146.46 81.62 146.718 81.3602 146.706 81.0901C146.693 80.799 146.479 80.5868 146.189 80.573C145.453 80.5381 144.706 80.8411 144.194 81.3689C144.005 81.5633 143.986 81.9093 144.194 82.1002C144.397 82.2873 144.724 82.3076 144.925 82.1002Z" fill="#F1633D"/>
<path d="M113.734 81.0091C113.578 80.3399 113.584 79.5941 113.74 78.9211C113.903 78.2222 114.211 77.5535 114.626 77.0113C115.563 75.7877 117.022 75.1749 118.533 75.2271C119.371 75.256 120.198 75.5041 120.924 75.9668C121.141 76.105 121.521 76.0304 121.631 75.7813C121.989 74.9775 122.549 74.3425 123.273 73.8931C124.014 73.4336 124.816 73.2124 125.683 73.2494C125.962 73.2613 126.2 73.0032 126.2 72.7323C126.2 72.4423 125.963 72.2272 125.683 72.2152C123.632 72.1278 121.575 73.3783 120.738 75.2594L121.446 75.0739C119.926 74.1051 117.921 73.921 116.242 74.5715C114.562 75.2223 113.316 76.6373 112.817 78.3645C112.543 79.313 112.513 80.3227 112.737 81.284C112.8 81.5561 113.112 81.7171 113.373 81.6452C113.652 81.5686 113.798 81.282 113.734 81.0091Z" fill="#F1633D"/>
<path d="M126.937 88.1775C127.046 87.9304 127.18 87.6959 127.339 87.4782C127.362 87.4477 127.4 87.3609 127.348 87.4661C127.361 87.4404 127.388 87.4167 127.406 87.3949C127.449 87.3432 127.494 87.2926 127.54 87.2433C127.632 87.1446 127.729 87.0508 127.831 86.9624C127.875 86.9238 127.922 86.8752 127.972 86.8451C127.861 86.911 127.958 86.8563 127.985 86.8371C128.015 86.8155 128.045 86.7943 128.075 86.7735C128.186 86.6974 128.301 86.6272 128.42 86.5634C128.474 86.5344 128.529 86.5067 128.584 86.4804C128.605 86.4707 128.669 86.451 128.684 86.4346C128.654 86.4675 128.602 86.4681 128.679 86.4372C128.811 86.385 128.944 86.3414 129.081 86.3044C129.342 86.2336 129.528 85.9334 129.442 85.6684C129.355 85.4009 129.085 85.2313 128.806 85.3073C127.605 85.633 126.547 86.5125 126.044 87.6555C125.935 87.9024 125.963 88.2224 126.229 88.363C126.454 88.4814 126.82 88.4418 126.937 88.1775Z" fill="#F1633D"/>
<path d="M145.243 119.782C145.206 119.741 145.167 119.7 145.134 119.655C145.167 119.699 145.095 119.596 145.086 119.581C145.056 119.535 145.029 119.488 145.003 119.441C144.99 119.417 144.977 119.392 144.965 119.368C144.96 119.357 144.914 119.255 144.94 119.318C144.898 119.218 144.866 119.113 144.84 119.008C144.827 118.955 144.817 118.901 144.806 118.847C144.806 118.848 144.791 118.76 144.798 118.808C144.804 118.846 144.792 118.749 144.791 118.739C144.746 118.243 144.813 117.878 144.988 117.406C145.135 117.01 145.418 116.614 145.744 116.289C146.116 115.917 146.53 115.63 146.991 115.367C147.51 115.071 148.083 114.815 148.617 114.591C148.831 114.501 148.997 114.341 148.997 114.092C148.997 113.852 148.833 113.673 148.617 113.593C148.56 113.572 148.557 113.571 148.609 113.592C148.581 113.578 148.553 113.564 148.526 113.549C148.486 113.526 148.448 113.501 148.41 113.475C148.5 113.538 148.359 113.425 148.343 113.409C148.311 113.377 148.281 113.343 148.252 113.308C148.322 113.394 148.214 113.244 148.203 113.226C148.18 113.186 148.16 113.145 148.138 113.104C148.113 113.05 148.112 113.048 148.134 113.1C148.123 113.07 148.112 113.041 148.102 113.011C148.087 112.966 148.074 112.921 148.062 112.875C148.046 112.813 148.034 112.75 148.023 112.687C148.039 112.779 148.022 112.66 148.019 112.632C148.011 112.517 148.012 112.403 148.02 112.288C148.023 112.256 148.026 112.223 148.03 112.19C148.023 112.238 148.023 112.243 148.029 112.206C148.04 112.149 148.051 112.093 148.065 112.037C148.079 111.982 148.095 111.927 148.113 111.872C148.12 111.853 148.183 111.702 148.141 111.792C148.596 110.805 149.727 110.323 150.694 109.888C150.949 109.773 151.01 109.403 150.879 109.18C150.726 108.918 150.428 108.88 150.172 108.995C149.179 109.442 148.187 109.938 147.518 110.828C146.939 111.599 146.82 112.66 147.207 113.541C147.428 114.043 147.831 114.403 148.342 114.591V113.593C147.18 114.081 146.002 114.605 145.08 115.491C144.228 116.311 143.667 117.483 143.753 118.684C143.801 119.371 144.046 120.003 144.512 120.513C144.7 120.72 145.052 120.705 145.243 120.513C145.449 120.308 145.432 119.989 145.243 119.782Z" fill="#F1633D"/>
<path d="M106.164 88.2763C108.008 88.2763 109.852 88.2763 111.696 88.2763C112.361 88.2763 112.362 87.2422 111.696 87.2422C109.852 87.2422 108.008 87.2422 106.164 87.2422C105.498 87.2422 105.497 88.2763 106.164 88.2763Z" fill="#F1633D"/>
<path d="M105.556 95.1702C107.939 95.6709 110.323 96.1716 112.707 96.6723C112.98 96.7296 113.266 96.5921 113.343 96.3111C113.414 96.0544 113.256 95.7328 112.982 95.6751C110.598 95.1744 108.214 94.6737 105.831 94.173C105.558 94.1156 105.272 94.2532 105.195 94.5341C105.124 94.7909 105.281 95.1125 105.556 95.1702Z" fill="#F1633D"/>
<path d="M139.552 46.3633C136.83 46.3862 137.997 50.3827 140.12 50.2539C142.414 50.1147 141.766 46.3448 139.552 46.3633Z" fill="#60DEA1"/>
<path d="M139.553 45.8439C139.007 45.8528 138.475 45.9962 138.06 46.3629C137.7 46.6805 137.52 47.1358 137.464 47.6024C137.359 48.4871 137.754 49.4436 138.382 50.061C139.101 50.7666 140.265 51.0326 141.151 50.4628C142.006 49.9133 142.215 48.8265 141.982 47.8919C141.7 46.7608 140.755 45.8458 139.553 45.8439C138.888 45.8428 138.887 46.8769 139.553 46.878C139.604 46.8781 139.655 46.8802 139.706 46.8828C139.731 46.8841 139.755 46.8877 139.78 46.8897C139.764 46.8884 139.663 46.8657 139.752 46.887C139.851 46.9106 139.947 46.9331 140.045 46.965C140.166 47.0046 139.969 46.9226 140.082 46.98C140.117 46.9983 140.153 47.0158 140.189 47.0356C140.228 47.058 140.267 47.082 140.305 47.1073C140.324 47.1199 140.342 47.134 140.362 47.1463C140.457 47.2079 140.283 47.0704 140.365 47.1493C140.426 47.2089 140.492 47.2628 140.55 47.3257C140.581 47.3587 140.608 47.3979 140.64 47.429C140.689 47.4762 140.587 47.3482 140.623 47.4056C140.638 47.4297 140.657 47.452 140.673 47.4755C140.725 47.5513 140.773 47.6302 140.816 47.7115C140.837 47.7522 140.855 47.795 140.877 47.8354C140.884 47.8476 140.909 47.9043 140.879 47.8369C140.845 47.7612 140.886 47.8544 140.892 47.8712C140.923 47.9577 140.953 48.0445 140.976 48.1336C140.988 48.1778 140.998 48.2223 141.008 48.267C141.013 48.2932 141.04 48.4478 141.027 48.3662C141.013 48.2771 141.033 48.4301 141.034 48.4486C141.038 48.4931 141.04 48.5377 141.041 48.5823C141.042 48.6763 141.034 48.7684 141.028 48.862C141.024 48.9491 141.055 48.7469 141.023 48.8843C141.015 48.9206 141.008 48.9572 140.999 48.9934C140.989 49.0342 140.977 49.0746 140.964 49.1146C140.945 49.1736 140.899 49.2582 140.954 49.151C140.917 49.2245 140.88 49.2958 140.836 49.3665C140.772 49.4712 140.871 49.3385 140.826 49.3844C140.794 49.4173 140.765 49.4534 140.732 49.4856C140.707 49.5104 140.675 49.5314 140.652 49.558C140.735 49.4617 140.678 49.5385 140.629 49.5698C140.593 49.5932 140.555 49.6132 140.518 49.6343C140.396 49.7029 140.584 49.6203 140.472 49.6556C140.382 49.6841 140.284 49.6977 140.196 49.7283C140.129 49.7515 140.292 49.7225 140.22 49.7259C140.193 49.7271 140.167 49.7311 140.141 49.733C140.089 49.7366 140.038 49.7382 139.986 49.737C139.942 49.7361 139.898 49.7305 139.854 49.7289C139.768 49.7257 139.967 49.7553 139.83 49.7226C139.746 49.7025 139.666 49.6762 139.584 49.6516C139.519 49.6325 139.673 49.6983 139.56 49.6412C139.522 49.6218 139.483 49.6029 139.446 49.5818C139.409 49.5607 139.372 49.5383 139.336 49.5147C139.315 49.5005 139.196 49.4123 139.258 49.4609C139.325 49.5144 139.21 49.4193 139.197 49.4079C139.169 49.3825 139.141 49.3564 139.114 49.3297C139.043 49.26 138.98 49.1848 138.915 49.1091C138.979 49.1842 138.94 49.1416 138.907 49.0943C138.881 49.058 138.856 49.0211 138.832 48.9837C138.782 48.9039 138.735 48.8216 138.693 48.7371C138.673 48.6973 138.656 48.6566 138.636 48.6166C138.685 48.718 138.646 48.64 138.626 48.5866C138.595 48.5044 138.568 48.4208 138.546 48.3361C138.524 48.2524 138.509 48.1679 138.492 48.0832C138.478 48.0127 138.5 48.1944 138.491 48.063C138.487 48.0161 138.483 47.9693 138.482 47.9223C138.48 47.8545 138.457 47.6906 138.495 47.6321C138.5 47.6232 138.465 47.7511 138.487 47.6954C138.495 47.6734 138.495 47.6457 138.5 47.6223C138.51 47.5744 138.522 47.5269 138.536 47.48C138.543 47.4568 138.59 47.32 138.559 47.4055C138.528 47.4902 138.581 47.3618 138.594 47.3376C138.615 47.2997 138.639 47.2646 138.661 47.2277C138.714 47.1395 138.589 47.3007 138.677 47.2073C138.707 47.1755 138.738 47.1447 138.769 47.1138C138.782 47.1006 138.803 47.0901 138.814 47.0748C138.843 47.031 138.718 47.134 138.792 47.0917C138.837 47.0661 138.878 47.0349 138.924 47.0102C138.974 46.9828 139.051 46.9545 138.947 46.9933C139.052 46.9541 139.158 46.921 139.268 46.8995C139.293 46.8947 139.319 46.8923 139.343 46.8865C139.411 46.8706 139.217 46.8939 139.343 46.8882C139.413 46.8849 139.483 46.8791 139.553 46.878C140.218 46.8671 140.22 45.833 139.553 45.8439Z" fill="black"/>
<path d="M145.757 47.7423C143.035 47.7651 144.202 51.7616 146.325 51.6328C148.619 51.4936 147.971 47.7237 145.757 47.7423Z" fill="#60DEA1"/>
<path d="M145.756 47.2228C145.211 47.2317 144.678 47.3751 144.263 47.7418C143.903 48.0594 143.723 48.5147 143.667 48.9813C143.562 49.866 143.957 50.8225 144.586 51.4399C145.304 52.1456 146.468 52.4115 147.354 51.8417C148.209 51.2922 148.418 50.2054 148.185 49.2709C147.903 48.1397 146.958 47.2247 145.756 47.2228C145.091 47.2217 145.09 48.2558 145.756 48.2569C145.807 48.257 145.858 48.2591 145.909 48.2617C145.934 48.263 145.959 48.2666 145.983 48.2686C145.968 48.2673 145.866 48.2446 145.955 48.2659C146.054 48.2896 146.151 48.312 146.248 48.3439C146.369 48.3835 146.172 48.3015 146.285 48.3589C146.32 48.3772 146.357 48.3947 146.392 48.4145C146.431 48.4369 146.47 48.4609 146.508 48.4862C146.527 48.4988 146.546 48.5129 146.565 48.5252C146.66 48.5868 146.486 48.4493 146.568 48.5282C146.629 48.5878 146.695 48.6417 146.754 48.7046C146.784 48.7376 146.811 48.7768 146.844 48.8079C146.892 48.8551 146.79 48.7271 146.826 48.7845C146.841 48.8086 146.86 48.8309 146.876 48.8544C146.928 48.9302 146.976 49.0091 147.019 49.0904C147.04 49.1311 147.058 49.1739 147.08 49.2143C147.087 49.2265 147.112 49.2832 147.082 49.2158C147.048 49.1401 147.089 49.2333 147.095 49.2501C147.127 49.3366 147.156 49.4234 147.179 49.5125C147.191 49.5567 147.201 49.6012 147.211 49.6459C147.216 49.6721 147.243 49.8268 147.23 49.7451C147.217 49.656 147.236 49.809 147.237 49.8275C147.241 49.872 147.243 49.9166 147.244 49.9612C147.245 50.0552 147.237 50.1473 147.232 50.2409C147.227 50.328 147.258 50.1258 147.226 50.2632C147.218 50.2996 147.211 50.3361 147.202 50.3723C147.192 50.4131 147.18 50.4536 147.167 50.4936C147.148 50.5525 147.102 50.6371 147.158 50.5299C147.12 50.6034 147.083 50.6747 147.039 50.7454C146.976 50.8501 147.074 50.7174 147.029 50.7633C146.997 50.7962 146.968 50.8323 146.935 50.8645C146.91 50.8893 146.878 50.9103 146.855 50.9369C146.938 50.8406 146.881 50.9174 146.833 50.9487C146.796 50.9721 146.758 50.9921 146.721 51.0132C146.599 51.0818 146.787 50.9993 146.676 51.0345C146.585 51.063 146.487 51.0766 146.399 51.1072C146.332 51.1305 146.496 51.1014 146.423 51.1048C146.396 51.106 146.37 51.11 146.344 51.1119C146.292 51.1155 146.241 51.1171 146.189 51.1159C146.145 51.115 146.101 51.1094 146.057 51.1078C145.971 51.1046 146.17 51.1342 146.034 51.1015C145.95 51.0814 145.869 51.0551 145.787 51.0305C145.722 51.0114 145.876 51.0773 145.763 51.0201C145.725 51.0007 145.687 50.9818 145.649 50.9607C145.612 50.9396 145.575 50.9172 145.54 50.8936C145.518 50.8794 145.399 50.7912 145.461 50.8398C145.528 50.8933 145.413 50.7982 145.4 50.7868C145.372 50.7614 145.344 50.7353 145.317 50.7086C145.246 50.6389 145.183 50.5637 145.119 50.488C145.182 50.5631 145.143 50.5205 145.11 50.4732C145.084 50.4369 145.059 50.4 145.036 50.3626C144.985 50.2828 144.938 50.2005 144.896 50.116C144.876 50.0762 144.859 50.0355 144.839 49.9955C144.888 50.0969 144.849 50.0189 144.829 49.9655C144.798 49.8833 144.772 49.7997 144.749 49.715C144.727 49.6313 144.712 49.5469 144.695 49.4621C144.681 49.3916 144.703 49.5733 144.694 49.4419C144.69 49.395 144.687 49.3482 144.685 49.3012C144.683 49.2334 144.66 49.0695 144.698 49.011C144.703 49.0021 144.668 49.13 144.69 49.0743C144.698 49.0523 144.698 49.0246 144.703 49.0012C144.713 48.9533 144.725 48.9058 144.739 48.8589C144.746 48.8357 144.793 48.6989 144.762 48.7845C144.731 48.8691 144.784 48.7407 144.797 48.7165C144.818 48.6786 144.842 48.6435 144.864 48.6066C144.917 48.5184 144.792 48.6797 144.88 48.5862C144.911 48.5544 144.941 48.5236 144.972 48.4927C144.985 48.4795 145.007 48.469 145.017 48.4537C145.046 48.4099 144.921 48.5129 144.995 48.4706C145.04 48.445 145.082 48.4138 145.127 48.3891C145.178 48.3617 145.254 48.3334 145.15 48.3722C145.256 48.333 145.361 48.2999 145.471 48.2785C145.496 48.2737 145.522 48.2712 145.546 48.2654C145.614 48.2495 145.42 48.2729 145.546 48.2671C145.616 48.2638 145.686 48.258 145.756 48.2569C146.421 48.2461 146.423 47.2119 145.756 47.2228Z" fill="black"/>
<path d="M132.657 44.9844C129.936 45.0073 131.102 49.0038 133.225 48.875C135.52 48.7358 134.871 44.9659 132.657 44.9844Z" fill="#60DEA1"/>
<path d="M132.658 44.465C132.113 44.4739 131.581 44.6173 131.165 44.984C130.806 45.3016 130.625 45.7569 130.57 46.2235C130.464 47.1082 130.86 48.0647 131.488 48.6821C132.206 49.3877 133.37 49.6537 134.257 49.0839C135.112 48.5344 135.32 47.4476 135.087 46.513C134.805 45.3819 133.861 44.4669 132.658 44.465C131.993 44.4639 131.992 45.498 132.658 45.4991C132.71 45.4991 132.76 45.5013 132.811 45.5039C132.836 45.5052 132.861 45.5088 132.886 45.5108C132.87 45.5095 132.768 45.4868 132.857 45.5081C132.957 45.5317 133.053 45.5542 133.15 45.586C133.271 45.6257 133.075 45.5437 133.187 45.6011C133.223 45.6194 133.259 45.6369 133.294 45.6567C133.334 45.6791 133.373 45.7031 133.411 45.7284C133.43 45.741 133.448 45.7551 133.467 45.7674C133.562 45.829 133.389 45.6915 133.47 45.7704C133.532 45.83 133.597 45.8839 133.656 45.9468C133.687 45.9798 133.714 46.0189 133.746 46.0501C133.795 46.0973 133.692 45.9693 133.728 46.0267C133.744 46.0508 133.762 46.0731 133.778 46.0966C133.831 46.1724 133.878 46.2513 133.921 46.3326C133.943 46.3733 133.961 46.4161 133.983 46.4565C133.989 46.4687 134.014 46.5254 133.984 46.458C133.951 46.3823 133.991 46.4755 133.997 46.4923C134.029 46.5788 134.058 46.6656 134.082 46.7547C134.093 46.7988 134.104 46.8434 134.113 46.8881C134.119 46.9143 134.145 47.0689 134.133 46.9872C134.119 46.8982 134.138 47.0512 134.14 47.0697C134.143 47.1142 134.145 47.1588 134.146 47.2034C134.148 47.2974 134.139 47.3895 134.134 47.4831C134.129 47.5702 134.16 47.3679 134.129 47.5054C134.12 47.5417 134.114 47.5783 134.105 47.6145C134.094 47.6553 134.083 47.6957 134.069 47.7357C134.05 47.7947 134.005 47.8793 134.06 47.7721C134.022 47.8456 133.985 47.9169 133.942 47.9876C133.878 48.0923 133.976 47.9596 133.931 48.0055C133.899 48.0384 133.871 48.0745 133.838 48.1067C133.812 48.1315 133.78 48.1525 133.757 48.1791C133.841 48.0828 133.784 48.1596 133.735 48.1909C133.699 48.2143 133.661 48.2343 133.623 48.2554C133.501 48.324 133.689 48.2414 133.578 48.2767C133.488 48.3052 133.389 48.3188 133.301 48.3494C133.234 48.3726 133.398 48.3436 133.325 48.347C133.299 48.3482 133.273 48.3522 133.246 48.354C133.195 48.3576 133.143 48.3593 133.091 48.3581C133.047 48.3572 133.003 48.3516 132.959 48.35C132.873 48.3468 133.073 48.3764 132.936 48.3437C132.852 48.3235 132.772 48.2973 132.689 48.2727C132.625 48.2536 132.778 48.3194 132.665 48.2623C132.627 48.2429 132.589 48.224 132.552 48.2029C132.514 48.1818 132.478 48.1594 132.442 48.1358C132.42 48.1216 132.302 48.0334 132.363 48.082C132.431 48.1355 132.316 48.0404 132.303 48.029C132.274 48.0036 132.246 47.9775 132.219 47.9508C132.148 47.8811 132.085 47.8059 132.021 47.7302C132.084 47.8053 132.046 47.7627 132.012 47.7154C131.986 47.6791 131.962 47.6422 131.938 47.6048C131.887 47.525 131.841 47.4427 131.798 47.3582C131.779 47.3184 131.761 47.2777 131.742 47.2377C131.791 47.3391 131.751 47.2611 131.731 47.2077C131.701 47.1255 131.674 47.0419 131.651 46.9572C131.629 46.8735 131.614 46.789 131.597 46.7043C131.583 46.6338 131.606 46.8155 131.596 46.6841C131.593 46.6372 131.589 46.5904 131.588 46.5434C131.586 46.4756 131.563 46.3117 131.6 46.2532C131.606 46.2443 131.571 46.3722 131.592 46.3165C131.6 46.2945 131.601 46.2668 131.605 46.2434C131.615 46.1955 131.627 46.148 131.641 46.1011C131.649 46.0779 131.695 45.9411 131.664 46.0266C131.634 46.1113 131.687 45.9829 131.7 45.9587C131.72 45.9208 131.745 45.8857 131.767 45.8488C131.819 45.7606 131.694 45.9218 131.783 45.8284C131.813 45.7966 131.843 45.7658 131.875 45.7349C131.888 45.7217 131.909 45.7112 131.919 45.6959C131.948 45.6521 131.824 45.7551 131.898 45.7128C131.943 45.6872 131.984 45.656 132.029 45.6313C132.08 45.6039 132.157 45.5756 132.053 45.6144C132.158 45.5752 132.263 45.5421 132.374 45.5206C132.399 45.5158 132.424 45.5134 132.449 45.5076C132.516 45.4917 132.322 45.515 132.448 45.5092C132.519 45.506 132.588 45.5002 132.658 45.4991C133.323 45.4882 133.325 44.4541 132.658 44.465Z" fill="black"/>
<path d="M58.5076 28.3718C59.6993 28.5343 60.8909 28.6968 62.0826 28.8593C62.3589 28.8969 62.6377 28.7926 62.7186 28.4981C62.7849 28.2569 62.636 27.9 62.3575 27.8621C61.1659 27.6996 59.9742 27.5371 58.7825 27.3746C58.5062 27.3369 58.2274 27.4412 58.1465 27.7357C58.0802 27.9769 58.2291 28.3338 58.5076 28.3718Z" fill="#F1633D"/>
<path d="M57.9941 31.6399C59.0148 31.6315 60.0597 31.8257 60.9831 32.2193C61.2312 32.325 61.5489 32.3018 61.6905 32.0338C61.8077 31.8119 61.7707 31.4396 61.505 31.3263C60.3908 30.8513 59.2082 30.5958 57.9941 30.6057C57.7237 30.608 57.4644 30.842 57.477 31.1228C57.4895 31.4011 57.7043 31.6423 57.9941 31.6399Z" fill="#F1633D"/>
<path d="M88.2278 121.104C89.8983 123.676 90.6868 126.741 90.5089 129.792C90.4583 130.659 90.3286 131.488 90.1163 132.336C90.0128 132.749 90.4856 133.18 90.8759 132.92C92.8336 131.614 95.1505 130.963 97.4775 130.832C100.018 130.689 102.537 131.148 104.959 131.891C106.384 132.328 107.778 132.862 109.153 133.438C109.56 133.608 109.99 133.028 109.737 132.678C108.411 130.849 108.37 128.317 109.64 126.454C109.798 126.223 109.684 125.881 109.455 125.747C109.199 125.597 108.905 125.701 108.747 125.932C107.294 128.063 107.329 131.109 108.844 133.2C109.038 132.947 109.233 132.694 109.427 132.441C106.937 131.398 104.369 130.485 101.696 130.052C99.1927 129.646 96.6125 129.654 94.1534 130.323C92.8102 130.688 91.5133 131.254 90.354 132.027C90.6072 132.221 90.8604 132.416 91.1136 132.611C91.9031 129.457 91.6522 126.05 90.4068 123.047C90.0507 122.188 89.6275 121.363 89.1208 120.582C88.9689 120.348 88.6624 120.251 88.4134 120.397C88.1806 120.533 88.0751 120.869 88.2278 121.104Z" fill="#F1633D"/>
<path d="M14.0595 94.7863C15.9559 93.7583 17.8524 92.7303 19.7488 91.7024C20.3341 91.3851 19.8126 90.4919 19.2269 90.8094C17.3304 91.8374 15.434 92.8654 13.5375 93.8934C12.9523 94.2106 13.4737 95.1039 14.0595 94.7863Z" fill="black"/>
<path d="M21.1478 99.8989C21.852 99.0322 22.5561 98.1656 23.2603 97.2989C23.4306 97.0893 23.4805 96.7699 23.2603 96.5677C23.0714 96.3943 22.7112 96.3435 22.529 96.5677C21.8249 97.4343 21.1207 98.301 20.4166 99.1676C20.2463 99.3772 20.1963 99.6967 20.4166 99.8989C20.6055 100.072 20.9657 100.123 21.1478 99.8989Z" fill="black"/>
<path d="M28.4301 103.246C28.5926 102.651 28.7551 102.055 28.9176 101.459C28.9887 101.198 28.8292 100.885 28.5565 100.823C28.2837 100.761 27.9966 100.905 27.9204 101.184C27.7579 101.78 27.5954 102.376 27.4329 102.971C27.3618 103.232 27.5213 103.545 27.7941 103.608C28.0668 103.67 28.3539 103.526 28.4301 103.246Z" fill="black"/>
<path d="M7.09273 57.3027C6.45361 61.6806 7.04322 66.168 8.77175 70.2398C9.24453 71.3535 9.80316 72.4286 10.4436 73.4552C10.7951 74.0186 11.6901 73.5 11.3365 72.9332C9.12114 69.3821 7.91764 65.2361 7.86698 61.0561C7.8529 59.8948 7.92293 58.7215 8.08993 57.5776C8.13021 57.3016 8.02149 57.022 7.72879 56.9416C7.48556 56.8747 7.13332 57.0246 7.09273 57.3027Z" fill="black"/>
<path d="M3.98322 53.8811C3.29946 56.3583 3.32106 59.0131 4.04999 61.4777C4.23831 62.1145 5.23664 61.8434 5.04719 61.2028C4.36882 58.9092 4.34391 56.462 4.98042 54.156C5.15776 53.5136 4.16036 53.2394 3.98322 53.8811Z" fill="black"/>
<path d="M61.5766 122.613C63.1797 124.84 65.254 126.7 67.6278 128.076C70.0143 129.46 72.669 130.345 75.4063 130.677C76.9116 130.861 78.4364 130.861 79.941 130.671C80.218 130.636 80.4581 130.458 80.4581 130.154C80.4581 129.901 80.22 129.601 79.941 129.637C77.315 129.968 74.7311 129.723 72.2186 128.957C69.7627 128.208 67.4066 126.946 65.45 125.291C64.3333 124.346 63.3034 123.249 62.4696 122.091C62.3067 121.864 62.0194 121.755 61.7621 121.905C61.5386 122.036 61.4127 122.385 61.5766 122.613Z" fill="black"/>
<path d="M73.5952 135.8H78.3076C78.9731 135.8 78.9741 134.766 78.3076 134.766H73.5952C72.9298 134.766 72.9287 135.8 73.5952 135.8Z" fill="black"/>
<path d="M106.794 58.8973C109.828 60.1973 112.861 61.4973 115.894 62.7973C116.151 62.9072 116.449 62.8737 116.602 62.6118C116.729 62.3941 116.674 62.015 116.416 61.9044C113.383 60.6044 110.35 59.3044 107.316 58.0044C107.06 57.8945 106.762 57.928 106.609 58.1899C106.482 58.4076 106.536 58.7867 106.794 58.8973Z" fill="black"/>
<path d="M109.084 56.1045C109.3 56.2129 109.517 56.3212 109.734 56.4295C109.793 56.4673 109.857 56.4878 109.926 56.4909C109.995 56.5063 110.063 56.5032 110.132 56.4817C110.199 56.4657 110.258 56.4348 110.308 56.3891C110.364 56.3526 110.409 56.3043 110.441 56.244C110.504 56.124 110.536 55.9787 110.493 55.8456C110.453 55.7222 110.375 55.5966 110.256 55.5366C110.039 55.4283 109.822 55.3199 109.606 55.2116C109.546 55.1738 109.482 55.1534 109.413 55.1502C109.345 55.1349 109.276 55.1379 109.207 55.1595C109.14 55.1755 109.081 55.2063 109.031 55.252C108.975 55.2885 108.931 55.3368 108.898 55.3971C108.835 55.5171 108.803 55.6625 108.846 55.7955C108.886 55.9189 108.964 56.0446 109.084 56.1045Z" fill="black"/>
<path d="M18.8686 49.134C21.0359 49.1107 23.2192 49.0788 25.3517 48.6478C26.3602 48.444 27.3332 48.1395 28.267 47.7057C29.1459 47.2975 29.9742 46.7881 30.769 46.2356C31.9415 45.4205 33.0778 44.5359 34.1602 43.6036C35.0904 42.8023 35.9975 41.9664 36.8336 41.0665C37.2774 40.5888 37.7143 40.0878 38.0644 39.536C38.3244 39.1263 38.58 38.6121 38.4479 38.1148L37.4507 38.3897C37.9768 40.1998 39.0779 41.8551 40.5469 43.0374C41.9994 44.2063 43.8136 44.966 45.7018 44.8888C46.8274 44.8428 47.9147 44.5081 48.8888 43.9463C48.6356 43.7517 48.3824 43.557 48.1292 43.3624C47.6434 45.8093 47.9351 48.3436 48.9297 50.6282C49.2054 51.2616 49.5395 51.8675 49.9252 52.4405C50.081 52.6718 50.3808 52.7733 50.6327 52.626C50.8623 52.4917 50.9749 52.1512 50.8182 51.9185C49.5474 50.0311 48.8887 47.7868 48.9271 45.5226C48.938 44.8784 49.0024 44.2617 49.1264 43.6373C49.212 43.2063 48.7774 42.8165 48.3668 43.0534C47.9496 43.294 47.6062 43.452 47.1671 43.5911C46.9565 43.6578 46.7423 43.7135 46.5257 43.7572C46.2802 43.8067 46.2051 43.8179 45.9683 43.838C45.5445 43.8738 45.12 43.8623 44.6977 43.8145C44.5299 43.7956 44.7511 43.8233 44.6523 43.8083C44.6088 43.8018 44.5654 43.795 44.5221 43.7877C44.4182 43.77 44.3147 43.7499 44.2117 43.7273C44.0054 43.6821 43.8013 43.6272 43.6 43.5633C43.1648 43.4251 42.8989 43.3113 42.4997 43.1005C42.1185 42.8992 41.7546 42.6665 41.4093 42.4084C41.3294 42.3487 41.1364 42.1918 41.0071 42.0788C40.8288 41.923 40.6567 41.7601 40.4914 41.5906C40.2027 41.2946 39.9318 40.9755 39.7234 40.6886C39.4325 40.288 39.1741 39.8636 38.9534 39.4204C38.8444 39.2015 38.762 39.0159 38.6938 38.8413C38.6006 38.6029 38.5193 38.3605 38.4479 38.1148C38.2624 37.4767 37.2792 37.7443 37.4507 38.3897C37.4815 38.5056 37.4574 38.3234 37.4496 38.3562C37.4444 38.3778 37.4447 38.4281 37.4481 38.4515C37.4591 38.529 37.4819 38.3386 37.4571 38.3852C37.4497 38.3992 37.4508 38.4228 37.4464 38.4382C37.4336 38.4831 37.4227 38.528 37.4074 38.5723C37.402 38.588 37.3955 38.6034 37.3904 38.6191C37.3549 38.7268 37.3995 38.5892 37.4026 38.5921C37.4085 38.5977 37.3539 38.6951 37.3487 38.7053C37.3002 38.8015 37.2461 38.8948 37.189 38.9862C37.128 39.0838 37.0632 39.1792 36.9963 39.2729C36.9604 39.3231 36.9235 39.3725 36.8867 39.4221C36.8716 39.4425 36.856 39.4626 36.8406 39.4828C36.9212 39.377 36.8303 39.4951 36.8132 39.5165C36.6341 39.7413 36.4458 39.9587 36.2527 40.1715C35.4395 41.0678 34.5488 41.8957 33.6377 42.6912C32.7141 43.4976 31.7472 44.2576 30.7565 44.9795C29.2222 46.0976 27.5968 47.0444 25.7405 47.5021C23.4957 48.0557 21.1672 48.0751 18.8686 48.0998C18.2035 48.107 18.2018 49.1412 18.8686 49.134Z" fill="#F1633D"/>
<path d="M91.169 86.1931C91.0235 84.7169 90.6203 83.2585 89.8019 82.0071C89.3837 81.3677 88.873 80.7843 88.279 80.3029C87.6545 79.7967 86.9575 79.4334 86.2671 79.0289C83.2916 77.2856 80.6375 75.0675 78.1041 72.7417C75.5642 70.4098 73.1317 67.962 70.5439 65.682C67.9073 63.3591 65.0851 61.2642 62.0461 59.4955C55.9735 55.9611 49.1923 53.6839 42.219 52.8321C34.5476 51.8951 26.8241 52.9126 19.3985 54.9119C17.5145 55.4192 15.6462 55.985 13.7926 56.5937C12.553 57.0008 10.9951 57.5289 10.4097 58.8162C10.0183 59.6771 10.0726 60.6687 10.1986 61.5827C10.3581 62.7387 10.6839 63.868 11.0578 64.9711C11.7878 67.1248 12.7215 69.2098 13.7139 71.2539C15.0789 74.0652 16.6808 76.7355 18.5879 79.2144C22.8292 84.7272 28.3348 89.1304 34.5292 92.2696C40.6553 95.3743 47.3331 97.2854 54.104 98.3389C55.7953 98.6021 57.4947 98.8149 59.1983 98.9796C60.0122 99.0583 60.8771 99.2089 61.6929 99.145C62.6287 99.0716 63.5652 99.0061 64.5026 98.9581C68.1888 98.769 71.9549 98.8245 75.534 99.8212C77.0902 100.255 78.6074 101.013 80.2644 100.888C81.8179 100.771 83.2997 99.9847 84.5939 99.1657C87.4578 97.3532 89.5908 94.5722 90.5857 91.332C91.0936 89.6781 91.3189 87.9193 91.169 86.1931C91.1118 85.5351 90.0772 85.529 90.1348 86.193C90.4262 89.548 89.2996 93.04 87.1241 95.6087C86.0801 96.8415 84.8255 97.8737 83.416 98.6623C82.1512 99.37 80.8184 100.008 79.3318 99.8359C78.5341 99.7436 77.7758 99.4615 77.0218 99.2011C76.1987 98.9169 75.3572 98.687 74.506 98.5036C72.7453 98.1242 70.9441 97.936 69.1457 97.8692C67.3619 97.803 65.5757 97.8566 63.7946 97.9634C62.9304 98.0152 62.0175 98.1784 61.1551 98.1135C60.3279 98.0513 59.5015 97.9781 58.6762 97.8935C52.0548 97.2144 45.4689 95.7847 39.2831 93.2962C33.12 90.8168 27.3942 87.2088 22.7448 82.4416C20.3663 80.0028 18.2793 77.2889 16.5391 74.36C15.3509 72.36 14.3312 70.2526 13.3982 68.1223C12.4758 66.0161 11.5694 63.7939 11.2246 61.5072C11.1577 61.0636 11.124 60.6106 11.1474 60.1621C11.163 59.8621 11.2379 59.4594 11.348 59.2411C11.5934 58.7545 12.1427 58.3789 12.6943 58.1099C13.4461 57.7432 14.2754 57.5201 15.0699 57.2669C22.2768 54.9706 29.7628 53.3422 37.3635 53.5146C44.2461 53.6707 51.0965 55.3025 57.3372 58.2032C60.4381 59.6445 63.3961 61.3944 66.146 63.4273C68.856 65.4308 71.3182 67.7411 73.7557 70.0616C76.1641 72.3544 78.5583 74.6728 81.1658 76.742C82.451 77.7618 83.7821 78.7252 85.1811 79.5835C85.8718 80.0072 86.6127 80.3611 87.2747 80.8288C87.8556 81.2392 88.3759 81.7611 88.7837 82.3438C89.5778 83.4786 89.9997 84.8221 90.1348 86.193C90.1995 86.8493 91.2343 86.856 91.169 86.1931Z" fill="black"/>
<path d="M68.7865 64.4743C70.6368 63.1425 72.6294 62.0136 74.7186 61.1015C76.7419 60.2182 78.9531 59.5219 81.15 59.051C83.3655 58.5762 85.5529 58.3265 87.8347 58.2827C90.1039 58.2392 92.3802 58.4094 94.5731 58.7955C96.8161 59.1904 99.0212 59.8039 101.141 60.638C102.162 61.04 103.18 61.5065 104.179 62.0296C104.675 62.2895 105.164 62.5626 105.646 62.8487C106.127 63.1347 106.605 63.4086 106.993 63.7962C107.08 63.8838 107.173 63.9867 107.224 64.0581C107.263 64.1132 107.299 64.1705 107.332 64.2293C107.344 64.2515 107.406 64.3806 107.388 64.3345C107.411 64.394 107.429 64.4564 107.443 64.5188C107.449 64.5452 107.456 64.5724 107.459 64.5993C107.45 64.523 107.457 64.6159 107.456 64.6256C107.451 64.7455 107.453 64.7776 107.405 64.9217C107.431 64.8427 107.38 64.9719 107.366 64.9965C107.352 65.0202 107.267 65.138 107.325 65.0671C107.295 65.1039 107.262 65.1387 107.228 65.1719C107.212 65.188 107.079 65.2958 107.148 65.2457C106.937 65.399 106.782 65.4645 106.586 65.5314C106.098 65.6985 105.585 65.767 105.08 65.8653C104.53 65.9726 103.983 66.0992 103.44 66.2438C101.251 66.8281 99.1341 67.7098 97.1673 68.8345C95.199 69.9601 93.3675 71.3385 91.7397 72.9169C90.1206 74.4869 88.695 76.2682 87.531 78.2005C87.2465 78.6728 86.9785 79.1548 86.7259 79.6449C86.598 79.893 86.6615 80.2062 86.9114 80.3523C87.143 80.4878 87.4905 80.416 87.6189 80.1668C88.6657 78.1356 89.9621 76.2967 91.5039 74.6363C93.053 72.968 94.7733 71.5392 96.6842 70.3319C98.6194 69.1092 100.648 68.1653 102.82 67.498C103.903 67.1652 105.001 66.9436 106.11 66.7228C107.181 66.5098 108.382 66.0077 108.485 64.7647C108.592 63.4773 107.279 62.624 106.325 62.0499C105.331 61.4514 104.303 60.9087 103.25 60.4229C101.122 59.4419 98.896 58.6808 96.6128 58.1561C94.3263 57.6306 91.9835 57.3316 89.6387 57.2591C87.2994 57.1868 84.9566 57.3474 82.6465 57.7211C80.3563 58.0915 78.1017 58.6854 75.9302 59.5027C73.7474 60.3241 71.6442 61.3594 69.6801 62.6184C69.1995 62.9264 68.7278 63.2479 68.2645 63.5814C68.0382 63.7443 67.9285 64.0315 68.079 64.2888C68.2098 64.5124 68.5586 64.6383 68.7865 64.4743Z" fill="black"/>
<path d="M53.8611 98.4061C54.2153 100.581 54.7979 102.716 55.5882 104.773C56.3838 106.843 57.3741 108.837 58.547 110.72C59.7208 112.605 61.0724 114.382 62.5689 116.022C64.0742 117.671 65.7331 119.172 67.5131 120.519C69.2612 121.842 71.1329 123.004 73.1003 123.972C75.0896 124.95 77.1751 125.741 79.3205 126.302C80.3605 126.573 81.5702 126.916 82.5964 126.417C83.1635 126.141 83.517 125.577 83.5653 124.955C83.6171 124.287 83.2833 123.626 82.9344 123.08C82.6018 122.56 82.2353 122.062 81.9091 121.537C81.585 121.015 81.2803 120.481 80.9956 119.937C80.4267 118.849 79.9507 117.747 79.5482 116.591C78.7394 114.267 78.2611 111.855 78.1296 109.417C77.9964 106.947 78.2039 104.5 78.7815 102.108C78.9233 101.521 79.0871 100.939 79.2711 100.364C79.3561 100.098 79.1714 99.7998 78.91 99.728C78.6308 99.6513 78.3593 99.8221 78.2739 100.089C77.5247 102.432 77.125 104.889 77.0649 107.347C77.005 109.796 77.2852 112.26 77.8834 114.635C78.4809 117.006 79.4057 119.305 80.6333 121.421C80.9417 121.953 81.2699 122.473 81.6173 122.98C81.9482 123.463 82.3344 123.953 82.4881 124.52C82.5523 124.756 82.5638 124.965 82.4704 125.156C82.4463 125.205 82.4165 125.253 82.3851 125.298C82.4332 125.229 82.3393 125.343 82.3234 125.361C82.3076 125.379 82.2882 125.394 82.2706 125.41C82.3313 125.355 82.2783 125.406 82.2618 125.417C82.2077 125.452 82.1529 125.483 82.0963 125.513C82.0174 125.556 82.1276 125.511 82.0402 125.536C81.9842 125.552 81.9297 125.571 81.873 125.585C81.8154 125.599 81.7571 125.61 81.6985 125.619C81.7095 125.618 81.7691 125.611 81.7073 125.617C81.6637 125.621 81.62 125.625 81.5763 125.628C81.4601 125.634 81.3436 125.634 81.2274 125.629C81.164 125.626 81.1007 125.621 81.0374 125.616C81.0038 125.612 80.838 125.591 80.9046 125.601C80.3875 125.524 79.8772 125.381 79.373 125.245C78.8455 125.104 78.3217 124.948 77.8023 124.779C76.7903 124.449 75.7674 124.058 74.8443 123.65C72.8749 122.778 70.9917 121.714 69.2221 120.487C67.4782 119.277 65.852 117.907 64.332 116.375C62.8004 114.831 61.4501 113.2 60.241 111.427C59.0269 109.646 57.9745 107.756 57.111 105.781C56.9957 105.518 56.9269 105.355 56.8174 105.085C56.7166 104.837 56.6188 104.587 56.5241 104.337C56.3346 103.836 56.1572 103.33 55.9923 102.82C55.6594 101.791 55.3779 100.745 55.151 99.6869C55.0403 99.1709 54.9432 98.6521 54.8583 98.1312C54.8134 97.8554 54.4708 97.7018 54.2223 97.7701C53.9291 97.8506 53.816 98.1294 53.8611 98.4061Z" fill="black"/>
<path d="M86.3264 83.0171C86.7563 86.3358 85.8619 89.6991 83.8926 92.4056C83.3646 93.1312 82.7122 93.834 82.0167 94.4421C81.8064 94.6261 81.8286 94.9852 82.0167 95.1734C82.2254 95.3821 82.5371 95.3578 82.748 95.1734C85.4233 92.8338 87.0753 89.4422 87.4099 85.9173C87.5015 84.9519 87.4851 83.9787 87.3606 83.0171C87.3247 82.7402 87.1486 82.5 86.8435 82.5C86.592 82.5 86.2903 82.7382 86.3264 83.0171Z" fill="black"/>
<path d="M80.4624 97.6865C81.1278 97.6865 81.1289 96.6523 80.4624 96.6523C79.7969 96.6523 79.7959 97.6865 80.4624 97.6865Z" fill="black"/>
<path d="M14.4291 64.5529C15.385 67.3218 16.7907 69.9001 18.5861 72.213C18.7575 72.4338 19.1373 72.3931 19.3173 72.213C19.5353 71.9951 19.4892 71.7032 19.3173 71.4818C17.638 69.3184 16.3196 66.8656 15.4263 64.278C15.3352 64.0142 15.0718 63.8395 14.7903 63.9169C14.5337 63.9874 14.3375 64.2878 14.4291 64.5529Z" fill="black"/>
<path d="M21.2952 74.283V74.5691C21.2925 74.6403 21.3074 74.7067 21.3398 74.7683C21.3606 74.8324 21.3963 74.8879 21.4467 74.9347C21.4935 74.9851 21.549 75.0208 21.6131 75.0416C21.6747 75.074 21.7411 75.0889 21.8123 75.0862L21.9497 75.0677C22.0373 75.0431 22.1134 74.9988 22.1779 74.9347L22.2588 74.8301C22.3055 74.7494 22.3291 74.6624 22.3293 74.5691V74.283C22.332 74.2118 22.3172 74.1454 22.2848 74.0838C22.264 74.0197 22.2283 73.9642 22.1779 73.9174C22.1311 73.867 22.0756 73.8313 22.0115 73.8105C21.9499 73.7781 21.8835 73.7632 21.8123 73.7659L21.6748 73.7844C21.5872 73.809 21.5112 73.8533 21.4467 73.9174L21.3658 74.022C21.3191 74.1027 21.2955 74.1897 21.2952 74.283Z" fill="black"/>
</svg>
