<svg width="160" height="160" viewBox="0 0 160 160" fill="none" xmlns="http://www.w3.org/2000/svg">
<path d="M47.3301 97.0617C49.7142 99.3658 52.0633 101.712 54.244 104.211C56.4056 106.689 58.3978 109.325 60.0302 112.184C61.726 115.155 62.9542 118.338 63.7028 121.676C64.4815 125.147 64.7693 128.707 64.8219 132.259C64.8482 134.042 64.8149 135.826 64.7506 137.608C64.7159 138.568 64.6721 139.528 64.6236 140.487C64.6008 140.936 64.5718 141.382 64.5279 141.829C64.4863 142.252 64.4467 142.679 64.481 143.104C64.5172 143.554 64.6249 143.97 64.8217 144.377C64.9358 144.612 65.2712 144.675 65.4844 144.55C65.7248 144.41 65.7726 144.124 65.6582 143.888C65.294 143.136 65.4606 142.254 65.5328 141.457C65.6177 140.519 65.6393 139.571 65.6791 138.63C65.7554 136.827 65.8051 135.023 65.7991 133.218C65.7873 129.623 65.552 126.014 64.8598 122.48C64.1893 119.058 63.0452 115.754 61.4062 112.674C59.8488 109.746 57.8983 107.044 55.7691 104.508C53.627 101.956 51.294 99.5723 48.9112 97.2466C48.6132 96.9559 48.3144 96.666 48.0151 96.3767C47.5667 95.9433 46.8808 96.6274 47.3301 97.0617Z" fill="#60DEA1"/>
<path d="M14.5098 122.151C17.9922 122.552 21.0548 124.497 23.9621 126.313C26.9032 128.149 29.9929 130.049 33.5028 130.485C36.2832 130.83 39.4162 130.132 41.4125 128.063C42.4977 126.938 43.1436 125.469 43.3582 123.929C43.5876 122.283 43.3995 120.617 43.0404 119.003C42.2709 115.544 40.5175 112.181 40.826 108.553C40.8628 108.119 40.939 107.693 41.0448 107.27C41.1965 106.666 40.2625 106.408 40.1108 107.013C39.1949 110.665 40.706 114.242 41.7049 117.701C42.5366 120.58 43.1232 124.027 41.316 126.662C40.6021 127.703 39.477 128.511 38.3108 128.966C37.0079 129.475 35.6832 129.655 34.295 129.585C32.7723 129.509 31.2117 129.058 29.7754 128.435C28.1694 127.739 26.6599 126.846 25.1741 125.926C22.2345 124.106 19.2561 122.113 15.8185 121.39C15.3859 121.299 14.9488 121.233 14.5097 121.182C14.2495 121.152 14.0254 121.426 14.0254 121.667C14.0254 121.953 14.2487 122.121 14.5098 122.151Z" fill="#60DEA1"/>
<path d="M87.0591 91.2308C87.4882 91.2308 87.9148 91.1492 88.3094 90.9809C94.8108 88.2075 100.535 83.633 104.667 77.8978C107.604 73.8212 108.593 70.0313 108.579 65.0982C108.564 59.7638 108.579 54.4292 108.579 49.0948C108.579 49.0948 92.2085 49.3222 87.7092 41.1741L87.0526 39.7734L86.409 41.1741C81.9098 49.3222 65.5392 49.0948 65.5392 49.0948C65.5392 54.4292 65.5541 59.7638 65.5392 65.0982C65.5254 70.0313 66.514 73.8212 69.4511 77.8978C73.5834 83.633 79.3075 88.2075 85.8089 90.9809C86.2035 91.1492 86.6301 91.2308 87.0591 91.2308Z" fill="#F1633D"/>
<path d="M87.0598 91.7128C87.9658 91.7005 88.7438 91.3265 89.5504 90.955C90.2989 90.6103 91.0363 90.2414 91.7612 89.8496C93.1866 89.0792 94.5639 88.2198 95.8832 87.2792C98.5447 85.3817 100.979 83.1673 103.098 80.6777C105.192 78.2168 107.04 75.521 108.048 72.4251C108.528 70.9523 108.808 69.4223 108.949 67.8814C109.112 66.1032 109.061 64.3144 109.059 62.5312C109.054 58.5475 109.062 54.5637 109.064 50.58C109.064 50.0841 109.064 49.5883 109.064 49.0925C109.064 48.8333 108.842 48.6046 108.58 48.6082C107.941 48.6168 107.301 48.5903 106.664 48.558C105.967 48.5227 105.272 48.4716 104.577 48.4058C104.155 48.3658 103.734 48.3203 103.314 48.2691C102.851 48.2128 102.545 48.1709 102.053 48.0955C100.069 47.7915 98.0984 47.3565 96.1943 46.7172C94.2965 46.0801 92.404 45.2126 90.8136 43.9837C90.4553 43.7068 90.0565 43.3572 89.7152 43.0163C89.3937 42.6951 89.0368 42.289 88.8041 41.976C88.3061 41.3059 87.9691 40.5882 87.6169 39.8369C87.5684 39.7335 87.5199 39.6301 87.4714 39.5267C87.3238 39.2117 86.7814 39.208 86.635 39.5267C86.3411 40.1665 86.0779 40.8251 85.6986 41.4203C85.1954 42.2097 84.5667 42.9099 83.8292 43.5524C82.3581 44.834 80.4701 45.7924 78.6356 46.4675C76.7289 47.169 74.7433 47.6472 72.7422 47.9865C71.801 48.1461 71.06 48.2468 70.1266 48.3468C69.387 48.4261 68.6456 48.4883 67.9031 48.5331C67.1262 48.58 66.3499 48.5789 65.5731 48.6085C65.5621 48.6089 65.5509 48.6083 65.5398 48.6081C65.278 48.6046 65.0555 48.8329 65.0555 49.0925C65.0556 53.0933 65.0639 57.0942 65.0618 61.095C65.06 64.5391 64.8871 68.023 65.7669 71.3874C66.5869 74.5234 68.2661 77.2615 70.2751 79.7728C72.3274 82.3382 74.7063 84.627 77.3246 86.6093C78.6165 87.5873 79.9685 88.4859 81.371 89.2973C82.0843 89.71 82.8106 90.1001 83.5487 90.4667C84.286 90.8329 85.0369 91.208 85.8088 91.4963C86.2039 91.644 86.6385 91.7128 87.0598 91.7128C87.6831 91.7128 87.6841 90.7442 87.0598 90.7442C86.2731 90.7442 85.564 90.3556 84.868 90.0304C84.1467 89.6934 83.4359 89.3341 82.7368 88.9533C81.3261 88.1849 79.9631 87.3293 78.6571 86.3941C76.0682 84.54 73.711 82.3581 71.6526 79.9288C69.65 77.5655 67.8818 74.9618 66.9463 71.9836C66.5028 70.5719 66.2388 69.111 66.1181 67.6374C65.972 65.855 66.0276 64.0611 66.0295 62.2747C66.0337 58.3594 66.0262 54.444 66.0245 50.5287C66.0243 50.0499 66.0242 49.5712 66.0242 49.0925C65.8627 49.2539 65.7013 49.4154 65.5398 49.5768C66.1941 49.5857 66.8502 49.558 67.5033 49.5242C69.1255 49.4403 70.7437 49.2728 72.3491 49.0258C74.3704 48.7148 76.378 48.2679 78.3148 47.6065C80.3191 46.9221 82.2627 46.0099 83.9419 44.7066C84.7496 44.0797 85.4714 43.3626 86.0895 42.5478C86.362 42.1886 86.6311 41.8072 86.8338 41.4033C87.0088 41.0547 87.1605 40.6924 87.3233 40.3379C87.3727 40.2305 87.422 40.123 87.4714 40.0156H86.635C86.9345 40.6545 87.2045 41.3129 87.5846 41.9092C88.1292 42.7636 88.8054 43.5344 89.5658 44.2027C91.1599 45.6039 93.0676 46.5886 95.0436 47.3335C96.9814 48.0639 99.0049 48.5582 101.044 48.9077C102.732 49.1971 104.438 49.3918 106.147 49.4976C106.69 49.5312 107.234 49.5558 107.778 49.5687C108.028 49.5746 108.296 49.6026 108.546 49.5772C108.557 49.5761 108.569 49.577 108.58 49.5768C108.418 49.4154 108.257 49.2539 108.095 49.0925C108.095 52.9908 108.087 56.889 108.089 60.7873C108.09 64.1627 108.297 67.5996 107.476 70.9051C106.727 73.9204 105.158 76.5736 103.238 78.9896C101.267 81.4698 98.9889 83.72 96.4728 85.6459C93.9352 87.5883 91.1574 89.2337 88.2196 90.4942C87.846 90.6546 87.4662 90.7386 87.0598 90.7442C86.437 90.7526 86.4352 91.7213 87.0598 91.7128Z" fill="black"/>
<path d="M86.2642 76.1963C91.7992 76.1963 96.2862 71.7093 96.2862 66.1743C96.2862 60.6393 91.7992 56.1523 86.2642 56.1523C80.7292 56.1523 76.2422 60.6393 76.2422 66.1743C76.2422 71.7093 80.7292 76.1963 86.2642 76.1963Z" fill="white"/>
<path d="M79.2428 75.9639C77.5369 74.7413 76.1681 73.0651 75.2881 71.145C74.4038 69.2155 74.0719 67.0427 74.2834 64.9191C74.3283 64.4689 74.402 64.0179 74.5113 63.5341C74.62 63.0525 74.7574 62.5773 74.9226 62.112C75.2268 61.2553 75.6418 60.4195 76.1602 59.6191C77.1554 58.0826 78.5279 56.7635 80.1102 55.8217C80.9552 55.3187 81.7588 54.96 82.6838 54.6737C83.6317 54.3803 84.5537 54.2122 85.5063 54.1553C85.7587 54.1403 86.0114 54.1333 86.2643 54.1327C86.8875 54.1314 86.8887 53.1627 86.2643 53.1641C84.1805 53.1687 82.1183 53.6677 80.2674 54.6261C78.4712 55.5561 76.9183 56.9148 75.7264 58.5456C74.5385 60.1708 73.737 62.0913 73.4233 64.08C73.0667 66.3414 73.2821 68.688 74.111 70.8272C74.9291 72.9386 76.2813 74.8313 78.0431 76.2587C78.2746 76.4462 78.5118 76.6268 78.7539 76.8004C78.9666 76.9528 79.2931 76.8375 79.4165 76.6266C79.559 76.3829 79.456 76.1168 79.2428 75.9639Z" fill="white"/>
<path d="M90.8946 55.0478C92.9367 55.917 94.7275 57.3181 96.0077 59.091C97.3333 60.9267 98.1308 63.1007 98.2783 65.3347C98.4216 67.5036 97.9927 69.6769 97.0245 71.5864C96.0864 73.4361 94.6893 75.0227 92.9953 76.1607C91.2343 77.3437 89.1866 78.0498 87.1043 78.1879C86.8241 78.2065 86.5435 78.2151 86.2628 78.2157C85.6395 78.2171 85.6384 79.1858 86.2628 79.1844C88.5567 79.1793 90.8325 78.5743 92.8149 77.4168C94.7312 76.2978 96.3533 74.6818 97.4803 72.7702C98.6438 70.7967 99.2644 68.5195 99.2744 66.2291C99.2852 63.7944 98.6042 61.3666 97.3137 59.3006C96.0672 57.3051 94.2774 55.6488 92.1789 54.5814C91.9181 54.4488 91.6526 54.326 91.3835 54.2114C91.143 54.109 90.8645 54.1395 90.7208 54.3852C90.6018 54.5886 90.6526 54.9448 90.8946 55.0478Z" fill="white"/>
<path d="M59.9883 91.7105C59.7737 90.9634 58.4308 83.4763 58.1097 83.4221C65.0165 84.597 71.9481 82.4621 78.3391 79.9806C79.4817 79.537 80.6647 79.0291 81.4283 78.0704C82.4247 76.8196 82.4896 75.0226 81.9954 73.5017C81.5013 71.9808 80.5262 70.6706 79.5673 69.3909C75.1129 71.5083 68.321 72.6022 63.6076 70.8999C58.2434 68.9625 52.3105 68.1542 46.6248 67.7803C44.2376 67.6234 41.9298 68.1042 39.6128 67.9489C36.8255 67.762 34.094 67.1403 31.2846 67.2881C28.0991 67.4557 24.9374 68.0695 21.9191 69.101C18.8499 70.1499 15.8198 71.7072 13.8607 74.292C12.0068 76.738 11.289 79.8949 11.2852 82.9641C11.2813 86.0333 11.9378 89.0605 12.5911 92.0593C14.1556 91.3528 15.9319 91.3577 17.6315 91.1163C19.3311 90.875 21.1472 90.2621 22.0335 88.792C23.2713 86.7388 22.1541 84.1253 21.035 82.0051C24.1198 80.2591 28.1871 80.4205 31.1239 82.4053C30.7289 84.8353 29.8991 86.9321 28.8961 89.1926C28.5767 89.9125 26.0549 96.743 26.1473 96.7579C32.0685 97.7112 38.1268 97.7891 44.0737 97.0195C47.0473 96.6347 49.9936 96.038 52.8819 95.2327C54.3611 94.8203 55.8253 94.3535 57.2696 93.8319C57.898 93.605 59.8679 93.1636 60.0614 92.4555C60.1281 92.2116 60.058 91.9536 59.9883 91.7105Z" fill="#60DEA1"/>
<path d="M96.5862 34.4542V29.0544C96.5862 28.8043 96.5872 28.5541 96.5862 28.3041C96.5831 27.5356 96.4153 26.7905 96.0964 26.0925C95.3991 24.5661 93.9011 23.4245 92.2412 23.1696C91.8264 23.1059 91.4159 23.1154 90.9999 23.0814C90.6617 23.0538 90.2323 22.954 89.8603 22.8139C89.5708 22.7048 89.1864 22.4889 88.8842 22.2764C88.6359 22.1018 88.3172 21.7913 88.0871 21.5101C87.8872 21.2658 87.6527 20.8779 87.5016 20.5338C87.4592 20.4372 87.3852 20.2299 87.3391 20.0728C87.2804 19.8731 87.2347 19.6694 87.2034 19.4636C87.1727 19.2618 87.1659 18.937 87.1659 18.668V7.75692C87.1659 7.13362 86.1973 7.1326 86.1973 7.75692V18.3426C86.1973 19.1872 86.2471 20.014 86.5744 20.8093C87.2233 22.3859 88.6189 23.6012 90.3004 23.9503C90.7195 24.0374 91.1352 24.0541 91.5607 24.0691C91.9626 24.0833 92.3091 24.1449 92.7212 24.2789C93.4166 24.5051 94.0511 24.9257 94.5599 25.4942C94.7974 25.7595 94.9879 26.0401 95.1676 26.3906C95.2654 26.5815 95.3051 26.6748 95.3704 26.861C95.4419 27.0646 95.4992 27.2732 95.5418 27.4848C95.6099 27.8222 95.6175 28.1772 95.6175 28.5567V34.4543C95.6175 35.0776 96.5862 35.0786 96.5862 34.4542Z" fill="black"/>
<path d="M77.1443 34.4301C77.1458 33.5683 77.1472 32.7065 77.1487 31.8447C77.1522 29.7892 77.1558 27.7337 77.1593 25.6782C77.1636 23.1795 77.1678 20.6808 77.1721 18.1821C77.1758 16.0335 77.1795 13.8848 77.1832 11.7361C77.185 10.6886 77.2168 9.63612 77.1886 8.58886C77.1882 8.57458 77.1886 8.56025 77.1886 8.54598C77.1897 7.92265 76.221 7.9217 76.22 8.54598C76.2185 9.40775 76.217 10.2695 76.2155 11.1313C76.212 13.1868 76.2085 15.2423 76.205 17.2978C76.2007 19.7965 76.1964 22.2952 76.1921 24.7939C76.1884 26.9426 76.1848 29.0913 76.1811 31.2399C76.1793 32.2874 76.1475 33.3399 76.1757 34.3872C76.1761 34.4015 76.1756 34.4158 76.1756 34.4301C76.1745 35.0534 77.1432 35.0543 77.1443 34.4301Z" fill="black"/>
<path d="M113.888 49.6608H115.788C116.546 49.6608 117.299 49.6822 118.051 49.5641C120.503 49.179 122.572 47.4255 123.457 45.1257C123.772 44.3078 123.908 43.4336 123.908 42.5594V36.3102C123.908 35.1495 123.932 33.9861 123.908 32.8256C123.907 32.8066 123.908 32.7876 123.908 32.7686C123.908 32.1453 122.939 32.1443 122.939 32.7686V35.5961C122.939 37.2629 122.939 38.9297 122.939 40.5965V42.2793C122.939 42.3961 122.939 42.5128 122.939 42.6296C122.938 43.0504 122.907 43.415 122.835 43.7876C122.617 44.898 122.111 45.9072 121.369 46.7167C120.613 47.5423 119.669 48.1366 118.61 48.4472C117.841 48.6729 117.133 48.6921 116.323 48.6921H113.888C113.264 48.6921 113.263 49.6608 113.888 49.6608Z" fill="black"/>
<path d="M113.052 86.2867C114.003 86.2867 114.954 86.2867 115.905 86.2867C117.354 86.2867 118.769 86.7241 119.872 87.634C121.166 88.7018 121.978 90.2452 122.088 91.8771C122.149 92.7767 122.103 93.6917 122.103 94.5923C122.103 95.6005 122.103 96.6086 122.103 97.6168C122.103 98.2401 123.072 98.2411 123.072 97.6168C123.072 95.8339 123.087 94.0503 123.072 92.2674C123.055 90.4234 122.298 88.6273 120.983 87.3332C119.676 86.0465 117.896 85.3248 116.064 85.318C115.06 85.3144 114.056 85.318 113.052 85.318C112.429 85.318 112.428 86.2867 113.052 86.2867Z" fill="black"/>
<path d="M76.6598 39.8664C78.0435 39.8664 79.1653 38.7447 79.1653 37.361C79.1653 35.9772 78.0435 34.8555 76.6598 34.8555C75.276 34.8555 74.1543 35.9772 74.1543 37.361C74.1543 38.7447 75.276 39.8664 76.6598 39.8664Z" fill="black"/>
<path d="M78.68 37.3608C78.6773 37.6053 78.6566 37.7564 78.5744 38.0087C78.5365 38.1251 78.5375 38.1257 78.483 38.2349C78.4284 38.3443 78.3654 38.4487 78.296 38.5493C78.2247 38.6524 78.0045 38.8797 77.9108 38.9522C77.8286 39.0159 77.7391 39.0721 77.6487 39.1234C77.5485 39.1802 77.4398 39.2304 77.3822 39.2506C76.9425 39.4046 76.539 39.426 76.113 39.3072C75.7125 39.1955 75.3766 38.9732 75.0888 38.6369C75.0524 38.5944 74.9915 38.5091 74.9361 38.4182C74.8824 38.33 74.8089 38.1894 74.7832 38.1247C74.7226 37.9726 74.6556 37.691 74.6452 37.5552C74.61 37.0959 74.6968 36.7048 74.9225 36.3256C75.1366 35.9658 75.4284 35.706 75.8319 35.5135C76.1664 35.354 76.6557 35.2976 77.0218 35.3705C77.9965 35.5644 78.6694 36.3935 78.68 37.3608C78.6868 37.9837 79.6555 37.9852 79.6486 37.3607C79.6348 36.0967 78.8466 34.9863 77.6645 34.5461C76.5177 34.1191 75.1453 34.4951 74.3706 35.4396C73.5753 36.4093 73.4386 37.7968 74.086 38.8847C74.7364 39.9775 76.0121 40.5229 77.2527 40.29C78.641 40.0293 79.6334 38.7514 79.6486 37.3607C79.6555 36.7372 78.6868 36.7368 78.68 37.3608Z" fill="black"/>
<path d="M95.8688 39.8664C97.2525 39.8664 98.3743 38.7447 98.3743 37.361C98.3743 35.9772 97.2525 34.8555 95.8688 34.8555C94.485 34.8555 93.3633 35.9772 93.3633 37.361C93.3633 38.7447 94.485 39.8664 95.8688 39.8664Z" fill="black"/>
<path d="M97.889 37.3608C97.8863 37.6053 97.8656 37.7564 97.7834 38.0087C97.7455 38.1251 97.7465 38.1257 97.692 38.2349C97.6374 38.3443 97.5744 38.4487 97.5049 38.5493C97.4337 38.6524 97.2135 38.8797 97.1198 38.9522C97.0376 39.0159 96.9481 39.0721 96.8577 39.1234C96.7575 39.1802 96.6488 39.2304 96.5912 39.2506C96.1515 39.4046 95.7479 39.426 95.322 39.3072C94.9215 39.1955 94.5856 38.9732 94.2978 38.6369C94.2614 38.5944 94.2005 38.5091 94.145 38.4182C94.0913 38.33 94.0179 38.1894 93.9921 38.1247C93.9316 37.9726 93.8646 37.691 93.8542 37.5552C93.8189 37.0959 93.9057 36.7048 94.1314 36.3256C94.3456 35.9658 94.6374 35.706 95.0409 35.5135C95.3753 35.354 95.8647 35.2976 96.2307 35.3705C97.2054 35.5644 97.8784 36.3935 97.889 37.3608C97.8958 37.9837 98.8644 37.9852 98.8576 37.3607C98.8438 36.0967 98.0556 34.9863 96.8735 34.5461C95.7267 34.1191 94.3543 34.4951 93.5796 35.4396C92.7842 36.4093 92.6475 37.7968 93.295 38.8847C93.9454 39.9775 95.2211 40.5229 96.4617 40.29C97.85 40.0293 98.8424 38.7514 98.8576 37.3607C98.8644 36.7372 97.8958 36.7368 97.889 37.3608Z" fill="black"/>
<path d="M123.429 32.3508C124.813 32.3508 125.935 31.2291 125.935 29.8453C125.935 28.4616 124.813 27.3398 123.429 27.3398C122.046 27.3398 120.924 28.4616 120.924 29.8453C120.924 31.2291 122.046 32.3508 123.429 32.3508Z" fill="black"/>
<path d="M125.45 29.8451C125.447 30.0897 125.426 30.2408 125.344 30.4931C125.306 30.6094 125.307 30.6101 125.253 30.7193C125.198 30.8287 125.135 30.9331 125.065 31.0337C124.994 31.1368 124.774 31.3641 124.68 31.4366C124.598 31.5003 124.509 31.5565 124.418 31.6077C124.318 31.6645 124.209 31.7148 124.152 31.7349C123.712 31.8889 123.308 31.9104 122.883 31.7916C122.482 31.6799 122.146 31.4576 121.858 31.1213C121.822 31.0788 121.761 30.9935 121.706 30.9025C121.652 30.8144 121.578 30.6737 121.553 30.6091C121.492 30.4569 121.425 30.1753 121.415 30.0395C121.38 29.5803 121.466 29.1892 121.692 28.81C121.906 28.4502 122.198 28.1904 122.601 27.9979C122.936 27.8384 123.425 27.782 123.791 27.8549C124.766 28.0488 125.439 28.8778 125.45 29.8451C125.456 30.4681 126.425 30.4696 126.418 29.8451C126.404 28.581 125.616 27.4706 124.434 27.0305C123.287 26.6034 121.915 26.9795 121.14 27.924C120.345 28.8937 120.208 30.2812 120.856 31.3691C121.506 32.4619 122.782 33.0073 124.022 32.7744C125.411 32.5137 126.403 31.2357 126.418 29.8451C126.425 29.2216 125.456 29.2212 125.45 29.8451Z" fill="black"/>
<path d="M115.912 79.9563C117.295 79.9563 118.417 78.8345 118.417 77.4508C118.417 76.0671 117.295 74.9453 115.912 74.9453C114.528 74.9453 113.406 76.0671 113.406 77.4508C113.406 78.8345 114.528 79.9563 115.912 79.9563Z" fill="black"/>
<path d="M117.934 77.4506C117.931 77.6952 117.91 77.8463 117.828 78.0985C117.79 78.2149 117.791 78.2156 117.737 78.3247C117.682 78.4341 117.619 78.5386 117.55 78.6391C117.479 78.7423 117.258 78.9696 117.165 79.0421C117.082 79.1057 116.993 79.162 116.903 79.2132C116.802 79.27 116.694 79.3202 116.636 79.3404C116.196 79.4944 115.793 79.5158 115.367 79.397C114.966 79.2853 114.63 79.0631 114.343 78.7268C114.306 78.6843 114.245 78.599 114.19 78.508C114.136 78.4199 114.063 78.2792 114.037 78.2146C113.976 78.0624 113.91 77.7808 113.899 77.645C113.864 77.1857 113.951 76.7947 114.176 76.4154C114.39 76.0556 114.682 75.7958 115.086 75.6034C115.42 75.4439 115.91 75.3875 116.276 75.4603C117.25 75.6543 117.923 76.4833 117.934 77.4506C117.941 78.0735 118.909 78.0751 118.903 77.4505C118.889 76.1865 118.101 75.0761 116.918 74.6359C115.772 74.2089 114.399 74.585 113.625 75.5294C112.829 76.4991 112.692 77.8867 113.34 78.9746C113.99 80.0674 115.266 80.6127 116.507 80.3798C117.895 80.1192 118.887 78.8412 118.903 77.4505C118.909 76.827 117.941 76.8266 117.934 77.4506Z" fill="black"/>
<path d="M107.56 16.4836C108.944 16.4836 110.066 15.3619 110.066 13.9781C110.066 12.5944 108.944 11.4727 107.56 11.4727C106.176 11.4727 105.055 12.5944 105.055 13.9781C105.055 15.3619 106.176 16.4836 107.56 16.4836Z" fill="black"/>
<path d="M109.582 13.9779C109.58 14.2225 109.559 14.3736 109.477 14.6259C109.439 14.7422 109.44 14.7429 109.385 14.8521C109.331 14.9615 109.268 15.0659 109.198 15.1665C109.127 15.2696 108.907 15.4969 108.813 15.5694C108.731 15.6331 108.641 15.6893 108.551 15.7406C108.451 15.7974 108.342 15.8476 108.285 15.8677C107.845 16.0218 107.441 16.0432 107.015 15.9244C106.615 15.8127 106.279 15.5904 105.991 15.2541C105.955 15.2116 105.894 15.1263 105.838 15.0354C105.785 14.9472 105.711 14.8066 105.686 14.7419C105.625 14.5897 105.558 14.3081 105.548 14.1724C105.512 13.7131 105.599 13.322 105.825 12.9428C106.039 12.583 106.331 12.3232 106.734 12.1307C107.069 11.9712 107.558 11.9148 107.924 11.9877C108.899 12.1816 109.572 13.0107 109.582 13.9779C109.589 14.6009 110.558 14.6024 110.551 13.9779C110.537 12.7138 109.749 11.6034 108.567 11.1633C107.42 10.7362 106.048 11.1123 105.273 12.0568C104.478 13.0265 104.341 14.414 104.988 15.5019C105.639 16.5947 106.914 17.1401 108.155 16.9072C109.543 16.6465 110.536 15.3686 110.551 13.9779C110.558 13.3544 109.589 13.354 109.582 13.9779Z" fill="black"/>
<path d="M132.615 69.9329C133.999 69.9329 135.12 68.8111 135.12 67.4274C135.12 66.0436 133.999 64.9219 132.615 64.9219C131.231 64.9219 130.109 66.0436 130.109 67.4274C130.109 68.8111 131.231 69.9329 132.615 69.9329Z" fill="black"/>
<path d="M134.637 67.4272C134.634 67.6717 134.614 67.8229 134.531 68.0751C134.494 68.1915 134.495 68.1922 134.44 68.3013C134.385 68.4107 134.322 68.5152 134.253 68.6157C134.182 68.7189 133.962 68.9461 133.868 69.0186C133.786 69.0823 133.696 69.1385 133.606 69.1898C133.506 69.2466 133.397 69.2968 133.339 69.317C132.9 69.471 132.496 69.4924 132.07 69.3736C131.67 69.2619 131.334 69.0396 131.046 68.7033C131.009 68.6609 130.949 68.5756 130.893 68.4846C130.839 68.3965 130.766 68.2558 130.74 68.1911C130.68 68.039 130.613 67.7574 130.602 67.6216C130.567 67.1623 130.654 66.7712 130.879 66.392C131.094 66.0322 131.385 65.7724 131.789 65.5799C132.123 65.4205 132.613 65.3641 132.979 65.4369C133.953 65.6308 134.626 66.4599 134.637 67.4272C134.644 68.0501 135.612 68.0517 135.606 67.4271C135.592 66.1631 134.804 65.0527 133.622 64.6125C132.475 64.1855 131.102 64.5615 130.328 65.506C129.532 66.4757 129.396 67.8632 130.043 68.9511C130.693 70.0439 131.969 70.5893 133.21 70.3564C134.598 70.0957 135.59 68.8178 135.606 67.4271C135.612 66.8036 134.644 66.8032 134.637 67.4272Z" fill="black"/>
<path d="M137.627 46.5461C139.01 46.5461 140.132 45.4244 140.132 44.0406C140.132 42.6569 139.01 41.5352 137.627 41.5352C136.243 41.5352 135.121 42.6569 135.121 44.0406C135.121 45.4244 136.243 46.5461 137.627 46.5461Z" fill="black"/>
<path d="M139.647 44.0404C139.644 44.285 139.623 44.4361 139.541 44.6884C139.503 44.8047 139.504 44.8054 139.45 44.9146C139.395 45.024 139.332 45.1284 139.263 45.229C139.191 45.3321 138.971 45.5594 138.878 45.6319C138.795 45.6956 138.706 45.7518 138.615 45.8031C138.515 45.8599 138.407 45.9101 138.349 45.9302C137.909 46.0843 137.506 46.1057 137.08 45.9869C136.679 45.8752 136.343 45.6529 136.056 45.3166C136.019 45.2741 135.958 45.1888 135.903 45.0979C135.849 45.0097 135.776 44.8691 135.75 44.8044C135.689 44.6522 135.622 44.3706 135.612 44.2349C135.577 43.7756 135.664 43.3845 135.889 43.0053C136.103 42.6455 136.395 42.3857 136.799 42.1932C137.133 42.0337 137.623 41.9773 137.989 42.0502C138.963 42.2441 139.636 43.0732 139.647 44.0404C139.654 44.6634 140.622 44.6649 140.615 44.0404C140.602 42.7763 139.813 41.6659 138.631 41.2258C137.484 40.7987 136.112 41.1748 135.337 42.1193C134.542 43.089 134.405 44.4765 135.053 45.5644C135.703 46.6572 136.979 47.2026 138.219 46.9697C139.608 46.709 140.6 45.4311 140.615 44.0404C140.622 43.4169 139.654 43.4165 139.647 44.0404Z" fill="black"/>
<path d="M122.593 102.503C123.977 102.503 125.099 101.381 125.099 99.9977C125.099 98.6139 123.977 97.4922 122.593 97.4922C121.21 97.4922 120.088 98.6139 120.088 99.9977C120.088 101.381 121.21 102.503 122.593 102.503Z" fill="black"/>
<path d="M124.616 99.9975C124.613 100.242 124.592 100.393 124.51 100.645C124.472 100.762 124.473 100.762 124.419 100.872C124.364 100.981 124.301 101.085 124.231 101.186C124.16 101.289 123.94 101.516 123.846 101.589C123.764 101.653 123.675 101.709 123.584 101.76C123.484 101.817 123.375 101.867 123.318 101.887C122.878 102.041 122.475 102.063 122.049 101.944C121.648 101.832 121.312 101.61 121.024 101.274C120.988 101.231 120.927 101.146 120.872 101.055C120.818 100.967 120.744 100.826 120.719 100.761C120.658 100.609 120.591 100.328 120.581 100.192C120.546 99.7326 120.632 99.3415 120.858 98.9623C121.072 98.6025 121.364 98.3427 121.767 98.1503C122.102 97.9908 122.591 97.9344 122.957 98.0072C123.932 98.2012 124.605 99.0302 124.616 99.9975C124.622 100.62 125.591 100.622 125.584 99.9974C125.57 98.7334 124.782 97.623 123.6 97.1828C122.453 96.7558 121.081 97.1318 120.306 98.0763C119.511 99.046 119.374 100.434 120.022 101.521C120.672 102.614 121.948 103.16 123.188 102.927C124.577 102.666 125.569 101.388 125.584 99.9974C125.591 99.3739 124.622 99.3735 124.616 99.9975Z" fill="black"/>
<path d="M114.581 67.9452C116.613 67.9452 118.644 67.9452 120.675 67.9452C122.866 67.9452 125.057 67.9452 127.247 67.9452C128.341 67.9452 129.434 67.9452 130.528 67.9452C131.151 67.9452 131.152 66.9766 130.528 66.9766C128.497 66.9766 126.465 66.9766 124.434 66.9766C122.243 66.9766 120.053 66.9766 117.862 66.9766C116.768 66.9766 115.675 66.9766 114.581 66.9766C113.958 66.9766 113.957 67.9452 114.581 67.9452Z" fill="black"/>
<path d="M119.411 67.4631C119.411 66.5423 119.411 65.6214 119.411 64.7006C119.411 64.2078 119.411 63.715 119.411 63.2222C119.411 62.6833 119.481 62.166 119.693 61.7111C120.255 60.5039 121.416 59.7872 122.719 59.7851C123.16 59.7844 123.601 59.7851 124.042 59.7851H137.749C139.121 59.7851 140.496 59.8109 141.867 59.7851C141.888 59.7847 141.909 59.7851 141.929 59.7851C142.553 59.7851 142.554 58.8164 141.929 58.8164H122.809C121.57 58.8164 120.375 59.2703 119.537 60.2069C118.9 60.9193 118.523 61.8128 118.452 62.7658C118.427 63.1123 118.442 63.4649 118.442 63.8119C118.442 64.9455 118.442 66.0791 118.442 67.2128C118.442 67.2962 118.442 67.3797 118.442 67.4631C118.442 68.0864 119.411 68.0874 119.411 67.4631Z" fill="black"/>
<path d="M116.066 78.3359H139.98C142.804 78.3359 145.629 78.3359 148.453 78.3359H156.001C156.624 78.3359 156.625 77.3672 156.001 77.3672H132.087C129.262 77.3672 126.438 77.3672 123.613 77.3672H116.066C115.442 77.3672 115.441 78.3359 116.066 78.3359Z" fill="black"/>
<path d="M123.485 44.7304H136.1C136.723 44.7304 136.724 43.7617 136.1 43.7617H123.485C122.862 43.7617 122.861 44.7304 123.485 44.7304Z" fill="black"/>
<path d="M108.191 40.4426C108.191 37.205 108.191 33.9674 108.191 30.7298C108.191 27.4923 108.191 24.2813 108.191 21.0571V15.5811C108.191 14.9578 107.223 14.9568 107.223 15.5811C107.223 18.8187 107.223 22.0563 107.223 25.2939C107.223 28.5181 107.223 31.7424 107.223 34.9667V40.4426C107.223 41.0659 108.191 41.0669 108.191 40.4426Z" fill="black"/>
<path d="M122.708 94.2616H143.125C143.748 94.2616 143.749 93.293 143.125 93.293H122.708C122.085 93.293 122.084 94.2616 122.708 94.2616Z" fill="black"/>
<path d="M58.2867 47.8565C57.3357 47.8565 56.3847 47.8565 55.4337 47.8565C53.9843 47.8565 52.5691 47.4191 51.4666 46.5093C50.1727 45.4415 49.3607 43.8981 49.2503 42.2661C49.1895 41.3665 49.2353 40.4516 49.2353 39.5509C49.2353 38.5428 49.2353 37.5346 49.2353 36.5264C49.2353 35.9032 48.2666 35.9021 48.2666 36.5264C48.2666 38.3094 48.251 40.093 48.2669 41.8758C48.2832 43.7198 49.0407 45.5159 50.3555 46.81C51.6629 48.0968 53.4428 48.8184 55.275 48.8252C56.2788 48.8289 57.2828 48.8252 58.2867 48.8252C58.91 48.8252 58.911 47.8565 58.2867 47.8565Z" fill="black"/>
<path d="M48.7457 36.5266C50.1295 36.5266 51.2512 35.4049 51.2512 34.0211C51.2512 32.6374 50.1295 31.5156 48.7457 31.5156C47.362 31.5156 46.2402 32.6374 46.2402 34.0211C46.2402 35.4049 47.362 36.5266 48.7457 36.5266Z" fill="black"/>
<path d="M45.7559 34.0214C45.7697 35.2855 46.5579 36.3959 47.74 36.836C48.8869 37.2631 50.2593 36.887 51.0339 35.9425C51.8293 34.9728 51.966 33.5853 51.3185 32.4974C50.6681 31.4046 49.3924 30.8592 48.1519 31.0921C46.7635 31.3528 45.7711 32.6307 45.7559 34.0214C45.7491 34.6449 46.7177 34.6454 46.7246 34.0214C46.7272 33.7769 46.748 33.6257 46.8301 33.3735C46.868 33.2571 46.8671 33.2564 46.9215 33.1473C46.9761 33.0379 47.0391 32.9334 47.1086 32.8329C47.1799 32.7297 47.4001 32.5025 47.4937 32.43C47.576 32.3663 47.6654 32.3101 47.7558 32.2588C47.856 32.202 47.9647 32.1518 48.0224 32.1316C48.462 31.9776 48.8656 31.9562 49.2916 32.075C49.692 32.1867 50.028 32.409 50.3158 32.7453C50.3521 32.7877 50.413 32.873 50.4685 32.964C50.5222 33.0521 50.5956 33.1928 50.6214 33.2574C50.682 33.4096 50.7489 33.6912 50.7593 33.827C50.7946 34.2863 50.7078 34.6774 50.4821 35.0566C50.268 35.4164 49.9762 35.6762 49.5726 35.8686C49.2382 36.0281 48.7488 36.0845 48.3828 36.0117C47.4081 35.8178 46.7352 34.9887 46.7246 34.0214C46.7178 33.3985 45.7491 33.3969 45.7559 34.0214Z" fill="black"/>
<path d="M34.5465 45.7141C35.9302 45.7141 37.052 44.5924 37.052 43.2086C37.052 41.8249 35.9302 40.7031 34.5465 40.7031C33.1628 40.7031 32.041 41.8249 32.041 43.2086C32.041 44.5924 33.1628 45.7141 34.5465 45.7141Z" fill="black"/>
<path d="M31.5567 43.2089C31.5705 44.473 32.3587 45.5834 33.5408 46.0235C34.6876 46.4506 36.06 46.0745 36.8347 45.13C37.63 44.1603 37.7668 42.7728 37.1193 41.6849C36.4689 40.5921 35.1932 40.0467 33.9526 40.2796C32.5643 40.5403 31.5719 41.8182 31.5567 43.2089C31.5498 43.8324 32.5185 43.8329 32.5253 43.2089C32.528 42.9644 32.5487 42.8132 32.6309 42.561C32.6688 42.4446 32.6679 42.4439 32.7223 42.3348C32.7769 42.2254 32.8399 42.1209 32.9094 42.0204C32.9806 41.9172 33.2008 41.69 33.2945 41.6175C33.3768 41.5538 33.4662 41.4976 33.5566 41.4463C33.6568 41.3895 33.7655 41.3393 33.8231 41.3191C34.2628 41.1651 34.6664 41.1437 35.0924 41.2625C35.4928 41.3742 35.8288 41.5965 36.1165 41.9328C36.1529 41.9752 36.2138 42.0605 36.2693 42.1515C36.323 42.2396 36.3964 42.3803 36.4222 42.4449C36.4827 42.5971 36.5497 42.8787 36.5601 43.0145C36.5954 43.4738 36.5086 43.8649 36.2829 44.2441C36.0687 44.6039 35.7769 44.8637 35.3734 45.0561C35.039 45.2156 34.5496 45.272 34.1836 45.1992C33.2089 45.0053 32.5359 44.1762 32.5253 43.2089C32.5185 42.586 31.5498 42.5844 31.5567 43.2089Z" fill="black"/>
<path d="M48.6879 42.9297C45.4145 42.9297 42.1411 42.9297 38.8677 42.9297C37.9362 42.9297 37.0048 42.9297 36.0733 42.9297C35.45 42.9297 35.449 43.8984 36.0733 43.8984C39.3467 43.8984 42.6201 43.8984 45.8935 43.8984C46.825 43.8984 47.7564 43.8984 48.6879 43.8984C49.3111 43.8984 49.3122 42.9297 48.6879 42.9297Z" fill="black"/>
<path d="M76.0094 21.3364C74.3561 21.3364 72.7028 21.3364 71.0495 21.3364C70.7657 21.3364 70.4816 21.3316 70.1984 21.3536C69.3922 21.4164 68.6154 21.6281 67.8902 21.9861C66.498 22.6735 65.4243 23.8995 64.8727 25.3436C64.3434 26.7295 64.4836 28.2917 64.4836 29.7494V36.0921C64.4836 37.5183 64.4631 38.9462 64.4836 40.3723C64.4839 40.3958 64.4836 40.4193 64.4836 40.4427C64.4836 41.066 65.4523 41.0671 65.4523 40.4427V28.2556C65.4523 27.8004 65.4363 27.3393 65.4848 26.8862C65.6277 25.5518 66.3921 24.2222 67.4444 23.4031C68.417 22.6462 69.5422 22.305 70.7403 22.305C72.4475 22.305 74.1548 22.305 75.862 22.305H76.0094C76.6327 22.305 76.6337 21.3364 76.0094 21.3364Z" fill="black"/>
<path d="M77.6118 99.7686C77.6118 101.569 77.6118 103.369 77.6118 105.169C77.6118 105.419 77.6108 105.669 77.6118 105.919C77.6148 106.687 77.7826 107.432 78.1015 108.13C78.7988 109.657 80.2968 110.798 81.9568 111.053C82.3715 111.117 82.7821 111.107 83.1981 111.141C83.5362 111.169 83.9656 111.269 84.3377 111.409C84.6271 111.518 85.0115 111.734 85.3137 111.946C85.562 112.121 85.8807 112.432 86.1108 112.713C86.3107 112.957 86.5452 113.345 86.6963 113.689C86.7387 113.786 86.8127 113.993 86.8589 114.15C86.9175 114.35 86.9632 114.553 86.9945 114.759C87.0252 114.961 87.032 115.286 87.032 115.555C87.032 117.413 87.032 119.271 87.032 121.128V126.376C87.032 126.406 87.032 126.436 87.032 126.466C87.032 127.089 88.0007 127.09 88.0007 126.466C88.0007 124.978 88.0007 123.49 88.0007 122.002C88.0007 119.961 88.0007 117.921 88.0007 115.88C88.0007 115.036 87.9509 114.209 87.6235 113.414C86.9746 111.837 85.579 110.622 83.8975 110.273C83.4784 110.186 83.0627 110.169 82.6373 110.154C82.2354 110.14 81.8889 110.078 81.4768 109.944C80.7814 109.718 80.1469 109.297 79.638 108.729C79.4005 108.463 79.21 108.183 79.0303 107.832C78.9325 107.641 78.8928 107.548 78.8275 107.362C78.7561 107.158 78.6987 106.95 78.6561 106.738C78.5881 106.401 78.5804 106.046 78.5804 105.666C78.5804 103.752 78.5804 101.838 78.5804 99.9244V99.7686C78.5804 99.1453 77.6118 99.1443 77.6118 99.7686Z" fill="black"/>
<path d="M97.054 99.7921C97.0525 100.654 97.051 101.516 97.0495 102.377C97.046 104.433 97.0425 106.488 97.039 108.544C97.0347 111.043 97.0304 113.541 97.0261 116.04L97.0151 122.486C97.0133 123.534 96.9814 124.586 97.0097 125.633C97.0101 125.648 97.0096 125.662 97.0096 125.676C97.0085 126.299 97.9772 126.3 97.9783 125.676C97.9797 124.814 97.9812 123.953 97.9827 123.091L97.9933 116.924C97.9975 114.426 98.0018 111.927 98.0061 109.428C98.0098 107.28 98.0135 105.131 98.0171 102.982C98.0189 101.935 98.0508 100.882 98.0225 99.8349C98.0222 99.8207 98.0226 99.8063 98.0226 99.7921C98.0237 99.1687 97.055 99.1678 97.054 99.7921Z" fill="black"/>
<path d="M97.5387 99.3664C98.9224 99.3664 100.044 98.2447 100.044 96.861C100.044 95.4772 98.9224 94.3555 97.5387 94.3555C96.1549 94.3555 95.0332 95.4772 95.0332 96.861C95.0332 98.2447 96.1549 99.3664 97.5387 99.3664Z" fill="black"/>
<path d="M95.5175 96.8612C95.5202 96.6166 95.5409 96.4655 95.6231 96.2133C95.661 96.0969 95.66 96.0962 95.7145 95.9871C95.7691 95.8777 95.8321 95.7732 95.9015 95.6727C95.9728 95.5695 96.193 95.3422 96.2867 95.2697C96.3689 95.2061 96.4584 95.1499 96.5488 95.0986C96.649 95.0418 96.7577 94.9916 96.8153 94.9714C97.255 94.8174 97.6585 94.796 98.0845 94.9148C98.485 95.0265 98.8209 95.2487 99.1087 95.585C99.1451 95.6275 99.206 95.7128 99.2614 95.8038C99.3152 95.8919 99.3886 96.0326 99.4143 96.0972C99.4749 96.2494 99.5419 96.531 99.5523 96.6668C99.5875 97.1261 99.5007 97.5171 99.275 97.8964C99.0609 98.2562 98.7691 98.516 98.3656 98.7084C98.0312 98.8679 97.5418 98.9243 97.1757 98.8515C96.201 98.6575 95.5281 97.8285 95.5175 96.8612C95.5107 96.2383 94.542 96.2367 94.5489 96.8613C94.5627 98.1253 95.3509 99.2357 96.533 99.6759C97.6798 100.103 99.0522 99.7268 99.8269 98.7824C100.622 97.8127 100.759 96.4251 100.111 95.3372C99.4611 94.2444 98.1854 93.6991 96.9448 93.932C95.5565 94.1926 94.5641 95.4706 94.5489 96.8613C94.542 97.4848 95.5107 97.4852 95.5175 96.8612Z" fill="black"/>
<path d="M78.3297 99.3664C79.7134 99.3664 80.8352 98.2447 80.8352 96.861C80.8352 95.4772 79.7134 94.3555 78.3297 94.3555C76.946 94.3555 75.8242 95.4772 75.8242 96.861C75.8242 98.2447 76.946 99.3664 78.3297 99.3664Z" fill="black"/>
<path d="M76.3085 96.8612C76.3112 96.6166 76.3319 96.4655 76.4141 96.2133C76.452 96.0969 76.451 96.0962 76.5055 95.9871C76.5601 95.8777 76.6231 95.7732 76.6926 95.6727C76.7638 95.5695 76.984 95.3422 77.0777 95.2697C77.1599 95.2061 77.2494 95.1499 77.3398 95.0986C77.44 95.0418 77.5487 94.9916 77.6063 94.9714C78.046 94.8174 78.4496 94.796 78.8755 94.9148C79.276 95.0265 79.6119 95.2487 79.8997 95.585C79.9361 95.6275 79.997 95.7128 80.0525 95.8038C80.1062 95.8919 80.1796 96.0326 80.2053 96.0972C80.2659 96.2494 80.3329 96.531 80.3433 96.6668C80.3785 97.1261 80.2917 97.5171 80.0661 97.8964C79.8519 98.2562 79.5601 98.516 79.1566 98.7084C78.8222 98.8679 78.3328 98.9243 77.9668 98.8515C76.9921 98.6575 76.3191 97.8285 76.3085 96.8612C76.3017 96.2383 75.333 96.2367 75.3399 96.8613C75.3537 98.1253 76.1419 99.2357 77.324 99.6759C78.4708 100.103 79.8432 99.7268 80.6179 98.7824C81.4133 97.8127 81.55 96.4251 80.9025 95.3372C80.2521 94.2444 78.9764 93.6991 77.7358 93.932C76.3475 94.1926 75.3551 95.4706 75.3399 96.8613C75.333 97.4848 76.3017 97.4852 76.3085 96.8612Z" fill="black"/>
<path d="M98.1886 112.883C98.9009 112.883 99.6133 112.883 100.326 112.883C101.083 112.883 101.854 112.92 102.609 112.859C105.511 112.626 108.043 110.764 109.151 108.077C109.542 107.13 109.714 106.112 109.714 105.089V103.592C109.714 101.678 109.714 99.7631 109.714 97.8486C109.714 96.5137 109.738 95.1764 109.714 93.8417C109.714 93.8199 109.714 93.7982 109.714 93.7764C109.714 93.1532 108.746 93.1521 108.746 93.7764C108.746 94.8711 108.746 95.9657 108.746 97.0603C108.746 98.9901 108.746 100.92 108.746 102.85C108.746 103.493 108.746 104.136 108.746 104.78C108.746 105.41 108.726 106.014 108.6 106.595C108.041 109.176 106.007 111.21 103.427 111.768C102.652 111.936 101.828 111.914 100.994 111.914C100.12 111.914 99.2455 111.914 98.3713 111.914C98.3104 111.914 98.2495 111.914 98.1886 111.914C97.5653 111.914 97.5642 112.883 98.1886 112.883Z" fill="black"/>
<path d="M107.956 25.7929C109.457 25.7929 110.958 25.7929 112.459 25.7929C112.775 25.7929 113.091 25.7929 113.406 25.7929C114.029 25.7929 114.031 24.8242 113.406 24.8242C111.905 24.8242 110.404 24.8242 108.903 24.8242C108.587 24.8242 108.272 24.8242 107.956 24.8242C107.333 24.8242 107.332 25.7929 107.956 25.7929Z" fill="black"/>
<path d="M145.689 77.5825V73.1632C145.689 72.5399 144.721 72.5388 144.721 73.1632V77.5825C144.721 78.2058 145.689 78.2068 145.689 77.5825Z" fill="black"/>
<path d="M136.262 94.253C136.262 96.9344 136.262 99.6158 136.262 102.297C136.262 103.067 136.262 103.837 136.262 104.607C136.262 105.377 137.23 105.231 137.23 104.607C137.23 101.926 137.23 99.2441 137.23 96.5627C137.23 95.7928 137.23 95.0229 137.23 94.253C137.23 93.6297 136.262 93.6287 136.262 94.253Z" fill="black"/>
<path d="M109.599 101.426H113.134C113.757 101.426 113.759 100.457 113.134 100.457H109.599C108.975 100.457 108.974 101.426 109.599 101.426Z" fill="black"/>
<path d="M72.9804 12.4101H76.3896C76.6514 12.4101 76.874 12.1875 76.874 11.9257C76.874 11.6631 76.6523 11.4414 76.3896 11.4414H72.9804C72.7187 11.4414 72.4961 11.664 72.4961 11.9257C72.4961 12.1884 72.7177 12.4101 72.9804 12.4101Z" fill="black"/>
<path d="M46.7998 55.7877C45.7854 55.5711 44.7369 55.6571 43.8132 56.1492C43.0078 56.5782 42.3533 57.3049 41.9825 58.136C41.1636 59.972 41.5731 62.1277 42.9416 63.5906C44.0519 64.7773 45.7567 65.2854 47.3311 64.8681C48.9098 64.4496 50.1125 63.1358 50.42 61.5354C50.6241 60.4736 50.5112 59.3896 50.0422 58.4115C49.5549 57.3953 48.6798 56.5283 47.6462 56.0746C47.3715 55.954 47.0925 55.8544 46.7998 55.7877C46.5449 55.7297 46.2754 55.8659 46.2039 56.126C46.1369 56.37 46.2861 56.6635 46.5422 56.7218C47.4662 56.9322 48.2925 57.4943 48.8309 58.2611C49.3837 59.0485 49.6047 59.8955 49.5408 60.8437C49.5371 60.8977 49.5326 60.9517 49.5272 61.0056C49.5243 61.0341 49.5111 61.1415 49.5226 61.0578C49.5085 61.1605 49.4901 61.2627 49.4685 61.364C49.43 61.5446 49.38 61.7229 49.3179 61.8968C49.304 61.9358 49.2885 61.9741 49.2744 62.013C49.2452 62.0934 49.3012 61.9587 49.252 62.0668C49.2159 62.1461 49.1782 62.2246 49.1373 62.3015C49.0543 62.4576 48.9594 62.6055 48.8569 62.7494C48.8457 62.7651 48.834 62.7804 48.8225 62.7959C48.8254 62.792 48.8739 62.7314 48.8394 62.7737C48.8153 62.8033 48.7914 62.8332 48.7667 62.8624C48.7094 62.9299 48.6498 62.9953 48.5878 63.0585C48.5308 63.1167 48.4719 63.1731 48.4111 63.2273C48.3832 63.2523 48.3549 63.2768 48.3262 63.3008C48.3038 63.3196 48.1859 63.4104 48.2785 63.3414C48.1496 63.4375 48.0163 63.5269 47.8766 63.6067C47.8072 63.6464 47.7365 63.6838 47.6646 63.719C47.6315 63.7353 47.598 63.7506 47.5646 63.7663C47.463 63.8141 47.6046 63.7541 47.5279 63.7829C47.372 63.8412 47.217 63.8967 47.0558 63.9387C46.9843 63.9573 46.9124 63.9738 46.8401 63.9883C46.7978 63.9968 46.7554 64.0042 46.7129 64.0117C46.6947 64.0149 46.6764 64.0171 46.6582 64.0203C46.5886 64.0325 46.7473 64.0104 46.677 64.0181C46.3487 64.0543 46.0209 64.0569 45.6929 64.015C45.7793 64.026 45.7208 64.0189 45.6729 64.0102C45.6295 64.0023 45.5862 63.9948 45.543 63.986C45.4626 63.9696 45.3826 63.9507 45.3033 63.9293C45.2234 63.9078 45.1442 63.8836 45.0658 63.8571C45.0295 63.8447 44.9933 63.8318 44.9573 63.8184C44.9294 63.808 44.8062 63.7582 44.8536 63.7785C44.9073 63.8014 44.8034 63.7554 44.7871 63.7478C44.7517 63.7313 44.7165 63.7144 44.6816 63.6968C44.5993 63.6555 44.5185 63.6114 44.4393 63.5645C44.3647 63.5204 44.2916 63.4738 44.22 63.4249C44.1866 63.4021 44.1535 63.3787 44.1208 63.3549C44.1044 63.3429 44.0882 63.3307 44.0718 63.3186C44.0134 63.2754 44.1292 63.3654 44.0728 63.3191C43.9267 63.1992 43.7866 63.0738 43.656 62.9369C43.5962 62.8742 43.5383 62.8098 43.4824 62.7437C43.4491 62.7045 43.4166 62.6647 43.3848 62.6243C43.3507 62.5812 43.3872 62.6271 43.3924 62.6341C43.3745 62.6101 43.3566 62.586 43.3391 62.5617C43.2165 62.3919 43.1055 62.2138 43.0056 62.0298C42.8928 61.8222 42.8275 61.6785 42.7609 61.4928C42.6875 61.2883 42.629 61.0786 42.5861 60.8656C42.5747 60.8092 42.5657 60.7526 42.5553 60.6961C42.5392 60.6076 42.5554 60.7203 42.5459 60.6313C42.5338 60.5189 42.5242 60.4066 42.5199 60.2937C42.512 60.0875 42.5188 59.8806 42.5401 59.6753C42.5428 59.65 42.5584 59.5375 42.5464 59.6173C42.5545 59.5632 42.5635 59.5093 42.5735 59.4556C42.5935 59.3488 42.6175 59.2428 42.6456 59.1378C42.6694 59.0485 42.6962 58.96 42.7258 58.8724C42.743 58.8216 42.7611 58.771 42.7803 58.7209C42.7884 58.6995 42.7969 58.6782 42.8054 58.6568C42.8343 58.5839 42.7781 58.7176 42.8097 58.6459C42.8892 58.4656 42.9811 58.291 43.0856 58.1239C43.2194 57.91 43.2552 57.8632 43.4006 57.6999C43.53 57.5545 43.671 57.4213 43.8203 57.2966C43.8882 57.2399 43.7925 57.3144 43.8639 57.2622C43.9062 57.2312 43.949 57.2009 43.9925 57.1716C44.0736 57.117 44.157 57.0657 44.2423 57.0181C44.3285 56.9701 44.4167 56.9265 44.5063 56.8852C44.5569 56.8619 44.5043 56.8849 44.4956 56.8886C44.5238 56.8767 44.5525 56.8655 44.5811 56.8546C44.6315 56.8353 44.6825 56.8173 44.7337 56.8004C44.9066 56.7433 45.1666 56.6831 45.2917 56.6646C45.2687 56.668 45.3868 56.6539 45.4214 56.6508C45.4708 56.6465 45.5203 56.6432 45.5698 56.6409C45.6881 56.6353 45.8068 56.6351 45.9251 56.6402C46.1776 56.6511 46.2958 56.6692 46.5422 56.7218C46.7978 56.7764 47.0658 56.6461 47.138 56.3836C47.2042 56.1424 47.0567 55.8426 46.7998 55.7877Z" fill="black"/>
<path d="M33.7108 76.3931C32.4009 78.7123 31.4448 81.2044 30.5253 83.6976C30.0645 84.947 29.61 86.199 29.1145 87.4352C28.8406 88.1185 28.5322 88.7873 28.2636 89.4724C27.814 90.6195 27.3899 91.7769 26.9656 92.9334C26.5589 94.0421 26.1422 95.15 25.7772 96.2732C25.7432 96.3779 25.7042 96.4841 25.6824 96.5923C25.6538 96.7351 25.6515 96.8706 25.7282 97.0016C25.904 97.3018 26.3732 97.2818 26.6759 97.3272C28.0338 97.5306 29.398 97.6919 30.7662 97.8069C33.4553 98.0329 36.159 98.0831 38.8547 97.9601C41.5724 97.836 44.2827 97.5354 46.9625 97.0673C49.6148 96.6039 52.2375 95.9704 54.8083 95.1696C55.8654 94.8403 56.9006 94.4434 57.9596 94.1223C58.7163 93.8929 59.5967 93.6655 60.1911 93.1144C60.6035 92.7321 60.6235 92.2004 60.4837 91.6822C60.3117 91.0448 60.1206 90.4125 59.9465 89.7757C59.6042 88.524 59.2905 87.2634 59.0538 85.987C58.9395 85.3708 58.843 84.7515 58.7701 84.129C58.7396 83.8692 58.5693 83.6446 58.2857 83.6446C58.0476 83.6446 57.7707 83.8674 57.8014 84.129C57.973 85.5933 58.2521 87.0395 58.6045 88.4706C58.7756 89.1653 58.9616 89.8562 59.154 90.5453C59.2537 90.9025 59.3552 91.2592 59.4574 91.6158C59.5038 91.7778 59.5636 91.9425 59.5912 92.1091C59.6015 92.1714 59.6011 92.2234 59.6026 92.2875C59.6002 92.1854 59.6043 92.3458 59.5947 92.3269L59.5865 92.3537C59.6171 92.2868 59.624 92.2702 59.6074 92.3038C59.5903 92.3153 59.5638 92.3756 59.5524 92.3932C59.6018 92.3168 59.5749 92.3626 59.5313 92.4056C59.5017 92.4348 59.4701 92.4614 59.4383 92.4881C59.5199 92.4199 59.4076 92.5066 59.3793 92.5249C59.2961 92.5788 59.2092 92.6271 59.1208 92.6721C59.0806 92.6927 59.04 92.7125 58.9991 92.7317C58.982 92.7397 58.8295 92.8077 58.9009 92.7773C58.487 92.9536 58.0529 93.082 57.6228 93.2123C57.1126 93.3668 56.6142 93.5551 56.1097 93.7271C55.4076 93.9665 54.7011 94.1932 53.9908 94.4071C51.1292 95.2689 48.2059 95.9243 45.2508 96.3698C42.2944 96.8155 39.3031 97.0405 36.3136 97.056C33.3338 97.0715 30.3485 96.8798 27.3979 96.4609C27.2172 96.4352 27.0366 96.4088 26.8561 96.3815C26.7658 96.3679 26.6756 96.354 26.5855 96.34C26.5371 96.3325 26.4784 96.3158 26.4309 96.3157C26.4165 96.3157 26.2754 96.284 26.3912 96.3394L26.5649 96.5132C26.6267 96.5992 26.653 96.7789 26.6148 96.8586C26.6194 96.8489 26.6189 96.8355 26.6222 96.8252C26.6345 96.7872 26.6434 96.7479 26.6549 96.7096C26.694 96.5792 26.7375 96.45 26.7809 96.321C26.9215 95.9034 27.0691 95.4881 27.2173 95.0731C27.6158 93.9575 28.0242 92.8454 28.4377 91.7353C28.7287 90.9542 29.0265 90.1762 29.33 89.3999C29.3464 89.358 29.267 89.5426 29.3073 89.454C29.3416 89.3785 29.3744 89.3022 29.4076 89.2262C29.532 88.9415 29.6533 88.6553 29.7727 88.3684C29.9843 87.8602 30.1874 87.3485 30.3855 86.8349C30.7909 85.7834 31.1748 84.7238 31.5658 83.6669C32.4239 81.3471 33.3282 79.0403 34.5472 76.8821C34.8541 76.3385 34.0177 75.8497 33.7108 76.3931Z" fill="black"/>
<path d="M79.258 69.8957C80.6268 71.5165 81.5035 73.5823 81.7003 75.6964C81.7893 76.6523 81.807 77.7466 81.0348 78.4402C80.6588 78.778 80.1693 78.9884 79.7098 79.187C79.1824 79.4149 78.6495 79.6307 78.114 79.8389C73.7196 81.5476 69.0911 82.6432 64.3926 83.0484C61.7343 83.2777 59.0608 83.2949 56.3984 83.126C56.1371 83.1094 55.9141 83.3605 55.9141 83.6103C55.9141 83.8863 56.1363 84.0781 56.3984 84.0947C58.8673 84.2513 61.346 84.2484 63.8133 84.0637C66.2639 83.8803 68.7038 83.5235 71.1023 82.988C73.4928 82.4544 75.8425 81.7424 78.1296 80.8663C78.7357 80.6341 79.3368 80.3896 79.9343 80.1363C80.4311 79.9258 80.9381 79.7154 81.3777 79.3971C81.8792 79.0338 82.2472 78.5829 82.4713 78.0027C82.6746 77.4762 82.7211 76.8861 82.7077 76.3262C82.6528 74.0447 81.844 71.7499 80.4963 69.9134C80.3199 69.673 80.1353 69.4385 79.9429 69.2107C79.774 69.0108 79.432 69.0367 79.258 69.2107C79.0599 69.4088 79.0887 69.6952 79.258 69.8957Z" fill="black"/>
<path d="M15.3019 92.2266C16.1903 93.8176 16.4566 95.5888 16.689 97.3708C16.7228 97.6301 16.8874 97.8551 17.1733 97.8551C17.4087 97.8551 17.6917 97.632 17.6576 97.3708C17.5312 96.4009 17.4139 95.426 17.1898 94.4726C16.9652 93.5175 16.6171 92.5949 16.1384 91.7377C15.8344 91.1933 14.9974 91.6812 15.3019 92.2266Z" fill="black"/>
<path d="M20.1392 78.4119C20.9471 81.3004 21.3542 84.2623 21.5506 87.2506C21.648 88.7325 21.7037 90.2167 21.7607 91.7005C21.8184 93.2011 21.9333 94.7076 21.9147 96.2097C21.8979 97.5601 21.7357 98.9565 21.0765 100.159C20.5853 101.054 19.7303 101.72 18.7947 102.073C18.2733 102.27 17.7336 102.389 17.2364 102.423C16.6763 102.461 16.2026 102.426 15.7016 102.299C15.5771 102.268 15.4539 102.232 15.3325 102.19C15.268 102.168 15.2041 102.144 15.1408 102.119C15.1428 102.12 15.0658 102.088 15.1044 102.105C15.1409 102.121 15.0362 102.073 15.0262 102.068C14.9161 102.014 14.8114 101.951 14.7106 101.881C14.6334 101.828 14.6865 101.869 14.6162 101.807C14.5675 101.765 14.5196 101.721 14.4738 101.675C14.4281 101.629 14.3853 101.581 14.3424 101.532C14.3264 101.514 14.311 101.495 14.296 101.477C14.3395 101.531 14.2901 101.468 14.2841 101.459C14.2103 101.355 14.1433 101.247 14.0856 101.133C14.0212 101.006 14.0251 101.016 13.9775 100.856C13.9621 100.804 13.9487 100.752 13.9371 100.699C13.9306 100.669 13.9251 100.639 13.9195 100.609C13.9048 100.529 13.9243 100.72 13.9157 100.579C13.9087 100.465 13.9064 100.354 13.9151 100.24C13.9195 100.183 13.9128 100.249 13.9115 100.257C13.916 100.228 13.9216 100.198 13.9278 100.169C13.9419 100.102 13.9615 100.038 13.9821 99.9732C13.9889 99.9516 13.9971 99.9301 14.0055 99.9092C13.9753 99.9841 14.0051 99.9121 14.0123 99.8991C14.0427 99.8444 14.0705 99.7895 14.1046 99.7368C14.1218 99.7102 14.1396 99.6835 14.1586 99.6583C14.152 99.6671 14.1223 99.7033 14.1583 99.661C14.2072 99.6035 14.2596 99.549 14.3153 99.4979C14.3954 99.4244 14.4609 99.3794 14.578 99.3094C14.6678 99.2558 14.8395 99.1686 14.8879 99.1479C15.0425 99.0815 15.3259 98.9967 15.5379 98.9448C15.9883 98.8345 16.4524 98.7687 16.8889 98.6071C17.4099 98.4141 17.8442 98.1132 18.1762 97.6644C18.3659 97.408 18.4968 97.121 18.6105 96.8242C18.7041 96.5799 18.507 96.2929 18.2722 96.2284C17.9993 96.1534 17.7703 96.3215 17.6764 96.5667C17.6282 96.6927 17.5678 96.8173 17.4987 96.9362C17.4632 96.9972 17.4249 97.0564 17.3846 97.1143C17.38 97.1209 17.329 97.1877 17.3698 97.1361C17.3449 97.1676 17.3183 97.1978 17.2912 97.2275C17.2547 97.2677 17.2166 97.3066 17.1769 97.3437C17.1631 97.3565 17.0293 97.4668 17.103 97.4114C16.9995 97.4893 16.887 97.5557 16.7709 97.6129C16.7518 97.6223 16.7322 97.6308 16.7131 97.6403C16.646 97.6737 16.7807 97.6143 16.7111 97.6422C16.6581 97.6635 16.6047 97.6833 16.5506 97.7017C16.4345 97.7413 16.3164 97.7746 16.1975 97.8046C15.9672 97.8627 15.7339 97.908 15.5021 97.9594C14.4207 98.1989 13.2086 98.7408 12.985 99.9556C12.7712 101.117 13.4427 102.325 14.4718 102.871C15.5349 103.435 16.8343 103.504 17.9991 103.296C19.161 103.089 20.2984 102.54 21.1312 101.696C22.1165 100.697 22.576 99.296 22.7612 97.9334C22.9668 96.4211 22.8601 94.899 22.7962 93.381C22.729 91.7854 22.679 90.189 22.5973 88.594C22.4376 85.4794 22.1252 82.3675 21.3828 79.3324C21.2863 78.9379 21.1827 78.5453 21.0733 78.1543C20.9057 77.5548 19.9708 77.8096 20.1392 78.4119Z" fill="black"/>
<path d="M21.651 82.1729C22.7785 81.6366 24.0053 81.2967 25.2545 81.2312C26.487 81.1667 27.7069 81.3544 28.8787 81.7354C29.5625 81.9577 30.219 82.2448 30.8561 82.5772C31.088 82.6982 31.3823 82.6368 31.5188 82.4035C31.6462 82.1856 31.5778 81.8622 31.345 81.7408C28.9109 80.4706 26.1651 79.888 23.4554 80.5161C22.6618 80.7 21.8971 80.9869 21.1621 81.3364C20.9259 81.4488 20.8643 81.787 20.9884 81.9991C21.1297 82.2408 21.414 82.2856 21.651 82.1729Z" fill="black"/>
<path d="M21.5048 89.0301C19.7479 89.9115 17.9 90.595 15.9917 91.0671C15.0516 91.2997 14.098 91.4842 13.1377 91.61C12.9507 91.6346 12.8055 91.6468 13.055 91.6845C12.9709 91.6718 13.0945 91.7428 13.0249 91.6569C12.9554 91.5711 13.0692 91.7202 13.0246 91.6575C13.0053 91.6303 12.986 91.6021 12.9699 91.573C12.9281 91.4973 12.8862 91.4225 12.8487 91.3445C12.4527 90.5224 12.231 89.4738 12.0179 88.5505C11.8002 87.6072 11.6085 86.6567 11.4486 85.7019C11.4268 85.5721 11.4064 85.4422 11.3866 85.3121C11.3679 85.1892 11.3972 85.413 11.3843 85.2961C11.3568 85.0459 11.3335 84.7952 11.3152 84.5442C11.2437 83.5634 11.2425 82.5776 11.3191 81.5971C11.4648 79.7311 11.9122 77.8612 12.7174 76.1671C13.4553 74.6146 14.4797 73.2045 15.7854 72.0808C17.1146 70.9369 18.7519 70.2725 20.4387 69.8577C22.1399 69.4395 23.8882 69.2318 25.6164 68.9584C27.6603 68.635 29.716 68.389 31.7782 68.2166C35.886 67.8731 40.0181 67.8229 44.1332 68.0632C48.1999 68.3007 52.2226 68.83 56.2009 69.7062C60.0437 70.5526 63.8747 71.5175 67.8206 71.721C70.9284 71.8813 74.1704 71.7287 77.1439 70.7397C78.5962 70.2566 79.9686 69.561 81.1394 68.5676C81.6979 68.0938 82.2254 67.549 82.5674 66.8943C82.9324 66.1954 82.9795 65.4979 83.0891 64.7351C83.1152 64.5536 83.1542 64.13 83.4134 64.1495C83.8033 64.1787 83.8568 64.9325 83.8951 65.1961C83.9745 65.7425 84.8538 65.6023 84.8464 65.0673C84.8256 63.5523 84.8014 61.4653 86.3547 60.6315C87.0969 60.2331 87.9933 60.3539 88.7781 60.5411C89.0007 60.5942 89.2214 60.6554 89.4411 60.7193C89.5145 60.7406 89.6304 60.7944 89.7008 60.7963C89.9062 60.8018 89.7138 60.8397 89.7086 60.7412C89.7341 61.2254 89.5939 61.7661 89.5318 62.2464C89.4064 63.217 89.2737 64.1876 89.2019 65.164C89.1379 66.0356 89.1526 66.9166 89.033 67.7834C88.8152 69.3617 87.9994 70.9339 86.5327 71.6777C85.7314 72.0842 85.0018 72.4899 84.3119 73.0755C83.6078 73.673 82.9802 74.3535 82.3293 75.0067C81.8888 75.4488 82.5735 76.134 83.0143 75.6916C83.68 75.0235 84.3214 74.3262 85.0453 73.7193C85.3744 73.4433 85.7243 73.1936 86.0951 72.9767C86.4971 72.7414 86.9384 72.5839 87.3338 72.3382C88.924 71.3501 89.7792 69.5802 90.0036 67.7701C90.136 66.7019 90.1198 65.6207 90.2234 64.5495C90.3276 63.472 90.4885 62.4013 90.6156 61.3265C90.6708 60.8594 90.7757 60.3311 90.3217 60.0224C89.9725 59.7849 89.44 59.7033 89.0355 59.607C88.1381 59.3933 87.1617 59.2795 86.277 59.6097C84.0518 60.4402 83.8499 63.0416 83.8777 65.0673L84.8291 64.9386C84.7108 64.1248 84.3119 63.14 83.3223 63.1773C82.4874 63.2088 82.2014 64.0394 82.1204 64.7351C82.0297 65.5143 81.9246 66.2008 81.4546 66.8548C81.0085 67.4757 80.3762 67.9926 79.7483 68.4201C77.0262 70.2736 73.5344 70.7399 70.3146 70.797C66.4455 70.8656 62.6813 70.1704 58.9213 69.3252C56.8929 68.8693 54.8671 68.3951 52.8169 68.0451C50.7088 67.6852 48.5762 67.4421 46.4459 67.2606C42.1332 66.8932 37.7933 66.8467 33.4738 67.1228C31.3221 67.2604 29.1766 67.4806 27.0408 67.7753C25.1487 68.0363 23.2427 68.3055 21.3666 68.6664C19.6228 69.0018 17.8822 69.5108 16.3657 70.4599C14.8322 71.4196 13.5711 72.7958 12.6194 74.3255C10.6112 77.5534 9.95837 81.599 10.4213 85.3411C10.5248 86.1781 10.6983 87.0101 10.8704 87.8349C11.0982 88.9262 11.3413 90.0273 11.7089 91.0815C11.8372 91.4496 11.9739 91.8402 12.1991 92.1621C12.5049 92.5992 12.8222 92.6215 13.3309 92.5531C15.3435 92.2827 17.3224 91.7921 19.2242 91.0788C20.1683 90.7246 21.0925 90.3186 21.9936 89.8664C22.5509 89.5868 22.061 88.751 21.5048 89.0301Z" fill="black"/>
<path d="M38.0005 102.369C39.0613 106.175 41.8132 109.1 44.2977 112.044C46.7196 114.914 48.948 118.184 49.4638 121.991C49.7492 124.097 49.5922 126.241 49.7535 128.357C49.9176 130.509 50.1773 132.671 50.7344 134.76C51.5024 137.641 52.8951 140.479 55.1328 142.502C57.4046 144.556 60.3823 145.498 63.4257 145.264C65.1697 145.13 66.9057 144.733 68.4748 143.945C70.0706 143.144 71.4108 141.911 72.3495 140.393C74.4939 136.923 74.374 132.642 74.1205 128.723C73.8408 124.399 73.1158 120.093 71.8892 115.935C70.7792 112.173 69.2653 108.522 67.3967 105.073C65.5455 101.656 63.3315 98.4348 60.7971 95.4886C60.177 94.7676 59.5368 94.0642 58.8786 93.3779C58.4463 92.9271 57.7619 93.6126 58.1937 94.0628C60.8187 96.8 63.136 99.8192 65.1151 103.054C67.0931 106.287 68.7364 109.723 70.0098 113.292C71.4062 117.207 72.3506 121.281 72.8461 125.407C73.0989 127.512 73.2403 129.63 73.2726 131.749C73.3013 133.639 73.1885 135.525 72.6441 137.346C72.1311 139.062 71.2293 140.653 69.8785 141.846C68.6533 142.929 67.1258 143.6 65.5446 143.969C62.6328 144.649 59.5354 144.406 56.9981 142.734C54.6608 141.193 53.0944 138.696 52.1652 136.1C51.5332 134.334 51.1665 132.48 50.9413 130.621C50.8119 129.553 50.7119 128.478 50.6592 127.403C50.6082 126.363 50.6177 125.32 50.5902 124.279C50.5371 122.271 50.2556 120.326 49.5144 118.45C48.8257 116.707 47.8627 115.099 46.7539 113.593C44.5223 110.561 41.671 107.968 39.9202 104.596C39.5076 103.802 39.175 102.974 38.9346 102.111C38.7675 101.512 37.8326 101.767 38.0005 102.369Z" fill="black"/>
<path d="M27.4099 97.6684C26.5653 100.075 26.2553 102.652 26.4982 105.191C26.7397 107.717 27.4749 110.152 28.5067 112.462C29.0917 113.772 29.7742 115.036 30.5209 116.26C30.8449 116.792 31.683 116.306 31.3573 115.772C30.0804 113.678 28.9881 111.463 28.2698 109.113C27.5672 106.814 27.2409 104.412 27.4473 102.011C27.5671 100.617 27.8809 99.2454 28.3439 97.9259C28.4305 97.6791 28.2455 97.3961 28.0057 97.3301C27.7384 97.2567 27.4968 97.4207 27.4099 97.6684Z" fill="black"/>
<path d="M38.8635 120.785C36.6518 118.861 34.1649 117.238 31.4062 116.217C28.709 115.218 25.7884 114.881 22.9481 115.382C20.2573 115.857 17.7194 117.141 15.8994 119.2C14.1853 121.139 12.823 123.815 13.1371 126.472C13.2887 127.754 13.7294 129.029 14.2889 130.188C14.817 131.281 15.5203 132.289 16.35 133.174C18.0099 134.945 20.1755 136.21 22.3674 137.21C24.5633 138.212 26.8797 138.946 29.256 139.372C31.6493 139.801 34.1017 139.94 36.5231 139.69C38.9248 139.442 41.2776 138.83 43.4527 137.771C44.5397 137.242 45.5626 136.598 46.5173 135.857C47.0025 135.48 47.4707 135.079 47.9094 134.649C48.4657 134.103 48.9523 133.494 49.4248 132.876C49.8617 132.304 50.283 131.721 50.7393 131.164C50.905 130.962 50.9371 130.677 50.7393 130.479C50.5683 130.308 50.221 130.276 50.0543 130.479C49.1211 131.617 48.323 132.871 47.276 133.913C46.4341 134.751 45.5392 135.441 44.535 136.067C42.5918 137.277 40.4748 138.048 38.2131 138.475C37.0992 138.685 36.0093 138.797 34.8456 138.834C33.6791 138.87 32.5101 138.823 31.3496 138.701C30.7653 138.639 30.2705 138.569 29.6811 138.467C29.0944 138.366 28.511 138.245 27.9319 138.107C26.799 137.836 25.6825 137.496 24.5909 137.09C23.5275 136.693 22.525 136.247 21.5006 135.709C20.4711 135.168 19.4562 134.569 18.5359 133.856C17.6663 133.181 16.8035 132.323 16.1692 131.448C15.4871 130.507 14.9635 129.48 14.5983 128.403C14.2048 127.243 13.9514 126.077 14.1213 124.889C14.2995 123.642 14.7955 122.467 15.4562 121.403C16.811 119.221 18.8187 117.636 21.2493 116.814C23.7859 115.956 26.5545 115.912 29.1479 116.539C31.8706 117.197 34.3795 118.531 36.6138 120.201C37.152 120.603 37.6718 121.029 38.1786 121.47C38.3758 121.642 38.6696 121.664 38.8635 121.47C39.0389 121.295 39.0617 120.958 38.8635 120.785Z" fill="black"/>
<path d="M44.3688 53.2006C44.5711 52.9654 44.8423 52.7447 45.1521 52.7628C45.591 52.7884 45.8583 53.2768 45.8953 53.7149C45.9323 54.153 45.8288 54.6018 45.9276 55.0302C46.0888 54.4471 46.3483 53.7661 46.9395 53.6376C47.0742 53.6084 47.2173 53.6134 47.3467 53.6609C47.6508 53.7725 47.8312 54.1018 47.8625 54.4242C47.8938 54.7467 47.8043 55.0672 47.7156 55.3788C47.6622 54.9724 48.0506 54.5898 48.4605 54.5852C48.8705 54.5806 49.2423 54.8942 49.3793 55.2806C49.5164 55.6669 49.4469 56.1042 49.2682 56.4732C49.0895 56.8421 48.8103 57.1525 48.5181 57.44C48.0966 57.8546 47.6397 58.2333 47.154 58.5706C46.8523 58.7801 46.5332 58.9795 46.3095 59.2708C46.0859 59.5622 45.9765 59.9759 46.1474 60.3011C45.8277 59.8667 45.3996 59.3827 44.8648 59.4527C44.435 59.509 44.1714 59.9283 44.1166 60.3283C44.0433 60.8635 44.3187 60.9881 44.6107 61.3502C45.2359 62.1255 45.289 63.3508 44.7827 64.1943C43.3824 64.0304 42.2298 62.8469 41.8599 61.4864C41.6517 60.7202 41.6645 59.9095 41.8327 59.1371C41.9967 58.3835 42.3069 57.8866 42.7118 57.2694C43.0984 56.6799 43.1863 55.8265 43.3931 55.1594C43.6103 54.459 43.8849 53.763 44.3688 53.2006Z" fill="black"/>
<path d="M44.7116 53.5429C44.7884 53.456 44.8686 53.3674 44.9651 53.3051C45.0388 53.2577 45.1056 53.2443 45.139 53.2457C45.1545 53.2463 45.1544 53.2468 45.1935 53.2721C45.1346 53.234 45.2441 53.3181 45.2505 53.3251C45.2785 53.3557 45.3341 53.4497 45.3446 53.4749C45.4449 53.7156 45.425 53.8769 45.4142 54.1553C45.401 54.4954 45.3921 54.8226 45.4609 55.1588C45.5596 55.6411 46.2717 55.5986 46.395 55.1588C46.4695 54.893 46.5396 54.6681 46.6634 54.454C46.7315 54.3362 46.7443 54.3147 46.8408 54.2201C46.8741 54.1875 46.9643 54.1284 47.0173 54.1172C47.1233 54.0949 47.1895 54.1055 47.2518 54.1571C47.2358 54.1438 47.2959 54.2192 47.304 54.2321C47.337 54.2846 47.3278 54.266 47.3492 54.327C47.4431 54.5942 47.3342 54.949 47.2489 55.2499L48.2003 55.3786C48.1764 55.0909 48.5024 54.9859 48.7232 55.1642C48.8808 55.2913 48.9496 55.4356 48.9655 55.6454C48.9841 55.8925 48.9068 56.1358 48.7871 56.3494C48.5059 56.8515 48.0367 57.2529 47.6029 57.6204C47.1587 57.9965 46.6452 58.285 46.2108 58.671C45.6737 59.1481 45.4118 59.8714 45.7295 60.5454C46.0083 60.3824 46.2871 60.2194 46.5659 60.0565C46.2366 59.6128 45.8385 59.1252 45.2702 58.9976C44.6667 58.862 44.0726 59.1707 43.8056 59.7239C43.5418 60.2703 43.5608 60.8643 43.9533 61.3377C44.1064 61.5223 44.2581 61.6605 44.3719 61.8547C44.4926 62.0609 44.5576 62.2509 44.6065 62.497C44.7015 62.9751 44.6178 63.5153 44.3649 63.9497L44.7831 63.7098C44.1517 63.6295 43.5337 63.246 43.0784 62.7413C42.6079 62.2196 42.3108 61.55 42.2199 60.831C42.1129 59.9853 42.249 59.0633 42.6417 58.3162C42.8245 57.9685 43.071 57.6571 43.2487 57.308C43.4388 56.9346 43.5515 56.5299 43.6486 56.1243C43.8639 55.2245 44.1011 54.2674 44.7116 53.5429C44.88 53.343 44.9076 53.054 44.7116 52.8579C44.5386 52.685 44.196 52.657 44.0267 52.8579C43.3924 53.6107 43.03 54.5491 42.8016 55.4979C42.7046 55.9008 42.6246 56.3378 42.4643 56.7101C42.2941 57.1054 42.0057 57.4461 41.8053 57.8273C40.8954 59.5586 41.0321 61.8044 42.2995 63.3179C42.9319 64.0731 43.8089 64.5546 44.7831 64.6785C44.946 64.6992 45.1238 64.5717 45.2013 64.4386C45.8425 63.3376 45.7177 61.8777 44.878 60.9181C44.7998 60.8287 44.7112 60.7465 44.6383 60.6527C44.6912 60.7208 44.597 60.5806 44.5894 60.5622C44.609 60.6093 44.5898 60.5521 44.5897 60.518C44.5889 60.3086 44.6466 60.13 44.782 60.0049C44.8356 59.9554 44.8828 59.929 44.9781 59.9301C45.0584 59.9311 45.1054 59.9504 45.2015 60.0081C45.3982 60.1262 45.5918 60.3598 45.7295 60.5454C46.0991 61.0434 46.8353 60.628 46.5659 60.0565C46.5412 60.0041 46.5444 59.9179 46.561 59.8419C46.5855 59.7296 46.6408 59.6287 46.7139 59.5383C46.8991 59.3095 47.1606 59.1543 47.3988 58.9886C47.9908 58.5768 48.5579 58.1124 49.0529 57.5868C49.5413 57.0681 49.9537 56.4182 49.9358 55.6793C49.9193 54.9953 49.4918 54.3273 48.8083 54.1456C48.0449 53.9426 47.1627 54.5492 47.2317 55.3786C47.2516 55.6181 47.4005 55.8244 47.6516 55.8543C47.8891 55.8826 48.116 55.744 48.183 55.5074C48.3218 55.0179 48.4445 54.4812 48.2532 53.988C48.06 53.49 47.6306 53.124 47.0765 53.1356C46.1214 53.1556 45.6822 54.112 45.4609 54.9013H46.395C46.318 54.525 46.4094 54.132 46.3825 53.7513C46.3558 53.3737 46.241 53.0173 46.0019 52.7201C45.7816 52.4463 45.4478 52.2679 45.091 52.2777C44.6639 52.2895 44.3 52.5489 44.0267 52.8579C43.8534 53.0538 43.8338 53.3499 44.0267 53.5428C44.2032 53.7194 44.5376 53.7396 44.7116 53.5429Z" fill="black"/>
<path d="M4 124.218C5.59451 124.812 9.84616 123.383 10.6813 120.877C11.2194 119.263 11.0449 117.09 9.7717 115.961L4 124.218Z" fill="black"/>
<path d="M3.87217 124.684C4.56575 124.936 5.37791 124.844 6.08412 124.705C6.97146 124.53 7.84068 124.195 8.6271 123.75C9.43118 123.295 10.1733 122.696 10.6957 121.927C11.2655 121.088 11.465 120.001 11.4528 119.002C11.4377 117.768 11.0543 116.466 10.1151 115.618C9.86988 115.396 9.53841 115.453 9.35441 115.716C8.7042 116.646 8.05399 117.576 7.40377 118.506L4.29532 122.953C4.05778 123.293 3.82023 123.633 3.5827 123.973C3.43276 124.187 3.54364 124.511 3.75646 124.635C3.99796 124.777 4.26882 124.677 4.41911 124.462C5.06932 123.531 5.71953 122.601 6.36975 121.671L9.4782 117.224C9.71574 116.884 9.95329 116.545 10.1908 116.205L9.43013 116.303C10.1058 116.913 10.418 117.823 10.4736 118.717C10.489 118.964 10.488 119.212 10.4717 119.458C10.4543 119.72 10.4328 119.88 10.3785 120.14C10.3314 120.366 10.2721 120.591 10.1943 120.808C10.1877 120.826 10.1475 120.932 10.1647 120.889C10.1851 120.839 10.1582 120.904 10.1555 120.91C10.1435 120.936 10.1318 120.962 10.1195 120.988C10.079 121.072 10.0348 121.155 9.98751 121.235C9.93959 121.317 9.88841 121.397 9.83434 121.474C9.80913 121.511 9.78319 121.546 9.75686 121.582C9.80865 121.512 9.71103 121.639 9.6945 121.658C9.56823 121.81 9.43169 121.953 9.2878 122.087C9.21425 122.156 9.1387 122.223 9.06151 122.288C9.02554 122.318 8.98914 122.348 8.95255 122.377C8.93418 122.392 8.91575 122.407 8.8971 122.421C8.94942 122.381 8.88369 122.43 8.86313 122.445C8.69561 122.568 8.52367 122.684 8.34634 122.792C8.16743 122.901 7.98396 123.002 7.79689 123.096C7.7034 123.143 7.60902 123.189 7.51382 123.232C7.38353 123.292 7.37439 123.295 7.27646 123.335C6.89618 123.488 6.50471 123.615 6.10577 123.71C5.90279 123.758 5.69814 123.797 5.4919 123.828C5.59378 123.813 5.45454 123.833 5.41759 123.837C5.37137 123.842 5.3251 123.846 5.27876 123.85C5.18318 123.858 5.08738 123.863 4.99148 123.866C4.82071 123.87 4.6537 123.855 4.4838 123.844C4.41754 123.839 4.5791 123.866 4.51658 123.848C4.49682 123.842 4.47473 123.841 4.45452 123.837C4.41954 123.83 4.38447 123.824 4.34969 123.816C4.275 123.798 4.20177 123.776 4.12969 123.75C3.88375 123.661 3.5993 123.85 3.5339 124.088C3.4599 124.358 3.62534 124.595 3.87217 124.684Z" fill="black"/>
<path d="M73.7968 150.838C73.1444 149.266 69.2005 147.13 66.798 148.227C65.2502 148.934 63.7791 150.543 63.8212 152.244L73.7968 150.838Z" fill="black"/>
<path d="M74.2164 150.592C73.9282 149.917 73.3048 149.393 72.7244 148.974C71.9896 148.443 71.1513 148.038 70.2874 147.766C69.3921 147.484 68.4398 147.359 67.5087 147.51C66.5125 147.672 65.59 148.279 64.8741 148.968C63.9873 149.82 63.3199 150.985 63.3383 152.243C63.3433 152.589 63.6422 152.753 63.9513 152.71C65.0751 152.551 66.199 152.393 67.3227 152.235C69.1136 151.982 70.9044 151.73 72.6953 151.478C73.1058 151.42 73.5164 151.362 73.9269 151.304C74.1862 151.267 74.3281 150.937 74.2652 150.708C74.1885 150.429 73.9295 150.333 73.6694 150.37C72.5456 150.528 71.4218 150.687 70.298 150.845C68.5072 151.097 66.7163 151.35 64.9255 151.602C64.5149 151.66 64.1044 151.718 63.6938 151.776C63.8982 151.931 64.1025 152.087 64.3069 152.243C64.294 151.354 64.7366 150.515 65.3616 149.852C65.6889 149.504 66.0564 149.203 66.4633 148.954C66.6631 148.832 66.871 148.717 67.0867 148.625C67.0235 148.652 67.1967 148.585 67.2343 148.573C67.3393 148.538 67.4462 148.509 67.5542 148.485C67.7862 148.433 67.8248 148.43 68.0492 148.417C68.2491 148.405 68.4497 148.407 68.6495 148.421C68.8871 148.437 68.9618 148.447 69.1853 148.488C69.3926 148.526 69.5979 148.575 69.8008 148.632C70.5988 148.855 71.2898 149.176 71.9968 149.645C72.0906 149.707 72.1831 149.772 72.2739 149.838C72.2993 149.857 72.3245 149.876 72.3496 149.895C72.3951 149.929 72.3993 149.932 72.3621 149.904C72.3861 149.923 72.4099 149.942 72.4336 149.961C72.5904 150.089 72.7413 150.224 72.8824 150.369C72.938 150.426 72.9922 150.485 73.0442 150.545C73.0692 150.574 73.0928 150.604 73.1177 150.633C73.1514 150.676 73.1489 150.672 73.1103 150.623C73.1247 150.642 73.1389 150.662 73.1528 150.681C73.2394 150.81 73.3191 150.939 73.3799 151.081C73.4826 151.322 73.8371 151.375 74.0426 151.255C74.2916 151.11 74.3194 150.834 74.2164 150.592Z" fill="black"/>
<path d="M61.0635 48.113C61.1149 48.2599 61.1591 48.4088 61.1924 48.5608C61.2103 48.6423 61.2262 48.7248 61.2373 48.8075C61.2276 48.7351 61.2478 48.9381 61.2498 48.972C61.2582 49.1163 61.2573 49.2611 61.2472 49.4052C61.2428 49.4684 61.2372 49.5319 61.2287 49.5947C61.2406 49.5066 61.2254 49.6085 61.2212 49.6299C61.2121 49.6763 61.204 49.7228 61.194 49.7691C61.164 49.9075 61.1257 50.044 61.0797 50.1779C61.0568 50.2449 61.0321 50.3115 61.0052 50.377C61.0341 50.3066 61.0032 50.3805 60.9981 50.3919C60.9785 50.4351 60.9584 50.4781 60.9374 50.5206C60.874 50.649 60.8038 50.7739 60.7277 50.8951C60.6851 50.9629 60.6406 51.0295 60.5943 51.0949C60.5758 51.1212 60.5569 51.1472 60.5378 51.1731C60.4448 51.2994 60.594 51.106 60.4952 51.2284C60.3 51.47 60.0819 51.6926 59.8457 51.8942C59.6599 52.0529 59.435 52.2129 59.174 52.3668C58.6323 52.6862 58.1213 52.8797 57.4714 52.9901C57.4388 52.9956 57.4061 53.0008 57.3734 53.0057C57.4611 52.9925 57.3076 53.0134 57.3056 53.0136C57.2238 53.0224 57.1416 53.0291 57.0594 53.0336C56.8873 53.043 56.7147 53.0426 56.5427 53.032C56.4529 53.0265 56.3629 53.019 56.2737 53.007C56.3482 53.017 56.1446 52.9836 56.1115 52.977C55.9338 52.9415 55.7595 52.893 55.5881 52.8345C55.3406 52.75 55.0586 52.9314 54.9923 53.1728C54.9186 53.4411 55.0834 53.6803 55.3306 53.7686C56.3137 54.1196 57.1638 54.9569 57.556 55.9199C57.9814 56.9647 57.9013 58.1179 57.3671 59.1076C57.0645 59.6682 56.6401 60.1495 56.111 60.4942C55.892 60.6369 55.8006 60.9233 55.9372 61.1569C56.0677 61.3799 56.3757 61.4674 56.5998 61.3307C56.7172 61.2591 56.8373 61.1934 56.9619 61.1352C57.0508 61.0936 57.0049 61.1151 56.9844 61.1237C57.0149 61.1108 57.0461 61.0991 57.0771 61.0874C57.1464 61.0616 57.2165 61.0381 57.2874 61.017C57.4116 60.98 57.5376 60.9516 57.6651 60.9285C57.6768 60.9264 57.7754 60.9116 57.7194 60.9192C57.6635 60.9268 57.7619 60.9148 57.7738 60.9138C57.8451 60.9074 57.9163 60.902 57.9878 60.8996C58.1143 60.8953 58.2411 60.8982 58.3672 60.9079C58.3983 60.9103 58.5553 60.9279 58.4738 60.9167C58.5442 60.9263 58.6142 60.9392 58.6837 60.9534C58.8076 60.9788 58.9301 61.0105 59.0508 61.0482C59.1037 61.0647 59.1562 61.0823 59.2084 61.1011C59.2382 61.1118 59.2678 61.1231 59.2974 61.1344C59.4416 61.1893 59.2163 61.096 59.3574 61.1586C59.5974 61.2649 59.8268 61.3953 60.0419 61.5457C60.1746 61.6385 60.1505 61.6206 60.2653 61.7189C60.3743 61.8122 60.4785 61.9113 60.5772 62.0155C60.6211 62.0618 60.6639 62.1091 60.7055 62.1574C60.7256 62.1807 60.819 62.2948 60.7803 62.245C60.8584 62.3454 60.9301 62.4515 60.9969 62.5596C61.0639 62.668 61.1255 62.7796 61.1811 62.8942C61.1877 62.9077 61.2611 63.0727 61.2297 62.9967C61.2602 63.0704 61.2874 63.1457 61.3125 63.2214C61.3579 63.3585 61.3948 63.4985 61.4227 63.6402C61.4522 63.7901 61.4554 63.8043 61.4649 63.9955C61.4825 64.35 61.4581 64.5589 61.38 64.8772C61.2314 65.4825 62.1652 65.7408 62.314 65.1347C62.6326 63.8369 62.2745 62.5229 61.4215 61.5089C60.628 60.5656 59.4138 59.9571 58.1779 59.9299C57.4514 59.9139 56.73 60.1164 56.111 60.4942C56.2739 60.773 56.4369 61.0519 56.5998 61.3307C57.8038 60.5461 58.5854 59.2551 58.7638 57.8339C58.9344 56.4741 58.4388 55.109 57.52 54.106C56.9907 53.5281 56.3245 53.0974 55.5881 52.8345C55.5023 53.1459 55.4164 53.4572 55.3306 53.7686C57.9769 54.6723 61.3213 52.9344 62.077 50.2328C62.2948 49.454 62.2641 48.6181 61.9976 47.8556C61.9113 47.6088 61.6662 47.4447 61.4018 47.5173C61.1623 47.5832 60.9768 47.865 61.0635 48.113Z" fill="#F1633D"/>
<path d="M98.302 90.3564C99.8327 89.5515 101.745 89.4627 103.334 90.1578C103.742 90.3361 104.11 90.0453 104.046 89.6108C103.895 88.5815 103.964 87.3242 104.64 86.4518C105.27 85.639 106.469 85.3527 107.446 85.576C108.061 85.7163 108.564 85.9994 108.986 86.4712L109.671 85.7862C108.132 84.4661 107.416 82.4407 107.637 80.443C107.661 80.2342 107.727 79.9036 107.795 79.6503C107.867 79.3841 107.964 79.1028 108.063 78.881C108.169 78.6423 108.132 78.3604 107.889 78.2183C107.683 78.0975 107.334 78.152 107.227 78.3921C106.283 80.5085 106.485 83.0393 107.723 84.9989C108.069 85.547 108.494 86.0489 108.986 86.4712C109.458 86.8759 110.09 86.2547 109.671 85.7862C108.731 84.7357 107.219 84.3306 105.86 84.6366C105.183 84.7893 104.524 85.1414 104.052 85.6561C103.589 86.1625 103.291 86.8042 103.148 87.4725C102.978 88.2661 102.995 89.0695 103.112 89.8684C103.349 89.6861 103.586 89.5037 103.823 89.3214C101.898 88.4795 99.6785 88.5392 97.8131 89.52C97.5817 89.6417 97.5115 89.9642 97.6394 90.1827C97.7765 90.4172 98.0697 90.4785 98.302 90.3564Z" fill="#F1633D"/>
<path d="M9.28989 68.3646C10.0018 68.7832 10.7138 69.2017 11.4257 69.6203C11.6443 69.7488 11.9664 69.6774 12.0884 69.4465C12.2113 69.2139 12.148 68.9211 11.9146 68.7839C11.2027 68.3653 10.4907 67.9468 9.77879 67.5282C9.56023 67.3997 9.23808 67.4711 9.11613 67.702C8.9932 67.9346 9.05653 68.2274 9.28989 68.3646Z" fill="#F1633D"/>
<path d="M13.4468 64.4136C13.6828 65.0745 13.9189 65.7355 14.155 66.3965C14.24 66.6345 14.489 66.8195 14.7508 66.7348C14.9853 66.6589 15.1803 66.3944 15.089 66.139C14.853 65.478 14.6169 64.817 14.3808 64.156C14.2958 63.9181 14.0468 63.733 13.785 63.8178C13.5505 63.8937 13.3555 64.1581 13.4468 64.4136Z" fill="#F1633D"/>
<path d="M7.53935 73.4088C8.05869 73.3616 8.57805 73.3143 9.09739 73.2671C9.22834 73.2552 9.34405 73.2211 9.43987 73.1253C9.52387 73.0413 9.58714 72.9034 9.58173 72.7828C9.57085 72.54 9.3676 72.2739 9.09739 72.2985C8.57805 72.3457 8.05869 72.3929 7.53935 72.4401C7.4084 72.452 7.29269 72.4861 7.19687 72.582C7.11287 72.666 7.0496 72.8038 7.05501 72.9244C7.06589 73.1672 7.26914 73.4333 7.53935 73.4088Z" fill="#F1633D"/>
<path d="M75.2657 142.875C77.4385 139.657 78.6194 135.788 78.6649 131.907C78.6779 130.799 78.59 129.694 78.4197 128.599C78.3794 128.341 78.0554 128.197 77.8239 128.261C77.5479 128.337 77.4452 128.597 77.4856 128.857C78.0497 132.483 77.5023 136.302 75.9743 139.637C75.5357 140.594 75.0185 141.514 74.4293 142.386C74.2829 142.603 74.3877 142.923 74.6031 143.049C74.8416 143.189 75.119 143.093 75.2657 142.875Z" fill="black"/>
<path d="M79.6942 142.669C80.3562 141.887 80.7471 140.94 80.8275 139.918C80.8474 139.665 80.5905 139.423 80.3432 139.434C80.0637 139.446 79.8802 139.647 79.8588 139.918C79.8546 139.972 79.8488 140.025 79.8439 140.078C79.837 140.134 79.8376 140.131 79.8458 140.069C79.842 140.095 79.838 140.122 79.8337 140.148C79.8164 140.254 79.7951 140.358 79.7698 140.462C79.7205 140.665 79.6529 140.859 79.5788 141.053C79.5654 141.086 79.5688 141.078 79.5888 141.03C79.5781 141.055 79.5672 141.079 79.5561 141.104C79.5339 141.152 79.5108 141.2 79.4867 141.248C79.4386 141.344 79.3869 141.438 79.3317 141.529C79.2765 141.621 79.2178 141.71 79.1557 141.797C79.1439 141.814 79.0394 141.95 79.1111 141.86C79.0777 141.902 79.0438 141.943 79.0092 141.984C78.8456 142.177 78.8056 142.482 79.0092 142.669C79.1894 142.834 79.5193 142.875 79.6942 142.669Z" fill="black"/>
<path d="M16.1773 138.977C18.8398 140.937 21.8151 142.458 24.9476 143.51C28.0687 144.559 31.3568 145.135 34.6489 145.207C36.5179 145.248 38.3853 145.117 40.2324 144.831C40.4911 144.791 40.6342 144.467 40.5706 144.235C40.4947 143.959 40.2343 143.857 39.9748 143.897C36.8311 144.384 33.5934 144.364 30.4523 143.865C27.283 143.362 24.1836 142.391 21.3069 140.967C19.6813 140.162 18.1271 139.216 16.6662 138.141C16.4554 137.986 16.1257 138.106 16.0035 138.315C15.8597 138.561 15.966 138.822 16.1773 138.977Z" fill="black"/>
<path d="M32.6238 149.023C35.4111 149.644 38.3369 149.323 40.9299 148.133C41.1676 148.023 41.2265 147.68 41.1037 147.47C40.9609 147.226 40.6796 147.187 40.441 147.296C38.0968 148.373 35.397 148.649 32.8813 148.089C32.6262 148.032 32.3572 148.166 32.2855 148.427C32.2187 148.67 32.3673 148.966 32.6238 149.023Z" fill="black"/>
</svg>
