<svg width="160" height="160" viewBox="0 0 160 160" fill="none" xmlns="http://www.w3.org/2000/svg">
<path d="M81.0742 46.208C81.1598 45.8028 83.3636 45.3597 83.7366 45.2755C84.726 45.0521 85.7393 44.9388 86.7526 44.9104C87.9188 44.8778 89.1174 44.9666 90.271 45.1402C90.5563 45.1831 92.1436 45.8412 92.3129 45.7032C92.9768 45.1622 89.8679 40.8042 89.4265 40.2357C88.5683 39.1302 87.0685 36.9073 85.3913 37.361C84.6113 37.572 84.1183 38.3231 83.732 39.0328C82.5083 41.2807 81.6102 43.7054 81.0742 46.208Z" fill="#F1633D"/>
<path d="M135.617 69.698C135.755 70.9298 135.893 72.1617 136.032 73.3936C136.364 76.3575 136.697 79.3214 137.03 82.2854C137.427 85.8297 137.825 89.374 138.223 92.9184C138.563 95.9433 138.902 98.9682 139.242 101.993C139.394 103.346 139.564 104.698 139.698 106.053C139.871 107.817 138.698 109.397 136.919 109.645C136.647 109.682 136.371 109.706 136.098 109.737L131.473 110.256C128.891 110.546 126.308 110.836 123.725 111.126C120.484 111.489 117.242 111.853 114.001 112.217C110.448 112.616 106.896 113.015 103.343 113.414C99.8223 113.809 96.3014 114.204 92.7805 114.599C89.6817 114.947 86.5829 115.295 83.484 115.643C81.1405 115.906 78.7969 116.169 76.4534 116.432L72.8284 116.839C71.9548 116.937 71.1091 116.851 70.3541 116.345C69.527 115.79 69.0705 114.9 68.9569 113.931C68.8473 112.995 68.7466 112.058 68.6415 111.121C68.4277 109.216 68.2138 107.311 68 105.406C67.7035 102.765 67.4071 100.124 67.1106 97.4829C66.7548 94.3134 66.399 91.1439 66.0432 87.9744C65.6504 84.475 65.2576 80.9755 64.8647 77.4761C64.4626 73.8933 64.0604 70.3105 63.6582 66.7276C63.2673 63.2457 62.8765 59.7638 62.4856 56.2818L61.43 46.8779C61.1394 44.289 60.8488 41.7001 60.5582 39.1112C60.3522 37.2762 60.1462 35.4412 59.9402 33.6062C59.8449 32.7568 59.7456 31.9077 59.6542 31.0579C59.5077 29.6961 60.0755 28.3915 61.3113 27.7259C61.7911 27.4675 62.2879 27.3892 62.8119 27.3304C64.1246 27.1831 65.4372 27.0357 66.7499 26.8884C69.1691 26.6168 71.5883 26.3453 74.0074 26.0737C77.1525 25.7207 80.2976 25.3676 83.4426 25.0146C86.9808 24.6174 90.519 24.2202 94.0571 23.8231C97.5977 23.4256 101.138 23.0282 104.679 22.6307C107.88 22.2714 111.08 21.9121 114.281 21.5528C116.793 21.2708 119.306 20.9888 121.818 20.7068L126.146 20.221C126.359 20.197 126.572 20.1699 126.786 20.1492C128.571 19.9761 130.142 21.1838 130.372 22.9766C130.566 24.4905 130.713 26.0123 130.883 27.529C131.23 30.6238 131.578 33.7186 131.925 36.8135C132.323 40.3532 132.72 43.8928 133.117 47.4325C133.443 50.3377 133.77 53.2429 134.096 56.148C134.224 57.2897 134.352 58.4314 134.48 59.5731C134.552 60.213 135.565 60.2203 135.492 59.5731C135.351 58.3203 135.211 57.0676 135.07 55.8148C134.734 52.8205 134.398 49.8262 134.062 46.8319C133.661 43.2574 133.259 39.6828 132.858 36.1083C132.516 33.0632 132.174 30.018 131.833 26.9729C131.68 25.6186 131.54 24.2625 131.376 22.9095C131.101 20.6319 129.109 18.9116 126.787 19.1371C126.58 19.1572 126.374 19.1835 126.167 19.2067C124.708 19.3704 123.25 19.5342 121.791 19.698C119.261 19.9819 116.732 20.2658 114.202 20.5498C110.95 20.9148 107.699 21.2798 104.447 21.6448C100.854 22.0481 97.2616 22.4514 93.6689 22.8547C90.1077 23.2545 86.5465 23.6542 82.9853 24.054C79.8278 24.4084 76.6703 24.7629 73.5128 25.1173C71.1396 25.3837 68.7665 25.6501 66.3934 25.9165C65.1543 26.0556 63.9153 26.1947 62.6762 26.3337C61.7991 26.4322 60.9736 26.6595 60.2573 27.2091C59.0775 28.1143 58.4828 29.568 58.6401 31.0392C58.7297 31.8768 58.8281 32.7136 58.9221 33.5508C59.129 35.3941 59.3359 37.2375 59.5428 39.0809C59.8375 41.706 60.1322 44.3312 60.4269 46.9563C60.7843 50.1401 61.1416 53.3238 61.499 56.5075C61.894 60.0266 62.2891 63.5456 62.6841 67.0647C63.0899 70.6798 63.4957 74.2949 63.9015 77.91C64.2968 81.431 64.692 84.952 65.0873 88.4731C65.4451 91.6608 65.8029 94.8484 66.1607 98.0361C66.4561 100.667 66.7514 103.298 67.0468 105.929C67.2546 107.781 67.4624 109.632 67.6702 111.483C67.7653 112.33 67.8563 113.178 67.9555 114.024C68.2479 116.519 70.3491 118.129 72.8214 117.852C74.0486 117.714 75.2757 117.576 76.5029 117.438C78.8801 117.171 81.2573 116.905 83.6345 116.638C86.7893 116.284 89.9442 115.93 93.099 115.575C96.6431 115.178 100.187 114.78 103.731 114.382C107.325 113.978 110.919 113.575 114.513 113.172C117.77 112.806 121.026 112.44 124.283 112.075C126.82 111.79 129.358 111.505 131.895 111.22C133.365 111.055 134.835 110.89 136.305 110.725C136.519 110.701 136.733 110.679 136.946 110.653C139.224 110.378 140.937 108.378 140.71 106.06C140.579 104.713 140.408 103.369 140.257 102.025C139.915 98.9738 139.572 95.9227 139.23 92.8715C138.829 89.2964 138.427 85.7213 138.026 82.1462C137.693 79.1778 137.36 76.2095 137.026 73.2411C136.894 72.06 136.761 70.879 136.629 69.6979C136.557 69.058 135.544 69.0508 135.617 69.698Z" fill="black"/>
<path d="M56.9368 98.7712C56.1665 98.959 55.2786 98.8556 54.7037 98.3094C54.0772 97.7141 53.9641 96.7493 54.0819 95.893C54.1996 95.0369 54.5065 94.211 54.5725 93.3493C54.7285 91.3126 53.352 89.2576 51.4091 88.627C48.8535 87.7976 47.1972 87.8932 46.2084 84.9637C46.0872 84.6044 46.0734 84.1215 46.1504 83.6011C46.2528 82.9091 40.7007 84.1565 40.1822 84.4078C41.7183 85.7637 41.2749 88.0514 40.4337 89.6727C39.9666 90.5728 39.2926 91.387 39.0605 92.3742C38.7007 93.9045 39.5204 95.0206 41.0748 95.1336C43.1169 95.282 44.1402 93.5477 45.9159 92.945C46.6886 92.6828 47.5743 92.6454 48.2943 93.0294C49.3088 93.5705 49.7617 94.8215 49.7339 95.9709C49.706 97.1204 49.2945 98.2198 48.9889 99.3282C48.6244 100.651 48.4067 102.014 48.3412 103.384C48.3005 104.235 48.3407 105.157 48.863 105.83C49.5858 106.762 51.0182 106.869 52.0978 106.393C53.6821 105.696 55.1163 102.704 57.1321 103.304C57.2604 103.342 57.3773 103.402 57.4885 103.471C58.1252 101.791 58.467 99.9764 58.4488 98.0968C57.9709 98.3842 57.4759 98.6398 56.9368 98.7712Z" fill="#F1633D"/>
<path d="M41.0223 98.677C40.169 99.194 39.3673 99.9268 38.5388 100.484C37.7411 101.021 36.8275 101.421 35.8679 101.479C32.905 101.66 32.4702 99.4882 33.3451 97.1542C33.8827 95.7201 34.7599 94.4412 35.4318 93.0649C36.1036 91.6885 36.5742 90.1209 36.2166 88.6317C36.0253 87.8356 35.4121 86.9508 34.628 86.4023C30.6101 89.461 28.2533 94.4926 28.8576 99.8758C29.4757 105.382 33.2259 110.187 38.416 112.128C39.5999 112.571 40.9569 112.721 42.208 112.859C43.5954 113.013 44.7838 112.865 46.1664 112.645C41.6355 110.136 46.3626 105.189 46.1762 101.684C46.087 100.005 44.9623 98.2402 43.2909 98.0586C42.4697 97.9693 41.7283 98.2493 41.0223 98.677Z" fill="#F1633D"/>
<path d="M91.4984 89.4525C98.163 88.7044 103.414 86.7472 103.227 85.0811C103.04 83.4149 97.4857 82.6707 90.8212 83.4189C84.1566 84.167 78.9055 86.1241 79.0926 87.7903C79.2796 89.4564 84.8339 90.2006 91.4984 89.4525Z" fill="#F1633D"/>
<path d="M101.062 68.067C102.556 68.9695 103.989 70.0657 105.13 71.3957C106.149 72.5834 106.917 73.9991 107.387 75.4862C107.787 76.7522 107.909 78.0006 108.056 79.3103C108.248 81.0174 108.439 82.7245 108.631 84.4316C108.846 86.3451 109.06 88.2586 109.275 90.1721C109.353 90.864 109.431 91.5559 109.508 92.2478C109.547 92.5898 109.569 92.9385 109.624 93.2782C109.626 93.294 109.627 93.3101 109.629 93.326C109.944 93.2409 110.258 93.1558 110.572 93.0707C110.085 92.0994 109.566 91.1433 109.036 90.1954C108.025 88.3896 106.963 86.5968 105.728 84.9336C105.146 84.1489 104.527 83.3486 103.762 82.732C103.549 82.5607 103.254 82.5241 103.046 82.732C102.869 82.9092 102.832 83.2752 103.046 83.4475C103.339 83.6832 103.606 83.9492 103.859 84.2263C104.01 84.3915 104.156 84.5612 104.299 84.7337C104.365 84.8141 104.431 84.8951 104.496 84.9767C104.531 85.0212 104.566 85.0659 104.601 85.1106C104.61 85.1219 104.666 85.1936 104.628 85.1446C104.588 85.0929 104.661 85.1873 104.668 85.1969C105.294 86.0169 105.866 86.8772 106.415 87.75C107.399 89.3152 108.309 90.9282 109.171 92.5632C109.35 92.9011 109.527 93.2398 109.698 93.5814C109.915 94.0131 110.697 93.8268 110.641 93.326C110.543 92.449 110.444 91.572 110.346 90.695C110.134 88.8112 109.923 86.9274 109.711 85.0437C109.51 83.2489 109.309 81.4541 109.107 79.6593C108.973 78.4658 108.883 77.2478 108.602 76.0785C108.218 74.4828 107.53 72.9455 106.574 71.6102C105.532 70.1558 104.185 68.9688 102.727 67.9443C102.351 67.6803 101.965 67.4306 101.572 67.1933C101.013 66.8558 100.504 67.7304 101.062 68.067Z" fill="black"/>
<path d="M85.9415 67.9357C87.6607 70.7406 91.6305 70.3194 92.564 67.1322C93.0119 65.6032 92.4693 63.8318 91.2421 62.8159C89.9465 61.7435 87.7449 61.4075 86.6235 62.7747C85.4329 64.2264 84.9025 66.2404 85.9415 67.9357Z" fill="#97BE96"/>
<path d="M76.7771 69.9841C75.4726 71.2408 74.2601 72.6914 73.4068 74.2962C72.5789 75.853 72.0926 77.5667 71.9467 79.3222C71.8333 80.688 72.0064 82.0234 72.1581 83.3749C72.3498 85.0827 72.5415 86.7905 72.7332 88.4983C72.9465 90.3987 73.1599 92.2991 73.3732 94.1995C73.4894 95.2348 73.6016 96.2707 73.7219 97.3056C73.7237 97.3215 73.7254 97.3374 73.7272 97.3534C73.7553 97.6034 73.8981 97.8184 74.1659 97.8503C74.4075 97.879 74.6599 97.7367 74.7211 97.4879C74.977 96.4465 75.2672 95.4127 75.5697 94.3841C75.8557 93.4119 76.1587 92.4444 76.4868 91.4856C76.6588 90.9829 76.8378 90.4825 77.0265 89.9858C77.1162 89.7499 77.2081 89.5148 77.3027 89.2808C77.3491 89.1661 77.3963 89.0519 77.4438 88.9378C77.4818 88.8464 77.4541 88.9131 77.4461 88.932C77.458 88.9041 77.4698 88.8761 77.4818 88.8482C77.5114 88.7791 77.5413 88.7101 77.5715 88.6412C77.777 88.1723 77.9962 87.7086 78.2414 87.259C78.3507 87.0586 78.4653 86.8609 78.5878 86.6683C78.6426 86.5823 78.6989 86.4973 78.7572 86.4137C78.788 86.3695 78.8194 86.3257 78.8514 86.2823C78.8638 86.2655 78.8767 86.2489 78.889 86.2319C78.9459 86.1533 78.8213 86.318 78.8853 86.2372C79.0546 86.023 79.0943 85.7306 78.8853 85.5216C78.7094 85.3457 78.3402 85.3061 78.1697 85.5216C77.629 86.2052 77.2231 86.9775 76.8606 87.7672C76.4161 88.7355 76.0322 89.7317 75.6779 90.7361C75.0563 92.498 74.5213 94.2911 74.0371 96.0953C73.9368 96.4689 73.8376 96.8431 73.7453 97.2188L74.7391 97.3534C74.6447 96.5118 74.5502 95.6703 74.4557 94.8288C74.2499 92.9954 74.0441 91.1621 73.8383 89.3287C73.637 87.5355 73.4358 85.7424 73.2345 83.9492C73.1207 82.9362 72.9658 81.9139 72.9251 80.8943C72.8577 79.2086 73.1334 77.5273 73.7483 75.9554C74.375 74.3528 75.408 72.9283 76.5579 71.6611C76.8584 71.3299 77.1706 71.0098 77.4926 70.6996C77.9625 70.2469 77.2465 69.5319 76.7771 69.9841Z" fill="black"/>
<path d="M73.4725 135.39C73.804 135.232 74.1355 135.074 74.467 134.916L77.0896 133.668C78.3205 133.082 79.5514 132.496 80.7823 131.911C82.2004 131.236 83.6185 130.561 85.0365 129.886L89.2974 127.858C90.535 127.269 91.7727 126.68 93.0103 126.091C93.8957 125.669 94.7811 125.248 95.6665 124.826C96.0137 124.661 96.3618 124.498 96.7082 124.331C98.6545 123.393 99.8833 121.258 99.6791 119.099C99.5949 118.209 99.2912 117.407 98.8354 116.644C98.4728 116.037 98.1101 115.43 97.7474 114.822C97.6575 114.672 97.5677 114.522 97.4778 114.371C97.1442 113.812 96.269 114.321 96.604 114.882C96.8868 115.355 97.1696 115.829 97.4524 116.302C97.7601 116.817 98.111 117.331 98.3527 117.882C98.3266 117.822 98.3618 117.904 98.3643 117.91C98.3777 117.943 98.3906 117.976 98.4031 118.01C98.4249 118.068 98.4455 118.127 98.4651 118.186C98.5066 118.311 98.5429 118.438 98.5739 118.566C98.6045 118.693 98.6292 118.822 98.6499 118.951C98.6594 119.01 98.6516 118.956 98.6501 118.945C98.6547 118.979 98.6584 119.013 98.6621 119.048C98.6693 119.116 98.675 119.185 98.6793 119.254C98.6952 119.51 98.6903 119.768 98.665 120.023C98.6617 120.057 98.6579 120.091 98.6539 120.125C98.6552 120.114 98.6636 120.057 98.6549 120.117C98.6463 120.176 98.6365 120.235 98.6256 120.293C98.6008 120.427 98.5703 120.56 98.5343 120.691C98.5029 120.806 98.4672 120.919 98.4273 121.031C98.4074 121.088 98.3858 121.143 98.3644 121.199C98.3337 121.278 98.3903 121.14 98.3566 121.219C98.3398 121.258 98.3222 121.297 98.3042 121.335C98.1996 121.56 98.0776 121.776 97.9396 121.982C97.708 122.327 97.2989 122.758 96.9684 122.999C96.5075 123.334 95.9811 123.56 95.4687 123.804C94.6727 124.183 93.8766 124.562 93.0805 124.94C91.9056 125.5 90.7307 126.059 89.5558 126.618C88.1736 127.276 86.7914 127.934 85.4091 128.592C83.9876 129.268 82.566 129.945 81.1444 130.621C79.8697 131.228 78.595 131.835 77.3203 132.441C76.3572 132.9 75.394 133.358 74.4309 133.817C73.9622 134.04 73.4865 134.252 73.0233 134.487C73.0031 134.497 72.9823 134.506 72.9617 134.516C72.715 134.633 72.6506 134.987 72.7802 135.208C72.9279 135.461 73.2248 135.507 73.4725 135.39Z" fill="black"/>
<path d="M59.7834 45.1279C48.841 49.8193 37.7657 54.2004 26.5751 58.2646C25.3986 58.6919 24.2526 59.1219 23.2147 59.837C22.3068 60.4625 21.5023 61.2163 20.8271 62.0878C20.1164 63.0054 19.6156 64.0212 19.1905 65.0931C18.3698 67.1623 17.5492 69.2316 16.7286 71.3008C15.6967 73.9026 14.6649 76.5044 13.633 79.1062C13.3554 79.8062 13.0778 80.5062 12.8002 81.2063C12.1694 82.7966 11.8788 84.4983 12.047 86.2079C12.2014 87.776 12.7565 89.1713 13.4022 90.5755C13.9511 91.7691 14.4999 92.9627 15.0488 94.1563C17.0301 98.4652 19.0114 102.774 20.9928 107.083C23.4871 112.507 25.9815 117.932 28.4758 123.357C30.7072 128.209 32.9387 133.062 35.1701 137.915C36.3585 140.499 37.547 143.084 38.7354 145.668C39.7725 147.924 42.0213 149.337 44.5407 148.93C45.2848 148.81 45.9424 148.491 46.6126 148.172C47.4396 147.778 48.2665 147.385 49.0934 146.991C53.8492 144.728 58.6049 142.464 63.3607 140.201C63.7048 140.037 64.0489 139.873 64.393 139.709C64.9808 139.43 64.4679 138.557 63.8823 138.836C60.0081 140.68 56.1338 142.524 52.2596 144.367C50.2318 145.333 48.2041 146.298 46.1763 147.263C45.5587 147.557 44.9623 147.856 44.2716 147.955C42.3612 148.227 40.5556 147.159 39.7405 145.443C38.848 143.565 38.0023 141.663 37.1336 139.774C35.091 135.332 33.0484 130.89 31.0058 126.448C28.5303 121.064 26.0548 115.681 23.5792 110.297C21.4342 105.632 19.2893 100.967 17.1443 96.3027C16.0707 93.9679 14.994 91.6345 13.9235 89.2983C12.759 86.7569 12.7715 84.0078 13.795 81.427C14.5572 79.5053 15.3193 77.5835 16.0815 75.6618C17.1227 73.0365 18.1638 70.4111 19.205 67.7858C19.9312 65.9549 20.5413 63.9808 21.8256 62.4503C22.5435 61.5947 23.3995 60.8678 24.3646 60.3055C25.4911 59.6492 26.7546 59.2744 27.9731 58.8292C30.7007 57.8327 33.4214 56.8174 36.135 55.7833C41.5933 53.7033 47.0227 51.5475 52.4211 49.3167C55.0528 48.2293 57.677 47.1237 60.2941 46.0017C60.8909 45.7458 60.376 44.8738 59.7834 45.1279Z" fill="black"/>
<path d="M15.3899 86.9213C15.9273 86.6882 16.4648 86.4551 17.0022 86.2221C18.2927 85.6624 19.5832 85.1028 20.8737 84.5431C22.4285 83.8689 23.9833 83.1946 25.5382 82.5203C26.8882 81.9348 28.2382 81.3493 29.5883 80.7639C30.0321 80.5714 30.476 80.3789 30.9198 80.1864C31.1311 80.0948 31.353 80.0144 31.5581 79.9096C31.5671 79.9051 31.5767 79.9016 31.586 79.8975C31.852 79.7822 31.8716 79.4277 31.7675 79.2053C31.4765 78.5837 31.1854 77.9622 30.8944 77.3406C30.2371 75.9368 29.5798 74.533 28.9225 73.1292C28.2329 71.6564 27.5433 70.1837 26.8537 68.711C26.4571 67.8641 26.0606 67.0172 25.664 66.1702C25.3795 65.5625 25.2488 64.934 25.296 64.2396C25.328 63.7682 25.4926 63.1954 25.7275 62.7586C25.8587 62.5146 26.0154 62.283 26.156 62.1176C26.2429 62.0154 26.3347 61.9176 26.4309 61.8242C26.4826 61.774 26.5356 61.7252 26.5898 61.6777C26.617 61.6538 26.6445 61.6303 26.6723 61.6072C26.6853 61.5964 26.7664 61.5309 26.7193 61.5675C26.9382 61.3971 27.1804 61.2527 27.4295 61.1312C27.6751 61.0114 27.7416 60.6622 27.611 60.4389C27.4645 60.1883 27.1653 60.1372 26.9188 60.2574C25.792 60.8072 24.936 61.8166 24.5277 62.9957C24.1192 64.1756 24.2271 65.4626 24.7465 66.5875C25.0505 67.2458 25.3615 67.901 25.669 68.5577C26.3465 70.0046 27.0239 71.4514 27.7014 72.8983C28.393 74.3753 29.0846 75.8524 29.7763 77.3295C30.0231 77.8567 30.27 78.3839 30.5168 78.911C30.6366 79.1668 30.7445 79.4336 30.8781 79.6826C30.8838 79.6934 30.8885 79.7049 30.8937 79.716C30.9542 79.4853 31.0147 79.2545 31.0752 79.0238C30.5378 79.2568 30.0003 79.4899 29.4629 79.723C28.1724 80.2826 26.8819 80.8423 25.5914 81.4019C24.0366 82.0762 22.4817 82.7505 20.9269 83.4248C19.5769 84.0102 18.2268 84.5957 16.8768 85.1812C16.433 85.3737 15.9891 85.5662 15.5453 85.7586C15.334 85.8502 15.1121 85.9307 14.9069 86.0355C14.898 86.04 14.8883 86.0435 14.8791 86.0475C14.6284 86.1563 14.5714 86.5241 14.6976 86.7398C14.8491 86.9987 15.1381 87.0305 15.3899 86.9213Z" fill="black"/>
<path d="M57.8495 96.5658C57.9355 97.3452 57.9639 98.1302 57.9282 98.9137C57.8923 99.6995 57.8143 100.325 57.6599 101.077C57.3565 102.554 56.8643 103.879 56.1495 105.165C55.4289 106.462 54.6006 107.538 53.534 108.564C52.4827 109.576 51.3366 110.388 50.0016 111.057C49.3254 111.396 48.7267 111.639 47.9882 111.874C47.2556 112.107 46.5051 112.283 45.7454 112.4C45.4127 112.451 45.0334 112.493 44.6416 112.521C44.2509 112.549 43.8592 112.561 43.4675 112.558C42.729 112.552 41.9651 112.487 41.3096 112.378C40.5665 112.255 39.8328 112.075 39.1172 111.84C38.3915 111.602 37.8233 111.365 37.1533 111.025C36.5015 110.694 35.8742 110.315 35.2779 109.892C34.9555 109.663 34.7576 109.511 34.4608 109.263C34.177 109.027 33.902 108.78 33.6365 108.523C31.5154 106.47 30.087 103.833 29.5239 100.914C29.3789 100.162 29.3019 99.4661 29.277 98.6675C29.2532 97.9043 29.2882 97.1396 29.3821 96.3819C29.3976 96.2566 29.3892 96.3198 29.4078 96.1927C29.4209 96.1031 29.4349 96.0137 29.4497 95.9244C29.482 95.7287 29.5184 95.5335 29.5587 95.3393C29.6352 94.9707 29.7257 94.605 29.8301 94.2433C29.9314 93.8925 30.0457 93.5455 30.1727 93.2033C30.3095 92.8346 30.4051 92.605 30.5602 92.2689C30.8706 91.5965 31.2314 90.9473 31.6384 90.3285C32.0528 89.6983 32.4261 89.2145 32.9272 88.6567C33.4158 88.1128 33.9444 87.6049 34.5074 87.1386C35.0296 86.7062 35.6367 86.2786 36.2714 85.9005C37.5726 85.1252 38.8812 84.5993 40.3689 84.2545C41.1405 84.0757 41.8014 83.9762 42.5716 83.9218C43.3474 83.867 44.1275 83.8726 44.9024 83.9396C45.6211 84.0018 46.2926 84.1137 47.0403 84.299C47.7578 84.4767 48.4621 84.7084 49.1449 84.9917C49.3056 85.0584 49.0601 84.9546 49.2198 85.0235C49.2523 85.0376 49.2847 85.0517 49.3171 85.066C49.3981 85.1016 49.4787 85.138 49.5591 85.175C49.7355 85.2565 49.9104 85.3414 50.0835 85.4297C50.4133 85.5979 50.7368 85.7785 51.0532 85.9708C51.3614 86.1583 51.6629 86.3569 51.9567 86.5662C52.1 86.6682 52.2417 86.7725 52.381 86.8798C52.3875 86.8848 52.4686 86.9486 52.5277 86.996C52.6032 87.0564 52.6781 87.1176 52.7524 87.1795C55.0282 89.0763 56.6555 91.5864 57.431 94.42C57.5287 94.7772 57.6131 95.1381 57.6839 95.5017C57.7197 95.6854 57.7521 95.8698 57.781 96.0547C57.814 96.2661 57.8245 96.3468 57.8495 96.5658C57.8805 96.8372 58.0599 97.0718 58.3555 97.0718C58.6049 97.0718 58.8926 96.8391 58.8614 96.5658C58.4987 93.3887 57.1891 90.3972 55.0601 88.0052C53.0173 85.7099 50.2673 84.0503 47.2832 83.3168C44.174 82.5525 40.8207 82.7812 37.8541 83.9923C34.9619 85.173 32.482 87.2062 30.7646 89.8178C29.0467 92.4301 28.1627 95.5706 28.2659 98.6955C28.371 101.874 29.4603 104.994 31.3984 107.52C33.2903 109.985 35.8931 111.845 38.8482 112.816C41.894 113.816 45.259 113.816 48.3094 112.833C51.2954 111.871 53.9184 109.996 55.8219 107.507C57.7126 105.034 58.8057 101.995 58.9412 98.8862C58.975 98.1118 58.9464 97.3361 58.8614 96.5658C58.8314 96.2942 58.6503 96.0599 58.3554 96.0599C58.1051 96.0599 57.8193 96.2924 57.8495 96.5658Z" fill="black"/>
<path d="M56.8007 98.2815C56.3001 98.3983 55.7325 98.3812 55.2857 98.1175C54.8527 97.862 54.6391 97.3921 54.5685 96.8964C54.4849 96.3102 54.6159 95.6741 54.7556 95.0808C54.9203 94.3815 55.1025 93.672 55.0881 92.9479C55.0642 91.7402 54.5815 90.5854 53.8076 89.6676C53.4328 89.2231 52.9724 88.8379 52.4686 88.5477C51.9649 88.2575 51.411 88.0885 50.856 87.9278C50.4085 87.7982 49.9575 87.6808 49.5121 87.5442C49.3086 87.4818 49.1063 87.4151 48.9075 87.3391C48.8628 87.3219 48.8184 87.3041 48.7739 87.2863C48.72 87.2646 48.7962 87.296 48.801 87.298C48.7762 87.2873 48.7515 87.2766 48.727 87.2656C48.6358 87.2248 48.5458 87.1814 48.4574 87.1349C48.282 87.0425 48.1148 86.9373 47.9552 86.8198C47.9094 86.786 47.9748 86.835 47.9786 86.8381C47.9579 86.8212 47.937 86.8046 47.9164 86.7874C47.8801 86.7572 47.8445 86.7262 47.8096 86.6944C47.7276 86.62 47.6494 86.5416 47.5749 86.4596C47.5413 86.4225 47.5084 86.3848 47.4764 86.3464C47.4624 86.3296 47.4489 86.3125 47.435 86.2957C47.3859 86.2361 47.479 86.356 47.4326 86.2929C47.364 86.1995 47.2982 86.1044 47.2368 86.0061C47.1 85.7869 46.9813 85.5558 46.8787 85.3188C46.8609 85.2777 46.7919 85.1017 46.7565 85.0042C46.7028 84.8558 46.6522 84.707 46.6262 84.5509C46.5866 84.3135 46.6095 83.9491 46.6458 83.6665C46.6918 83.3079 46.4434 83.0377 46.1121 82.9456C45.5319 82.7843 44.8424 82.9234 44.2613 83.0025C43.4718 83.11 42.688 83.2604 41.9096 83.4297C41.3409 83.5534 40.7632 83.6749 40.2095 83.8568C40.1127 83.8886 40.0174 83.9256 39.9252 83.9691C39.6376 84.1049 39.595 84.5588 39.8228 84.7638C40.0967 85.0102 40.2577 85.2102 40.4215 85.5356C40.4415 85.5753 40.4608 85.6154 40.4786 85.6561C40.5183 85.7467 40.4402 85.5482 40.4983 85.7071C40.5226 85.7735 40.5456 85.8403 40.5658 85.9081C40.5911 85.9928 40.6129 86.0786 40.6313 86.1651C40.6386 86.1998 40.6455 86.2346 40.6518 86.2695C40.6532 86.2772 40.6761 86.43 40.6653 86.3461C40.7566 87.0581 40.6529 87.6539 40.4436 88.3271C40.2242 89.0327 39.8886 89.633 39.4832 90.2965C39.0244 91.0475 38.6003 91.8144 38.4928 92.7014C38.4142 93.3492 38.5418 94.0439 38.9377 94.5741C39.3536 95.1309 39.9792 95.4777 40.6626 95.5879C41.4465 95.7143 42.2016 95.6019 42.925 95.2816C43.5333 95.0122 44.0645 94.6046 44.6083 94.2281C44.8871 94.0351 45.1708 93.8482 45.4699 93.6879C45.7877 93.5176 46.051 93.4096 46.4324 93.3221C47.1362 93.1606 47.9279 93.2682 48.4295 93.7426C48.6711 93.9711 48.8359 94.219 48.978 94.5514C48.9654 94.5219 49.0191 94.6613 49.0308 94.695C49.062 94.7852 49.0897 94.8766 49.1139 94.9688C49.1554 95.1272 49.1977 95.3569 49.207 95.4563C49.2893 96.3373 49.0784 97.1956 48.8361 98.0361C48.5696 98.9608 48.2989 99.8775 48.1274 100.826C47.9581 101.763 47.8427 102.719 47.8236 103.671C47.8064 104.532 47.923 105.436 48.4641 106.135C48.9489 106.762 49.68 107.075 50.4532 107.157C51.1582 107.231 51.9227 107.077 52.5431 106.733C53.0613 106.446 53.5009 106.018 53.9176 105.603C54.3505 105.171 54.7693 104.722 55.2429 104.335C55.2733 104.31 55.3039 104.285 55.3348 104.261C55.4053 104.206 55.2412 104.327 55.3621 104.241C55.4182 104.201 55.4734 104.161 55.5306 104.122C55.6474 104.044 55.7682 103.972 55.8938 103.908C55.926 103.892 55.9586 103.877 55.9912 103.861C56.0671 103.825 55.88 103.9 56.0081 103.854C56.0677 103.832 56.1268 103.81 56.1877 103.792C56.2478 103.775 56.3086 103.759 56.3701 103.747C56.3974 103.742 56.4248 103.737 56.4522 103.733C56.3302 103.753 56.4552 103.734 56.4838 103.732C56.554 103.728 56.6246 103.728 56.695 103.731C56.7236 103.733 56.7521 103.736 56.7807 103.738C56.672 103.73 56.7689 103.736 56.7978 103.742C56.9597 103.777 57.0884 103.82 57.2315 103.906C57.5327 104.087 57.8628 103.901 57.9748 103.604C58.6357 101.847 58.9666 99.9721 58.9531 98.095C58.9504 97.7151 58.5242 97.4596 58.1918 97.6581C57.75 97.922 57.3018 98.1539 56.8007 98.2815C56.17 98.4421 56.4373 99.4183 57.0697 99.2573C57.6506 99.1094 58.1902 98.8379 58.7025 98.5319C58.4488 98.3863 58.195 98.2406 57.9412 98.095C57.9541 99.8894 57.6307 101.655 56.999 103.335C57.2467 103.234 57.4945 103.133 57.7422 103.032C57.1552 102.679 56.4197 102.627 55.7787 102.863C55.1779 103.085 54.6697 103.474 54.2011 103.903C53.7439 104.321 53.3266 104.78 52.8756 105.205C52.466 105.59 52.1278 105.877 51.6019 106.037C51.2543 106.142 51.0313 106.172 50.6718 106.16C50.462 106.153 50.4307 106.15 50.24 106.105C50.1704 106.089 50.1013 106.07 50.0332 106.048C49.991 106.034 49.949 106.019 49.9076 106.003C49.8751 105.99 49.8745 105.99 49.9059 106.003C49.8818 105.993 49.8578 105.981 49.8342 105.969C49.2339 105.66 48.9263 105.094 48.8581 104.385C48.7754 103.524 48.8718 102.624 48.9936 101.772C49.13 100.817 49.3478 99.8801 49.6203 98.9553C50.1126 97.2846 50.6206 95.4801 49.7536 93.8376C49.3748 93.12 48.7281 92.5616 47.9397 92.3478C47.099 92.1197 46.2002 92.2637 45.4104 92.5996C44.7777 92.8686 44.2237 93.2666 43.6634 93.6588C43.3922 93.8486 43.1183 94.0357 42.8297 94.1982C42.6946 94.2743 42.5564 94.3457 42.4142 94.4078C42.4989 94.3708 42.3424 94.436 42.3434 94.4356C42.311 94.4479 42.2784 94.4598 42.2456 94.4712C42.163 94.4999 42.0793 94.5256 41.9948 94.5478C41.9083 94.5706 41.8213 94.5872 41.7338 94.6051C41.7256 94.6068 41.6363 94.6208 41.7064 94.6112C41.6699 94.6162 41.6328 94.6196 41.596 94.6228C41.4033 94.6396 41.2092 94.6383 41.0166 94.6212C40.8992 94.6108 40.7885 94.5914 40.6229 94.5457C40.5422 94.5234 40.4635 94.4966 40.385 94.4676C40.3705 94.4622 40.2973 94.427 40.3719 94.4621C40.329 94.4419 40.2864 94.4213 40.2447 94.3987C40.1834 94.3656 40.1258 94.3278 40.0668 94.2908C40.0466 94.2782 39.9673 94.217 40.0417 94.276C40.0184 94.2575 39.9956 94.2381 39.9733 94.2184C39.918 94.1696 39.8655 94.1175 39.8164 94.0625C39.797 94.0406 39.7779 94.0182 39.7595 93.9954C39.8274 94.0794 39.7416 93.9661 39.7349 93.9561C39.6985 93.9008 39.6652 93.8435 39.635 93.7847C39.618 93.7517 39.6017 93.7184 39.587 93.6844C39.5961 93.7054 39.6154 93.7704 39.5879 93.68C39.5679 93.6141 39.545 93.5499 39.5284 93.4828C39.519 93.445 39.5106 93.407 39.5033 93.3688C39.5013 93.3586 39.4841 93.2099 39.4937 93.314C39.4798 93.1629 39.4772 93.0119 39.4884 92.8605C39.4981 92.729 39.5271 92.5678 39.5803 92.3762C39.6892 91.9836 39.8741 91.625 40.0772 91.2736C40.4885 90.5619 40.9287 89.8855 41.2341 89.1183C41.7573 87.8043 41.9535 86.2156 41.2453 84.9301C41.0634 84.6 40.8181 84.3 40.5383 84.0482C40.5042 84.3131 40.47 84.578 40.4359 84.8429C40.4765 84.8237 40.2793 84.8994 40.3937 84.8617C40.433 84.8488 40.4718 84.8346 40.5113 84.8221C40.611 84.7903 40.7117 84.7619 40.8126 84.7342C41.1075 84.6534 41.4048 84.5813 41.7027 84.5123C42.4734 84.3339 43.2501 84.177 44.0314 84.0523C44.122 84.0378 44.2127 84.0238 44.3035 84.0104C44.3478 84.0039 44.3922 83.9976 44.4366 83.9912C44.4616 83.9877 44.4866 83.9843 44.5116 83.9808C44.4786 83.9854 44.4229 83.9922 44.4881 83.9841C44.6616 83.9627 44.8351 83.9417 45.0093 83.9263C45.2753 83.9028 45.5359 83.899 45.8021 83.9095C45.8976 83.9133 45.6814 83.8815 45.7534 83.9024C45.7725 83.908 45.7932 83.9084 45.8124 83.9138C45.8282 83.9183 45.8481 83.926 45.8646 83.9277C45.9485 83.9364 45.7726 83.8826 45.8056 83.901C45.8553 83.9287 45.8586 83.9563 45.7495 83.8518C45.8036 83.9036 45.6772 83.7457 45.6979 83.7813C45.6551 83.7078 45.661 83.666 45.6438 83.5714C45.6446 83.5757 45.6431 83.5809 45.644 83.5851C45.6431 83.6068 45.6453 83.5914 45.6505 83.5389L45.6324 83.6734C45.548 84.3453 45.6417 84.955 45.8984 85.578C46.2768 86.4962 46.8212 87.3116 47.6727 87.8507C48.4158 88.3211 49.2931 88.5405 50.1311 88.7746C50.3665 88.8403 50.6016 88.9067 50.8357 88.9769C51.0662 89.0461 51.383 89.1417 51.5518 89.2153C52.0727 89.4422 52.4787 89.7346 52.8621 90.1292C53.5943 90.8828 54.0557 91.9181 54.0761 92.948C54.1027 94.2916 53.4012 95.5479 53.5574 96.9048C53.6325 97.5572 53.8573 98.203 54.3443 98.6654C54.8258 99.1226 55.476 99.3386 56.1316 99.36C56.4457 99.3703 56.7642 99.3286 57.0697 99.2573C57.3358 99.1952 57.4934 98.8909 57.423 98.635C57.3481 98.3623 57.0677 98.2192 56.8007 98.2815Z" fill="black"/>
<path d="M40.7676 98.2414C39.2475 99.1724 38.0121 100.632 36.176 100.942C35.8113 101.003 35.4322 100.993 35.0648 100.961C35.0516 100.96 34.9643 100.948 35.0455 100.96C35.0043 100.954 34.9633 100.947 34.9224 100.939C34.8516 100.926 34.7812 100.911 34.7115 100.893C34.6381 100.874 34.5653 100.852 34.4937 100.828C34.4661 100.818 34.4389 100.807 34.4114 100.797C34.282 100.751 34.4946 100.843 34.3756 100.781C34.2673 100.725 34.1661 100.662 34.0616 100.599C33.954 100.534 34.132 100.669 34.0413 100.584C34.0228 100.567 34.0024 100.551 33.9837 100.534C33.9371 100.492 33.8926 100.448 33.8505 100.401C33.8255 100.373 33.8018 100.345 33.778 100.316C33.7896 100.33 33.8352 100.404 33.7901 100.329C33.7581 100.276 33.7211 100.226 33.6902 100.172C33.6654 100.129 33.643 100.084 33.6208 100.04C33.6182 100.034 33.5702 99.9209 33.6006 99.9964C33.6292 100.068 33.5767 99.927 33.5723 99.914C33.5348 99.8024 33.506 99.6879 33.4844 99.5722C33.4794 99.5458 33.4755 99.5192 33.4707 99.4928C33.4476 99.3628 33.4777 99.5685 33.4701 99.4854C33.4631 99.4089 33.4563 99.3326 33.4533 99.2558C33.4483 99.1251 33.4505 98.9941 33.4587 98.8636C33.4634 98.7882 33.4715 98.7133 33.4787 98.638C33.4881 98.5383 33.4811 98.6141 33.4782 98.6349C33.4848 98.5884 33.4921 98.542 33.5 98.4956C33.6231 97.7718 33.8904 97.0829 34.2096 96.4248C35.0234 94.747 36.1378 93.2025 36.6161 91.3768C36.8754 90.3868 36.9668 89.2721 36.6443 88.2843C36.3366 87.342 35.685 86.5374 34.884 85.9667C34.7533 85.8736 34.5032 85.8674 34.3733 85.9667C32.3017 87.5503 30.6241 89.6206 29.5732 92.0133C28.4954 94.4674 28.0549 97.1769 28.3487 99.845C28.6229 102.334 29.5016 104.74 30.9135 106.811C32.3135 108.864 34.1945 110.588 36.3875 111.763C37.6314 112.43 38.9366 112.903 40.3319 113.126C41.1048 113.25 41.8914 113.356 42.6728 113.408C43.4602 113.459 44.2486 113.413 45.0309 113.316C45.4556 113.264 45.8789 113.201 46.3015 113.134C46.7426 113.064 46.7764 112.408 46.4223 112.209C46.2711 112.125 46.1228 112.035 45.9798 111.937C45.8201 111.827 45.7798 111.797 45.6285 111.66C45.5212 111.563 45.4192 111.46 45.3242 111.351C45.299 111.322 45.2745 111.293 45.25 111.263C45.1943 111.195 45.3148 111.357 45.2321 111.24C45.1895 111.18 45.1469 111.119 45.1077 111.057C45.0388 110.947 44.9813 110.833 44.9237 110.717C44.8632 110.595 44.9469 110.779 44.9165 110.702C44.9036 110.669 44.891 110.637 44.8791 110.604C44.8554 110.538 44.8341 110.472 44.815 110.405C44.7805 110.284 44.7573 110.162 44.7333 110.039C44.7147 109.944 44.7308 110.03 44.7332 110.049C44.7287 110.014 44.7249 109.979 44.7214 109.944C44.7138 109.867 44.7086 109.789 44.7056 109.712C44.7006 109.582 44.7018 109.453 44.708 109.324C44.7112 109.258 44.7158 109.192 44.7216 109.127C44.7248 109.09 44.7283 109.053 44.7323 109.016C44.7349 108.992 44.7514 108.859 44.7361 108.973C44.7752 108.683 44.8366 108.396 44.9089 108.113C45.0607 107.518 45.2645 106.937 45.4767 106.361C45.8965 105.222 46.3888 104.083 46.5926 102.88C46.8308 101.474 46.5407 100.046 45.6523 98.9096C45.1641 98.2851 44.4777 97.7851 43.6936 97.6153C42.6592 97.3913 41.654 97.7105 40.7676 98.2414C40.2095 98.5756 40.7177 99.4509 41.2783 99.1151C41.6361 98.9008 42.0037 98.7186 42.4106 98.619C42.7571 98.5341 43.1463 98.5308 43.4246 98.5911C43.7653 98.6649 43.9694 98.7572 44.2678 98.962C44.3581 99.024 44.4594 99.1068 44.577 99.2204C44.6934 99.3329 44.8046 99.4536 44.9032 99.582C44.8632 99.5299 44.9308 99.6216 44.9389 99.633C44.9655 99.6703 44.9915 99.7081 45.0168 99.7463C45.0575 99.8078 45.0965 99.8703 45.1339 99.9339C45.1808 100.014 45.2251 100.095 45.2668 100.178C45.2835 100.211 45.2998 100.244 45.3158 100.278C45.3212 100.289 45.3804 100.42 45.3552 100.362C45.4868 100.669 45.5773 100.997 45.6335 101.326C45.6539 101.445 45.6477 101.401 45.6589 101.521C45.6652 101.589 45.6699 101.658 45.6728 101.726C45.6787 101.865 45.6769 102.004 45.6689 102.143C45.6657 102.2 45.6614 102.256 45.6561 102.313C45.6537 102.339 45.6271 102.556 45.644 102.437C45.6243 102.576 45.5998 102.715 45.5714 102.853C45.3283 104.034 44.8419 105.152 44.4319 106.281C44.0338 107.377 43.6427 108.551 43.6946 109.733C43.7229 110.377 43.8889 111.018 44.2339 111.567C44.6421 112.218 45.2474 112.711 45.9116 113.083L46.0325 112.158C45.2885 112.276 44.5422 112.381 43.7886 112.41C43.0212 112.439 42.2654 112.365 41.5045 112.275C40.7963 112.19 40.0889 112.084 39.3977 111.905C38.7652 111.742 38.1856 111.515 37.6238 111.253C35.5105 110.267 33.6437 108.768 32.2552 106.949C30.8196 105.068 29.875 102.936 29.47 100.609C29.2636 99.4224 29.217 98.1055 29.3322 96.8504C29.4416 95.6595 29.7265 94.4262 30.1497 93.2696C30.9769 91.0086 32.4076 88.9606 34.2415 87.3674C34.4475 87.1885 34.6913 86.9878 34.884 86.8405H34.3733C34.9871 87.2778 35.5041 87.9656 35.7013 88.6608C35.9412 89.5059 35.837 90.4139 35.6023 91.2472C35.09 93.0666 33.9169 94.593 33.1543 96.3036C32.6279 97.4845 32.1491 98.9558 32.6156 100.237C32.8211 100.802 33.1921 101.28 33.7188 101.579C34.3274 101.925 35.0549 102.02 35.7448 101.993C36.8099 101.951 37.8225 101.558 38.7088 100.979C39.5957 100.4 40.3736 99.6693 41.2783 99.1151C41.8327 98.7755 41.325 97.8999 40.7676 98.2414Z" fill="black"/>
<path d="M85.262 65.3576C85.6115 65.852 86.0065 66.3631 86.6263 66.5155C86.9507 66.5953 87.2772 66.5674 87.5783 66.4213C87.6974 66.3635 87.8033 66.2856 87.9173 66.2191C87.9981 66.1719 88.0384 66.1624 88.0783 66.1741C88.2822 66.2334 88.4661 66.4418 88.6243 66.5994C88.8579 66.8323 89.0915 67.0652 89.3251 67.298C89.811 67.7823 90.2969 68.2667 90.7828 68.751C91.2446 69.2113 91.9604 68.496 91.4984 68.0355C91.0311 67.5698 90.5639 67.1041 90.0967 66.6384C89.8631 66.4055 89.6295 66.1726 89.3959 65.9398C89.1812 65.7258 88.9628 65.4999 88.6974 65.3478C88.4195 65.1886 88.0909 65.1099 87.7745 65.1888C87.5196 65.2524 87.284 65.4759 87.075 65.5392C86.9336 65.582 86.7594 65.5206 86.5999 65.395C86.4135 65.2483 86.2718 65.0393 86.1358 64.8468C85.9782 64.624 85.6938 64.5189 85.4435 64.6653C85.2231 64.7942 85.1035 65.1333 85.262 65.3576Z" fill="white"/>
<path d="M87.8719 62.8953C89.2844 64.3036 90.6968 65.7119 92.1093 67.1202C92.571 67.5806 93.2868 66.8653 92.8248 66.4047C91.4124 64.9964 89.9999 63.5881 88.5875 62.1798C88.1258 61.7194 87.41 62.4347 87.8719 62.8953Z" fill="white"/>
<path d="M80.8191 48.739C82.043 48.4364 83.2853 48.2058 84.5385 48.0657C84.8142 48.0348 85.0924 47.9986 85.3703 47.9978C85.5803 47.9973 85.8254 48.0377 85.9418 48.1289C86.2272 48.3523 86.2934 48.8507 86.3345 49.212C86.6351 51.852 86.9211 54.4937 87.2144 57.1344C87.3787 58.6133 87.5429 60.0921 87.7072 61.571C87.7373 61.8425 87.9181 62.0769 88.2131 62.0769C88.4632 62.0769 88.7494 61.8443 88.7191 61.571C88.4096 58.7849 88.1002 55.9989 87.7908 53.2129C87.6385 51.8419 87.5007 50.4685 87.3334 49.0993C87.2645 48.5362 87.1565 47.9705 86.7727 47.5291C86.3505 47.0436 85.6868 46.9521 85.0798 46.9993C83.5562 47.1176 82.0323 47.3968 80.5501 47.7632C79.9182 47.9194 80.1859 48.8955 80.8191 48.739Z" fill="#97BE96"/>
<path d="M87.6306 54.8129C90.3106 54.3264 93.0912 54.5256 95.6831 55.3549C95.9433 55.4382 96.2352 55.2573 96.3055 55.0016C96.3805 54.7283 96.2133 54.4627 95.9521 54.3792C93.1823 53.4929 90.2204 53.3181 87.3616 53.8371C87.0926 53.886 86.9405 54.2129 87.0083 54.4595C87.086 54.7426 87.3608 54.8619 87.6306 54.8129Z" fill="#97BE96"/>
<path d="M83.9723 84.6901C83.802 83.2996 83.6317 81.9091 83.4614 80.5185C83.3763 79.8233 83.2912 79.128 83.2062 78.4327C83.1655 78.1004 83.129 77.7683 83.0607 77.4403C83.0083 77.1886 82.937 76.9086 82.9096 76.6708C82.8807 76.4207 82.878 76.1809 82.967 75.9938C83.0759 75.765 83.2147 75.5949 83.3825 75.4174C83.7492 75.0294 84.1699 74.7265 84.6201 74.4426C85.6209 73.8116 86.7906 73.5483 87.8225 72.98C88.3916 72.6666 88.8985 72.2415 89.2019 71.6564C89.4971 71.0871 89.6093 70.4112 89.3834 69.7974C89.289 69.5411 89.0403 69.3673 88.761 69.4441C88.5142 69.5119 88.3128 69.8087 88.4076 70.0665C88.4273 70.1198 88.4458 70.1733 88.4604 70.2283C88.47 70.2643 88.4783 70.301 88.4851 70.3377C88.483 70.3264 88.4793 70.2801 88.4862 70.341C88.4925 70.3962 88.494 70.452 88.4936 70.5074C88.4934 70.5315 88.4854 70.6779 88.4919 70.6226C88.461 70.8835 88.3799 71.0675 88.2574 71.2718C88.0058 71.6911 87.626 71.9464 87.1658 72.1839C86.1241 72.7215 84.9784 73.0043 83.9869 73.6472C83.0643 74.2455 81.9469 75.095 81.884 76.2906C81.8533 76.8761 82.0538 77.4446 82.1428 78.0164C82.235 78.6087 82.3073 79.3564 82.3869 80.0069C82.578 81.568 82.7693 83.1291 82.9604 84.6901C82.9936 84.9613 83.1692 85.1961 83.4663 85.1961C83.714 85.1961 84.0057 84.9632 83.9723 84.6901Z" fill="#97BE96"/>
<path d="M92.6685 68.3975C93.6315 68.5877 94.6582 68.7983 95.5137 69.2188C96.3922 69.6506 97.0682 70.295 97.4201 71.2303C97.8197 72.2924 97.8978 73.433 98.0354 74.546C98.1986 75.8657 98.3617 77.1853 98.5249 78.505C98.7076 79.983 98.8903 81.461 99.0731 82.9391C99.1066 83.2102 99.2816 83.445 99.579 83.445C99.8264 83.445 100.119 83.2121 100.085 82.9391C99.7472 80.2074 99.4095 77.4757 99.0718 74.7439C98.9225 73.5361 98.8481 72.2724 98.4505 71.1136C98.0726 70.0124 97.374 69.1145 96.3637 68.5265C95.3176 67.9177 94.1123 67.6537 92.9375 67.4218C92.6697 67.3689 92.3913 67.498 92.3151 67.7752C92.2468 68.0238 92.3991 68.3444 92.6685 68.3975Z" fill="#97BE96"/>
<path d="M87.3811 56.5239C86.5582 56.563 85.7124 56.6404 85.0535 57.1862C84.7648 57.4254 84.5382 57.7554 84.4329 58.1164C84.3298 58.47 84.3983 58.8024 84.4483 59.1567C84.4337 59.0532 84.4521 59.2103 84.4531 59.2422C84.4545 59.2827 84.443 59.4264 84.4568 59.3084C84.4548 59.3256 84.4453 59.3668 84.4355 59.3843C84.5043 59.2621 84.4296 59.3703 84.4334 59.3732C84.4275 59.3688 84.4903 59.3207 84.4299 59.3765C84.429 59.3774 84.3299 59.4613 84.3675 59.4337C84.0837 59.6424 83.697 59.6774 83.3638 59.7578C82.6273 59.9353 81.9105 60.2118 81.24 60.5637C80.4813 60.9619 79.78 61.4727 79.1591 62.0625C78.6859 62.5118 79.4023 63.2266 79.8746 62.778C80.8839 61.8194 82.1257 61.1262 83.4727 60.7737C84.1319 60.6012 85.0079 60.5034 85.3456 59.8112C85.4916 59.5118 85.4714 59.207 85.4241 58.8876C85.4146 58.8234 85.4045 58.7592 85.3939 58.6951C85.3772 58.5936 85.3878 58.6515 85.3901 58.6742C85.3862 58.6357 85.383 58.5978 85.3826 58.559C85.3813 58.4367 85.4094 58.3501 85.4692 58.2435C85.6115 57.9902 85.8487 57.8086 86.1584 57.7062C86.5546 57.5752 86.9676 57.5555 87.3811 57.5358C87.6541 57.5228 87.887 57.3126 87.887 57.0299C87.887 56.7659 87.6554 56.5108 87.3811 56.5239Z" fill="#97BE96"/>
<path d="M78.5962 82.1167C79.7687 81.2212 81.1665 80.6187 82.636 80.4441C82.9073 80.4119 83.142 80.2346 83.142 79.9381C83.142 79.6897 82.9092 79.3997 82.636 79.4322C80.9871 79.628 79.409 80.2321 78.0855 81.243C77.8687 81.4086 77.754 81.6788 77.904 81.9353C78.0288 82.1487 78.3777 82.2836 78.5962 82.1167Z" fill="#97BE96"/>
<path d="M92.784 82.5548C92.7331 81.5366 92.656 80.5199 92.5507 79.5059C92.4967 78.9859 92.4355 78.4666 92.367 77.9484C92.3337 77.6962 92.2995 77.4442 92.2634 77.1924C92.227 76.9387 92.1902 76.7713 92.1888 76.557C92.1867 76.2516 92.2552 76.0011 92.4156 75.7352C92.5645 75.4883 92.7599 75.3038 93.0271 75.1576C93.1758 75.0763 93.2381 75.0534 93.4238 75.0084C93.459 74.9999 93.4944 74.9933 93.5297 74.9856C93.6864 74.9515 93.451 74.9843 93.613 74.974C93.7194 74.9672 93.8254 74.9657 93.932 74.9653C94.4043 74.9634 94.8763 74.9774 95.3486 74.9791C96.2882 74.9825 97.2536 74.9387 98.1452 75.2606C98.4023 75.3534 98.6992 75.1561 98.7676 74.9072C98.8448 74.6262 98.6722 74.378 98.4142 74.2849C97.5248 73.9637 96.5418 73.9693 95.6082 73.9677C95.1248 73.9668 94.6416 73.9542 94.1583 73.9532C93.7118 73.9522 93.2709 73.9635 92.8504 74.1311C92.0728 74.4411 91.4553 75.0964 91.2536 75.9191C91.1376 76.3926 91.1957 76.8316 91.2651 77.3062C91.3418 77.8305 91.4099 78.3559 91.4705 78.8823C91.611 80.1029 91.7108 81.3278 91.7721 82.5548C91.7857 82.8278 91.9949 83.0608 92.278 83.0608C92.5415 83.0608 92.7977 82.8291 92.784 82.5548Z" fill="#97BE96"/>
<path d="M91.2339 45.2776C90.6395 46.1067 90.8334 47.2713 91.005 48.203C91.0475 48.4335 91.0944 48.6631 91.1387 48.8933C91.1599 49.0038 91.1807 49.1144 91.1993 49.2253C91.2075 49.2735 91.2147 49.3218 91.2225 49.37C91.2322 49.4306 91.2218 49.3601 91.2206 49.3513C91.2261 49.3927 91.2307 49.4342 91.2356 49.4756C91.3162 50.1497 91.3959 50.824 91.4761 51.4982C91.5688 52.2781 91.6616 53.0581 91.7543 53.838C91.7866 54.1093 91.9638 54.344 92.2603 54.344C92.5087 54.344 92.7987 54.1112 92.7662 53.838C92.6656 52.992 92.565 52.1459 92.4644 51.2999C92.3707 50.5118 92.3049 49.7142 92.1709 48.9317C92.0735 48.3625 91.9256 47.753 91.8754 47.2344C91.8609 47.0845 91.8514 46.9341 91.8505 46.7836C91.85 46.7109 91.8514 46.6382 91.8553 46.5657C91.8563 46.5475 91.8744 46.3516 91.863 46.4378C91.8807 46.3042 91.9171 46.1761 91.9579 46.0482C91.9794 45.992 91.9807 45.9875 91.9618 46.0346C91.9753 46.0056 91.9896 45.9771 92.0049 45.949C92.0355 45.893 92.0704 45.8402 92.1076 45.7884C92.267 45.5661 92.1464 45.225 91.9261 45.0961C91.6715 44.9472 91.3936 45.0549 91.2339 45.2776Z" fill="#97BE96"/>
<path d="M96.399 68.5046C96.1954 66.891 95.9918 65.2774 95.7882 63.6638C95.7374 63.2612 95.6834 62.8589 95.6359 62.4559C95.6179 62.3024 95.5953 62.1403 95.61 61.9853C95.6161 61.921 95.6238 61.8622 95.6536 61.7965C95.6343 61.8392 95.7527 61.667 95.6972 61.7319C95.8282 61.5786 96.0454 61.5074 96.233 61.5007C96.6128 61.487 96.9795 61.6296 97.3321 61.7544C97.5897 61.8456 97.8858 61.6511 97.9545 61.401C98.0313 61.1213 97.8596 60.8701 97.6011 60.7786C96.9954 60.5643 96.3231 60.3657 95.6876 60.5812C95.0375 60.8016 94.621 61.3258 94.597 62.0187C94.5861 62.3308 94.648 62.6468 94.6869 62.9554C94.7316 63.3096 94.7763 63.6638 94.821 64.018L95.0842 66.1039C95.1851 66.9041 95.2861 67.7044 95.387 68.5046C95.4212 68.7757 95.5951 69.0106 95.893 69.0106C96.1398 69.0106 96.4334 68.7776 96.399 68.5046Z" fill="#97BE96"/>
<path d="M78.4359 69.786C78.971 69.5093 79.5306 69.2948 80.1134 69.1414C80.4131 69.0625 80.7174 68.9987 81.0241 68.9535C81.1369 68.9369 81.2504 68.9227 81.3643 68.9165C81.4667 68.9109 81.6158 68.909 81.664 68.9284C81.7487 68.9625 81.7643 68.9838 81.8143 69.0766C81.8556 69.1532 81.8866 69.2693 81.9149 69.3816C81.9944 69.6975 82.0613 70.0171 82.1273 70.336C82.263 70.9909 82.3796 71.6497 82.477 72.3114C82.5846 73.0428 82.6636 73.7783 82.7218 74.5153C82.7434 74.7877 82.939 75.0212 83.2278 75.0212C83.4849 75.0212 83.7554 74.7892 83.7337 74.5153C83.6146 73.0089 83.4033 71.5086 83.0953 70.0292C82.9595 69.3772 82.8832 68.5246 82.2817 68.1178C81.988 67.9192 81.6134 67.8808 81.2683 67.912C80.9074 67.9446 80.546 68.0043 80.1922 68.0818C79.4038 68.2545 78.6416 68.5418 77.9252 68.9122C77.6825 69.0377 77.6108 69.3774 77.7436 69.6045C77.8877 69.8507 78.1923 69.9119 78.4359 69.786Z" fill="#97BE96"/>
<path d="M79.745 87.6679C79.2717 84.6713 78.797 81.6738 78.4483 78.6596C78.2753 77.1643 78.132 75.6651 78.0353 74.1629C77.9573 72.9511 77.9245 71.7299 78.0603 70.5208C78.1892 69.3739 78.5062 68.2258 79.1249 67.2434C79.2911 66.9794 79.6229 66.6838 79.6309 66.3611C79.6321 66.3123 79.6274 66.2626 79.6258 66.2138C79.6057 65.5937 79.5974 64.9732 79.5941 64.3528C79.5797 61.6214 79.6758 58.8877 79.8894 56.1646C80.1668 52.6277 80.6218 49.1618 81.5133 45.7081C81.9266 44.1067 82.4575 42.4564 83.1136 41.015C83.434 40.3112 83.7928 39.6238 84.2038 38.9684C84.3956 38.6626 84.5988 38.3637 84.8151 38.0746C84.8432 38.0369 84.8716 37.9993 84.9003 37.962C84.8369 38.0444 84.9314 37.9229 84.9363 37.9168C84.9847 37.8564 85.0331 37.796 85.0824 37.7364C85.225 37.5641 85.3626 37.4185 85.5818 37.3492C85.9638 37.2285 86.262 37.4371 86.5616 37.6462C86.8705 37.8616 86.9631 37.9357 87.2603 38.193C87.7758 38.6392 88.2492 39.1328 88.6902 39.6524C89.1663 40.2133 89.5414 40.7228 89.9748 41.3709C90.4269 42.0468 90.8453 42.7451 91.2386 43.4567C92.8934 46.4506 94.1051 49.5833 95.1806 52.8327C96.0881 55.5744 96.8649 58.3599 97.5359 61.1686C97.7325 61.9917 97.9201 62.817 98.0942 63.6451C98.1341 63.8352 98.1696 64.0264 98.2112 64.216C98.2182 64.2474 98.221 64.2808 98.23 64.3117C98.2905 64.5178 98.4709 64.6211 98.6231 64.7542C98.8388 64.9429 99.041 65.1467 99.2289 65.363C100.739 67.1006 101.197 69.5448 101.544 71.7487C102.011 74.7122 102.296 77.7011 102.525 80.6914C102.637 82.1599 102.736 83.6295 102.834 85.099C102.852 85.3717 103.054 85.605 103.34 85.605C103.6 85.605 103.864 85.3731 103.846 85.099C103.629 81.8602 103.412 78.6197 103.045 75.3935C102.869 73.8426 102.669 72.291 102.4 70.753C102.188 69.5379 101.912 68.3234 101.447 67.1779C100.923 65.891 100.177 64.6918 99.0761 63.8216L99.2062 64.0449C99.0615 63.2923 98.8933 62.5438 98.7219 61.797C98.2929 59.9284 97.8137 58.0711 97.2853 56.2282C96.5926 53.8126 95.8153 51.419 94.9106 49.074C93.9833 46.6706 92.9335 44.2972 91.6162 42.0796C90.4854 40.1761 89.1381 38.3283 87.3591 36.981C86.7951 36.554 86.2204 36.2065 85.4794 36.3361C84.728 36.4675 84.2914 37.0853 83.8709 37.659C83.1972 38.5781 82.6503 39.5863 82.1853 40.625C81.1152 43.0154 80.4332 45.5631 79.9323 48.128C79.4144 50.7806 79.0888 53.4712 78.8775 56.1646C78.7051 58.3626 78.6115 60.567 78.587 62.7716C78.5742 63.9219 78.5765 65.0733 78.6141 66.2232C78.6158 66.2751 78.6175 66.3269 78.6196 66.3787C78.669 66.2595 78.7184 66.1402 78.7678 66.021C77.1021 68.0883 76.8713 70.8004 76.9797 73.3596C77.1118 76.4775 77.5191 79.5895 77.9631 82.6761C78.2157 84.4321 78.4924 86.1846 78.7692 87.937C78.8119 88.2071 79.1493 88.3569 79.3916 88.2903C79.6794 88.2112 79.7878 87.9388 79.745 87.6679Z" fill="black"/>
<path d="M102.723 85.0788C102.726 85.1175 102.725 85.1557 102.727 85.1942C102.735 85.3355 102.759 85.0897 102.729 85.1953C102.718 85.2338 102.707 85.2735 102.697 85.3123C102.672 85.4086 102.684 85.2652 102.717 85.2697C102.715 85.2694 102.683 85.3417 102.68 85.3482C102.658 85.3888 102.635 85.4281 102.61 85.4664C102.597 85.4861 102.581 85.5051 102.569 85.5256C102.523 85.6067 102.653 85.4326 102.588 85.5022C102.507 85.5887 102.433 85.6785 102.346 85.7595C102.302 85.8003 102.256 85.8398 102.21 85.8782C102.186 85.8983 102.161 85.9175 102.137 85.9376C102.05 86.0102 102.232 85.8718 102.137 85.9375C102.012 86.024 101.889 86.1127 101.76 86.1933C101.484 86.3655 101.195 86.5179 100.901 86.6583C100.735 86.7377 100.567 86.8131 100.397 86.8855C100.493 86.8445 100.346 86.9068 100.34 86.9092C100.294 86.928 100.249 86.9465 100.203 86.9649C100.093 87.0089 99.9826 87.0518 99.8719 87.0936C99.4436 87.2552 99.0095 87.4012 98.5721 87.536C97.5801 87.8415 96.5709 88.0901 95.5549 88.3009C93.1845 88.7928 90.7699 89.0851 88.3517 89.1934C87.2311 89.2436 86.1077 89.2524 84.9869 89.2012C84.0691 89.1592 83.1817 89.0813 82.3489 88.9365C81.9769 88.8718 81.6069 88.7939 81.2428 88.694C81.0898 88.652 80.9379 88.6061 80.7878 88.5549C80.7181 88.5312 80.6487 88.5063 80.5799 88.48C80.5469 88.4674 80.5142 88.4535 80.481 88.4413C80.3955 88.4098 80.5755 88.4858 80.4447 88.4257C80.2262 88.3253 80.0247 88.2111 79.8281 88.0733C79.9698 88.1726 79.828 88.0697 79.7956 88.0396C79.7611 88.0075 79.7296 87.9731 79.6969 87.9394C79.5919 87.8313 79.7372 88.0172 79.6809 87.9208C79.6572 87.8801 79.6343 87.8344 79.6081 87.7956C79.5626 87.7283 79.6398 87.9221 79.6276 87.843C79.6247 87.8243 79.6131 87.8057 79.6089 87.787C79.6048 87.769 79.6007 87.7476 79.5944 87.7303C79.5597 87.634 79.6491 87.7817 79.6 87.788C79.5963 87.7884 79.5961 87.6818 79.5956 87.6726C79.5878 87.5314 79.5587 87.7901 79.5981 87.6521C79.6091 87.6137 79.6244 87.5738 79.6329 87.535C79.6511 87.452 79.5705 87.6522 79.6141 87.5775C79.625 87.5589 79.633 87.5378 79.643 87.5186C79.6641 87.478 79.6876 87.4387 79.7126 87.4004C79.7255 87.3807 79.7417 87.3617 79.7533 87.3412C79.7933 87.2712 79.6642 87.4413 79.7506 87.3448C79.8175 87.2703 79.8829 87.1961 79.9557 87.1271C79.9989 87.0862 80.0433 87.0468 80.0886 87.0083C80.1123 86.9882 80.1365 86.9688 80.1604 86.949C80.2691 86.8589 80.1115 86.9806 80.1856 86.9293C80.4397 86.7537 80.6944 86.5868 80.9664 86.4395C81.116 86.3586 81.2679 86.2819 81.4214 86.2085C81.5029 86.1695 81.5849 86.1315 81.6673 86.0944C81.7097 86.0752 81.7522 86.0564 81.7948 86.0377C81.8106 86.0308 81.9825 85.9571 81.8928 85.9949C82.2904 85.8275 82.6957 85.678 83.1042 85.5395C84.0462 85.2202 85.0083 84.9607 85.9775 84.7383C88.3154 84.2019 90.7028 83.8752 93.0957 83.7212C94.232 83.648 95.3716 83.6158 96.5102 83.6387C97.0279 83.6491 97.5455 83.6711 98.062 83.7079C98.2922 83.7243 98.5221 83.7437 98.7518 83.7666C98.8619 83.7776 98.9721 83.7893 99.0821 83.802C99.1359 83.8082 99.1897 83.8146 99.2435 83.8212C99.2613 83.8234 99.4554 83.8485 99.3722 83.8372C100.102 83.9359 100.836 84.0735 101.535 84.3118C101.604 84.3356 101.674 84.3605 101.743 84.3867C101.776 84.3993 101.808 84.4133 101.841 84.4255C101.955 84.4672 101.74 84.3776 101.847 84.4275C101.972 84.4853 102.096 84.5422 102.215 84.6105C102.312 84.6661 102.403 84.7293 102.494 84.7935C102.353 84.6941 102.494 84.7971 102.527 84.8272C102.567 84.8644 102.602 84.9054 102.641 84.9444C102.722 85.0274 102.579 84.8368 102.653 84.9636C102.674 84.9984 102.692 85.0379 102.714 85.0711C102.76 85.1384 102.683 84.9446 102.695 85.0237C102.698 85.0425 102.709 85.061 102.714 85.0797C102.725 85.1288 102.747 85.2777 102.723 85.0788C102.756 85.3499 102.931 85.5847 103.228 85.5847C103.476 85.5847 103.769 85.3518 103.734 85.0788C103.578 83.8278 102.082 83.368 101.039 83.1175C99.0773 82.6467 97.004 82.5869 94.9966 82.6278C92.4238 82.6803 89.8473 82.9566 87.318 83.4287C85.2707 83.8109 83.2194 84.319 81.3056 85.1545C80.6501 85.4407 80.0173 85.7755 79.4572 86.2236C79.0801 86.5252 78.7021 86.94 78.6128 87.4317C78.3829 88.697 79.7963 89.3187 80.7779 89.6136C81.5958 89.8592 82.4479 89.9879 83.2947 90.0829C84.3381 90.1999 85.3894 90.2444 86.4389 90.247C89.0103 90.2535 91.5866 90.0138 94.1222 89.5934C96.2421 89.242 98.3748 88.7671 100.379 87.9776C101.095 87.6955 101.812 87.3808 102.453 86.9492C102.891 86.6537 103.36 86.2835 103.587 85.7902C103.688 85.5681 103.759 85.326 103.734 85.0788C103.707 84.8069 103.521 84.5728 103.228 84.5728C102.976 84.5728 102.695 84.8053 102.723 85.0788Z" fill="black"/>
<path d="M85.504 68.1884C86.3175 69.4987 87.7477 70.3818 89.3172 70.3033C90.8341 70.2275 92.1919 69.2975 92.8098 67.9079C93.6058 66.1183 93.1977 63.9046 91.7328 62.5714C90.4827 61.4337 88.3025 60.8563 86.8244 61.9077C86.354 62.2424 86.0033 62.7045 85.7045 63.194C85.4094 63.6777 85.1749 64.212 85.0352 64.7618C84.7389 65.9271 84.8814 67.1526 85.504 68.1884C85.8392 68.7459 86.7145 68.2378 86.3778 67.6777C85.489 66.1991 85.9199 64.3084 87.0507 63.0482C87.1092 62.983 87.1714 62.9209 87.2368 62.8625C87.3255 62.7834 87.2794 62.8187 87.3769 62.7525C87.4466 62.7052 87.5189 62.6616 87.5932 62.6219C87.6376 62.5983 87.6827 62.5762 87.7284 62.5551C87.6524 62.5901 87.7815 62.5344 87.7935 62.5301C88.167 62.3942 88.3809 62.3696 88.7626 62.3795C89.4393 62.3969 90.1151 62.6316 90.7169 63.0468C90.9581 63.2132 91.2921 63.5324 91.484 63.7988C91.7218 64.1292 91.8983 64.4704 92.016 64.8292C92.263 65.5825 92.2847 66.3424 92.0452 67.0942C91.991 67.2644 91.9395 67.3927 91.8954 67.4864C91.8211 67.6442 91.7364 67.7973 91.6413 67.9437C91.4816 68.1898 91.3341 68.3644 91.0602 68.6011C91.0328 68.6248 91.0047 68.6475 90.977 68.6709C90.871 68.7603 91.028 68.6347 90.9599 68.6843C90.8963 68.7306 90.832 68.7757 90.7657 68.8181C90.6347 68.9019 90.498 68.9769 90.3569 69.0422C90.3314 69.054 90.3057 69.0655 90.2799 69.0767C90.3907 69.0284 90.2613 69.0827 90.2449 69.0889C90.1794 69.1136 90.1132 69.1363 90.0464 69.157C89.8998 69.2024 89.7501 69.2381 89.5988 69.2638C89.5712 69.2685 89.5437 69.2727 89.5161 69.2769C89.6481 69.2568 89.467 69.2808 89.4427 69.2829C89.3591 69.29 89.2753 69.2942 89.1914 69.2954C89.0298 69.2978 88.8686 69.2885 88.7081 69.2694C88.624 69.2594 88.8302 69.2928 88.6959 69.2665C88.6542 69.2584 88.6122 69.252 88.5706 69.2436C88.4869 69.2268 88.4038 69.207 88.3215 69.1842C88.2386 69.1613 88.1565 69.1354 88.0754 69.1066C88.0346 69.0921 87.9944 69.0762 87.9538 69.061C87.8212 69.0112 88.0425 69.1057 87.9143 69.044C87.7544 68.9669 87.5978 68.8866 87.4481 68.7908C87.3718 68.742 87.2979 68.6902 87.2251 68.6364C87.2999 68.6917 87.219 68.6318 87.2011 68.6168C87.1596 68.5822 87.1181 68.5477 87.0776 68.5119C86.7582 68.2284 86.5812 68.0053 86.3778 67.6777C86.035 67.1255 85.1592 67.633 85.504 68.1884Z" fill="black"/>
<path d="M81.1156 46.6857C83.8987 45.569 86.9791 45.1755 89.951 45.6092C90.7985 45.7328 91.6353 45.9203 92.4553 46.1671C93.0803 46.3551 93.3474 45.3788 92.7243 45.1913C89.6966 44.2803 86.4376 44.1942 83.3606 44.9145C82.5035 45.1152 81.6634 45.3822 80.8466 45.71C80.5932 45.8116 80.415 46.0476 80.4932 46.3323C80.5594 46.5731 80.8605 46.7881 81.1156 46.6857Z" fill="black"/>
<path d="M36.452 71.0246L54.6834 62.1949C55.3301 61.8817 55.5559 61.0725 55.1649 60.4697L54.0125 58.6931C53.6846 58.1877 53.0318 58.0054 52.4896 58.268L34.2582 67.0977C33.6115 67.4109 33.3856 68.2201 33.7767 68.8229L34.9291 70.5995C35.2569 71.1049 35.9098 71.2871 36.452 71.0246Z" fill="#97BE96"/>
<path d="M36.7077 71.4585C37.5689 71.0414 38.4301 70.6243 39.2913 70.2072C41.229 69.2687 43.1667 68.3303 45.1044 67.3919C47.1497 66.4013 49.1951 65.4107 51.2404 64.4201C52.4246 63.8466 53.6087 63.2731 54.7929 62.6996C54.9244 62.6359 55.0476 62.5745 55.1666 62.4854C55.8858 61.9476 56.0676 60.9516 55.5892 60.1914C55.3364 59.7898 55.0725 59.3949 54.8143 58.9969C54.5138 58.5336 54.2478 58.0327 53.7164 57.7969C53.2055 57.5702 52.6813 57.6147 52.1854 57.852C52.0643 57.9099 51.9437 57.969 51.8228 58.0276C51.2813 58.2898 50.7398 58.5521 50.1983 58.8144C48.3402 59.7142 46.4821 60.6141 44.624 61.514C42.5398 62.5234 40.4557 63.5328 38.3715 64.5422C37.0301 65.1918 35.6887 65.8414 34.3474 66.4911C34.2416 66.5423 34.1355 66.5928 34.0301 66.6447C33.4766 66.9177 33.1299 67.4625 33.0825 68.0727C33.0366 68.663 33.3636 69.1115 33.6648 69.5759C33.9324 69.9884 34.1977 70.4025 34.4676 70.8135C34.9726 71.5826 35.872 71.8387 36.7077 71.4585C36.9564 71.3453 37.0172 70.9849 36.8892 70.7662C36.7397 70.5106 36.4467 70.4711 36.197 70.5847C35.9546 70.695 35.6415 70.6356 35.4294 70.418C35.365 70.3519 35.276 70.202 35.2022 70.0881C34.9174 69.6491 34.6326 69.2101 34.3479 68.7711C34.3105 68.7134 34.2726 68.656 34.2356 68.598C34.2286 68.5871 34.2212 68.5764 34.2144 68.5654C34.205 68.5502 34.194 68.5333 34.185 68.5178C34.1667 68.4867 34.1499 68.4548 34.1345 68.4221C34.1509 68.4612 34.1485 68.4522 34.1275 68.3951C34.082 68.2495 34.0746 68.1396 34.1041 68.0323C34.1154 67.9915 34.126 67.951 34.1392 67.9108C34.1803 67.7853 34.0974 67.957 34.1707 67.8466C34.2446 67.7352 34.2297 67.7452 34.3098 67.665C34.3421 67.6327 34.3741 67.6061 34.465 67.5566C34.4893 67.5433 34.4983 67.5395 34.5154 67.5308C34.5228 67.5271 34.5303 67.5237 34.5378 67.52C34.5737 67.5022 34.61 67.485 34.646 67.4675C35.7664 66.9249 36.8869 66.3823 38.0073 65.8397C39.9773 64.8856 41.9473 63.9315 43.9174 62.9774C45.8559 62.0385 47.7944 61.0997 49.733 60.1608C50.7227 59.6815 51.705 59.1811 52.7042 58.7218C52.7122 58.7182 52.7667 58.6931 52.7306 58.7077C53.0317 58.5861 53.3329 58.6459 53.5511 58.9103C53.5921 58.96 53.695 59.129 53.756 59.2231C53.8988 59.4433 54.0417 59.6635 54.1845 59.8837C54.3235 60.0979 54.4624 60.3122 54.6014 60.5264C54.6375 60.5821 54.6741 60.6376 54.7099 60.6936C54.7647 60.7794 54.7996 60.8433 54.8147 60.8915C54.8302 60.9409 54.8438 60.9917 54.8519 61.0429C54.8362 60.9439 54.8519 61.1063 54.8519 61.1123C54.852 61.1462 54.8506 61.1802 54.8478 61.2139C54.8562 61.1129 54.8345 61.2705 54.8323 61.279C54.8218 61.3198 54.8097 61.3604 54.7942 61.3996C54.7635 61.4772 54.8527 61.3182 54.7715 61.44C54.7432 61.4826 54.7211 61.5285 54.6892 61.5689C54.738 61.507 54.6318 61.6222 54.6323 61.6217C54.5257 61.726 54.6956 61.5893 54.57 61.6743C54.5324 61.6997 54.4929 61.7216 54.4528 61.7426C54.4432 61.7475 54.435 61.7517 54.426 61.7562C54.4188 61.7598 54.4116 61.7631 54.4044 61.7666C53.453 62.2365 52.4941 62.6918 51.5391 63.1544C49.6194 64.084 47.6998 65.0137 45.7802 65.9434C43.799 66.9029 41.8177 67.8625 39.8365 68.822C38.6795 69.3824 37.5224 69.9427 36.3654 70.5031C36.3093 70.5303 36.2531 70.5575 36.197 70.5847C35.9511 70.7038 35.8851 71.0542 36.0154 71.2769C36.1623 71.5281 36.4609 71.578 36.7077 71.4585Z" fill="black"/>
<path d="M37.8617 75.9615C40.2482 74.5855 42.648 73.2327 45.0612 71.9039C47.4857 70.5689 49.9235 69.2579 52.3741 67.9713C53.7497 67.2491 55.1294 66.5347 56.5128 65.8277C56.7561 65.7034 56.8267 65.3618 56.6944 65.1355C56.5498 64.8883 56.2463 64.8292 56.0021 64.954C53.5491 66.2075 51.1082 67.4848 48.6803 68.7863C46.2409 70.094 43.8144 71.4259 41.4015 72.7818C40.047 73.5429 38.6969 74.3117 37.3509 75.0877C36.7869 75.4129 37.2959 76.2876 37.8617 75.9615Z" fill="black"/>
<path d="M41.5151 77.6833C42.6718 76.9714 43.8286 76.2596 44.9853 75.5477C45.2178 75.4046 45.307 75.0951 45.1668 74.8555C45.0309 74.6232 44.7082 74.5302 44.4746 74.674C43.3178 75.3858 42.1611 76.0977 41.0043 76.8095C40.7718 76.9526 40.6826 77.2621 40.8228 77.5017C40.9587 77.734 41.2814 77.827 41.5151 77.6833Z" fill="black"/>
<path d="M47.7483 73.9847C47.8414 73.95 47.9345 73.9153 48.0276 73.8806C48.0934 73.8649 48.1508 73.8347 48.1996 73.79C48.2547 73.7543 48.2981 73.707 48.33 73.6481C48.3669 73.59 48.3869 73.5273 48.39 73.4599C48.4051 73.3927 48.402 73.3254 48.381 73.2582L48.33 73.1373C48.285 73.0613 48.2245 73.0008 48.1484 72.9558L48.0276 72.9048C47.9379 72.8807 47.8482 72.8807 47.7586 72.9048C47.6655 72.9395 47.5724 72.9742 47.4793 73.0089C47.4134 73.0245 47.3561 73.0547 47.3072 73.0994C47.2521 73.1351 47.2087 73.1824 47.1769 73.2414C47.1399 73.2995 47.1199 73.3622 47.1168 73.4295C47.1018 73.4968 47.1048 73.564 47.1259 73.6313L47.1769 73.7521C47.2219 73.8282 47.2824 73.8887 47.3584 73.9337L47.4793 73.9847C47.5689 74.0088 47.6586 74.0088 47.7483 73.9847Z" fill="black"/>
<path d="M39.975 124.728C42.9858 123.507 45.9748 122.233 48.939 120.904C51.8869 119.582 54.8103 118.205 57.7072 116.775C59.3462 115.966 60.9765 115.14 62.5983 114.297C62.8407 114.171 62.9129 113.832 62.7798 113.605C62.636 113.359 62.3309 113.297 62.0876 113.423C59.2323 114.907 56.3502 116.339 53.4425 117.718C50.5464 119.09 47.6251 120.41 44.6807 121.676C43.0299 122.385 41.3713 123.077 39.706 123.752C39.4529 123.854 39.2742 124.089 39.3526 124.374C39.4186 124.614 39.7203 124.831 39.975 124.728Z" fill="black"/>
<path d="M42.888 128.967C45.3408 127.876 47.779 126.751 50.2015 125.594C52.6357 124.431 55.0541 123.235 57.4558 122.007C58.8067 121.316 60.1523 120.614 61.4926 119.902C62.068 119.597 61.5573 118.723 60.9819 119.029C58.6105 120.287 56.2225 121.515 53.8182 122.709C51.4022 123.91 48.9699 125.077 46.5222 126.211C45.1454 126.849 43.7637 127.476 42.3773 128.093C42.1276 128.205 42.0687 128.568 42.1958 128.786C42.3462 129.043 42.6374 129.079 42.888 128.967Z" fill="black"/>
<path d="M63.7734 118.417C64.0022 118.295 64.2309 118.172 64.4596 118.049C64.5185 118.018 64.5659 117.974 64.6015 117.919C64.6463 117.87 64.6764 117.813 64.6921 117.747C64.7132 117.68 64.7162 117.613 64.7011 117.545C64.6981 117.478 64.6781 117.415 64.6411 117.357C64.5714 117.249 64.4677 117.154 64.3387 117.125C64.2031 117.094 64.0727 117.109 63.9488 117.176C63.7201 117.298 63.4914 117.421 63.2627 117.544C63.2037 117.575 63.1564 117.619 63.1207 117.674C63.076 117.723 63.0458 117.78 63.0302 117.846C63.0091 117.913 63.0061 117.981 63.0211 118.048C63.0242 118.115 63.0442 118.178 63.0812 118.236C63.1508 118.344 63.2545 118.439 63.3836 118.468C63.5192 118.499 63.6496 118.484 63.7734 118.417Z" fill="black"/>
<path d="M44.9611 133.226C47.8285 132.146 50.6176 130.858 53.2922 129.363C54.0485 128.94 54.7953 128.5 55.5329 128.046C56.0863 127.705 55.5787 126.829 55.0222 127.172C52.4614 128.75 49.7849 130.139 47.018 131.32C46.25 131.647 45.4735 131.956 44.6921 132.25C44.4365 132.346 44.2615 132.592 44.3387 132.872C44.4061 133.118 44.704 133.323 44.9611 133.226Z" fill="black"/>
<path d="M59.145 126.427C59.4429 126.273 59.7408 126.118 60.0386 125.963C60.148 125.906 60.2391 125.777 60.2711 125.661C60.3045 125.54 60.2894 125.379 60.2201 125.271C60.1505 125.163 60.0468 125.068 59.9177 125.039C59.7812 125.007 59.6531 125.024 59.5279 125.09L58.6343 125.554C58.5249 125.61 58.4338 125.739 58.4018 125.856C58.3684 125.977 58.3835 126.138 58.4528 126.246C58.5224 126.354 58.6261 126.449 58.7552 126.478C58.8917 126.509 59.0198 126.492 59.145 126.427Z" fill="black"/>
<path d="M118.652 27.7489L107.657 28.9832C106.805 29.0788 106.193 29.8464 106.288 30.6977L106.537 32.911C106.632 33.7623 107.4 34.375 108.251 34.2794L119.247 33.0451C120.098 32.9496 120.711 32.182 120.615 31.3307L120.367 29.1174C120.271 28.266 119.504 27.6534 118.652 27.7489Z" fill="#97BE96"/>
<path d="M107.041 32.9137C106.979 32.3614 106.917 31.8091 106.856 31.2568C106.833 31.0533 106.803 30.8493 106.788 30.645C106.784 30.5904 106.782 30.5354 106.784 30.4806C106.785 30.445 106.787 30.4084 106.791 30.3729C106.789 30.3848 106.78 30.4339 106.792 30.3754C106.804 30.3148 106.818 30.255 106.836 30.1962C106.844 30.1713 106.853 30.1464 106.862 30.122C106.875 30.0891 106.874 30.0893 106.862 30.1226L106.885 30.0759C106.913 30.0223 106.943 29.9704 106.977 29.9197C106.991 29.8982 107.005 29.8762 107.021 29.8561C107.005 29.8763 106.977 29.9062 107.041 29.8388C107.142 29.7331 107.165 29.7096 107.257 29.6516C107.309 29.6189 107.362 29.5885 107.418 29.563C107.471 29.5387 107.43 29.558 107.42 29.5621C107.453 29.5494 107.487 29.5381 107.521 29.528C107.574 29.5126 107.627 29.5004 107.68 29.49C107.647 29.4965 107.648 29.4932 107.657 29.4917C107.675 29.4887 107.694 29.4877 107.713 29.4855C107.816 29.473 107.92 29.4622 108.023 29.4506C108.456 29.402 108.889 29.3534 109.322 29.3048C110.698 29.1503 112.075 28.9958 113.451 28.8413C114.769 28.6934 116.086 28.5455 117.404 28.3976L118.482 28.2766C118.538 28.2703 118.594 28.2632 118.65 28.2577C118.896 28.2337 118.985 28.2405 119.205 28.3176C119.215 28.3209 119.293 28.3553 119.229 28.3261C119.252 28.3368 119.276 28.3483 119.298 28.3613C119.351 28.3918 119.404 28.4209 119.453 28.4558C119.52 28.5026 119.454 28.4495 119.513 28.5058C119.563 28.5534 119.612 28.6017 119.656 28.6555C119.62 28.6109 119.7 28.7225 119.713 28.7438C119.745 28.796 119.776 28.8504 119.8 28.9067C119.777 28.8526 119.825 28.9917 119.831 29.0121C119.837 29.0367 119.869 29.1754 119.86 29.1206C119.869 29.1781 119.873 29.2374 119.879 29.2953L119.988 30.2662L120.092 31.1907C120.099 31.2566 120.108 31.3226 120.113 31.3887C120.118 31.4525 120.119 31.5164 120.116 31.5802C120.115 31.6071 120.113 31.6341 120.11 31.6609C120.118 31.5871 120.107 31.6736 120.104 31.6845C120.09 31.7445 120.075 31.8035 120.056 31.8624C120.048 31.8872 120.04 31.9123 120.03 31.9363C120.05 31.8866 120.027 31.9389 120.017 31.9578C119.797 32.3694 119.513 32.5119 119.059 32.5628L117.972 32.6848L113.986 33.1323C112.615 33.2862 111.244 33.4401 109.872 33.5941L108.595 33.7375C108.245 33.7767 107.969 33.8204 107.672 33.7071C107.617 33.6861 107.662 33.703 107.672 33.7077C107.641 33.6933 107.61 33.677 107.58 33.6602C107.534 33.6351 107.49 33.6078 107.448 33.578C107.361 33.5174 107.411 33.5488 107.427 33.5623C107.407 33.5457 107.388 33.5283 107.37 33.5102C107.326 33.4677 107.283 33.4253 107.245 33.3783C107.283 33.4249 107.199 33.3084 107.188 33.2899C107.156 33.2378 107.125 33.1834 107.101 33.1271C107.125 33.1843 107.083 33.0649 107.078 33.0478C107.067 33.013 107.059 32.9778 107.05 32.9426C107.049 32.9354 107.033 32.8459 107.041 32.9137C107.006 32.6428 106.834 32.4078 106.536 32.4078C106.29 32.4078 105.994 32.6408 106.03 32.9137C106.113 33.5562 106.413 34.1007 106.959 34.4662C107.334 34.7177 107.811 34.8314 108.259 34.7871C108.505 34.7627 108.75 34.7319 108.996 34.7044C110.263 34.5621 111.531 34.4198 112.798 34.2775C114.27 34.1124 115.741 33.9472 117.212 33.7821C117.714 33.7257 118.216 33.6694 118.717 33.6131C118.989 33.5826 119.276 33.5677 119.543 33.5086C120.583 33.279 121.224 32.2576 121.108 31.2294L120.891 29.2953C120.848 28.9123 120.784 28.5445 120.574 28.2107C120.246 27.6915 119.707 27.3403 119.099 27.2586C118.789 27.217 118.492 27.2635 118.185 27.298C117.012 27.4297 115.839 27.5614 114.666 27.693C113.16 27.8621 111.654 28.0311 110.148 28.2002C109.324 28.2926 108.5 28.3802 107.676 28.4776C107.241 28.5291 106.859 28.6698 106.516 28.947C106.051 29.3225 105.778 29.9128 105.772 30.5079C105.769 30.7393 105.812 30.976 105.838 31.2053C105.879 31.5717 105.92 31.9381 105.961 32.3045C105.984 32.5075 106.007 32.7106 106.03 32.9137C106.06 33.1852 106.24 33.4197 106.535 33.4197C106.785 33.4197 107.072 33.187 107.041 32.9137Z" fill="black"/>
<path d="M105.568 39.9215C108.3 39.6149 111.031 39.3083 113.763 39.0017C116.247 38.7229 118.73 38.4441 121.214 38.1652C122.834 37.9834 124.455 37.8015 126.075 37.6196C126.346 37.5892 126.581 37.4089 126.581 37.1137C126.581 36.8638 126.348 36.577 126.075 36.6077C123.343 36.9143 120.612 37.221 117.88 37.5276C115.397 37.8064 112.913 38.0852 110.429 38.364C108.809 38.5459 107.189 38.7278 105.568 38.9096C105.297 38.9401 105.062 39.1204 105.062 39.4156C105.062 39.6654 105.295 39.9522 105.568 39.9215Z" fill="black"/>
<path d="M102.393 45.0286C105.541 44.6751 108.69 44.3217 111.838 43.9683C114.986 43.6149 118.135 43.2614 121.283 42.908C123.056 42.709 124.829 42.51 126.601 42.311C126.873 42.2806 127.107 42.1003 127.107 41.8051C127.107 41.5552 126.875 41.2685 126.601 41.2991C123.453 41.6526 120.304 42.006 117.156 42.3594C114.008 42.7128 110.859 43.0663 107.711 43.4197C105.938 43.6187 104.165 43.8177 102.393 44.0166C102.121 44.0471 101.887 44.2274 101.887 44.5226C101.887 44.7725 102.119 45.0592 102.393 45.0286Z" fill="black"/>
<path d="M102.92 49.72C106.068 49.3665 109.217 49.0131 112.365 48.6597C115.514 48.3063 118.662 47.9528 121.811 47.5994C123.583 47.4004 125.356 47.2014 127.129 47.0025C127.4 46.972 127.635 46.7917 127.635 46.4965C127.635 46.2466 127.402 45.9599 127.129 45.9905C123.98 46.344 120.832 46.6974 117.683 47.0508C114.535 47.4042 111.386 47.7577 108.238 48.1111C106.465 48.3101 104.693 48.5091 102.92 48.708C102.648 48.7385 102.414 48.9188 102.414 49.214C102.414 49.4639 102.647 49.7506 102.92 49.72Z" fill="black"/>
<path d="M103.447 54.4153C106.596 54.0618 109.744 53.7084 112.893 53.355C116.041 53.0016 119.19 52.6481 122.338 52.2947C124.111 52.0957 125.883 51.8968 127.656 51.6978C127.928 51.6673 128.162 51.487 128.162 51.1918C128.162 50.942 127.929 50.6552 127.656 50.6859C124.508 51.0393 121.359 51.3927 118.211 51.7461C115.062 52.0996 111.914 52.453 108.765 52.8064C106.993 53.0054 105.22 53.2044 103.447 53.4034C103.176 53.4338 102.941 53.6141 102.941 53.9093C102.941 54.1592 103.174 54.446 103.447 54.4153Z" fill="black"/>
<path d="M103.975 59.1091C105.644 58.9217 107.313 58.7344 108.983 58.547C109.774 58.4582 110.565 58.3694 111.356 58.2805C112.588 58.1423 113.82 58.004 115.051 57.8657C115.323 57.8353 115.557 57.655 115.557 57.3598C115.557 57.1099 115.325 56.8231 115.051 56.8538C113.382 57.0412 111.713 57.2286 110.043 57.416C109.252 57.5048 108.461 57.5936 107.67 57.6824C106.438 57.8207 105.206 57.959 103.975 58.0972C103.703 58.1277 103.469 58.308 103.469 58.6032C103.469 58.853 103.701 59.1398 103.975 59.1091Z" fill="black"/>
<path d="M128.325 95.3164L80.7663 100.655C79.972 100.744 79.4004 101.46 79.4896 102.255L79.6935 104.071C79.7826 104.865 80.4988 105.437 81.2931 105.348L128.851 100.009C129.646 99.9201 130.217 99.2039 130.128 98.4096L129.924 96.5931C129.835 95.7989 129.119 95.2272 128.325 95.3164Z" fill="#F1633D"/>
<path d="M128.85 99.5038C128.359 99.559 127.867 99.6142 127.376 99.6694C126.05 99.8182 124.724 99.967 123.398 100.116L117.608 100.766C115.283 101.027 112.959 101.288 110.634 101.549C108.143 101.828 105.652 102.108 103.161 102.388C100.734 102.66 98.3078 102.932 95.8812 103.205C93.7252 103.447 91.5691 103.689 89.4131 103.931C87.7588 104.116 86.1046 104.302 84.4503 104.488C83.5224 104.592 82.5945 104.696 81.6667 104.8C81.5189 104.817 81.3703 104.84 81.2217 104.849C80.8919 104.869 80.5774 104.742 80.375 104.475C80.3289 104.414 80.2869 104.343 80.2581 104.272C80.2415 104.231 80.229 104.185 80.2177 104.142C80.219 104.147 80.1753 103.927 80.1935 104.038C80.2055 104.111 80.1831 103.94 80.1802 103.913C80.1216 103.391 80.0609 102.87 80.0044 102.348C79.9785 102.108 79.975 101.885 80.088 101.664C80.159 101.526 80.2611 101.409 80.3883 101.32C80.4631 101.268 80.5429 101.228 80.6289 101.2C80.6799 101.183 80.9174 101.141 80.7651 101.161C80.8002 101.157 80.8356 101.154 80.8708 101.15L81.6375 101.064C82.7804 100.935 83.9232 100.807 85.066 100.679C86.8763 100.475 88.6867 100.272 90.4971 100.069C92.7496 99.8162 95.0021 99.5633 97.2546 99.3105L104.645 98.4809C107.113 98.2038 109.581 97.9267 112.05 97.6497C114.292 97.3979 116.535 97.1462 118.777 96.8945C120.566 96.6937 122.354 96.4929 124.143 96.2922L127.516 95.9135C127.757 95.8865 127.997 95.8587 128.238 95.8325C128.324 95.8231 128.409 95.8136 128.497 95.8142C128.821 95.8165 129.128 95.9931 129.293 96.2732C129.342 96.3558 129.373 96.4305 129.397 96.5234C129.413 96.584 129.433 96.713 129.418 96.6007C129.427 96.672 129.434 96.7439 129.442 96.8154C129.498 97.32 129.557 97.8245 129.612 98.3294C129.68 98.9566 129.362 99.4337 128.715 99.5219C128.444 99.5588 128.297 99.906 128.362 100.144C128.442 100.437 128.713 100.535 128.984 100.498C129.95 100.366 130.699 99.4542 130.639 98.48C130.61 98.0029 130.533 97.5249 130.48 97.05C130.458 96.8531 130.439 96.6553 130.411 96.4592C130.344 95.9993 130.106 95.5626 129.745 95.2662C129.338 94.9318 128.827 94.7629 128.3 94.8135C127.682 94.873 127.065 94.9523 126.447 95.0216C125.003 95.1837 123.559 95.3458 122.115 95.5079C120.077 95.7366 118.039 95.9654 116.001 96.1942C113.6 96.4637 111.2 96.7331 108.8 97.0026C106.261 97.2876 103.722 97.5725 101.183 97.8575C98.763 98.1292 96.3427 98.4009 93.9224 98.6726C91.8215 98.9084 89.7205 99.1443 87.6196 99.3801C86.0929 99.5515 84.5662 99.7228 83.0395 99.8942C82.3114 99.9759 81.5831 100.056 80.8552 100.139C80.757 100.151 80.6583 100.16 80.5608 100.177C79.5952 100.343 78.8938 101.286 78.9821 102.255C79.0248 102.724 79.0872 103.191 79.1396 103.658C79.1626 103.863 79.1773 104.073 79.2136 104.276C79.2955 104.734 79.5559 105.152 79.9208 105.439C80.687 106.04 81.5764 105.822 82.4512 105.724C83.7177 105.582 84.9841 105.44 86.2506 105.298C88.1579 105.084 90.0652 104.869 91.9725 104.655C94.3129 104.393 96.6533 104.13 98.9937 103.867C101.514 103.584 104.034 103.301 106.554 103.019C109.029 102.741 111.504 102.463 113.979 102.185C116.177 101.938 118.374 101.692 120.572 101.445C122.261 101.255 123.949 101.066 125.638 100.876C126.587 100.77 127.536 100.663 128.485 100.557C128.607 100.543 128.728 100.529 128.85 100.516C129.121 100.485 129.356 100.305 129.356 100.01C129.356 99.7599 129.123 99.4731 128.85 99.5038Z" fill="black"/>
<path d="M81.5958 108.926C85.3492 108.505 89.1026 108.084 92.856 107.662C96.6094 107.241 100.363 106.819 104.116 106.398C106.231 106.161 108.345 105.923 110.46 105.686C110.732 105.656 110.966 105.475 110.966 105.18C110.966 104.93 110.733 104.643 110.46 104.674C106.707 105.095 102.953 105.517 99.1998 105.938C95.4464 106.359 91.693 106.781 87.9396 107.202C85.825 107.44 83.7104 107.677 81.5958 107.914C81.3243 107.945 81.0898 108.125 81.0898 108.42C81.0898 108.67 81.3225 108.957 81.5958 108.926Z" fill="black"/>
<path d="M114.959 105.18C115.373 105.134 115.787 105.087 116.201 105.041C116.339 105.026 116.457 104.995 116.559 104.893C116.646 104.805 116.712 104.661 116.707 104.535C116.701 104.404 116.658 104.269 116.559 104.177C116.466 104.092 116.331 104.014 116.201 104.029C115.787 104.076 115.373 104.122 114.959 104.168C114.821 104.184 114.704 104.215 114.602 104.317C114.514 104.404 114.448 104.548 114.453 104.674C114.459 104.805 114.502 104.941 114.602 105.032C114.694 105.117 114.829 105.195 114.959 105.18Z" fill="black"/>
<path d="M43.5436 30.0354C44.9646 30.6988 46.3856 31.3622 47.8066 32.0255C48.0541 32.1411 48.352 32.095 48.4989 31.844C48.627 31.6249 48.5661 31.2679 48.3173 31.1518C46.8963 30.4884 45.4753 29.825 44.0543 29.1617C43.8069 29.0461 43.5089 29.0922 43.3621 29.3432C43.2339 29.5623 43.2949 29.9193 43.5436 30.0354Z" fill="#F1633D"/>
<path d="M46.1342 22.2774C47.3898 23.4847 48.6454 24.692 49.901 25.8993C50.3705 26.3508 51.087 25.6362 50.6165 25.1838C49.3609 23.9765 48.1053 22.7692 46.8497 21.5619C46.3802 21.1104 45.6637 21.825 46.1342 22.2774Z" fill="#F1633D"/>
<path d="M54.0631 19.2251C54.5569 20.2917 55.0507 21.3584 55.5444 22.4251C55.656 22.666 56.0221 22.7449 56.2367 22.6066C56.485 22.4465 56.5375 22.1721 56.4182 21.9144C55.9244 20.8477 55.4307 19.781 54.9369 18.7143C54.8254 18.4734 54.4592 18.3945 54.2446 18.5328C53.9963 18.6929 53.9438 18.9673 54.0631 19.2251Z" fill="#F1633D"/>
<path d="M46.3801 37.8883C47.1022 37.6576 47.8244 37.427 48.5466 37.1963C48.7983 37.1159 48.9865 36.8412 48.9 36.5739C48.8184 36.3216 48.5476 36.1343 48.2776 36.2205C47.5554 36.4512 46.8332 36.6819 46.1111 36.9126C45.8593 36.993 45.6712 37.2676 45.7577 37.5349C45.8393 37.7872 46.1101 37.9746 46.3801 37.8883Z" fill="#F1633D"/>
<path d="M60.0312 20.7602C60.0478 20.9079 60.0644 21.0557 60.081 21.2034C60.0784 21.2731 60.0929 21.3381 60.1246 21.3984C60.145 21.4611 60.1799 21.5154 60.2292 21.5612C60.275 21.6105 60.3293 21.6454 60.392 21.6658C60.4523 21.6975 60.5173 21.712 60.587 21.7094L60.7215 21.6913C60.8072 21.6673 60.8816 21.6239 60.9447 21.5612L61.0239 21.4588C61.0696 21.3799 61.0927 21.2948 61.0929 21.2034L61.0432 20.7602C61.0458 20.6905 61.0313 20.6255 60.9996 20.5652C60.9792 20.5025 60.9443 20.4482 60.895 20.4024C60.8492 20.3531 60.7949 20.3182 60.7321 20.2978C60.6718 20.2661 60.6069 20.2516 60.5372 20.2542L60.4027 20.2723C60.317 20.2963 60.2426 20.3397 60.1794 20.4024L60.1003 20.5048C60.0545 20.5837 60.0315 20.6688 60.0312 20.7602Z" fill="#F1633D"/>
<path d="M81.6149 19.534C83.9672 15.9628 87.0895 12.9429 90.6692 10.6127C94.2592 8.27572 98.2631 6.62081 102.425 5.62408C106.524 4.64227 110.806 4.27692 115.01 4.6318C119.055 4.97329 123.069 6.04323 126.748 7.75662C130.443 9.47701 133.85 11.8599 136.545 14.933C137.869 16.4424 139.001 18.118 139.893 19.9171C140.977 22.1019 141.753 24.4676 142.379 26.8199C143.699 31.7765 144.168 36.9478 143.771 42.0617C143.397 46.8646 142.252 51.6532 140.273 56.0522C138.545 59.8944 136.187 63.4316 133.328 66.5244C130.446 69.6424 127.1 72.2979 123.492 74.5278C122.588 75.0861 121.668 75.6175 120.736 76.126C120.164 76.4378 120.674 77.3119 121.247 76.9997C125.098 74.8996 128.733 72.3769 131.932 69.3682C135.07 66.4175 137.772 62.9922 139.834 59.2074C142.117 55.018 143.611 50.4192 144.352 45.7109C145.168 40.5273 145.092 35.2284 144.145 30.0676C143.672 27.4925 142.979 24.9577 142.071 22.5022C141.301 20.4229 140.374 18.4309 139.115 16.5995C136.737 13.1396 133.498 10.3357 129.874 8.24216C126.235 6.14033 122.194 4.71302 118.054 4.00846C113.815 3.28704 109.468 3.35619 105.227 4.03556C100.895 4.72979 96.659 6.1151 92.7867 8.18597C88.9415 10.2424 85.4479 13.0043 82.6823 16.3848C81.9905 17.2304 81.3421 18.1109 80.7411 19.0233C80.3818 19.5687 81.2578 20.0762 81.6149 19.534Z" fill="#F1633D"/>
<path d="M123.42 67.3688C122.633 69.9085 121.901 72.49 120.748 74.8942C120.428 75.5603 120.075 76.2101 119.679 76.8336C119.492 77.1264 119.686 77.4731 119.981 77.5768C122.418 78.4345 125.007 78.854 127.59 78.8171C128.241 78.8079 128.243 77.7959 127.59 77.8052C125.09 77.8409 122.609 77.4313 120.25 76.601L120.552 77.3443C122.023 75.0333 122.915 72.3919 123.73 69.794C123.955 69.0762 124.173 68.3564 124.396 67.6378C124.589 67.0144 123.613 66.7477 123.42 67.3688Z" fill="#F1633D"/>
<path d="M120.133 117.37C118.93 121.805 116.784 125.968 113.924 129.562C111.057 133.164 107.517 136.216 103.536 138.526C99.5727 140.827 95.171 142.391 90.6249 143.005C88.2598 143.324 85.8306 143.404 83.4554 143.153C80.693 142.86 77.9633 142.072 75.4731 140.841C73.034 139.635 70.8779 138.026 69.0908 135.97C67.359 133.979 65.9935 131.695 64.7704 129.365C64.4663 128.786 64.1711 128.202 63.8806 127.616C63.5915 127.032 62.7184 127.544 63.0069 128.127C64.2107 130.556 65.5055 132.957 67.1307 135.135C68.79 137.358 70.7685 139.264 73.1422 140.713C75.6005 142.213 78.3425 143.266 81.1674 143.822C83.7373 144.327 86.3712 144.408 88.9777 144.194C93.6892 143.806 98.2862 142.432 102.481 140.26C106.674 138.088 110.468 135.114 113.574 131.556C116.698 127.977 119.138 123.807 120.617 119.287C120.795 118.742 120.959 118.192 121.109 117.639C121.279 117.01 120.304 116.741 120.133 117.37Z" fill="#F1633D"/>
<path d="M62.6657 135.038C63.5933 132.528 63.8042 129.809 63.8148 127.154C63.561 127.3 63.3073 127.445 63.0535 127.591C65.2927 129.124 67.9189 130.034 70.621 130.255C70.8937 130.277 71.127 130.006 71.127 129.749C71.127 129.456 70.8945 129.265 70.621 129.243C68.0951 129.036 65.6528 128.147 63.5642 126.717C63.2396 126.495 62.8044 126.792 62.8029 127.154C62.7926 129.728 62.5892 132.336 61.69 134.769C61.5952 135.025 61.7959 135.323 62.0433 135.391C62.326 135.469 62.5706 135.295 62.6657 135.038Z" fill="#F1633D"/>
<path d="M34.7317 147.866C36.4282 150.188 38.9114 151.885 41.6955 152.616C42.4873 152.824 43.3023 152.949 44.1194 152.997C44.3925 153.013 44.6254 152.753 44.6254 152.491C44.6254 152.204 44.3933 152.001 44.1194 151.985C41.5403 151.834 38.9909 150.738 37.0717 148.98C36.5332 148.487 36.0263 147.931 35.6055 147.355C35.4445 147.135 35.1662 147.025 34.9132 147.173C34.6958 147.3 34.5697 147.644 34.7317 147.866Z" fill="#F1633D"/>
<path d="M35.5976 154.531C36.6773 155.476 37.9681 156.157 39.3656 156.489C39.6313 156.553 39.9139 156.406 39.988 156.136C40.0586 155.879 39.9016 155.577 39.6346 155.514C38.4026 155.22 37.2582 154.642 36.3131 153.815C36.1076 153.635 35.7999 153.613 35.5976 153.815C35.414 153.999 35.3911 154.35 35.5976 154.531Z" fill="#F1633D"/>
<path d="M143.072 101.945C143.945 103.695 144.208 105.753 143.809 107.667C143.439 109.446 142.525 111.039 141.203 112.283C140.486 112.958 139.665 113.502 138.752 113.914C138.503 114.026 138.443 114.388 138.571 114.606C138.721 114.862 139.013 114.9 139.263 114.787C141.034 113.988 142.543 112.63 143.564 110.98C144.659 109.211 145.149 107.089 144.96 105.018C144.845 103.767 144.507 102.559 143.946 101.435C143.824 101.19 143.478 101.122 143.253 101.253C143.005 101.399 142.95 101.7 143.072 101.945Z" fill="#F1633D"/>
<path d="M143.404 96.3858C144.996 98.3073 146.11 100.613 146.662 103.043C146.817 103.724 146.926 104.408 146.988 105.101C147.012 105.374 147.203 105.607 147.494 105.607C147.749 105.607 148.024 105.375 148 105.101C147.762 102.428 146.904 99.8221 145.479 97.544C145.07 96.889 144.612 96.2651 144.119 95.6703C143.945 95.4597 143.584 95.4898 143.404 95.6703C143.195 95.8787 143.229 96.1747 143.404 96.3858Z" fill="#F1633D"/>
</svg>
