<svg width="20" height="21" viewBox="0 0 20 21" fill="none" xmlns="http://www.w3.org/2000/svg">
<rect y="0.960938" width="20" height="20" rx="10" fill="white"/>
<path d="M9.1643 14.428C9.40391 14.428 9.59073 14.3346 9.72068 14.1396L13.5219 8.25906C13.6194 8.11286 13.656 7.9829 13.656 7.85701C13.656 7.53617 13.4204 7.30469 13.0914 7.30469C12.864 7.30469 12.7259 7.38591 12.5879 7.60521L9.14806 13.0553L7.38552 10.8217C7.2515 10.6551 7.11342 10.582 6.91442 10.582C6.58141 10.582 6.3418 10.8176 6.3418 11.1425C6.3418 11.2846 6.39053 11.4186 6.5083 11.5608L8.61199 14.1518C8.76631 14.3427 8.93688 14.428 9.1643 14.428Z" fill="#428BF9"/>
</svg>
