<svg width="105" height="30" viewBox="0 0 105 30" fill="none" xmlns="http://www.w3.org/2000/svg">
<path d="M15.0387 0.0107563L24.0547 0L8.9283 15.5876L4.98628 19.6284L0.5 14.9996L15.0387 0.0107563ZM14.9552 13.9276C15.0717 13.768 15.2873 13.8469 15.4508 13.8254H24.0478L16.2124 21.898L11.7035 17.2782L14.9552 13.9276Z" fill="white"/>
<path d="M36.7276 6.51113L46.5557 6.51471V8.51C43.9839 8.51 41.4104 8.50283 38.8386 8.51359C38.6421 8.57992 38.7342 8.83448 38.7134 8.99045L38.7203 14.356C38.7847 14.5568 39.0333 14.46 39.1846 14.4851L45.7819 14.4815V16.475C43.73 16.475 41.6799 16.475 39.6298 16.475C39.3255 16.475 39.0177 16.4553 38.7151 16.5073L38.6925 24.0833C38.0317 24.0564 37.371 24.0815 36.7102 24.0654V6.83382L36.7276 6.51113ZM48.9397 6.51471H50.9585V18.438L50.9376 24.0528C50.2803 24.0403 49.623 24.0367 48.9675 24.0546C48.9171 23.7767 48.9379 23.4953 48.9379 23.2138L48.9397 6.51292V6.51471ZM70.7155 7.9937L70.719 11.5235C71.7084 11.5486 72.7048 11.4787 73.6925 11.5594C73.6646 12.1922 73.6872 12.8251 73.6768 13.4579C72.6926 13.4597 71.7084 13.4686 70.7242 13.4525L70.7173 20.4799C70.7381 21.1307 70.8737 21.9177 71.4876 22.2529C72.1883 22.6635 73.0491 22.4698 73.7133 22.0737V24.1173C72.983 24.458 72.1483 24.4992 71.3641 24.3898C70.2582 24.2159 69.1975 23.4379 68.8636 22.3085C68.641 21.69 68.6932 21.0213 68.688 20.3742L68.6828 13.5296L68.6324 13.4722C67.9333 13.4328 67.2326 13.4776 66.5318 13.4525C66.537 12.8089 66.5075 12.1635 66.5474 11.5218C67.2586 11.5092 67.9733 11.554 68.6828 11.4985L68.6897 7.9937H70.7155ZM77.245 7.98653C77.9179 8.00983 78.5926 7.97936 79.2638 8.00266L79.3107 8.05465C79.3368 9.21274 79.276 10.3762 79.3368 11.5325C80.2967 11.5146 81.2548 11.5289 82.2147 11.5235L82.2216 13.4418C81.2565 13.4794 80.288 13.4561 79.3229 13.4507L79.3125 20.6C79.3125 21.2221 79.4864 21.9589 80.0706 22.2655C80.787 22.6688 81.6565 22.4609 82.3225 22.0486V24.1048C81.6095 24.4347 80.8097 24.4992 80.0445 24.4078C79.0499 24.2715 78.0761 23.6925 77.6084 22.7531C77.3823 22.2619 77.2571 21.7169 77.2363 21.1737V13.4597C76.5372 13.4597 75.84 13.4615 75.1427 13.4597L75.1479 11.5164C75.8365 11.5361 76.5233 11.511 77.2119 11.5343C77.285 10.3547 77.2067 9.16793 77.2502 7.98653H77.245ZM87.0731 11.5881C88.4711 10.9911 90.083 10.9786 91.5107 11.4805C93.1452 12.0614 94.4111 13.5332 94.8754 15.238C95.1797 16.1846 95.1675 17.1885 95.124 18.1727L85.5133 18.1835C85.5933 19.2394 85.8993 20.315 86.6088 21.1056C87.6191 22.3193 89.3579 22.771 90.8255 22.2942C91.8549 21.9804 92.66 21.1647 93.1887 20.2254C93.7729 20.4943 94.3415 20.8026 94.9258 21.0787C94.1294 22.6455 92.6792 23.8897 90.9751 24.2249C89.577 24.4938 88.0468 24.501 86.7635 23.7893C85.0994 22.9359 83.9535 21.2006 83.6266 19.3344C83.3884 17.9002 83.4632 16.3836 83.9866 15.0211C84.536 13.526 85.6454 12.2335 87.0731 11.5881ZM87.8329 13.388C86.6575 13.9473 85.8993 15.1914 85.6628 16.475L93.0339 16.4517C92.9174 15.6127 92.627 14.7612 92.0323 14.1535C90.9873 12.9989 89.2032 12.7749 87.8347 13.388H87.8329ZM99.4973 13.5529C100.268 11.6257 102.631 10.6146 104.5 11.4214V13.6712C103.716 13.3521 102.836 13.1549 102.006 13.4077C100.874 13.7555 100.036 14.797 99.7146 15.9426C99.4938 16.717 99.5773 17.5238 99.586 18.3179C99.499 19.3451 99.6294 20.3724 99.5633 21.3996C99.6155 22.287 99.5164 23.1726 99.5894 24.06C98.9026 24.094 98.2157 24.0582 97.5306 24.0815C97.4906 21.405 97.5254 18.7285 97.5132 16.0519L97.5289 11.5451C98.1722 11.563 98.8174 11.5433 99.4625 11.5594C99.5216 12.2245 99.3912 12.8914 99.4973 13.5547V13.5529ZM53.8502 11.5182C54.5353 11.5486 55.2239 11.4769 55.9056 11.5558L55.8951 19.0153C55.8882 19.9278 56.0151 20.9227 56.6255 21.6309C57.4149 22.5326 58.7521 22.6975 59.8319 22.3408C61.2752 21.8083 62.282 20.2325 62.2229 18.6585L62.2455 11.5182L64.306 11.5235L64.2939 24.0492C63.6401 24.0385 62.988 24.0492 62.3359 24.0421L62.329 22.2601C61.9064 22.8069 61.463 23.3626 60.8561 23.7068C59.6146 24.5135 58.0409 24.6211 56.6516 24.207C55.7543 23.9273 54.9753 23.2801 54.5249 22.434C53.9911 21.5036 53.8572 20.4028 53.8259 19.3416L53.8502 11.52V11.5182Z" fill="white"/>
<path d="M7.20856 21.9069L11.7035 17.2799L16.2124 21.8998L16.2315 21.9195L11.7053 26.5429L7.21029 21.9069H7.20856Z" fill="#CECECE"/>
<path d="M11.7035 26.5429L16.2298 21.9195L24.0495 29.9885C21.1039 29.9956 18.16 29.9867 15.216 29.9939C15.0474 30.0333 14.9448 29.8737 14.837 29.7769L11.7035 26.5429Z" fill="#6F6F6F"/>
</svg>
