<svg width="66" height="24" viewBox="0 0 66 24" fill="none" xmlns="http://www.w3.org/2000/svg">
<path d="M28.2881 20.1237C28.2881 20.1237 31.2016 19.8648 31.2016 15.971C31.2016 12.0773 27.6718 11.7159 27.6718 11.7159H21.3126V23.9983H24.5099V21.0358L27.2739 23.9983H32.0025L28.2881 20.1219V20.1237ZM35.8463 11.8028C33.5323 11.8028 32.7498 13.9729 32.7498 15.0067V24H35.9974V21.8472H39.0452V24H42.192V15.0067C42.192 12.3883 39.8949 11.8028 39.0956 11.8028H35.8463ZM43.6731 11.8028H47.0534V24H43.6731V11.8028ZM51.7989 20.8482V11.8028H48.4354V24H56.3445V20.8482H51.7989ZM57.4595 20.8812V24H62.9035C64.0185 24 65.9345 23.1556 66 20.7961V19.5902C66 17.5747 64.4014 16.3863 62.9035 16.3863H60.1899V14.939H65.5684V11.8028H60.4065C59.0749 11.8028 57.2933 12.9409 57.2933 15.0589V16.1431C57.2933 18.2628 59.0581 19.347 60.4065 19.347C64.1529 19.3644 59.5081 19.347 62.9707 19.347V20.8638L57.4595 20.8812ZM1.16538 23.9826H14.3187C14.3187 23.9826 11.8049 12.1121 20.1305 7.30616C21.9457 6.39398 27.7222 2.98154 37.1796 10.2182C37.3676 10.0566 37.5624 9.90024 37.7623 9.75255C37.7623 9.75255 29.1042 0.81141 19.4638 1.81047C14.6193 2.25874 8.65805 6.82314 5.16192 12.854C1.66578 18.8831 1.16538 23.9826 1.16538 23.9826ZM14.8191 20.5372C14.8527 21.4494 14.935 22.1913 15.0189 22.7073L17.0172 23.4475C16.8677 22.7751 16.7183 22.0175 16.6175 21.2078L14.8191 20.5354V20.5372ZM38.1115 14.7148C39.0099 14.7148 39.0267 15.3872 39.0267 15.3872V18.367H35.9789V15.3872C35.9789 15.3872 35.9789 14.7148 36.9949 14.7148H38.1115ZM2.7472 15.6791L0.832892 14.9546C0.517199 15.6948 0.166243 16.5566 0 17.0222L1.91431 17.7468C2.13093 17.1612 2.48021 16.3168 2.7472 15.6791ZM27.0556 17.6078H24.5082V14.8H27.0724C27.0724 14.8 27.7877 15.0762 27.7877 16.1952C27.7877 17.3141 27.0556 17.6078 27.0556 17.6078ZM15.0676 16.1604L16.416 17.2637C16.4832 16.5913 16.5991 15.9207 16.7653 15.2482L15.5664 14.2666C15.3497 14.9042 15.2003 15.5419 15.0659 16.1622L15.0676 16.1604ZM17.4823 10.6126L18.2817 11.8532C18.5654 11.4223 18.8979 11.0261 19.264 10.63L18.5151 9.45892C18.1406 9.8151 17.7964 10.2008 17.4823 10.6143V10.6126ZM7.77478 7.97683L6.59261 6.90827C6.15937 7.33917 5.74293 7.77007 5.36006 8.19923L6.64131 9.33729C6.9973 8.86469 7.37345 8.40947 7.7731 7.97683H7.77478ZM21.6267 7.3913L22.0095 8.57974C22.4915 8.33823 22.9751 8.13147 23.4587 7.97683L23.0926 6.83877C22.5939 6.98994 22.1035 7.17411 21.6267 7.3913ZM26.9884 6.42699L26.9212 7.51119C27.4703 7.52856 28.0211 7.59806 28.5702 7.71795L28.6374 6.64939C28.0933 6.53471 27.5425 6.46 26.9884 6.42525V6.42699ZM14.0685 2.86165L13.3196 1.67321C12.8796 1.90777 12.4464 2.15449 12.0215 2.41338L12.7872 3.6192C13.2205 3.34468 13.6369 3.08579 14.0702 2.86165H14.0685ZM28.5702 2.77478L28.6374 1.62108C28.4879 1.53421 28.0715 1.32745 27.0237 1.01817L26.9565 2.15623C27.5056 2.34562 28.0379 2.55238 28.5702 2.77652V2.77478ZM20.9936 1.05118L20.6611 0C20.1456 0 19.6133 0.0347499 19.0625 0.102512L19.3782 1.11895C19.8601 1.06856 20.3437 1.05118 20.8257 1.05118H20.9936Z" fill="white"/>
</svg>
