<svg width="34" height="30" viewBox="0 0 34 30" fill="none" xmlns="http://www.w3.org/2000/svg">
<path d="M17.2923 3.56419C18.3306 2.76488 19.3262 1.92694 20.3906 1.19526C21.5545 0.393538 22.837 -0.0990841 24.2924 0.0168269C25.4232 0.106175 26.2315 0.734026 26.8005 1.64683C27.6467 3.00636 27.6444 4.55667 27.5069 6.09008C27.4168 7.07774 27.2271 8.05815 27.0517 9.03615C27.0043 9.30419 27.0683 9.37181 27.3101 9.43942C28.8699 9.86926 30.3207 10.5575 31.6837 11.4316C32.4138 11.9001 32.9993 12.54 33.4165 13.3007C34.0068 14.3801 34.0352 15.5127 33.4545 16.6138C32.9069 17.6522 32.0559 18.3935 31.0603 18.9586C29.8726 19.6323 28.6423 20.2095 27.3148 20.5427C27.028 20.6152 26.9925 20.7577 27.0636 21.0378C27.4926 22.7354 27.6941 24.462 27.4737 26.2103C27.3125 27.4732 26.9522 28.6565 25.8238 29.4172C24.6433 30.2116 23.3845 30.0933 22.1424 29.6586C20.5613 29.1057 19.2599 28.0721 18.0177 26.9637C17.3611 26.3769 17.3587 26.3697 16.7092 26.9806C15.5002 28.118 14.1893 29.1008 12.6153 29.6417C11.1219 30.1537 9.64744 30.2454 8.41951 28.997C7.67992 28.2436 7.4002 27.2559 7.27219 26.2224C7.06358 24.5392 7.22478 22.8827 7.63014 21.2454C7.78185 20.6345 7.76288 20.6297 7.17737 20.4727C5.42319 20.0066 3.82072 19.217 2.43635 18.0241C1.23213 16.9881 0.577867 15.6865 1.00693 14.0324C1.26057 13.0496 1.95276 12.3565 2.68051 11.7263C3.89658 10.6758 5.36393 10.1083 6.85498 9.60605C7.75814 9.30178 7.75814 9.32593 7.55191 8.38174C7.175 6.65515 7.01617 4.90924 7.35516 3.16333C7.59695 1.92453 8.14691 0.842693 9.36772 0.29936C10.3088 -0.118403 11.2855 -0.0459582 12.2408 0.243819C13.5564 0.642263 14.7417 1.30634 15.7942 2.20465C16.3228 2.65622 16.8301 3.13435 17.3042 3.56177L17.2923 3.56419ZM17.3232 20.3109C17.3232 20.3109 17.3232 20.3182 17.3232 20.3206C18.1718 20.3206 19.0181 20.3182 19.8667 20.3206C20.2223 20.3206 20.4427 20.1419 20.6134 19.84C21.3103 18.6109 22.031 17.3938 22.7161 16.1574C23.3727 14.9718 23.368 14.9597 22.6924 13.7692C22.0025 12.5497 21.2772 11.352 20.5945 10.1276C20.4333 9.83787 20.2697 9.68574 19.9378 9.68332C18.3733 9.67125 16.8064 9.6471 15.2418 9.62295C14.6895 9.61571 14.2107 9.71713 14.0258 10.3522C13.9902 10.4754 13.8883 10.5768 13.8219 10.6903C13.1036 11.9532 12.3925 13.221 11.6671 14.4816C11.4609 14.8414 11.468 15.1625 11.6766 15.5248C12.5158 16.9785 13.3265 18.4467 14.1727 19.8956C14.2818 20.0815 14.5425 20.2795 14.7417 20.2892C15.5998 20.3326 16.4603 20.3085 17.3208 20.3085L17.3232 20.3109ZM18.4491 4.75952C18.6909 5.03481 18.8924 5.24248 19.0678 5.47189C19.7363 6.34846 20.393 7.23712 21.0662 8.11128C21.142 8.21029 21.2938 8.28514 21.4194 8.30446C22.6805 8.50248 23.9416 8.68359 25.2027 8.8816C25.4208 8.91541 25.5441 8.8816 25.5844 8.63046C25.6697 8.12094 25.7859 7.61624 25.8712 7.10672C26.094 5.76408 26.2197 4.42627 25.7764 3.0933C25.345 1.80137 24.5556 1.2846 23.2589 1.61543C22.6378 1.77481 22.0381 2.06942 21.4644 2.36885C20.329 2.9629 19.4116 3.85155 18.4515 4.75952H18.4491ZM16.2706 25.2299C16.1569 25.0947 16.0715 24.9981 15.9886 24.8942C15.2893 24.0032 14.571 23.1266 13.9025 22.2114C13.682 21.9095 13.4616 21.7284 13.0965 21.6753C11.8994 21.499 10.7047 21.3034 9.50758 21.1102C9.2966 21.0764 9.17334 21.0957 9.13304 21.3614C9.03111 22.0158 8.88413 22.6629 8.77746 23.3149C8.56412 24.6189 8.58782 25.906 9.06192 27.1593C9.42224 28.1083 10.2448 28.5913 11.2262 28.4585C12.0417 28.3474 12.7196 27.9224 13.4071 27.5191C14.4619 26.8985 15.3651 26.0775 16.2683 25.2323L16.2706 25.2299ZM8.57123 5.05171C8.76561 6.27602 8.95525 7.45203 9.13778 8.63046C9.17808 8.88402 9.30134 8.89126 9.52417 8.85504C10.681 8.66668 11.8402 8.48074 13.0041 8.3431C13.3976 8.29722 13.7081 8.25134 13.8456 7.80943C13.8978 7.64039 14.0353 7.49309 14.1514 7.35061C14.763 6.58995 15.3722 5.82686 16.0028 5.0831C16.2066 4.84162 16.2375 4.68707 15.9791 4.47457C15.3509 3.9578 14.7654 3.38308 14.1087 2.90736C13.3122 2.33022 12.4565 1.84001 11.4893 1.60577C10.2567 1.30634 9.39142 1.76274 9.02162 2.9798C8.81539 3.65595 8.7182 4.36832 8.5736 5.05171H8.57123ZM32.4162 15.2108C32.3569 14.3246 31.9658 13.7692 31.4538 13.2935C30.1192 12.0547 28.4645 11.4413 26.7886 10.8811C26.7222 10.8593 26.5444 11.0139 26.5018 11.1201C26.0348 12.3131 25.5796 13.5108 25.1364 14.7134C25.0795 14.8679 25.07 15.0804 25.1269 15.2326C25.5702 16.4206 26.049 17.5967 26.4852 18.7872C26.5942 19.0866 26.7199 19.159 26.9972 19.0407C27.9454 18.6399 28.9197 18.297 29.8418 17.8406C30.6762 17.4276 31.4206 16.8481 31.9705 16.0657C32.1768 15.7711 32.3048 15.4209 32.4138 15.2084L32.4162 15.2108ZM18.4776 25.2806C19.0394 25.7563 19.5941 26.2538 20.1749 26.7174C21.0828 27.4418 22.0689 28.0431 23.1783 28.3812C24.3825 28.7483 25.39 28.2001 25.7361 26.9734C25.9068 26.3673 26.0063 25.7297 26.049 25.0995C26.132 23.8438 25.8594 22.6219 25.6081 21.4C25.5441 21.0885 25.4184 21.0692 25.1506 21.1175C24.1905 21.2937 23.2305 21.499 22.2609 21.5883C21.5474 21.656 20.9643 21.8178 20.6632 22.5446C20.63 22.6267 20.5542 22.6919 20.4973 22.7644C19.8406 23.5854 19.1816 24.404 18.4776 25.2806ZM8.08053 10.8086C6.516 11.3109 4.99887 11.9074 3.69983 12.9433C3.30632 13.2572 2.97682 13.6702 2.66866 14.0759C2.2633 14.612 2.21826 15.2157 2.60465 15.7807C2.88437 16.1912 3.19965 16.5921 3.56234 16.9278C4.78315 18.0579 6.31924 18.5626 7.83874 19.0866C8.06631 19.1639 8.14928 19.0528 8.22276 18.8355C8.55937 17.8719 8.86043 16.8915 9.28949 15.9715C9.60477 15.2929 9.64507 14.7424 9.3132 14.0445C8.82961 13.023 8.49774 11.9267 8.07816 10.8062L8.08053 10.8086ZM10.5553 16.8167C10.3041 17.5363 10.0765 18.169 9.86078 18.8065C9.6024 19.5647 9.60714 19.5671 10.3965 19.7338C10.4605 19.7483 10.5222 19.7724 10.5862 19.7821C11.1646 19.8811 11.7453 19.9753 12.4115 20.0863C11.7619 18.9441 11.1764 17.9082 10.5553 16.8143V16.8167ZM25.1435 10.4343C24.1976 10.2556 23.2992 10.0842 22.3534 9.90548C22.9673 11.0163 23.5434 12.0619 24.1644 13.1896C24.5105 12.2165 24.8116 11.3616 25.1411 10.4343H25.1435ZM22.3534 20.0646C23.2234 19.9173 24.0032 19.7845 24.7855 19.6541C24.9918 19.6203 25.1435 19.5599 25.0463 19.2943C24.7571 18.495 24.475 17.6933 24.1739 16.8481C23.5671 17.9202 22.9816 18.9562 22.3534 20.067V20.0646ZM17.3658 24.0708C17.9987 23.327 18.5795 22.646 19.2314 21.8781H15.5121C16.1426 22.6243 16.7234 23.3101 17.3658 24.0708ZM9.5858 10.4343C9.92242 11.3689 10.2282 12.2189 10.5648 13.151C11.1883 12.0402 11.7619 11.0139 12.3783 9.91514C11.4182 10.0938 10.5198 10.2605 9.5858 10.4367V10.4343ZM19.1674 8.07023C18.5866 7.37476 18.0722 6.7614 17.5602 6.14804C17.399 5.95485 17.271 5.99107 17.1217 6.17943C16.6879 6.72518 16.2375 7.25885 15.7965 7.80218C15.7373 7.87463 15.6994 7.96156 15.6353 8.07264H19.1674V8.07023Z" fill="white"/>
<path d="M17.3326 18.0193C15.6851 18.0217 14.3742 16.7177 14.3719 15.0684C14.3695 13.4166 15.6472 11.9991 17.1383 11.9991C19.056 11.9991 20.3764 13.2355 20.3527 15.0466C20.3313 16.6839 19.075 18.0845 17.3326 18.0193Z" fill="white"/>
</svg>
