<svg width="56" height="32" viewBox="0 0 56 32" fill="none" xmlns="http://www.w3.org/2000/svg">
<path d="M27.8167 19.9062C27.8593 21.7078 28.9358 22.4544 30.2717 22.4544C31.2185 22.4544 31.7801 22.2786 32.2524 22.0594L32.4673 23.0253C31.9929 23.2446 31.2185 23.5093 30.0548 23.5093C27.8593 23.5093 26.5233 22.0159 26.5233 19.8172C26.5233 17.6185 27.8147 15.9059 29.8825 15.9059C32.2504 15.9059 32.8545 17.9702 32.8545 19.3332C32.8545 19.5959 32.8545 19.8173 32.8119 19.9476H27.8167V19.9041V19.9062ZM31.6077 18.9403C31.6077 18.1046 31.2631 16.7871 29.7994 16.7871C28.4634 16.7871 27.9039 18.0177 27.8187 18.9403H31.6098H31.6077ZM34.4926 12.613H35.784V23.3356H34.4926V12.613Z" fill="white"/>
<path d="M39.4452 13.9306C39.4452 14.3691 39.1432 14.7662 38.6262 14.7662C38.1518 14.7662 37.8518 14.4146 37.8518 13.9306C37.8518 13.4466 38.1964 13.095 38.6708 13.095C39.1006 13.1384 39.4452 13.49 39.4452 13.9306ZM37.9815 23.2901V15.9949H39.2729V23.2901H37.9815Z" fill="white"/>
<path d="M42.03 15.9949L43.064 17.5772C43.366 17.9722 43.5809 18.3673 43.7958 18.7644H43.8384C44.0533 18.3259 44.3128 17.9743 44.5702 17.5772L45.5616 16.0383H46.9827L44.5277 19.5546L47.0253 23.3335H45.5616L44.4851 21.7078C44.183 21.2693 43.9681 20.8721 43.7107 20.4336H43.6681C43.4532 20.8721 43.1937 21.2693 42.8937 21.7078L41.8597 23.3335H40.4386L42.9788 19.598L40.5663 16.0383H42.03V15.9949Z" fill="white"/>
<path d="M49.7398 13.9306C49.7398 14.3691 49.4378 14.7662 48.9208 14.7662C48.4464 14.7662 48.1464 14.4146 48.1464 13.9306C48.1464 13.4466 48.491 13.095 48.9654 13.095C49.3952 13.1384 49.7398 13.49 49.7398 13.9306ZM48.2761 23.2901V15.9949H49.5675V23.2901H48.2761Z" fill="white"/>
<path d="M51.7631 18.2804L51.7205 15.9949H52.8396L52.8821 17.4448H52.9247C53.2693 16.4789 54.0438 15.8625 54.9054 15.8625C55.0351 15.8625 55.1203 15.8625 55.25 15.9059V17.1366C55.1203 17.0932 54.9925 17.0932 54.8202 17.0932C53.916 17.0932 53.2693 17.7964 53.0544 18.7624C53.0119 18.9382 53.0119 19.1574 53.0119 19.3767V23.288H51.7205V18.2784H51.7631V18.2804ZM16.7477 19.9951L17.3498 19.6001C18.7284 18.4128 18.254 16.2162 15.8861 13.1405C15.9287 14.6794 16.1882 16.2596 16.4456 17.9309C16.5308 18.5907 16.6179 19.2939 16.7477 19.9951ZM3.44055 25.7949C4.21498 29.2222 6.19767 31.0672 8.4804 31.8594C9.72921 32.0787 10.978 32.0352 12.2268 31.7725C12.4417 31.6857 12.614 31.5533 12.7864 31.4209C13.2607 31.1127 13.6905 30.7177 14.0777 30.3226C12.4843 29.6194 10.8483 28.2584 9.33997 26.676C8.1763 26.5892 7.01467 26.4568 5.98075 26.3244C5.034 26.2375 4.1724 26.0617 3.44055 25.797V25.7949ZM3.09591 9.62422L3.05334 9.97585C2.7087 11.9532 2.7087 13.7548 2.96819 15.2937C3.22566 13.4487 3.6149 11.5147 4.13186 9.71316C4.217 9.45048 4.2616 9.14229 4.38932 8.8341H4.4319C4.81911 7.55997 5.25092 6.37271 5.76788 5.23096C4.73396 6.59403 3.87236 8.04397 3.09794 9.62422H3.09591ZM2.92359 28.4755C3.71829 29.4973 4.71572 30.3371 5.85303 30.9369C4.47447 29.7952 3.39798 28.037 2.92359 25.5756C1.97685 25.2675 1.24297 24.7855 0.683436 24.1691C1.07065 25.7949 1.8025 27.2448 2.92359 28.4755ZM2.79385 16.6981C2.36406 15.2047 2.19174 13.5335 2.36406 11.6016C2.10659 12.1725 1.8471 12.7889 1.58963 13.4466C0.468543 16.6981 -0.0484164 20.1254 0.42597 23.1143C0.942929 23.9044 1.71735 24.5642 2.79385 25.0048C2.44921 23.1143 2.40663 20.0386 2.79385 16.7002V16.6981ZM3.3108 25.1785C3.3108 25.2075 3.3108 25.2075 3.3108 25.1785C4.08523 25.4867 4.99143 25.6625 6.02332 25.7928C6.88492 25.9252 7.83166 26.0555 8.78044 26.101C6.79977 23.861 4.9894 21.1803 3.82776 18.9816C3.5703 18.5866 3.35338 18.146 3.13849 17.7075C2.88102 20.7832 2.96617 23.5073 3.3108 25.1785ZM15.9307 18.0157C15.6732 16.1252 15.3712 14.2367 15.3712 12.4352C12.2694 9.49184 9.21225 6.32721 9.342 1.23069C9.25685 1.31756 9.1271 1.36307 9.08453 1.44994C8.525 1.93395 8.00804 2.46138 7.49108 3.03226C6.37201 4.61458 5.51042 6.67883 4.82114 8.92097C4.43392 11.8209 7.18901 17.5337 10.8503 21.8836C12.6161 21.7967 14.469 21.2693 16.2774 20.2578C16.1922 19.5111 16.0625 18.7644 15.9327 18.0177L15.9307 18.0157ZM18.3857 27.946C17.7289 27.8136 17.0903 27.5903 16.4902 27.2862C16.1882 28.2977 15.6712 29.2636 14.9393 30.1427C15.1968 30.2295 15.4563 30.275 15.7138 30.3185C16.7051 29.7042 17.6519 28.8685 18.3837 27.946H18.3857ZM9.85693 0.83563C9.59946 5.71289 12.3546 8.8341 15.3266 11.645C12.6992 8.08534 11.1929 5.97558 11.1929 0C10.7631 0.219249 10.3313 0.52744 9.85693 0.83563ZM15.0245 26.4547C13.7331 26.674 12.3546 26.7174 11.0611 26.7174C10.7165 26.7174 10.3293 26.7174 9.98465 26.674C11.4058 28.1239 12.9141 29.3112 14.4204 29.9255C15.1948 29.0464 15.7117 28.0805 16.0564 27.0256C15.7117 26.8498 15.3671 26.674 15.0225 26.4547H15.0245ZM14.465 26.0597C13.9906 25.708 13.5182 25.313 13.129 24.9613C12.2532 24.1567 11.42 23.3066 10.6314 22.4131C8.90816 22.4565 7.27213 22.018 5.93615 21.139C5.73139 21.0169 5.54285 20.8701 5.37661 20.7005C6.49568 22.5455 7.96141 24.5228 9.51026 26.1941C11.1037 26.281 12.8269 26.2375 14.4629 26.0617L14.465 26.0597ZM16.7903 26.1031C16.7477 26.3658 16.7051 26.5871 16.6179 26.8498C17.3072 27.2014 17.9965 27.4641 18.7284 27.5096C19.3305 26.674 19.8474 25.708 20.1069 24.6966C19.2453 25.2675 18.0837 25.7515 16.7903 26.1031ZM6.19564 20.6984C7.3593 21.4451 8.73584 21.8401 10.2016 21.8856C7.18699 18.2391 4.86168 13.7569 4.3873 10.5922C3.82776 12.8323 3.61287 14.1954 3.3108 16.5244V16.5678C3.57233 17.2586 3.87439 17.935 4.21498 18.5886C4.73194 19.4677 5.37864 20.1709 6.19564 20.6984ZM16.3159 20.7853C14.6353 21.7078 12.9141 22.2352 11.2335 22.3676C11.9653 23.1577 12.6546 23.9065 13.3864 24.5642C13.9034 25.0482 14.5055 25.5301 15.1096 25.9273C15.5394 25.8404 15.9287 25.7949 16.3159 25.708C16.6179 24.1257 16.5308 22.5 16.3159 20.7873V20.7853ZM16.8754 25.5756C18.254 25.1806 19.4602 24.6531 20.3218 23.9065C20.709 22.1918 20.5793 20.3033 19.7623 18.2825C19.0304 17.0518 18.3837 15.9969 17.739 15.031C18.9027 17.2276 18.9027 18.8534 17.6539 19.9517L17.6113 19.9951C17.3538 20.1709 17.0518 20.3468 16.7923 20.5226C17.0072 22.2373 17.0944 23.9499 16.8774 25.5756H16.8754Z" fill="white"/>
</svg>
