<svg width="33" height="32" viewBox="0 0 33 32" fill="none" xmlns="http://www.w3.org/2000/svg">
<path d="M15.9352 0.000195946C14.6147 0.00542697 13.356 0.117022 12.2472 0.312314C8.98053 0.882495 8.3882 2.07691 8.3882 4.28092V7.19111H16.1062V8.16059H5.49C3.24759 8.16059 1.28197 9.4945 0.668478 12.0316C-0.0402064 14.94 -0.0719385 16.7534 0.668478 19.7909C1.21674 22.0507 2.52833 23.6619 4.77074 23.6619H7.4239V20.1745C7.4239 17.6549 9.62751 15.4317 12.2454 15.4317H19.9546C22.1 15.4317 23.8135 13.6846 23.8135 11.552V4.28092C23.8135 2.21292 22.0489 0.657561 19.9546 0.312314C18.6289 0.0943544 17.2538 -0.00503508 15.9352 0.000195946ZM11.7606 2.34021C12.5574 2.34021 13.2097 2.99409 13.2097 3.79966C13.2097 4.60524 12.5592 5.2504 11.7606 5.2504C10.962 5.2504 10.3115 4.60175 10.3115 3.79966C10.3115 2.99757 10.9603 2.34021 11.7606 2.34021Z" fill="white"/>
<path d="M24.7778 8.15885V11.5486C24.7778 14.1763 22.5249 16.389 19.9563 16.389H12.2472C10.1352 16.389 8.3882 18.1763 8.3882 20.2687V27.538C8.3882 29.6078 10.2075 30.8249 12.2472 31.4177C14.6906 32.1291 17.0334 32.2564 19.9563 31.4177C21.899 30.8615 23.8153 29.7421 23.8153 27.538V24.6296H16.1062V23.6601H27.6743C29.9184 23.6601 30.7541 22.1117 31.5333 19.7892C32.3389 17.3986 32.3054 15.0987 31.5333 12.0298C30.9797 9.82057 29.9202 8.15885 27.6743 8.15885H24.7778ZM20.4411 26.5686C21.2415 26.5686 21.8902 27.2172 21.8902 28.0193C21.8902 28.8214 21.2415 29.4788 20.4411 29.4788C19.6408 29.4788 18.992 28.8249 18.992 28.0193C18.992 27.2137 19.6425 26.5686 20.4411 26.5686Z" fill="#CECECE"/>
</svg>
