<svg width="87" height="24" viewBox="0 0 87 24" fill="none" xmlns="http://www.w3.org/2000/svg">
<path d="M79.7355 8.51834C79.5261 8.51834 79.3229 8.56127 79.1429 8.66246L73.4417 11.9158C73.0725 12.1258 72.8491 12.5229 72.8491 12.9445V19.4404C72.8491 19.8621 73.0741 20.2591 73.4417 20.4692L74.931 21.3185C75.6539 21.6712 75.9208 21.665 76.2512 21.665C77.3216 21.665 77.9344 21.0226 77.9344 19.9065V13.4934C77.9344 13.4029 77.8553 13.3385 77.7653 13.3385H77.0517C76.9602 13.3385 76.8826 13.4029 76.8826 13.4934V19.9065C76.8826 20.4017 76.3614 20.8985 75.5143 20.4799L73.9645 19.583C73.9102 19.5539 73.8683 19.5018 73.8683 19.4389V12.943C73.8683 12.8817 73.9102 12.8188 73.9645 12.7881L79.6548 9.54555C79.7076 9.51489 79.7712 9.51489 79.8239 9.54555L85.5143 12.7881C85.5685 12.8203 85.6104 12.8801 85.6104 12.9445V19.4404C85.6104 19.5018 85.5794 19.5662 85.5251 19.5953L79.8239 22.8379C79.7758 22.867 79.7076 22.867 79.6548 22.8379L78.1904 21.9763C78.1454 21.9517 78.0911 21.9517 78.0445 21.9763C77.6396 22.2032 77.5636 22.2292 77.1851 22.3595C77.092 22.3917 76.9493 22.4423 77.2332 22.5987L79.146 23.7118C79.326 23.8145 79.5307 23.8681 79.7386 23.8681C79.9465 23.8681 80.1513 23.816 80.3312 23.7133L86.0324 20.4707C86.4016 20.2591 86.625 19.8636 86.625 19.442V12.9461C86.625 12.5244 86.4016 12.1274 86.0324 11.9173L80.3312 8.66399C80.1528 8.56281 79.948 8.51988 79.7386 8.51988L79.7355 8.51834Z" fill="white"/>
<path d="M81.2605 13.1607C79.6362 13.1607 78.6697 13.8429 78.6697 14.979C78.6697 16.2101 79.63 16.5489 81.1876 16.7022C83.0523 16.8832 83.1965 17.153 83.1965 17.5163C83.1965 18.1449 82.6893 18.4132 81.4901 18.4132C79.9837 18.4132 79.6517 18.0407 79.5416 17.3002C79.5292 17.2205 79.4671 17.1561 79.3834 17.1561H78.6449C78.5534 17.1561 78.4758 17.2342 78.4758 17.3232C78.4758 18.2722 78.9971 19.3929 81.4901 19.3929C83.2943 19.3929 84.3352 18.6938 84.3352 17.4673C84.3352 16.2408 83.4944 15.9249 81.7445 15.6965C79.976 15.465 79.8069 15.3516 79.8069 14.9422C79.8069 14.6049 79.9496 14.1526 81.2589 14.1526C82.4286 14.1526 82.8615 14.4025 83.0383 15.1814C83.0538 15.255 83.119 15.3132 83.195 15.3132H83.9334C83.9784 15.3132 84.0234 15.2856 84.0544 15.2534C84.0855 15.2197 84.1072 15.1798 84.1025 15.1338C83.9877 13.7908 83.0817 13.1592 81.2574 13.1592L81.2605 13.1607Z" fill="white"/>
<path d="M46.2157 0.0002154C46.1521 0.0002154 46.0901 0.0170799 46.0342 0.0477428C45.9225 0.112135 45.8527 0.230187 45.8527 0.35897V9.51182C45.8527 9.60228 45.8108 9.682 45.7317 9.72646C45.6526 9.77092 45.5564 9.77092 45.4773 9.72646L43.9647 8.86483C43.7398 8.73605 43.4637 8.73605 43.2387 8.86483L37.1978 12.3098C36.9713 12.4386 36.8348 12.687 36.8348 12.9445V19.836C36.8348 20.0936 36.9729 20.3297 37.1978 20.4584L43.2387 23.9034C43.4637 24.0322 43.7398 24.0322 43.9647 23.9034L50.0057 20.4584C50.2306 20.3297 50.3687 20.0936 50.3687 19.836V2.65562C50.3687 2.39345 50.2244 2.15121 49.9932 2.02089L46.3972 0.0354776C46.3414 0.00481482 46.2778 -0.00131774 46.2157 0.0002154ZM7.35626 8.60267C7.24146 8.60727 7.13286 8.6272 7.02893 8.68699L0.988013 12.132C0.763069 12.2592 0.625 12.4968 0.625 12.7529L0.637411 22.0008C0.637411 22.1296 0.704118 22.2492 0.818917 22.312C0.930614 22.3779 1.07023 22.3779 1.18193 22.312L4.76552 20.2775C4.99202 20.1441 5.14095 19.9126 5.14095 19.6551V15.3362C5.14095 15.0787 5.27746 14.8426 5.50396 14.7138L7.02893 13.8399C7.13907 13.777 7.26473 13.7433 7.39194 13.7448C7.51605 13.7448 7.64481 13.7755 7.75495 13.8399L9.27992 14.7138C9.50486 14.841 9.64448 15.0787 9.64293 15.3362V19.6551C9.64293 19.9126 9.79341 20.1457 10.0184 20.2775L13.6019 22.312C13.7136 22.3779 13.8533 22.3779 13.965 22.312C14.0767 22.2476 14.1465 22.1296 14.1465 22.0008L14.1589 12.7529C14.1589 12.4953 14.0208 12.2577 13.7959 12.1304L7.75495 8.68546C7.65256 8.62566 7.54397 8.60573 7.42762 8.60113H7.35471L7.35626 8.60267ZM61.6376 8.68699C61.5119 8.68699 61.3878 8.71919 61.2746 8.78205L55.2337 12.227C55.0087 12.3543 54.8707 12.5919 54.8707 12.8495V19.7409C54.8707 20 55.018 20.2346 55.2461 20.3634L61.2389 23.7378C61.4607 23.862 61.7307 23.8727 61.9525 23.7501L65.5842 21.7524C65.699 21.6896 65.7781 21.5715 65.7781 21.4412C65.7781 21.3124 65.7099 21.1928 65.5966 21.13L59.52 17.685C59.4068 17.6206 59.3261 17.4903 59.3261 17.3615V15.2074C59.3261 15.0787 59.4068 14.9606 59.52 14.8962L61.408 13.8199C61.5197 13.7556 61.6593 13.7556 61.771 13.8199L63.659 14.8962C63.7722 14.9606 63.8405 15.0787 63.8405 15.2074V16.9062C63.8405 17.0349 63.9088 17.153 64.022 17.2174C64.1353 17.2818 64.2718 17.2818 64.385 17.2174L68.0043 15.1354C68.2292 15.0066 68.3673 14.7705 68.3673 14.5129V12.8495C68.3673 12.5919 68.2292 12.3558 68.0043 12.227L62.0006 8.78205C61.8905 8.71919 61.7648 8.68546 61.6376 8.68699ZM43.5754 13.8322C43.6064 13.8322 43.6436 13.8399 43.6715 13.8567L45.741 15.0419C45.7969 15.0741 45.8372 15.1338 45.8372 15.1967V17.5654C45.8372 17.6298 45.7969 17.6896 45.741 17.7218L43.6715 18.9069C43.6157 18.9391 43.5459 18.9391 43.49 18.9069L41.4206 17.7218C41.3647 17.6896 41.3244 17.6298 41.3244 17.5654V15.1967C41.3244 15.1323 41.3647 15.0741 41.4206 15.0419L43.49 13.8583C43.5149 13.8429 43.5443 13.8337 43.5754 13.8337V13.8322Z" fill="#CECECE"/>
<path d="M25.5023 8.6502C25.3766 8.6502 25.2525 8.68239 25.1393 8.74525L19.0983 12.1795C18.8718 12.3083 18.7353 12.5566 18.7353 12.8142V19.7057C18.7353 19.9632 18.8734 20.1993 19.0983 20.3281L25.1393 23.7731C25.3642 23.9019 25.6403 23.9019 25.8653 23.7731L31.9062 20.3281C32.1311 20.1993 32.2692 19.9632 32.2692 19.7057V12.8142C32.2692 12.5566 32.1327 12.3083 31.9062 12.1795L25.8653 8.74525C25.7551 8.68239 25.6295 8.64866 25.5023 8.6502ZM61.6252 14.7996C61.6004 14.7996 61.574 14.7996 61.5523 14.8119L60.3903 15.4819C60.3469 15.5064 60.319 15.5524 60.3174 15.6015V16.9169C60.3174 16.966 60.3469 17.0119 60.3903 17.0365L61.5523 17.6942C61.5957 17.7187 61.6423 17.7187 61.6857 17.6942L62.8476 17.0365C62.8911 17.0119 62.919 16.966 62.9206 16.9169V15.6015C62.9206 15.5524 62.8911 15.5064 62.8476 15.4819L61.6857 14.8119C61.664 14.7996 61.65 14.7996 61.6252 14.7996Z" fill="white"/>
</svg>
