<svg width="53" height="20" viewBox="0 0 53 20" fill="none" xmlns="http://www.w3.org/2000/svg">
<path d="M4.29928 6.05578C4.19801 6.05578 4.17269 6.00366 4.22333 5.92546L4.75501 5.22174C4.80564 5.14355 4.93223 5.09142 5.03351 5.09142H14.072C14.1733 5.09142 14.1986 5.16961 14.148 5.2478L13.7176 5.92546C13.6669 6.00366 13.5403 6.08185 13.4644 6.08185L4.29928 6.05578Z" fill="white"/>
<path d="M0.476272 8.45367C0.375 8.45367 0.349682 8.40154 0.400318 8.32335L0.931995 7.61962C0.982631 7.54143 1.10922 7.4893 1.21049 7.4893H12.7555C12.8568 7.4893 12.9074 7.56749 12.8821 7.64568L12.6795 8.27122C12.6542 8.37547 12.5529 8.4276 12.4517 8.4276L0.476272 8.45367Z" fill="white"/>
<path d="M6.60322 10.8516C6.50195 10.8516 6.47663 10.7734 6.52727 10.6952L6.88172 10.0436C6.93235 9.96538 7.03362 9.88718 7.1349 9.88718H12.1985C12.2998 9.88718 12.3504 9.96538 12.3504 10.0696L12.2998 10.6952C12.2998 10.7994 12.1985 10.8776 12.1225 10.8776L6.60322 10.8516Z" fill="white"/>
<path d="M32.8833 5.58663C31.2882 6.00366 30.1996 6.31642 28.6298 6.73345C28.2501 6.8377 28.2248 6.86377 27.8956 6.47281C27.5159 6.02972 27.2374 5.74302 26.7057 5.48238C25.1107 4.67439 23.5663 4.90897 22.1231 5.87334C20.4015 7.02015 19.5154 8.71431 19.5407 10.8255C19.566 12.9106 20.9585 14.6308 22.9586 14.9175C24.6802 15.1521 26.1234 14.5266 27.2627 13.1973C27.4905 12.9106 27.6931 12.5978 27.9463 12.2329H23.0599C22.5282 12.2329 22.4016 11.8941 22.5789 11.451C22.908 10.643 23.5156 9.28771 23.8701 8.61005C23.946 8.45367 24.1233 8.19303 24.503 8.19303H33.7188C33.6681 8.89675 33.6681 9.60048 33.5669 10.3042C33.2884 12.1808 32.6048 13.901 31.4908 15.4127C29.6679 17.8888 27.288 19.4266 24.2752 19.8436C21.794 20.1824 19.4901 19.6872 17.4646 18.1234C15.5911 16.6638 14.5277 14.7351 14.2492 12.3372C13.9201 9.49623 14.7303 6.94196 16.4013 4.70046C18.1988 2.27651 20.5787 0.738738 23.4903 0.191395C25.8702 -0.251693 28.1488 0.0350109 30.1996 1.46853C31.5414 2.38077 32.5035 3.63184 33.1364 5.14355C33.2884 5.37812 33.1871 5.50844 32.8833 5.58663Z" fill="white"/>
<path d="M41.2635 20C38.9596 19.9479 36.8582 19.2702 35.0859 17.7064C33.5922 16.3771 32.6554 14.683 32.3516 12.676C31.8959 9.7308 32.6807 7.12441 34.4023 4.80471C36.2506 2.30257 38.4785 0.999377 41.4914 0.452034C44.0738 -0.017117 46.5043 0.243522 48.707 1.7813C50.7071 3.18875 51.9477 5.09142 52.2768 7.59356C52.7072 11.1122 51.7198 13.9792 49.3653 16.4292C47.6943 18.1755 45.6435 19.2702 43.2889 19.7654C42.6054 19.8957 41.9218 19.9218 41.2635 20ZM47.2892 9.47016C47.2639 9.13133 47.2639 8.87069 47.2132 8.61005C46.7575 6.02972 44.4536 4.57014 42.0484 5.14355C39.6938 5.69089 38.1747 7.22866 37.6177 9.67867C37.162 11.7117 38.1241 13.7707 39.947 14.6048C41.3395 15.2303 42.732 15.1521 44.0738 14.4484C46.0739 13.3798 47.1626 11.7117 47.2892 9.47016Z" fill="white"/>
</svg>
