<svg width="51" height="18" viewBox="0 0 51 18" fill="none" xmlns="http://www.w3.org/2000/svg">
<path d="M2.95068 16.6055C2.95068 16.9836 2.80549 17.3115 2.51511 17.5869C2.22472 17.8623 1.87111 18 1.45661 18C1.04211 18 0.707227 17.8623 0.423868 17.5869C0.140509 17.3115 0 16.9836 0 16.6055C0 16.2273 0.140509 15.8885 0.423868 15.6175C0.707227 15.3443 1.05147 15.2109 1.45661 15.2109C1.86174 15.2109 2.22472 15.3486 2.51511 15.624C2.80783 15.8995 2.95068 16.2273 2.95068 16.6077" fill="white"/>
<path d="M21.4791 17.718H18.7813L8.98319 3.59563C8.7537 3.25683 8.55698 2.88743 8.38837 2.48306H8.30875C8.37901 2.8612 8.41413 3.67213 8.41413 4.91585V17.7158H6.18941V0H9.07687L18.5799 13.8995C18.9593 14.4503 19.2169 14.8459 19.3481 15.0842H19.4019C19.3129 14.5749 19.2684 13.7049 19.2684 12.4787V0H21.4791V17.718Z" fill="white"/>
<path d="M35.7431 17.718H25.6827V0H35.3052V1.8776H27.905V7.77049H34.7619V9.64809H27.905V15.8383H35.7431V17.718Z" fill="white"/>
<path d="M51 1.8776H45.5319V17.7158H43.3071V1.8776H37.8296V0H51V1.8776Z" fill="white"/>
</svg>
